<?xml version="1.0" standalone="no"?>
<!DOCTYPE svg PUBLIC "-//W3C//DTD SVG 1.1//EN" "http://www.w3.org/Graphics/SVG/1.1/DTD/svg11.dtd" >
<svg xmlns="http://www.w3.org/2000/svg" xmlns:xlink="http://www.w3.org/1999/xlink" version="1.1">
<metadata>
Created by FontForge 20190801 at Wed Oct  7 17:37:54 2020
 By root
Copyright (c) 2016 by Deni Anggara. All rights reserved.
</metadata>
<defs>
<font id="Biotif-Light" horiz-adv-x="0" >
  <font-face 
    font-family="Biotif Light"
    font-weight="300"
    font-stretch="normal"
    units-per-em="2048"
    panose-1="2 0 4 0 0 0 0 0 0 0"
    ascent="1579"
    descent="-469"
    x-height="983"
    cap-height="1454"
    bbox="-1069 -492 3047 2044"
    underline-thickness="163"
    underline-position="-562"
    unicode-range="U+0020-FB02"
  />
<missing-glyph horiz-adv-x="1089" 
d="M893 -416h-690v2177h690v-2177zM367 1616v-72h141v-82h-143v-71h360v71h-143v82h143v72h-358zM365 1335v-227h360v74h-143v153h-217zM508 1182h-72v80h72v-80zM365 1049v-72h143v-80h-143v-72h217v152h143v72h-360zM653 920v-146h-288v-74h360v220h-72zM508 653v-123h74
v52h71v-103h-217v174h-71v-245h360v245h-217zM365 276v-245h360v245h-360zM653 102h-217v103h217v-103zM365 -20v-72h151l-151 -103v-71h360v71h-221l151 103h70v72h-360z" />
    <glyph glyph-name="fi" unicode="fi" horiz-adv-x="1013" 
d="M842 983v-983h-94v905h-459v-905h-94v905h-154v78h154v221q0 134 71 204.5t183 70.5q24 0 81 -11v-84q-47 7 -71 7q-89 0 -129.5 -47t-40.5 -140v-221h553zM893 1352q0 -43 -28.5 -71t-71.5 -28t-71 28t-28 71t28.5 72.5t70.5 29.5q43 0 71.5 -29.5t28.5 -72.5z" />
    <glyph glyph-name="fl" unicode="fl" horiz-adv-x="985" 
d="M821 1479v-1479h-94v905h-438v-905h-94v905h-154v78h154v221q0 134 71 204.5t183 70.5q24 0 81 -11v-84q-47 7 -71 7q-89 0 -129.5 -47t-40.5 -140v-221h438v496h94z" />
    <glyph glyph-name="f_f" unicode="ff" horiz-adv-x="1155" 
d="M1032 1391q-89 0 -129.5 -47t-40.5 -140v-221h207v-78h-207v-905h-94v905h-469v-905h-94v905h-154v78h154v221q0 134 71 204.5t183 70.5q25 0 82 -11v-84q-47 7 -72 7q-89 0 -129.5 -47t-40.5 -140v-221h469v221q0 134 71 204.5t183 70.5q25 0 82 -11v-84q-47 7 -72 7z
" />
    <glyph glyph-name="f_f_i" unicode="ffi" horiz-adv-x="1576" 
d="M1405 983v-983h-94v905h-459v-905h-94v905h-469v-905h-94v905h-154v78h154v221q0 134 71 204.5t183 70.5q24 0 81 -11v-84q-47 7 -71 7q-89 0 -129.5 -47t-40.5 -140v-221h469v221q0 134 71 204.5t183 70.5q25 0 82 -11v-84q-47 7 -72 7q-89 0 -129.5 -47t-40.5 -140
v-221h553zM1456 1352q0 -43 -28.5 -71t-71.5 -28t-71 28t-28 71t28.5 72.5t70.5 29.5q43 0 71.5 -29.5t28.5 -72.5z" />
    <glyph glyph-name="f_f_l" unicode="ffl" horiz-adv-x="1548" 
d="M1384 1479v-1479h-94v905h-438v-905h-94v905h-469v-905h-94v905h-154v78h154v221q0 134 71 204.5t183 70.5q24 0 81 -11v-84q-47 7 -71 7q-89 0 -129.5 -47t-40.5 -140v-221h469v221q0 134 71 204.5t183 70.5q25 0 82 -11v-84q-47 7 -72 7q-89 0 -129.5 -47t-40.5 -140
v-221h438v496h94z" />
    <glyph glyph-name="f_t" unicode="ft" horiz-adv-x="1118" 
d="M1096 905h-242v-905h-94v905h-471v-905h-94v905h-154v78h154v221q0 134 71 204.5t183 70.5q24 0 81 -11v-84q-47 7 -71 7q-89 0 -129.5 -47t-40.5 -140v-221h471v311h94v-311h242v-78z" />
    <glyph glyph-name="f_y" unicode="fy" horiz-adv-x="1529" 
d="M1509 983l-450 -1223q-36 -97 -103 -145.5t-155 -48.5q-95 0 -172 53l28 86q57 -47 142 -47q125 0 170 121l55 151l-389 975h-346v-905h-94v905h-154v78h154v221q0 134 71 204.5t183 70.5q24 0 81 -11v-84q-47 7 -71 7q-89 0 -129.5 -47t-40.5 -140v-221h418l364 -926
l338 926h100z" />
    <glyph glyph-name="t_i" unicode="ti" horiz-adv-x="997" 
d="M885 1352q0 -43 -29 -71t-72 -28t-70.5 28t-27.5 71t28 72.5t70 29.5q43 0 72 -29.5t29 -72.5zM834 983v-983h-95v905h-405v-905h-94v905h-199v78h199v311h94v-311h500z" />
    <glyph glyph-name="t_t" unicode="tt" horiz-adv-x="1146" 
d="M1106 905h-199v-905h-94v905h-199h-280v-905h-94v905h-199v78h199v311h94v-311h344h135v311h94v-311h199v-78z" />
    <glyph glyph-name="t_y" unicode="ty" horiz-adv-x="1445" 
d="M1425 983l-450 -1223q-36 -96 -103.5 -145t-152.5 -49q-95 0 -172 53l28 86q57 -47 142 -47q125 0 170 121l55 151l-389 975h-219v-905h-94v905h-199v78h199v311h94v-311h284h7l358 -942l342 942h100z" />
    <glyph glyph-name=".notdef" horiz-adv-x="1089" 
d="M893 -416h-690v2177h690v-2177zM367 1616v-72h141v-82h-143v-71h360v71h-143v82h143v72h-358zM365 1335v-227h360v74h-143v153h-217zM508 1182h-72v80h72v-80zM365 1049v-72h143v-80h-143v-72h217v152h143v72h-360zM653 920v-146h-288v-74h360v220h-72zM508 653v-123h74
v52h71v-103h-217v174h-71v-245h360v245h-217zM365 276v-245h360v245h-360zM653 102h-217v103h217v-103zM365 -20v-72h151l-151 -103v-71h360v71h-221l151 103h70v72h-360z" />
    <glyph glyph-name=".null" 
 />
    <glyph glyph-name="nonmarkingreturn" horiz-adv-x="682" 
 />
    <glyph glyph-name="space" unicode=" " horiz-adv-x="573" 
 />
    <glyph glyph-name="exclam" unicode="!" horiz-adv-x="593" 
d="M262 315q-12 193 -12 486v653h94v-653q0 -293 -12 -486h-70zM184 88q0 47 34 80t79 33q47 0 80 -33t33 -80q0 -44 -34.5 -77.5t-78.5 -33.5t-78.5 33.5t-34.5 77.5z" />
    <glyph glyph-name="quotedbl" unicode="&#x22;" horiz-adv-x="546" 
d="M188 965h-73l-33 362q-1 37 19 58.5t51 21.5q30 0 49 -21.5t18 -58.5zM434 965h-74l-32 362q-1 37 18.5 58.5t50.5 21.5q30 0 49.5 -21.5t18.5 -58.5z" />
    <glyph glyph-name="numbersign" unicode="#" horiz-adv-x="1343" 
d="M1004 907l-70 -360h223l-16 -96h-228l-88 -451h-96l90 451h-399l-88 -451h-96l88 451h-222l17 96h223l72 360h-260l16 97h262l88 450h96l-88 -450h400l90 450h94l-88 -450h217l-16 -97h-221zM909 907h-399l-72 -360h400z" />
    <glyph glyph-name="dollar" unicode="$" horiz-adv-x="1304" 
d="M1137 360q0 -165 -118.5 -269t-320.5 -114v-159h-90v159q-192 11 -313 108.5t-141 258.5l96 16q13 -131 109.5 -208.5t248.5 -88.5v635l-57 17q-168 45 -253 138t-85 245q0 147 109.5 256t285.5 127v139h90v-137q172 -11 295 -100.5t158 -235.5l-92 -29
q-26 121 -124.5 196t-236.5 83v-625l70 -20q177 -50 273 -144t96 -248zM608 797v596q-134 -19 -217.5 -102t-83.5 -193q0 -112 63 -182.5t201 -108.5zM1040 352q0 121 -76 194.5t-216 112.5l-50 15v-613q160 10 251 91t91 200z" />
    <glyph glyph-name="percent" unicode="%" horiz-adv-x="1796" 
d="M113 1100q0 171 82 275.5t223 111.5q156 12 253 -96.5t97 -290.5q0 -170 -82.5 -274.5t-222.5 -112.5q-161 -12 -254 94q-96 110 -96 293zM1520 1454l-1110 -1454h-113l1108 1454h115zM440 815q98 2 161 81.5t63 203.5t-62.5 202t-161.5 80q-99 -2 -161 -80t-62 -202
t62.5 -203.5t160.5 -81.5zM1399 -29q-160 -12 -254 95q-96 110 -96 292q0 171 82 275.5t223 111.5q156 12 253 -96.5t97 -290.5q0 -170 -82.5 -274.5t-222.5 -112.5zM1599 358q0 124 -62.5 202.5t-160.5 80.5q-98 -2 -160.5 -80.5t-62.5 -202.5t62.5 -203t160.5 -81
q98 2 160.5 81t62.5 203z" />
    <glyph glyph-name="ampersand" unicode="&#x26;" horiz-adv-x="1347" 
d="M1186 0l-129 158q-150 -178 -449 -178q-237 0 -367 110t-130 301q0 153 88.5 262.5t275.5 210.5q-103 115 -143 185q-39 68 -39 153q0 121 84 199t215 78q129 0 211 -76t82 -195q0 -204 -271 -364l435 -529q47 115 47 277q0 6 -4 104h94q4 -50 4 -104q0 -207 -78 -354
l195 -238h-121zM389 1190q0 -57 37 -115q39 -56 135 -166q227 125 227 297q0 83 -53 134t-143 51q-93 0 -148.5 -54t-54.5 -147zM997 229l-465 570q-155 -78 -241 -178t-86 -234q0 -150 107.5 -234.5t299.5 -84.5q270 0 385 161z" />
    <glyph glyph-name="quotesingle" unicode="'" horiz-adv-x="301" 
d="M188 965h-73l-33 362q-1 37 19 58.5t51 21.5q30 0 49 -21.5t18 -58.5z" />
    <glyph glyph-name="parenleft" unicode="(" horiz-adv-x="473" 
d="M375 -100q-125 177 -193 393q-69 223 -69 457q0 232 69 452q67 217 193 395h98q-118 -155 -188 -378.5t-74 -468.5q4 -246 74 -470.5t188 -379.5h-98z" />
    <glyph glyph-name="parenright" unicode=")" horiz-adv-x="473" 
d="M262 750q-4 245 -74 468.5t-188 378.5h98q122 -173 191 -395q71 -227 71 -452q0 -227 -71 -457q-69 -221 -191 -393h-98q118 155 188 379.5t74 470.5z" />
    <glyph glyph-name="asterisk" unicode="*" horiz-adv-x="800" 
d="M547 989l67 -102l-53 -39l-72 104q-52 68 -90 162q-28 -75 -88 -162l-73 -104l-56 39l72 102q54 78 119 146q-84 12 -180 45l-121 43l24 63l117 -43q93 -28 172 -78q-18 79 -18 187v127h65v-127q0 -112 -16 -187q82 50 168 78l118 43l27 -63l-123 -43q-91 -32 -178 -45
q50 -50 119 -146z" />
    <glyph glyph-name="plus" unicode="+" horiz-adv-x="1353" 
d="M1190 641h-463v-465h-98v465h-465v98h465v463h98v-463h463v-98z" />
    <glyph glyph-name="comma" unicode="," horiz-adv-x="471" 
d="M340 43q0 -87 -62.5 -147.5t-125.5 -57.5v56q32 2 62.5 32t31.5 70q-13 -8 -35 -8q-38 0 -63 24.5t-25 67.5q0 44 29 72t73 28q51 0 83 -36.5t32 -100.5z" />
    <glyph glyph-name="hyphen" unicode="-" horiz-adv-x="995" 
d="M862 618v-90h-729v90h729z" />
    <glyph glyph-name="period" unicode="." horiz-adv-x="512" 
d="M143 88q0 47 34 80t79 33q47 0 80 -33t33 -80q0 -44 -34.5 -77.5t-78.5 -33.5t-78.5 33.5t-34.5 77.5z" />
    <glyph glyph-name="slash" unicode="/" horiz-adv-x="663" 
d="M567 1454h97l-570 -1454h-94z" />
    <glyph glyph-name="zero" unicode="0" horiz-adv-x="1503" 
d="M750 1479q188 3 333.5 -97t222 -273t74.5 -388q0 -221 -76.5 -390t-219.5 -262.5t-332 -93.5q-143 -2 -262.5 55.5t-200 159.5t-124 242t-42.5 301q0 335 171.5 540.5t455.5 205.5zM750 70q162 0 285 88.5t187 237.5t64 333q0 136 -38.5 256t-107 207.5t-169.5 138.5
t-221 51q-158 3 -282 -86t-189.5 -239.5t-63.5 -331.5q0 -185 65 -333.5t187.5 -235t282.5 -86.5z" />
    <glyph glyph-name="one" unicode="1" horiz-adv-x="671" 
d="M127 1305l254 149h96v-1454h-96v1356l-254 -148v97z" />
    <glyph glyph-name="two" unicode="2" horiz-adv-x="1138" 
d="M233 96h783v-96h-893v127l600 535q113 100 163 187t50 191q0 152 -96 248t-260 96q-168 0 -269.5 -99.5t-101.5 -266.5h-96q0 205 132.5 333t338.5 128q137 0 241.5 -60.5t157.5 -158.5t53 -216q0 -127 -61.5 -234.5t-181.5 -213.5z" />
    <glyph glyph-name="three" unicode="3" horiz-adv-x="1161" 
d="M1059 434q0 -202 -141 -330.5t-355 -128.5q-213 0 -340 130t-127 329h99q0 -168 98.5 -267t269.5 -99q178 0 287 100q111 102 111 270q0 142 -82 234t-232 121q-54 10 -147 10h-76v76l494 479h-750v96h864v-123l-465 -438h13q134 -2 242.5 -59t172.5 -162t64 -238z" />
    <glyph glyph-name="four" unicode="4" horiz-adv-x="1202" 
d="M113 412l688 1042h117l-685 -1042h629v571h94v-571h174v-97h-174v-315h-94v315h-749v97z" />
    <glyph glyph-name="five" unicode="5" horiz-adv-x="1218" 
d="M1106 465q0 -136 -64.5 -248.5t-178.5 -177t-253 -64.5q-212 0 -354.5 140t-142.5 342h96q0 -165 114 -277t287 -112q174 0 286 114t112 285q0 170 -108.5 281.5t-291.5 111.5q-197 0 -346 -149l-94 24l180 719h678v-96h-602l-129 -512q135 106 319 106q145 0 258.5 -66
t173.5 -176.5t60 -244.5z" />
    <glyph glyph-name="six" unicode="6" horiz-adv-x="1357" 
d="M1206 485q0 -222 -145 -366t-359 -144q-271 0 -415 197q-142 201 -142 526q0 232 71 407.5t211.5 274.5t334.5 99q122 0 230.5 -40.5t189.5 -113.5l-60 -74q-156 135 -362 135q-260 0 -389 -184q-127 -186 -127 -473l2 -57q53 151 178 233q128 84 272 84q142 0 258 -63.5
t184 -179.5t68 -261zM1110 479q0 182 -120 300t-300 118q-169 0 -282 -119t-113 -299q0 -179 116.5 -295t290.5 -116q175 0 291.5 116t116.5 295z" />
    <glyph glyph-name="seven" unicode="7" horiz-adv-x="1024" 
d="M973 1454v-102q-286 -247 -420 -543q-138 -302 -164 -492q-27 -193 -27 -317h-96q0 121 27 315q26 186 156 488q126 292 389 549h-787v102h922z" />
    <glyph glyph-name="eight" unicode="8" horiz-adv-x="1267" 
d="M1135 387q0 -183 -142.5 -297.5t-357.5 -114.5q-218 0 -360 115t-142 299q0 135 78 237t213 146q-115 44 -177.5 133t-62.5 205q0 167 128 268t323 101q192 0 319 -100.5t127 -268.5q0 -118 -61 -206t-176 -132q135 -38 213 -143.5t78 -241.5zM635 827q163 0 257.5 76.5
t94.5 206.5t-97 203t-255 73t-257 -72.5t-99 -199.5q0 -129 95.5 -208t260.5 -79zM1038 397q0 151 -114 234q-113 82 -291 82q-176 0 -289 -82q-113 -79 -113 -232q0 -154 115 -243q116 -88 291 -88q174 0 287 88q114 88 114 241z" />
    <glyph glyph-name="nine" unicode="9" horiz-adv-x="1327" 
d="M1184 756q0 -232 -71 -407.5t-211.5 -274.5t-334.5 -99q-122 0 -230.5 40.5t-189.5 113.5l60 74q156 -135 362 -135q261 0 387 184q129 185 129 473l-2 57q-54 -154 -178 -235q-125 -82 -272 -82q-142 0 -258 63.5t-184 179.5t-68 261q0 222 145 366t359 144
q272 0 413 -199q144 -196 144 -524zM1034 975q0 179 -116.5 295t-290.5 116q-175 0 -291.5 -116t-116.5 -295q0 -182 120 -300t300 -118q169 0 282 119t113 299z" />
    <glyph glyph-name="colon" unicode=":" horiz-adv-x="634" 
d="M205 870q0 47 33.5 80t78.5 33q47 0 80 -33t33 -80q0 -44 -34 -77t-79 -33q-44 0 -78 33t-34 77zM205 88q0 47 33.5 80t78.5 33q47 0 80 -33t33 -80q0 -44 -34.5 -77.5t-78.5 -33.5t-78 33.5t-34 77.5z" />
    <glyph glyph-name="semicolon" unicode=";" horiz-adv-x="471" 
d="M123 870q0 47 34 80t79 33q47 0 79.5 -33t32.5 -80q0 -44 -34 -77t-78 -33q-45 0 -79 33t-34 77zM340 43q0 -87 -62.5 -147.5t-125.5 -57.5v56q32 2 62.5 32t31.5 70q-13 -8 -35 -8q-38 0 -63 24.5t-25 67.5q0 44 29 72t73 28q51 0 83 -36.5t32 -100.5z" />
    <glyph glyph-name="less" unicode="&#x3c;" horiz-adv-x="839" 
d="M72 545l665 409v-94l-590 -362l590 -363v-94l-665 410v94z" />
    <glyph glyph-name="equal" unicode="=" horiz-adv-x="976" 
d="M874 856v-94h-772v94h772zM102 442h772v-94h-772v94z" />
    <glyph glyph-name="greater" unicode="&#x3e;" horiz-adv-x="839" 
d="M102 135l590 363l-590 362v94l666 -409v-94l-666 -410v94z" />
    <glyph glyph-name="question" unicode="?" horiz-adv-x="1021" 
d="M950 1044q0 -171 -123 -294q-57 -54 -131 -111q-106 -81 -148 -136t-42 -130v-58h-92v58q3 59 16.5 103t47 85t63.5 68t94 78q62 50 88.5 72.5t55.5 57t48 72.5q31 60 31 135q0 144 -97 243t-249 99q-141 0 -243.5 -101.5t-102.5 -240.5h-94q0 118 59.5 218.5t161 158.5
t219.5 58q195 0 316.5 -124.5t121.5 -310.5zM580 84q0 -44 -33.5 -78.5t-77.5 -34.5q-47 0 -81 33t-34 80t34 80t81 33q44 0 77.5 -34.5t33.5 -78.5z" />
    <glyph glyph-name="at" unicode="@" horiz-adv-x="1869" 
d="M1767 748q0 -247 -116.5 -415.5t-286.5 -168.5q-91 0 -140.5 50.5t-49.5 131.5q0 5 4 41q-49 -90 -153.5 -145.5t-221.5 -55.5q-158 0 -258.5 105.5t-100.5 281.5q0 33 9 97q31 204 166 335.5t319 131.5q124 0 212 -61.5t118 -172.5l39 211h84l-125 -721q-1 -9 -2 -19.5
t-1.5 -16t-0.5 -9.5q0 -104 110 -104q79 0 148 68t110 186t41 256q0 184 -81.5 331.5t-232 231.5t-343.5 84q-130 2 -254.5 -39t-225.5 -118.5t-177 -180t-117 -229.5t-39 -261q-3 -199 88.5 -358.5t246.5 -245.5t341 -84q126 0 259.5 40t247.5 110l37 -76
q-117 -69 -269.5 -110.5t-291.5 -41.5q-152 -2 -290.5 52.5t-243 152.5t-165.5 244t-59 315q-3 182 67 350.5t191 292t291 196.5t357 69q164 2 306.5 -53.5t242.5 -153.5t156 -234t54 -290zM1219 752q0 143 -73 224t-208 81q-158 0 -266 -111q-104 -110 -131 -284
q-6 -46 -6 -87q0 -146 77.5 -227.5t212.5 -81.5q152 0 255 108.5t130 287.5q9 62 9 90z" />
    <glyph glyph-name="A" unicode="A" horiz-adv-x="1286" 
d="M1006 408h-727l-154 -408h-94l538 1454h105h37l544 -1454h-100zM975 492l-328 890l-336 -890h664z" />
    <glyph glyph-name="B" unicode="B" horiz-adv-x="1288" 
d="M1186 383q0 -176 -123 -281q-120 -102 -320 -102h-548v1366v88h528q208 0 327 -104t119 -277q0 -117 -55.5 -204.5t-155.5 -135.5q104 -48 166 -141.5t62 -208.5zM285 1366v-592h450q159 0 251.5 79t92.5 210q0 139 -95 221t-255 82h-444zM1096 385q0 139 -93.5 218
t-252.5 79h-465v-592h465q159 0 252.5 80.5t93.5 214.5z" />
    <glyph glyph-name="C" unicode="C" horiz-adv-x="1474" 
d="M1290 1018q-51 168 -186.5 265t-323.5 97q-257 0 -417 -179.5t-160 -473.5q0 -293 160 -473t415 -180q181 0 318 90q134 89 188 237l90 -39q-64 -173 -225 -280q-163 -105 -373 -105q-143 -2 -269 53.5t-215.5 154.5t-140.5 240.5t-49 303.5q-3 217 84.5 390t243 268
t348.5 92q222 0 382.5 -115t221.5 -309z" />
    <glyph glyph-name="D" unicode="D" horiz-adv-x="1437" 
d="M1335 727q3 -211 -89.5 -378t-261 -259t-382.5 -90h-407v1454h407q214 2 382.5 -90t261 -259t89.5 -378zM1231 727q0 284 -173.5 458.5t-455.5 174.5h-309v-1266h309q282 0 455.5 174.5t173.5 458.5z" />
    <glyph glyph-name="E" unicode="E" horiz-adv-x="1183" 
d="M1051 94v-94h-856v1454h854v-96h-758v-586h690v-88h-690v-590h760z" />
    <glyph glyph-name="F" unicode="F" horiz-adv-x="1097" 
d="M289 1360v-612h618v-89h-618v-659h-99v748v706h836v-94h-737z" />
    <glyph glyph-name="G" unicode="G" horiz-adv-x="1527" 
d="M1405 772v-774h-90v240q-75 -123 -219 -193t-318 -70q-144 -2 -270 52.5t-216 152t-141 238t-49 303.5q0 220 87 392.5t245.5 269t362.5 96.5q209 0 360.5 -99t214.5 -276l-84 -41q-59 160 -186.5 240.5t-304.5 80.5q-269 0 -431.5 -183t-162.5 -480q0 -293 160 -472
t409 -179q70 0 138.5 12t141 43.5t128 79.5t92.5 127t41 180v172h-568v88h660z" />
    <glyph glyph-name="H" unicode="H" horiz-adv-x="1431" 
d="M195 1454h98v-672l846 -2v674h98v-1454h-98v694h-846v-694h-98v1454z" />
    <glyph glyph-name="I" unicode="I" horiz-adv-x="487" 
d="M195 0v1454h98v-1454h-98z" />
    <glyph glyph-name="J" unicode="J" horiz-adv-x="1017" 
d="M844 1454v-1059q0 -191 -112 -305.5t-300 -114.5q-183 0 -282 111.5t-99 308.5v45h96v-45q0 -197 89 -262q86 -63 196 -63q127 0 219 71q94 70 94 254v1059h99z" />
    <glyph glyph-name="K" unicode="K" horiz-adv-x="1230" 
d="M668 829l510 -829h-123l-449 756l-311 -371v-385h-100v1454h100v-924l774 924h121z" />
    <glyph glyph-name="L" unicode="L" horiz-adv-x="964" 
d="M903 90v-90h-694h-14v1454h98v-1364h610z" />
    <glyph glyph-name="M" unicode="M" horiz-adv-x="1699" 
d="M1505 1452v-1452h-100v1227l-504 -1227h-98l-510 1223v-1223h-98v1454h98l559 -1335l553 1335z" />
    <glyph glyph-name="N" unicode="N" horiz-adv-x="1439" 
d="M1245 1454v-1454h-98l-852 1286v-1286h-100v1454h100l852 -1286v1286h98z" />
    <glyph glyph-name="O" unicode="O" horiz-adv-x="1579" 
d="M788 1479q196 4 355.5 -94.5t248 -272.5t85.5 -385q2 -160 -49.5 -300.5t-142.5 -240.5t-220.5 -156.5t-276.5 -54.5q-147 -2 -275.5 54.5t-219 156.5t-141.5 240.5t-50 300.5q-1 158 50 298.5t141.5 241t219 158t275.5 54.5zM788 72q167 -3 302.5 81.5t212 235.5
t73.5 338q3 187 -73.5 338t-212 235.5t-302.5 81.5q-168 3 -303 -81.5t-210 -235.5t-72 -338q-3 -187 72 -338t210 -235.5t303 -81.5z" />
    <glyph glyph-name="P" unicode="P" horiz-adv-x="1255" 
d="M1184 1004q0 -196 -124.5 -326.5t-322.5 -130.5h-444v-547h-98v1454h542q206 0 326 -123q121 -124 121 -327zM1083 1008q0 164 -94 257t-256 93h-440v-717h428q166 0 264 100t98 267z" />
    <glyph glyph-name="Q" unicode="Q" horiz-adv-x="1579" 
d="M1262 162l147 -166h-137l-90 100q-171 -121 -394 -121q-147 -2 -275.5 54.5t-219 156.5t-141.5 240.5t-50 300.5q-1 158 50 298.5t141.5 241t219 158t275.5 54.5q196 4 355.5 -94.5t248 -272.5t85.5 -385q0 -171 -56 -316.5t-159 -248.5zM1116 170l-250 281h138l190 -215
q88 88 135 215t47 276q3 187 -73.5 338t-212 235.5t-302.5 81.5q-168 3 -303 -81.5t-210 -235.5t-72 -338q-3 -187 72 -338t210 -235.5t303 -81.5q185 0 328 98z" />
    <glyph glyph-name="R" unicode="R" horiz-adv-x="1304" 
d="M885 641l309 -641h-111l-299 629h-491v-629h-98v1454h553q206 0 329 -111q125 -110 125 -296q0 -159 -84.5 -267t-232.5 -139zM1098 1042q0 152 -93.5 235t-256.5 83h-455v-635h459q165 0 255.5 82.5t90.5 234.5z" />
    <glyph glyph-name="S" unicode="S" horiz-adv-x="1157" 
d="M575 1479q188 0 312 -92t151 -242l-94 -29q-25 129 -124 202t-247 73q-162 0 -262 -84t-100 -220q0 -210 254 -276l258 -66q165 -41 250.5 -135t85.5 -235q0 -178 -128 -289t-349 -111q-194 0 -323.5 88.5t-158.5 247.5l99 29q19 -126 118.5 -199t262.5 -73q173 0 278 82
t105 223q0 110 -67 181.5t-191 102.5l-252 64q-165 41 -250.5 135t-85.5 231q0 174 126.5 283t331.5 109z" />
    <glyph glyph-name="T" unicode="T" horiz-adv-x="1075" 
d="M1044 1364h-456v-1364h-99v1364h-458v90h557h456v-90z" />
    <glyph glyph-name="U" unicode="U" horiz-adv-x="1406" 
d="M174 1454h100v-973q3 -226 129 -321q127 -92 304 -92q181 0 303 98q125 101 125 315v973h98v-975q0 -127 -42.5 -226.5t-116.5 -159.5t-167 -91t-200 -31q-83 0 -158 17t-144.5 55.5t-120 96t-80.5 144.5t-30 195v975z" />
    <glyph glyph-name="V" unicode="V" horiz-adv-x="1282" 
d="M1251 1454l-557 -1454h-104l-559 1454h102l510 -1319l508 1319h100z" />
    <glyph glyph-name="W" unicode="W" horiz-adv-x="1976" 
d="M1935 1454l-434 -1454h-90l-422 1300l-424 -1300h-94l-430 1454h100l379 -1300l418 1300h100l416 -1307l381 1307h100z" />
    <glyph glyph-name="X" unicode="X" horiz-adv-x="1214" 
d="M145 1454l463 -647l457 647h109l-510 -725l520 -729h-119l-459 645l-454 -645h-113l512 725l-520 729h114z" />
    <glyph glyph-name="Y" unicode="Y" horiz-adv-x="1118" 
d="M133 1454l428 -743l428 743h109l-486 -831v-623h-98v623l-494 831h113z" />
    <glyph glyph-name="Z" unicode="Z" horiz-adv-x="1159" 
d="M1067 1360l-852 -1266h842v-94h-951l-4 94l852 1266h-848v94h961v-94z" />
    <glyph glyph-name="bracketleft" unicode="[" horiz-adv-x="477" 
d="M467 -92h-375v1638h375v-92h-287v-1454h287v-92z" />
    <glyph glyph-name="backslash" unicode="\" horiz-adv-x="663" 
d="M569 0l-569 1454h96l568 -1454h-95z" />
    <glyph glyph-name="bracketright" unicode="]" horiz-adv-x="477" 
d="M297 0v1454h-287v92h375v-1638h-375v92h287z" />
    <glyph glyph-name="asciicircum" unicode="^" horiz-adv-x="1228" 
d="M825 983l-163 367l-164 -367h-95l211 471h95l211 -471h-95z" />
    <glyph glyph-name="underscore" unicode="_" horiz-adv-x="1036" 
d="M913 -41v-94h-790v94h790z" />
    <glyph glyph-name="grave" unicode="`" horiz-adv-x="370" 
d="M61 1784h134l106 -217h-98z" />
    <glyph glyph-name="a" unicode="a" horiz-adv-x="1062" 
d="M838 0q-16 63 -19 176q-45 -92 -143.5 -146.5t-224.5 -54.5q-164 0 -261.5 83.5t-97.5 220.5q0 140 99.5 225.5t263.5 85.5h364v47q0 285 -289 285q-118 0 -198.5 -48t-118.5 -133l-76 47q51 105 153.5 162.5t241.5 57.5q177 0 279 -91t102 -266v-473q0 -122 17 -178h-92
zM819 469v35h-350q-135 0 -209 -59.5t-74 -165.5q0 -104 73 -162t196 -58q175 0 269.5 111.5t94.5 298.5z" />
    <glyph glyph-name="b" unicode="b" horiz-adv-x="1193" 
d="M1102 492q0 -227 -122 -372t-331 -145q-131 0 -233 61t-156 173l-6 -209h-80v1479h88v-699q55 110 156 169t231 59q209 0 331 -144.5t122 -371.5zM1006 492q0 193 -97.5 311.5t-265.5 118.5q-169 0 -266.5 -118t-97.5 -312q0 -195 97.5 -313t266.5 -118t266 118t97 313z
" />
    <glyph glyph-name="c" unicode="c" horiz-adv-x="1101" 
d="M575 1008q154 0 266.5 -72.5t168.5 -202.5l-88 -37q-41 106 -135 167t-216 61q-171 0 -277 -119.5t-106 -312.5t106 -312t277 -119q119 0 213 60.5t138 165.5l88 -37q-62 -134 -176.5 -204.5t-262.5 -70.5q-216 0 -347.5 143t-131.5 374t132 373.5t351 142.5z" />
    <glyph glyph-name="d" unicode="d" horiz-adv-x="1187" 
d="M946 0q-13 105 -16 201q-55 -110 -155 -168t-230 -58q-209 0 -331 145t-122 372t122 371.5t331 144.5q130 0 231 -59t156 -169v699h92v-1268q3 -127 16 -211h-94zM915 492q0 194 -97.5 312t-266.5 118q-168 0 -265.5 -118.5t-97.5 -311.5q0 -195 97 -313t266 -118
t266.5 118t97.5 313z" />
    <glyph glyph-name="e" unicode="e" horiz-adv-x="1116" 
d="M1024 432h-834q13 -177 112.5 -274t256.5 -97q120 0 208.5 58t133.5 162l82 -37q-63 -129 -175 -199t-255 -70q-207 0 -334 140t-127 370t128 376.5t341 146.5q208 0 335.5 -140t127.5 -374v-62zM188 512h738q-6 195 -104.5 302.5t-262.5 107.5q-162 0 -263 -110.5
t-108 -299.5z" />
    <glyph glyph-name="f" unicode="f" horiz-adv-x="591" 
d="M469 1391q-89 0 -129.5 -47t-40.5 -140v-221h231v-78h-231v-905h-94v905h-154v78h154v221q0 134 71 204.5t183 70.5q25 0 82 -11v-84q-47 7 -72 7z" />
    <glyph glyph-name="g" unicode="g" horiz-adv-x="1062" 
d="M1022 -156q0 -284 -479 -284q-183 0 -322 53t-139 207q0 72 39.5 132t105.5 91q-45 19 -70.5 54.5t-25.5 82.5q0 62 34.5 105t98.5 55q-135 104 -135 287q0 163 113.5 272t289.5 109q134 0 232 -64q66 112 231 103v-95q-6 2 -30 2q-89 0 -140 -57q113 -107 113 -270
q0 -161 -113.5 -268t-289.5 -107q-105 0 -195 41q-123 -3 -123 -94q0 -93 111 -93h381q147 0 230 -70t83 -192zM530 334q146 0 232 82t86 209q0 131 -86 216t-227 85t-228.5 -85t-87.5 -216q0 -129 85 -210t226 -81zM928 -156q0 83 -57 129.5t-162 46.5h-336
q-96 -1 -150.5 -53.5t-54.5 -130.5q0 -118 111 -155q110 -37 260 -37q196 0 292.5 44t96.5 156z" />
    <glyph glyph-name="h" unicode="h" horiz-adv-x="1175" 
d="M1022 580v-580h-94v567q0 186 -80 270.5t-238 84.5q-147 0 -244.5 -108t-97.5 -267v-545h-94v1477h94v-666q48 89 142 142t211 53q173 0 286 -101q115 -100 115 -327z" />
    <glyph glyph-name="i" unicode="i" horiz-adv-x="444" 
d="M123 1352q0 43 28 72.5t70 29.5q43 0 72 -29.5t29 -72.5t-29 -71t-72 -28t-70.5 28t-27.5 71zM270 983v-983h-94v983h94z" />
    <glyph glyph-name="j" unicode="j" horiz-adv-x="493" 
d="M152 1352q0 43 28 72.5t70 29.5q43 0 71.5 -29.5t28.5 -72.5t-28.5 -71t-71.5 -28t-70.5 28t-27.5 71zM-72 -322q65 -18 115 -18q160 0 160 188v1135h94v-1135q0 -131 -62.5 -206.5t-179.5 -75.5q-70 0 -147 26z" />
    <glyph glyph-name="k" unicode="k" horiz-adv-x="958" 
d="M174 0v1479h94v-1047l535 551h121l-406 -420l410 -563h-109l-364 500l-187 -193v-307h-94z" />
    <glyph glyph-name="l" unicode="l" horiz-adv-x="442" 
d="M174 1479h94v-1479h-94v1479z" />
    <glyph glyph-name="m" unicode="m" horiz-adv-x="1714" 
d="M1561 645v-645h-91v633q0 135 -71.5 213t-194.5 78q-131 0 -210 -86t-79 -207v-631h-92v635q0 135 -71.5 213t-194.5 78q-131 0 -210 -86t-79 -207v-633h-94v983h86l6 -125q42 71 121.5 110.5t177.5 39.5q112 0 195.5 -53t118.5 -146q38 92 127.5 145.5t205.5 53.5
q157 0 253 -98.5t96 -264.5z" />
    <glyph glyph-name="n" unicode="n" horiz-adv-x="1144" 
d="M991 600v-600h-94v600q0 163 -81 242.5t-216 79.5q-155 0 -243.5 -99.5t-88.5 -257.5v-563h-94v981h84l6 -154q45 82 138.5 130.5t211.5 48.5q161 0 269 -99q108 -94 108 -309z" />
    <glyph glyph-name="o" unicode="o" horiz-adv-x="1159" 
d="M580 1008q141 0 253.5 -70t173 -187.5t60.5 -258.5q0 -105 -36 -200t-99 -165t-154.5 -111t-197.5 -41q-141 0 -253.5 70t-173.5 188t-61 259t61 258.5t173.5 187.5t253.5 70zM580 61q174 0 281.5 122.5t107.5 308.5t-107.5 308t-281.5 122t-282 -122t-108 -308
t108 -308.5t282 -122.5z" />
    <glyph glyph-name="p" unicode="p" horiz-adv-x="1191" 
d="M1100 492q0 -227 -122 -372t-331 -145q-130 0 -231 59t-156 169v-619h-86v1399h78l6 -209q54 112 156 173t233 61q209 0 331 -144.5t122 -371.5zM1004 492q0 195 -97 312.5t-266 117.5q-170 0 -267.5 -117.5t-97.5 -312.5q0 -193 98 -312t267 -119q168 0 265.5 119
t97.5 312z" />
    <glyph glyph-name="q" unicode="q" horiz-adv-x="1193" 
d="M1020 983v-1399h-88v619q-55 -110 -156 -169t-231 -59q-209 0 -331 145t-122 372t122 371.5t331 144.5q131 0 233 -61t156 -173l6 209h80zM915 492q0 195 -97 312.5t-267 117.5q-169 0 -266 -117.5t-97 -312.5q0 -193 97.5 -312t265.5 -119q169 0 266.5 118.5t97.5 312.5
z" />
    <glyph glyph-name="r" unicode="r" horiz-adv-x="688" 
d="M530 995q50 0 103 -12v-88q-52 12 -101 12q-129 0 -201.5 -81.5t-72.5 -217.5v-608h-94v983h88l4 -135q32 69 106 108t168 39z" />
    <glyph glyph-name="s" unicode="s" horiz-adv-x="876" 
d="M436 61q114 0 185 48t71 147q0 134 -170 178l-162 43q-245 65 -245 262q0 117 87.5 193t231.5 76q136 0 228 -63.5t104 -170.5l-82 -20q-12 77 -80.5 122.5t-167.5 45.5q-104 0 -167.5 -52t-63.5 -133q0 -132 174 -178l162 -43q117 -31 180 -98.5t63 -161.5
q0 -129 -93.5 -205t-254.5 -76q-141 0 -236 66.5t-108 175.5l82 19q14 -80 83.5 -127.5t178.5 -47.5z" />
    <glyph glyph-name="t" unicode="t" horiz-adv-x="593" 
d="M543 905h-199v-905h-94v905h-199v78h199v311h94v-311h199v-78z" />
    <glyph glyph-name="u" unicode="u" horiz-adv-x="1163" 
d="M905 0q-12 71 -16 168q-42 -88 -134 -140.5t-210 -52.5q-159 0 -271 103q-110 101 -110 317v590h96v-590q0 -166 81.5 -250t217.5 -84q156 0 242 103q88 101 88 254v565h94v-805q0 -87 16 -178h-94z" />
    <glyph glyph-name="v" unicode="v" horiz-adv-x="972" 
d="M942 983l-407 -983h-97l-407 983h100l356 -868l357 868h98z" />
    <glyph glyph-name="w" unicode="w" horiz-adv-x="1490" 
d="M1450 983l-330 -983h-96l-279 840l-280 -840h-96l-328 983h96l281 -844l278 844h97l280 -844l281 844h96z" />
    <glyph glyph-name="x" unicode="x" horiz-adv-x="903" 
d="M449 420l-302 -420h-116l356 496l-354 487h114q99 -132 248 -340l60 -82l301 422h114l-358 -491l360 -492h-116q-217 291 -307 420z" />
    <glyph glyph-name="y" unicode="y" horiz-adv-x="954" 
d="M924 983l-435 -1200q-40 -108 -110.5 -162.5t-159.5 -54.5q-93 0 -168 53l29 86q56 -53 143 -53q121 0 174 147l52 140l-418 1044h98l363 -924l335 924h97z" />
    <glyph glyph-name="z" unicode="z" horiz-adv-x="880" 
d="M82 92l612 807h-612v84h717v-92l-613 -809h613v-82h-717v92z" />
    <glyph glyph-name="braceleft" unicode="{" horiz-adv-x="464" 
d="M246 727q82 -69 82 -170v-430q0 -51 38 -89t89 -38v-90q-38 0 -76 14q-64 24 -103.5 78t-39.5 125v430q0 51 -36 87t-87 36v92q51 0 87 37t36 88v434q0 66 38 120.5t101 80.5q32 14 80 14v-92q-51 0 -89 -36t-38 -87v-434q0 -49 -22.5 -94.5t-59.5 -75.5z" />
    <glyph glyph-name="bar" unicode="|" horiz-adv-x="245" 
d="M164 1614v-1798h-82v1798h82z" />
    <glyph glyph-name="braceright" unicode="}" horiz-adv-x="464" 
d="M352 772v-92q-51 0 -87 -36t-36 -87v-430q0 -68 -39.5 -122t-103.5 -81q-28 -14 -76 -14v90q53 0 90 37.5t37 89.5v430q0 101 82 170q-82 69 -82 170v434q0 51 -38 87t-89 36v92q48 0 80 -14q62 -25 100.5 -79.5t38.5 -121.5v-434q0 -51 36 -88t87 -37z" />
    <glyph glyph-name="asciitilde" unicode="~" horiz-adv-x="880" 
d="M799 645q0 -85 -54 -138.5t-135 -53.5q-45 0 -84 16.5t-98 54.5q-86 51 -114 60q-22 6 -44 6q-48 0 -76 -28.5t-28 -78.5h-84q0 81 53.5 135t132.5 54q46 0 84.5 -16t106.5 -58q53 -35 85.5 -49t65.5 -14q46 0 75.5 29t29.5 81h84z" />
    <glyph glyph-name="exclamdown" unicode="&#xa1;" horiz-adv-x="593" 
d="M410 1368q0 -45 -33 -79t-80 -34q-44 0 -78.5 34.5t-34.5 78.5t34.5 77.5t78.5 33.5t78.5 -33.5t34.5 -77.5zM344 655v-653h-94v653q0 293 12 486h70q12 -193 12 -486z" />
    <glyph glyph-name="cent" unicode="&#xa2;" horiz-adv-x="1138" 
d="M541 1247l-2 207h94l2 -207q140 -10 246.5 -89t154.5 -204l-86 -26q-38 106 -134 166.5t-226 60.5q-161 0 -277 -123.5t-116 -296.5q0 -174 115.5 -298t277.5 -124q120 0 213 55t135 148l84 -29q-50 -113 -152.5 -184.5t-234.5 -81.5l-2 -223h-94l2 223q-183 19 -311 169
t-128 345q0 194 128 343.5t311 168.5z" />
    <glyph glyph-name="sterling" unicode="&#xa3;" horiz-adv-x="1304" 
d="M1182 373q0 -180 -91.5 -276.5t-271.5 -96.5h-667v98q129 29 207.5 138t78.5 256q0 89 -37 190h-217v98h176q-40 93 -56.5 151.5t-16.5 127.5q0 181 118.5 300.5t305.5 119.5q161 0 274 -88q117 -89 152 -228l-95 -33q-25 110 -115.5 179t-217.5 69q-147 0 -234.5 -90
t-87.5 -237q0 -64 16 -123q15 -52 56 -148h530v-98h-493q30 -102 30 -182q0 -128 -46 -236t-134 -166h492q128 0 189.5 70t55.5 205h99z" />
    <glyph glyph-name="currency" unicode="&#xa4;" horiz-adv-x="1212" 
d="M948 442l162 -157l-68 -68l-159 160q-118 -98 -279 -98q-149 0 -274 96l-160 -158l-68 68l162 157q-96 113 -96 273q0 151 96 276l-162 158l68 68l160 -158q125 96 274 96q160 0 279 -98l159 160l68 -68l-162 -158q96 -122 96 -276q0 -151 -96 -273zM604 371
q142 0 245 102.5t103 241.5q0 143 -103 245.5t-245 102.5q-139 0 -241.5 -103t-102.5 -245q0 -138 103 -241t241 -103z" />
    <glyph glyph-name="yen" unicode="&#xa5;" horiz-adv-x="1310" 
d="M737 680h340v-94h-377v-209h377v-94h-377v-283h-94v283h-379v94h379v209h-379v94h342l-446 774h104l426 -752v7l430 745h105z" />
    <glyph glyph-name="brokenbar" unicode="&#xa6;" horiz-adv-x="1228" 
d="M662 1620v-719h-95v719h95zM662 596v-739h-95v739h95z" />
    <glyph glyph-name="section" unicode="&#xa7;" horiz-adv-x="948" 
d="M647 483q76 -31 117 -88.5t41 -134.5q0 -121 -95 -203t-239 -82q-140 0 -232.5 63t-115.5 173l84 20q36 -178 264 -178q109 0 175.5 58t66.5 151q0 138 -152 162l-135 20q-144 24 -220.5 93.5t-76.5 183.5q0 89 44 153t124 97q-73 29 -115.5 89.5t-42.5 135.5
q0 121 95 202t239 81q142 0 235.5 -63.5t116.5 -172.5l-84 -20q-18 86 -86 133t-182 47q-109 0 -175.5 -58t-66.5 -151q0 -135 152 -162l135 -22q297 -49 297 -283q0 -166 -168 -244zM731 731q0 92 -72.5 141.5t-183.5 49.5q-124 0 -193 -55.5t-69 -143.5q0 -93 71 -140.5
t191 -47.5t188 54.5t68 141.5z" />
    <glyph glyph-name="dieresis" unicode="&#xa8;" horiz-adv-x="618" 
d="M41 1673q0 44 32.5 77.5t76.5 33.5q43 0 75.5 -33.5t32.5 -77.5q0 -43 -32.5 -74.5t-75.5 -31.5q-44 0 -76.5 31.5t-32.5 74.5zM360 1673q0 44 32.5 77.5t76.5 33.5q43 0 76 -33.5t33 -77.5q0 -42 -33 -74t-76 -32q-44 0 -76.5 31.5t-32.5 74.5z" />
    <glyph glyph-name="copyright" unicode="&#xa9;" horiz-adv-x="1669" 
d="M82 727q-3 148 58 288t163.5 242.5t242.5 163.5t288 58q119 2 234.5 -36t209 -109t164.5 -164.5t109 -208.5t36 -234q3 -150 -57.5 -291t-163 -244t-243 -164t-289.5 -57q-149 -4 -289.5 57t-242.5 164t-162.5 244t-57.5 291zM1493 727q2 104 -31.5 204t-95.5 181.5
t-144 144t-183 96t-205 31.5q-129 2 -251.5 -51t-212 -142.5t-143 -212t-51.5 -251.5q-4 -174 86.5 -328.5t244 -245t327.5 -87.5q131 -2 253.5 51t212 143t142.5 213t51 254zM1122 858q-29 86 -100.5 134t-171.5 48q-121 0 -207 -92t-86 -223q0 -129 86 -221t207 -92
q93 0 163 44t99 119l94 -34q-38 -106 -136 -170t-220 -64q-105 0 -196 57t-145 153.5t-54 207.5q0 171 117 294.5t278 123.5q131 0 230.5 -69t136.5 -187z" />
    <glyph glyph-name="guillemotleft" unicode="&#xab;" horiz-adv-x="1032" 
d="M213 492l430 -492h-100l-430 492l430 491h100zM602 492l430 -492h-100l-430 492l430 491h100z" />
    <glyph glyph-name="logicalnot" unicode="&#xac;" horiz-adv-x="1081" 
d="M901 156v401h-819v98h917v-499h-98z" />
    <glyph glyph-name="registered" unicode="&#xae;" horiz-adv-x="854" 
d="M793 1110q0 -152 -107 -258.5t-258 -106.5t-259 106.5t-108 258.5q0 148 108.5 255.5t258.5 107.5t257.5 -107.5t107.5 -255.5zM729 1110q0 126 -87.5 213.5t-213.5 87.5q-128 0 -214.5 -87t-86.5 -214q0 -129 86 -215t215 -86q127 0 214 86.5t87 214.5zM489 1085
l60 -135h-64l-53 125h-51v-125h-57v318h57h53q115 0 115 -94q0 -67 -60 -89zM381 1124h53q29 0 40 12t11 38q0 36 -51 36h-53v-86z" />
    <glyph glyph-name="overscore" unicode="&#xaf;" horiz-adv-x="647" 
d="M586 1665v-94h-525v94h525z" />
    <glyph glyph-name="degree" unicode="&#xb0;" horiz-adv-x="497" 
d="M41 1278q0 86 61 147q62 62 146 62q86 0 147 -64q62 -62 62 -145t-62 -145t-147 -62q-86 0 -146.5 61t-60.5 146zM362 1278q0 47 -33.5 81t-80.5 34t-80 -34t-33 -81q0 -44 34.5 -78.5t78.5 -34.5q47 0 80.5 33t33.5 80z" />
    <glyph glyph-name="plusminus" unicode="&#xb1;" horiz-adv-x="1026" 
d="M944 725v-98h-381v-260h-98v260h-383v98h383v258h98v-258h381zM82 98h862v-98h-862v98z" />
    <glyph glyph-name="uni00B2" unicode="&#xb2;" horiz-adv-x="811" 
d="M92 741l422 355q55 46 77.5 88.5t22.5 91.5q0 92 -57.5 148.5t-153.5 56.5q-92 0 -149.5 -55t-58.5 -148h-113q1 141 91.5 227t232.5 86q143 0 233 -90t90 -221q0 -81 -36 -144.5t-109 -127.5l-336 -281l457 2v-113l-613 -2v127z" />
    <glyph glyph-name="uni00B3" unicode="&#xb3;" horiz-adv-x="817" 
d="M735 913q0 -136 -94.5 -225.5t-228.5 -89.5q-139 0 -234.5 91.5t-95.5 221.5h115q0 -86 61 -144t154 -58q89 0 149 57t60 147q0 93 -63 151t-161 58q-37 0 -75 -10l-35 94l270 254h-432v113h596v-113l-254 -235q119 -19 193.5 -104.5t74.5 -207.5z" />
    <glyph glyph-name="acute" unicode="&#xb4;" horiz-adv-x="342" 
d="M82 1567l106 217h129l-137 -217h-98z" />
    <glyph glyph-name="uni00B5" unicode="&#xb5;" horiz-adv-x="1294" 
d="M1202 90v-90h-129q-79 0 -123 32t-57 103q-107 -168 -340 -168q-229 0 -336 162v-621h-94v1475h94v-494q0 -217 78 -323.5t258 -106.5q165 0 243.5 90.5t90.5 270.5v563h94v-758q0 -71 20.5 -102t63.5 -31z" />
    <glyph glyph-name="paragraph" unicode="&#xb6;" horiz-adv-x="960" 
d="M682 1458v-1577h-94v748h-123q-165 0 -274 112.5t-109 302.5q0 186 109.5 300t273.5 114h217zM879 1454v-1577h-95v1577h95z" />
    <glyph glyph-name="middot" unicode="&#xb7;" horiz-adv-x="512" 
d="M96 506q0 66 47 113t113 47t113 -47t47 -113q0 -64 -47 -111t-113 -47t-113 47t-47 111z" />
    <glyph glyph-name="cedilla" unicode="&#xb8;" horiz-adv-x="1228" 
d="M498 -215h157q24 0 39 16t15 37q-2 21 -16 34t-38 13h-157v70l82 98h51v-53l-35 -43h78q58 0 90.5 -38t32.5 -91q0 -49 -33.5 -86t-85.5 -37h-180v80z" />
    <glyph glyph-name="uni00B9" unicode="&#xb9;" horiz-adv-x="569" 
d="M385 1573v-959h-113v842l-190 -78v115l190 80h113z" />
    <glyph glyph-name="guillemotright" unicode="&#xbb;" horiz-adv-x="1032" 
d="M530 492l-430 -492h-100l430 492l-430 491h100zM920 492l-431 -492h-100l430 492l-430 491h100z" />
    <glyph glyph-name="onequarter" unicode="&#xbc;" horiz-adv-x="1349" 
d="M102 1393l121 61v-113l-121 -53v105zM332 1454v-754h-107l-2 754h109zM4 0l1108 1454h115l-1110 -1454h-113zM1247 152h-100v-152h-111v152h-362v104l362 498h111v-498h100v-104zM1036 256v313l-225 -313h225z" />
    <glyph glyph-name="onehalf" unicode="&#xbd;" horiz-adv-x="1427" 
d="M102 1393l121 61v-113l-121 -53v105zM332 1454v-754h-107l-2 754h109zM4 0l1108 1454h115l-1110 -1454h-113zM825 109l310 268q75 62 84 127q4 74 -37.5 113.5t-116.5 39.5q-67 -1 -105 -39t-38 -104q0 -25 2 -31h-107l-2 29q0 108 75 179t185 71q108 0 177.5 -68
t70.5 -182q0 -115 -127 -227l-209 -179h316v-106h-478v109z" />
    <glyph glyph-name="threequarters" unicode="&#xbe;" horiz-adv-x="1560" 
d="M625 934q0 -104 -76 -174q-78 -72 -184 -72t-184.5 74.5t-78.5 175.5q0 23 2 29h111q-4 -32 -4 -33q0 -57 46 -99t108 -42q63 0 107 40.5t44 100.5q0 73 -57 115q-47 30 -94 30q-32 0 -48 -8l-67 84l196 191h-307v108h469v-104l-180 -174q70 -15 119 -64q78 -75 78 -178z
M215 0l1108 1454h115l-1110 -1454h-113zM1458 152h-100v-152h-111v152h-362v104l362 498h111v-498h100v-104zM1247 256v313l-225 -313h225z" />
    <glyph glyph-name="questiondown" unicode="&#xbf;" horiz-adv-x="1021" 
d="M442 1366q0 44 33.5 78.5t77.5 34.5q47 0 81 -33t34 -80t-34 -80t-81 -33q-44 0 -77.5 34.5t-33.5 78.5zM950 406q0 -118 -59.5 -218.5t-161 -158.5t-219.5 -58q-195 0 -316.5 124.5t-121.5 310.5q0 173 123 292q52 52 131 113q106 81 148 136t42 130v58h92v-58
q-3 -59 -16.5 -103t-47 -85t-63.5 -68t-94 -78q-62 -50 -88.5 -72.5t-56 -57t-49.5 -72.5q-29 -63 -29 -135q0 -144 97 -243.5t249 -99.5q141 0 243.5 101.5t102.5 241.5h94z" />
    <glyph glyph-name="Agrave" unicode="&#xc0;" horiz-adv-x="1286" 
d="M1006 408h-727l-154 -408h-94l538 1454h105h37l544 -1454h-100zM975 492l-328 890l-336 -890h664zM449 1784h133l106 -217h-98z" />
    <glyph glyph-name="Aacute" unicode="&#xc1;" horiz-adv-x="1286" 
d="M1006 408h-727l-154 -408h-94l538 1454h105h37l544 -1454h-100zM975 492l-328 890l-336 -890h664zM590 1567l106 217h129l-137 -217h-98z" />
    <glyph glyph-name="Acircumflex" unicode="&#xc2;" horiz-adv-x="1286" 
d="M1006 408h-727l-154 -408h-94l538 1454h105h37l544 -1454h-100zM975 492l-328 890l-336 -890h664zM735 1567l-96 143l-98 -143h-119l143 219h125h21l143 -219h-119z" />
    <glyph glyph-name="Atilde" unicode="&#xc3;" horiz-adv-x="1286" 
d="M1006 408h-727l-154 -408h-94l538 1454h105h37l544 -1454h-100zM975 492l-328 890l-336 -890h664zM506 1796q34 0 63 -10.5t74 -36.5q73 -39 111 -39q67 0 67 86h88q0 -85 -40 -132.5t-113 -47.5q-39 0 -70.5 12t-77.5 39q-59 35 -90 35q-63 0 -63 -86h-88
q-1 86 35.5 133t103.5 47z" />
    <glyph glyph-name="Adieresis" unicode="&#xc4;" horiz-adv-x="1286" 
d="M1006 408h-727l-154 -408h-94l538 1454h105h37l544 -1454h-100zM975 492l-328 890l-336 -890h664zM371 1673q0 45 32 78t76 33q43 0 76 -33.5t33 -77.5q0 -42 -33 -74t-76 -32q-44 0 -76 31.5t-32 74.5zM690 1673q0 44 32.5 77.5t76.5 33.5q43 0 75.5 -33.5t32.5 -77.5
q0 -43 -32.5 -74.5t-75.5 -31.5q-44 0 -76.5 31.5t-32.5 74.5z" />
    <glyph glyph-name="Aring" unicode="&#xc5;" horiz-adv-x="1286" 
d="M1006 408h-727l-154 -408h-94l538 1454h105h37l544 -1454h-100zM975 492l-328 890l-336 -890h664zM438 1772q0 83 60 143q58 61 141 61q85 0 145 -59.5t60 -144.5t-60 -144t-145 -59t-143 58.5t-58 144.5zM758 1776q0 47 -34 80.5t-83 33.5t-82 -33t-33 -81q0 -51 33 -85
t82 -34q50 0 83.5 34t33.5 85z" />
    <glyph glyph-name="AE" unicode="&#xc6;" horiz-adv-x="1757" 
d="M1634 92l-2 -92h-850v449h-501l-166 -449h-95l539 1454h96h127h95l755 -2v-94l-755 2v-586h690l-2 -92h-688v-590h757zM782 532v242v586h-161l-308 -828h469z" />
    <glyph glyph-name="Ccedilla" unicode="&#xc7;" horiz-adv-x="1474" 
d="M1284 401l90 -39q-58 -157 -205 -264q-141 -103 -333 -118l-31 -37h78q58 0 90.5 -38t32.5 -91q0 -49 -33.5 -86t-85.5 -37h-180v80h157q24 0 39 16t15 37q-2 21 -16 34t-38 13h-157v70l30 36q-281 15 -458 222.5t-177 529.5q-3 217 84.5 390t243 268t348.5 92
q222 0 382.5 -115t221.5 -309l-92 -37q-51 168 -186.5 265t-323.5 97q-257 0 -417 -179.5t-160 -473.5q0 -293 160 -473t415 -180q181 0 318 90q134 89 188 237z" />
    <glyph glyph-name="Egrave" unicode="&#xc8;" horiz-adv-x="1183" 
d="M1051 94v-94h-856v1454h854v-96h-758v-586h690v-88h-690v-590h760zM418 1784h133l106 -217h-98z" />
    <glyph glyph-name="Eacute" unicode="&#xc9;" horiz-adv-x="1183" 
d="M1051 94v-94h-856v1454h854v-96h-758v-586h690v-88h-690v-590h760zM559 1567l107 217h129l-138 -217h-98z" />
    <glyph glyph-name="Ecircumflex" unicode="&#xca;" horiz-adv-x="1183" 
d="M1051 94v-94h-856v1454h854v-96h-758v-586h690v-88h-690v-590h760zM705 1567l-97 143l-98 -143h-119l144 219h124h21l143 -219h-118z" />
    <glyph glyph-name="Edieresis" unicode="&#xcb;" horiz-adv-x="1183" 
d="M1051 94v-94h-856v1454h854v-96h-758v-586h690v-88h-690v-590h760zM340 1673q0 44 32.5 77.5t76.5 33.5q43 0 75.5 -33.5t32.5 -77.5q0 -43 -32.5 -74.5t-75.5 -31.5q-44 0 -76.5 31.5t-32.5 74.5zM659 1673q0 44 32.5 77.5t76.5 33.5q43 0 76 -33.5t33 -77.5
q0 -42 -33 -74t-76 -32q-44 0 -76.5 31.5t-32.5 74.5z" />
    <glyph glyph-name="Igrave" unicode="&#xcc;" horiz-adv-x="487" 
d="M195 0v1454h98v-1454h-98zM53 1784h133l107 -217h-98z" />
    <glyph glyph-name="Iacute" unicode="&#xcd;" horiz-adv-x="487" 
d="M195 0v1454h98v-1454h-98zM195 1567l106 217h129l-137 -217h-98z" />
    <glyph glyph-name="Icircumflex" unicode="&#xce;" horiz-adv-x="487" 
d="M195 0v1454h98v-1454h-98zM340 1567l-96 143l-99 -143h-118l143 219h125h20l144 -219h-119z" />
    <glyph glyph-name="Idieresis" unicode="&#xcf;" horiz-adv-x="487" 
d="M195 0v1454h98v-1454h-98zM-25 1673q0 44 32.5 77.5t76.5 33.5q43 0 76 -33.5t33 -77.5q0 -42 -33 -74t-76 -32q-44 0 -76.5 31.5t-32.5 74.5zM295 1673q0 45 32 78t76 33q43 0 76 -33.5t33 -77.5q0 -42 -33 -74t-76 -32q-44 0 -76 31.5t-32 74.5z" />
    <glyph glyph-name="Eth" unicode="&#xd0;" horiz-adv-x="1423" 
d="M1335 727q3 -211 -89.5 -378t-261 -259t-382.5 -90h-407v680h-154v94h154v680h407q214 2 382.5 -90t261 -259t89.5 -378zM1231 727q0 284 -173.5 458.5t-455.5 174.5h-309v-586h227v-94h-227v-586h309q282 0 455.5 174.5t173.5 458.5z" />
    <glyph glyph-name="Ntilde" unicode="&#xd1;" horiz-adv-x="1439" 
d="M1245 1454v-1454h-98l-852 1286v-1286h-100v1454h100l852 -1286v1286h98zM588 1796q34 0 63 -10.5t74 -36.5q73 -39 111 -39q67 0 67 86h88q0 -85 -40 -132.5t-113 -47.5q-39 0 -70.5 12t-77.5 39q-59 35 -90 35q-63 0 -63 -86h-88q-1 86 35.5 133t103.5 47z" />
    <glyph glyph-name="Ograve" unicode="&#xd2;" horiz-adv-x="1579" 
d="M788 1479q-147 3 -275.5 -54.5t-219 -158t-141.5 -241t-50 -298.5q-1 -160 50 -300.5t141.5 -240.5t219 -156.5t275.5 -54.5q147 -2 276.5 54.5t220.5 156.5t142.5 240.5t49.5 300.5q3 211 -85.5 385t-248 272.5t-355.5 94.5zM788 72q-168 -3 -303 81.5t-210 235.5
t-72 338q-3 187 72 338t210 235.5t303 81.5q167 3 302.5 -81.5t212 -235.5t73.5 -338q3 -187 -73.5 -338t-212 -235.5t-302.5 -81.5zM598 1784h133l107 -217h-99z" />
    <glyph glyph-name="Oacute" unicode="&#xd3;" horiz-adv-x="1579" 
d="M788 1479q-147 3 -275.5 -54.5t-219 -158t-141.5 -241t-50 -298.5q-1 -160 50 -300.5t141.5 -240.5t219 -156.5t275.5 -54.5q147 -2 276.5 54.5t220.5 156.5t142.5 240.5t49.5 300.5q3 211 -85.5 385t-248 272.5t-355.5 94.5zM788 72q-168 -3 -303 81.5t-210 235.5
t-72 338q-3 187 72 338t210 235.5t303 81.5q167 3 302.5 -81.5t212 -235.5t73.5 -338q3 -187 -73.5 -338t-212 -235.5t-302.5 -81.5zM739 1567l107 217h129l-137 -217h-99z" />
    <glyph glyph-name="Ocircumflex" unicode="&#xd4;" horiz-adv-x="1579" 
d="M788 1479q-147 3 -275.5 -54.5t-219 -158t-141.5 -241t-50 -298.5q-1 -160 50 -300.5t141.5 -240.5t219 -156.5t275.5 -54.5q147 -2 276.5 54.5t220.5 156.5t142.5 240.5t49.5 300.5q3 211 -85.5 385t-248 272.5t-355.5 94.5zM788 72q-168 -3 -303 81.5t-210 235.5
t-72 338q-3 187 72 338t210 235.5t303 81.5q167 3 302.5 -81.5t212 -235.5t73.5 -338q3 -187 -73.5 -338t-212 -235.5t-302.5 -81.5zM885 1567l-97 143l-98 -143h-119l144 219h125h20l144 -219h-119z" />
    <glyph glyph-name="Otilde" unicode="&#xd5;" horiz-adv-x="1579" 
d="M788 1479q-147 3 -275.5 -54.5t-219 -158t-141.5 -241t-50 -298.5q-1 -160 50 -300.5t141.5 -240.5t219 -156.5t275.5 -54.5q147 -2 276.5 54.5t220.5 156.5t142.5 240.5t49.5 300.5q3 211 -85.5 385t-248 272.5t-355.5 94.5zM788 72q-168 -3 -303 81.5t-210 235.5
t-72 338q-3 187 72 338t210 235.5t303 81.5q167 3 302.5 -81.5t212 -235.5t73.5 -338q3 -187 -73.5 -338t-212 -235.5t-302.5 -81.5zM655 1796q57 0 138 -47q73 -39 110 -39q68 0 68 86h88q0 -85 -40.5 -132.5t-113.5 -47.5q-39 0 -70 12t-77 39q-59 35 -90 35
q-64 0 -64 -86h-88q-1 86 35.5 133t103.5 47z" />
    <glyph glyph-name="Odieresis" unicode="&#xd6;" horiz-adv-x="1579" 
d="M788 1479q-147 3 -275.5 -54.5t-219 -158t-141.5 -241t-50 -298.5q-1 -160 50 -300.5t141.5 -240.5t219 -156.5t275.5 -54.5q147 -2 276.5 54.5t220.5 156.5t142.5 240.5t49.5 300.5q3 211 -85.5 385t-248 272.5t-355.5 94.5zM788 72q-168 -3 -303 81.5t-210 235.5
t-72 338q-3 187 72 338t210 235.5t303 81.5q167 3 302.5 -81.5t212 -235.5t73.5 -338q3 -187 -73.5 -338t-212 -235.5t-302.5 -81.5zM520 1673q0 44 32.5 77.5t76.5 33.5q43 0 75.5 -33.5t32.5 -77.5q0 -43 -32.5 -74.5t-75.5 -31.5q-44 0 -76.5 31.5t-32.5 74.5zM840 1673
q0 45 32 78t76 33q43 0 76 -33.5t33 -77.5q0 -42 -33 -74t-76 -32q-44 0 -76 31.5t-32 74.5z" />
    <glyph glyph-name="multiply" unicode="&#xd7;" horiz-adv-x="948" 
d="M543 631l323 -332l-69 -70l-322 330l-323 -330l-70 70l324 332l-324 330l70 69l323 -330l322 330l69 -69z" />
    <glyph glyph-name="Oslash" unicode="&#xd8;" horiz-adv-x="1538" 
d="M1448 727q3 -213 -85.5 -386.5t-247.5 -271t-355 -94.5q-186 0 -340 86l-39 -61h-105l70 113q-130 100 -201 259.5t-71 354.5q-1 158 50 298.5t141.5 241t219 158t275.5 54.5q201 0 366 -103l48 78h104l-80 -131q119 -100 184.5 -255.5t65.5 -340.5zM397 197l676 1095
q-140 90 -313 90q-168 3 -303 -81.5t-210.5 -235.5t-72.5 -338q0 -166 58.5 -304t164.5 -226zM1348 727q0 159 -53 291.5t-150 220.5l-674 -1094q131 -73 289 -73q167 -3 302.5 81.5t212 235.5t73.5 338z" />
    <glyph glyph-name="Ugrave" unicode="&#xd9;" horiz-adv-x="1406" 
d="M174 1454h100v-973q3 -226 129 -321q127 -92 304 -92q181 0 303 98q125 101 125 315v973h98v-975q0 -127 -42.5 -226.5t-116.5 -159.5t-167 -91t-200 -31q-83 0 -158 17t-144.5 55.5t-120 96t-80.5 144.5t-30 195v975zM514 1784h133l107 -217h-99z" />
    <glyph glyph-name="Uacute" unicode="&#xda;" horiz-adv-x="1406" 
d="M174 1454h100v-973q3 -226 129 -321q127 -92 304 -92q181 0 303 98q125 101 125 315v973h98v-975q0 -127 -42.5 -226.5t-116.5 -159.5t-167 -91t-200 -31q-83 0 -158 17t-144.5 55.5t-120 96t-80.5 144.5t-30 195v975zM655 1567l107 217h129l-137 -217h-99z" />
    <glyph glyph-name="Ucircumflex" unicode="&#xdb;" horiz-adv-x="1406" 
d="M174 1454h100v-973q3 -226 129 -321q127 -92 304 -92q181 0 303 98q125 101 125 315v973h98v-975q0 -127 -42.5 -226.5t-116.5 -159.5t-167 -91t-200 -31q-83 0 -158 17t-144.5 55.5t-120 96t-80.5 144.5t-30 195v975zM801 1567l-96 143l-99 -143h-119l144 219h125h20
l144 -219h-119z" />
    <glyph glyph-name="Udieresis" unicode="&#xdc;" horiz-adv-x="1406" 
d="M174 1454h100v-973q3 -226 129 -321q127 -92 304 -92q181 0 303 98q125 101 125 315v973h98v-975q0 -127 -42.5 -226.5t-116.5 -159.5t-167 -91t-200 -31q-83 0 -158 17t-144.5 55.5t-120 96t-80.5 144.5t-30 195v975zM436 1673q0 44 32.5 77.5t76.5 33.5
q43 0 75.5 -33.5t32.5 -77.5q0 -43 -32.5 -74.5t-75.5 -31.5q-44 0 -76.5 31.5t-32.5 74.5zM756 1673q0 45 32 78t76 33q43 0 76 -33.5t33 -77.5q0 -42 -33 -74t-76 -32q-44 0 -76 31.5t-32 74.5z" />
    <glyph glyph-name="Yacute" unicode="&#xdd;" horiz-adv-x="1118" 
d="M133 1454l428 -743l428 743h109l-486 -831v-623h-98v623l-494 831h113zM512 1567l106 217h130l-138 -217h-98z" />
    <glyph glyph-name="Thorn" unicode="&#xde;" horiz-adv-x="1220" 
d="M184 1454h95v-313h317q103 0 188 -34.5t139.5 -92t83.5 -131t29 -154.5q0 -82 -29 -156t-83.5 -131.5t-139 -92t-188.5 -34.5h-317v-315h-95v1454zM596 412q160 0 254 93.5t94 223.5t-94 224t-254 94h-317v-635h317z" />
    <glyph glyph-name="germandbls" unicode="&#xdf;" horiz-adv-x="1132" 
d="M1040 440q0 -190 -132 -315t-359 -125q-64 0 -170 29v92q90 -33 168 -33q186 0 290.5 99t104.5 253q0 159 -115.5 258t-279.5 99v88q121 0 200.5 70.5t79.5 185.5q0 109 -74.5 175t-201.5 66q-132 0 -202 -75.5t-70 -227.5v-1079h-95v1079q0 193 96.5 296.5t268.5 103.5
q167 0 272 -92.5t105 -245.5q0 -98 -45.5 -173.5t-126.5 -119.5q133 -50 209.5 -157t76.5 -251z" />
    <glyph glyph-name="agrave" unicode="&#xe0;" horiz-adv-x="1062" 
d="M838 0q-16 63 -19 176q-45 -92 -143.5 -146.5t-224.5 -54.5q-164 0 -261.5 83.5t-97.5 220.5q0 140 99.5 225.5t263.5 85.5h364v47q0 285 -289 285q-118 0 -198.5 -48t-118.5 -133l-76 47q51 105 153.5 162.5t241.5 57.5q177 0 279 -91t102 -266v-473q0 -122 17 -178h-92
zM819 469v35h-350q-135 0 -209 -59.5t-74 -165.5q0 -104 73 -162t196 -58q175 0 269.5 111.5t94.5 298.5zM330 1313h133l106 -217h-98z" />
    <glyph glyph-name="aacute" unicode="&#xe1;" horiz-adv-x="1062" 
d="M838 0q-16 63 -19 176q-45 -92 -143.5 -146.5t-224.5 -54.5q-164 0 -261.5 83.5t-97.5 220.5q0 140 99.5 225.5t263.5 85.5h364v47q0 285 -289 285q-118 0 -198.5 -48t-118.5 -133l-76 47q51 105 153.5 162.5t241.5 57.5q177 0 279 -91t102 -266v-473q0 -122 17 -178h-92
zM819 469v35h-350q-135 0 -209 -59.5t-74 -165.5q0 -104 73 -162t196 -58q175 0 269.5 111.5t94.5 298.5zM471 1096l107 217h129l-138 -217h-98z" />
    <glyph glyph-name="acircumflex" unicode="&#xe2;" horiz-adv-x="1062" 
d="M838 0q-16 63 -19 176q-45 -92 -143.5 -146.5t-224.5 -54.5q-164 0 -261.5 83.5t-97.5 220.5q0 140 99.5 225.5t263.5 85.5h364v47q0 285 -289 285q-118 0 -198.5 -48t-118.5 -133l-76 47q51 105 153.5 162.5t241.5 57.5q177 0 279 -91t102 -266v-473q0 -122 17 -178h-92
zM819 469v35h-350q-135 0 -209 -59.5t-74 -165.5q0 -104 73 -162t196 -58q175 0 269.5 111.5t94.5 298.5zM616 1096l-96 143l-98 -143h-119l143 219h125h21l143 -219h-119z" />
    <glyph glyph-name="atilde" unicode="&#xe3;" horiz-adv-x="1062" 
d="M838 0q-16 63 -19 176q-45 -92 -143.5 -146.5t-224.5 -54.5q-164 0 -261.5 83.5t-97.5 220.5q0 140 99.5 225.5t263.5 85.5h364v47q0 285 -289 285q-118 0 -198.5 -48t-118.5 -133l-76 47q51 105 153.5 162.5t241.5 57.5q177 0 279 -91t102 -266v-473q0 -122 17 -178h-92
zM819 469v35h-350q-135 0 -209 -59.5t-74 -165.5q0 -104 73 -162t196 -58q175 0 269.5 111.5t94.5 298.5zM387 1325q34 0 63 -10.5t74 -36.5q73 -39 111 -39q67 0 67 86h89q0 -85 -40.5 -132.5t-113.5 -47.5q-39 0 -70.5 12t-77.5 39q-59 35 -90 35q-63 0 -63 -86h-88
q-1 86 35.5 133t103.5 47z" />
    <glyph glyph-name="adieresis" unicode="&#xe4;" horiz-adv-x="1062" 
d="M838 0q-16 63 -19 176q-45 -92 -143.5 -146.5t-224.5 -54.5q-164 0 -261.5 83.5t-97.5 220.5q0 140 99.5 225.5t263.5 85.5h364v47q0 285 -289 285q-118 0 -198.5 -48t-118.5 -133l-76 47q51 105 153.5 162.5t241.5 57.5q177 0 279 -91t102 -266v-473q0 -122 17 -178h-92
zM819 469v35h-350q-135 0 -209 -59.5t-74 -165.5q0 -104 73 -162t196 -58q175 0 269.5 111.5t94.5 298.5zM252 1202q0 45 32 78t76 33q43 0 76 -33.5t33 -77.5q0 -42 -33 -74t-76 -32q-44 0 -76 31.5t-32 74.5zM571 1202q0 44 32.5 77.5t76.5 33.5q43 0 75.5 -33.5
t32.5 -77.5q0 -43 -32.5 -74.5t-75.5 -31.5q-44 0 -76.5 31.5t-32.5 74.5z" />
    <glyph glyph-name="aring" unicode="&#xe5;" horiz-adv-x="1062" 
d="M838 0q-16 63 -19 176q-45 -92 -143.5 -146.5t-224.5 -54.5q-164 0 -261.5 83.5t-97.5 220.5q0 140 99.5 225.5t263.5 85.5h364v47q0 285 -289 285q-118 0 -198.5 -48t-118.5 -133l-76 47q51 105 153.5 162.5t241.5 57.5q177 0 279 -91t102 -266v-473q0 -122 17 -178h-92
zM819 469v35h-350q-135 0 -209 -59.5t-74 -165.5q0 -104 73 -162t196 -58q175 0 269.5 111.5t94.5 298.5zM319 1300q0 84 60 144q58 61 141 61q85 0 145 -60t60 -145q0 -84 -60 -143t-145 -59t-143 58t-58 144zM639 1305q0 47 -34 80.5t-83 33.5t-81.5 -33t-32.5 -81
q0 -51 32.5 -85t81.5 -34q50 0 83.5 34t33.5 85z" />
    <glyph glyph-name="ae" unicode="&#xe6;" horiz-adv-x="1837" 
d="M1755 455h-848q10 -186 113 -290t266 -104q119 0 210 59t136 161l82 -37q-62 -131 -176.5 -200t-257.5 -69q-147 0 -256.5 71.5t-163.5 201.5q-35 -130 -138.5 -201.5t-250.5 -71.5q-148 0 -254 74q-102 76 -102 213q0 123 80 196.5t206 73.5h334q39 0 53.5 20t14.5 64
q0 145 -80 225.5t-209 80.5q-103 0 -184 -49t-129 -136l-72 45q55 101 159 162.5t224 61.5q131 0 227.5 -65.5t126.5 -180.5q57 117 166.5 182.5t251.5 65.5q212 0 341.5 -136t129.5 -356v-61zM1659 535q0 177 -104.5 282t-272.5 105q-162 0 -262.5 -102.5t-110.5 -284.5
h750zM809 446h-408q-87 0 -138.5 -49t-51.5 -133q0 -100 74.5 -149t193.5 -49q172 0 250 96q77 100 80 246v38z" />
    <glyph glyph-name="ccedilla" unicode="&#xe7;" horiz-adv-x="1101" 
d="M922 287l88 -37q-59 -126 -164 -196.5t-240 -78.5l-33 -38h78q58 0 90.5 -38.5t32.5 -91.5q0 -49 -33.5 -85.5t-85.5 -36.5h-180v79h158q24 0 38.5 16.5t14.5 37.5q-2 21 -15.5 34t-37.5 13h-158v69l37 43q-192 21 -307 160q-113 137 -113 355q0 231 132 373.5t351 142.5
q154 0 266.5 -72.5t168.5 -202.5l-88 -37q-41 106 -135 167t-216 61q-171 0 -277 -119.5t-106 -312.5t106 -312t277 -119q119 0 213 60.5t138 165.5z" />
    <glyph glyph-name="egrave" unicode="&#xe8;" horiz-adv-x="1116" 
d="M1024 432h-834q13 -177 112.5 -274t256.5 -97q120 0 208.5 58t133.5 162l82 -37q-63 -129 -175 -199t-255 -70q-207 0 -334 140t-127 370t128 376.5t341 146.5q208 0 335.5 -140t127.5 -374v-62zM188 512h738q-6 195 -104.5 302.5t-262.5 107.5q-162 0 -263 -110.5
t-108 -299.5zM367 1313h133l106 -217h-98z" />
    <glyph glyph-name="eacute" unicode="&#xe9;" horiz-adv-x="1116" 
d="M1024 432h-834q13 -177 112.5 -274t256.5 -97q120 0 208.5 58t133.5 162l82 -37q-63 -129 -175 -199t-255 -70q-207 0 -334 140t-127 370t128 376.5t341 146.5q208 0 335.5 -140t127.5 -374v-62zM188 512h738q-6 195 -104.5 302.5t-262.5 107.5q-162 0 -263 -110.5
t-108 -299.5zM508 1096l106 217h129l-137 -217h-98z" />
    <glyph glyph-name="ecircumflex" unicode="&#xea;" horiz-adv-x="1116" 
d="M1024 432h-834q13 -177 112.5 -274t256.5 -97q120 0 208.5 58t133.5 162l82 -37q-63 -129 -175 -199t-255 -70q-207 0 -334 140t-127 370t128 376.5t341 146.5q208 0 335.5 -140t127.5 -374v-62zM188 512h738q-6 195 -104.5 302.5t-262.5 107.5q-162 0 -263 -110.5
t-108 -299.5zM653 1096l-96 143l-98 -143h-119l143 219h125h21l143 -219h-119z" />
    <glyph glyph-name="edieresis" unicode="&#xeb;" horiz-adv-x="1116" 
d="M1024 432h-834q13 -177 112.5 -274t256.5 -97q120 0 208.5 58t133.5 162l82 -37q-63 -129 -175 -199t-255 -70q-207 0 -334 140t-127 370t128 376.5t341 146.5q208 0 335.5 -140t127.5 -374v-62zM188 512h738q-6 195 -104.5 302.5t-262.5 107.5q-162 0 -263 -110.5
t-108 -299.5zM299 1194q0 44 32.5 77.5t76.5 33.5q43 0 75.5 -33.5t32.5 -77.5q0 -43 -32.5 -75t-75.5 -32q-44 0 -76.5 32t-32.5 75zM618 1194q0 44 32.5 77.5t76.5 33.5q43 0 76 -33.5t33 -77.5q0 -43 -33 -75t-76 -32q-44 0 -76.5 32t-32.5 75z" />
    <glyph glyph-name="igrave" unicode="&#xec;" horiz-adv-x="335" 
d="M215 983v-983h-94v983h94zM-23 1313h134l106 -217h-98z" />
    <glyph glyph-name="iacute" unicode="&#xed;" horiz-adv-x="335" 
d="M215 983v-983h-94v983h94zM119 1096l106 217h129l-137 -217h-98z" />
    <glyph glyph-name="icircumflex" unicode="&#xee;" horiz-adv-x="335" 
d="M215 983v-983h-94v983h94zM264 1096l-96 143l-98 -143h-119l143 219h125h21l143 -219h-119z" />
    <glyph glyph-name="idieresis" unicode="&#xef;" horiz-adv-x="335" 
d="M215 983v-983h-94v983h94zM-100 1202q0 45 32 78t76 33q43 0 76 -33.5t33 -77.5q0 -42 -33 -74t-76 -32q-44 0 -76 31.5t-32 74.5zM219 1202q0 44 32.5 77.5t76.5 33.5q43 0 75.5 -33.5t32.5 -77.5q0 -43 -32.5 -74.5t-75.5 -31.5q-44 0 -76.5 31.5t-32.5 74.5z" />
    <glyph glyph-name="eth" unicode="&#xf0;" horiz-adv-x="1183" 
d="M1102 543q0 -253 -142 -410.5t-376 -157.5q-117 0 -213.5 42.5t-158.5 114.5t-96 165t-34 195q0 146 68 263.5t184.5 183t257.5 65.5q209 0 348 -142q-96 264 -276 410l-148 -146l-67 64l139 139q-71 59 -205 129l53 74q155 -86 217 -137l127 123l68 -68l-121 -115
q174 -149 274 -368q101 -212 101 -424zM1006 500q0 177 -115.5 292t-290.5 115q-180 0 -301 -122t-121 -302q0 -174 114 -293.5t296 -119.5q126 0 223 61t146 158t49 211z" />
    <glyph glyph-name="ntilde" unicode="&#xf1;" horiz-adv-x="1144" 
d="M991 600v-600h-94v600q0 163 -81 242.5t-216 79.5q-155 0 -243.5 -99.5t-88.5 -257.5v-563h-94v981h84l6 -154q45 82 138.5 130.5t211.5 48.5q161 0 269 -99q108 -94 108 -309zM446 1325q57 0 138 -47q73 -39 110 -39q68 0 68 86h88q0 -85 -40.5 -132.5t-113.5 -47.5
q-38 0 -69.5 11.5t-77.5 39.5q-59 35 -90 35q-64 0 -64 -86h-88q-1 86 35.5 133t103.5 47z" />
    <glyph glyph-name="ograve" unicode="&#xf2;" horiz-adv-x="1159" 
d="M580 1008q141 0 253.5 -70t173 -187.5t60.5 -258.5q0 -105 -36 -200t-99 -165t-154.5 -111t-197.5 -41q-141 0 -253.5 70t-173.5 188t-61 259t61 258.5t173.5 187.5t253.5 70zM580 61q174 0 281.5 122.5t107.5 308.5t-107.5 308t-281.5 122t-282 -122t-108 -308
t108 -308.5t282 -122.5zM389 1313h133l107 -217h-99z" />
    <glyph glyph-name="oacute" unicode="&#xf3;" horiz-adv-x="1159" 
d="M580 1008q141 0 253.5 -70t173 -187.5t60.5 -258.5q0 -105 -36 -200t-99 -165t-154.5 -111t-197.5 -41q-141 0 -253.5 70t-173.5 188t-61 259t61 258.5t173.5 187.5t253.5 70zM580 61q174 0 281.5 122.5t107.5 308.5t-107.5 308t-281.5 122t-282 -122t-108 -308
t108 -308.5t282 -122.5zM530 1096l107 217h129l-137 -217h-99z" />
    <glyph glyph-name="ocircumflex" unicode="&#xf4;" horiz-adv-x="1159" 
d="M580 1008q141 0 253.5 -70t173 -187.5t60.5 -258.5q0 -105 -36 -200t-99 -165t-154.5 -111t-197.5 -41q-141 0 -253.5 70t-173.5 188t-61 259t61 258.5t173.5 187.5t253.5 70zM580 61q174 0 281.5 122.5t107.5 308.5t-107.5 308t-281.5 122t-282 -122t-108 -308
t108 -308.5t282 -122.5zM676 1096l-96 143l-99 -143h-119l144 219h125h20l144 -219h-119z" />
    <glyph glyph-name="otilde" unicode="&#xf5;" horiz-adv-x="1159" 
d="M580 1008q141 0 253.5 -70t173 -187.5t60.5 -258.5q0 -105 -36 -200t-99 -165t-154.5 -111t-197.5 -41q-141 0 -253.5 70t-173.5 188t-61 259t61 258.5t173.5 187.5t253.5 70zM580 61q174 0 281.5 122.5t107.5 308.5t-107.5 308t-281.5 122t-282 -122t-108 -308
t108 -308.5t282 -122.5zM446 1325q57 0 138 -47q73 -39 110 -39q68 0 68 86h88q0 -85 -40.5 -132.5t-113.5 -47.5q-38 0 -69.5 11.5t-77.5 39.5q-59 35 -90 35q-64 0 -64 -86h-88q-1 86 35.5 133t103.5 47z" />
    <glyph glyph-name="odieresis" unicode="&#xf6;" horiz-adv-x="1159" 
d="M580 1008q141 0 253.5 -70t173 -187.5t60.5 -258.5q0 -105 -36 -200t-99 -165t-154.5 -111t-197.5 -41q-141 0 -253.5 70t-173.5 188t-61 259t61 258.5t173.5 187.5t253.5 70zM580 61q174 0 281.5 122.5t107.5 308.5t-107.5 308t-281.5 122t-282 -122t-108 -308
t108 -308.5t282 -122.5zM311 1202q0 44 32.5 77.5t76.5 33.5q43 0 75.5 -33.5t32.5 -77.5q0 -43 -32.5 -74.5t-75.5 -31.5q-44 0 -76.5 31.5t-32.5 74.5zM631 1202q0 45 32 78t76 33q43 0 76 -33.5t33 -77.5q0 -42 -33 -74t-76 -32q-44 0 -76 31.5t-32 74.5z" />
    <glyph glyph-name="divide" unicode="&#xf7;" horiz-adv-x="1097" 
d="M436 1018q0 46 34 79t79 33q47 0 80 -32.5t33 -79.5q0 -44 -34.5 -77.5t-78.5 -33.5t-78.5 33.5t-34.5 77.5zM934 668v-95h-770v95h770zM436 207q0 46 34 79t79 33q47 0 80 -32.5t33 -79.5q0 -44 -34.5 -77.5t-78.5 -33.5t-78.5 33.5t-34.5 77.5z" />
    <glyph glyph-name="oslash" unicode="&#xf8;" horiz-adv-x="1159" 
d="M1067 492q0 -105 -36 -200t-99 -165t-154.5 -111t-197.5 -41q-130 0 -234 58l-86 -137h-90l111 180q-91 72 -140 180t-49 236q0 141 61 258.5t173.5 187.5t253.5 70q127 0 239 -62l70 115h92l-98 -158q88 -72 136 -179.5t48 -231.5zM328 152l444 720q-89 50 -192 50
q-174 0 -282 -122t-108 -308q0 -105 36 -194t102 -146zM969 492q0 206 -133 333l-445 -716q85 -48 189 -48q174 0 281.5 122.5t107.5 308.5z" />
    <glyph glyph-name="ugrave" unicode="&#xf9;" horiz-adv-x="1163" 
d="M905 0q-12 71 -16 168q-42 -88 -134 -140.5t-210 -52.5q-159 0 -271 103q-110 101 -110 317v590h96v-590q0 -166 81.5 -250t217.5 -84q156 0 242 103q88 101 88 254v565h94v-805q0 -87 16 -178h-94zM383 1313h133l107 -217h-99z" />
    <glyph glyph-name="uacute" unicode="&#xfa;" horiz-adv-x="1163" 
d="M905 0q-12 71 -16 168q-42 -88 -134 -140.5t-210 -52.5q-159 0 -271 103q-110 101 -110 317v590h96v-590q0 -166 81.5 -250t217.5 -84q156 0 242 103q88 101 88 254v565h94v-805q0 -87 16 -178h-94zM524 1096l107 217h129l-137 -217h-99z" />
    <glyph glyph-name="ucircumflex" unicode="&#xfb;" horiz-adv-x="1163" 
d="M905 0q-12 71 -16 168q-42 -88 -134 -140.5t-210 -52.5q-159 0 -271 103q-110 101 -110 317v590h96v-590q0 -166 81.5 -250t217.5 -84q156 0 242 103q88 101 88 254v565h94v-805q0 -87 16 -178h-94zM670 1096l-97 143l-98 -143h-119l144 219h125h20l143 -219h-118z" />
    <glyph glyph-name="udieresis" unicode="&#xfc;" horiz-adv-x="1163" 
d="M905 0q-12 71 -16 168q-42 -88 -134 -140.5t-210 -52.5q-159 0 -271 103q-110 101 -110 317v590h96v-590q0 -166 81.5 -250t217.5 -84q156 0 242 103q88 101 88 254v565h94v-805q0 -87 16 -178h-94zM305 1202q0 44 32.5 77.5t76.5 33.5q43 0 75.5 -33.5t32.5 -77.5
q0 -43 -32.5 -74.5t-75.5 -31.5q-44 0 -76.5 31.5t-32.5 74.5zM625 1202q0 45 32 78t76 33q43 0 76 -33.5t33 -77.5q0 -42 -33 -74t-76 -32q-44 0 -76 31.5t-32 74.5z" />
    <glyph glyph-name="yacute" unicode="&#xfd;" horiz-adv-x="954" 
d="M924 983l-435 -1200q-40 -108 -110.5 -162.5t-159.5 -54.5q-93 0 -168 53l29 86q56 -53 143 -53q121 0 174 147l52 140l-418 1044h98l363 -924l335 924h97zM432 1096l107 217h129l-138 -217h-98z" />
    <glyph glyph-name="thorn" unicode="&#xfe;" horiz-adv-x="1177" 
d="M1096 492q0 -227 -122 -372t-331 -145q-130 0 -231 59t-156 169v-619h-92v1870h92v-674q55 110 156 169t231 59q209 0 331 -144.5t122 -371.5zM999 492q0 195 -96.5 312.5t-265.5 117.5q-170 0 -267.5 -117.5t-97.5 -312.5q0 -193 98 -312t267 -119q168 0 265 119t97 312
z" />
    <glyph glyph-name="ydieresis" unicode="&#xff;" horiz-adv-x="954" 
d="M924 983l-435 -1200q-40 -108 -110.5 -162.5t-159.5 -54.5q-93 0 -168 53l29 86q56 -53 143 -53q121 0 174 147l52 140l-418 1044h98l363 -924l335 924h97zM213 1202q0 44 32.5 77.5t76.5 33.5q43 0 75.5 -33.5t32.5 -77.5q0 -43 -32.5 -74.5t-75.5 -31.5
q-44 0 -76.5 31.5t-32.5 74.5zM532 1202q0 44 32.5 77.5t76.5 33.5q43 0 76 -33.5t33 -77.5q0 -42 -33 -74t-76 -32q-44 0 -76.5 31.5t-32.5 74.5z" />
    <glyph glyph-name="Amacron" unicode="&#x100;" horiz-adv-x="1286" 
d="M1006 408h-727l-154 -408h-94l538 1454h105h37l544 -1454h-100zM975 492l-328 890l-336 -890h664zM901 1667v-94h-524v94h524z" />
    <glyph glyph-name="amacron" unicode="&#x101;" horiz-adv-x="1062" 
d="M838 0q-16 63 -19 176q-45 -92 -143.5 -146.5t-224.5 -54.5q-164 0 -261.5 83.5t-97.5 220.5q0 140 99.5 225.5t263.5 85.5h364v47q0 285 -289 285q-118 0 -198.5 -48t-118.5 -133l-76 47q51 105 153.5 162.5t241.5 57.5q177 0 279 -91t102 -266v-473q0 -122 17 -178h-92
zM819 469v35h-350q-135 0 -209 -59.5t-74 -165.5q0 -104 73 -162t196 -58q175 0 269.5 111.5t94.5 298.5zM782 1196v-94h-524v94h524z" />
    <glyph glyph-name="Abreve" unicode="&#x102;" horiz-adv-x="1286" 
d="M1006 408h-727l-154 -408h-94l538 1454h105h37l544 -1454h-100zM975 492l-328 890l-336 -890h664zM639 1567q-99 0 -167.5 63t-68.5 156h105q0 -50 36 -82.5t95 -32.5t95 32.5t36 82.5h104q0 -93 -68 -156t-167 -63z" />
    <glyph glyph-name="abreve" unicode="&#x103;" horiz-adv-x="1062" 
d="M838 0q-16 63 -19 176q-45 -92 -143.5 -146.5t-224.5 -54.5q-164 0 -261.5 83.5t-97.5 220.5q0 140 99.5 225.5t263.5 85.5h364v47q0 285 -289 285q-118 0 -198.5 -48t-118.5 -133l-76 47q51 105 153.5 162.5t241.5 57.5q177 0 279 -91t102 -266v-473q0 -122 17 -178h-92
zM819 469v35h-350q-135 0 -209 -59.5t-74 -165.5q0 -104 73 -162t196 -58q175 0 269.5 111.5t94.5 298.5zM520 1096q-99 0 -167 63t-68 156h104q0 -50 36 -82.5t95 -32.5t95 32.5t36 82.5h105q0 -93 -68.5 -156t-167.5 -63z" />
    <glyph glyph-name="Aogonek" unicode="&#x104;" horiz-adv-x="1286" 
d="M1006 408h-727l-154 -408h-94l538 1454h105h37l544 -1454h-100zM975 492l-328 890l-336 -890h664zM1255 0q-47 -25 -71.5 -55t-24.5 -58q0 -26 20.5 -44.5t49.5 -18.5q6 0 26 4v-92q-27 -8 -61 -8q-59 0 -94 34t-35 86q0 46 29.5 88t83.5 64h77z" />
    <glyph glyph-name="aogonek" unicode="&#x105;" horiz-adv-x="1062" 
d="M834 -113q0 -26 20 -44.5t49 -18.5q7 0 27 4v-92q-27 -8 -62 -8q-59 0 -94 34t-35 86q0 46 29.5 88t83.5 64h-14q-16 63 -19 176q-45 -92 -143.5 -146.5t-224.5 -54.5q-164 0 -261.5 83.5t-97.5 220.5q0 140 99.5 225.5t263.5 85.5h364v47q0 285 -289 285
q-118 0 -198.5 -48t-118.5 -133l-76 47q51 105 153.5 162.5t241.5 57.5q177 0 279 -91t102 -266v-473q0 -122 17 -178q-47 -25 -71.5 -55t-24.5 -58zM819 469v35h-350q-135 0 -209 -59.5t-74 -165.5q0 -104 73 -162t196 -58q175 0 269.5 111.5t94.5 298.5z" />
    <glyph glyph-name="Cacute" unicode="&#x106;" horiz-adv-x="1474" 
d="M1290 1018q-51 168 -186.5 265t-323.5 97q-257 0 -417 -179.5t-160 -473.5q0 -293 160 -473t415 -180q181 0 318 90q134 89 188 237l90 -39q-64 -173 -225 -280q-163 -105 -373 -105q-143 -2 -269 53.5t-215.5 154.5t-140.5 240.5t-49 303.5q-3 217 84.5 390t243 268
t348.5 92q222 0 382.5 -115t221.5 -309zM739 1567l107 217h129l-137 -217h-99z" />
    <glyph glyph-name="cacute" unicode="&#x107;" horiz-adv-x="1101" 
d="M575 1008q154 0 266.5 -72.5t168.5 -202.5l-88 -37q-41 106 -135 167t-216 61q-171 0 -277 -119.5t-106 -312.5t106 -312t277 -119q119 0 213 60.5t138 165.5l88 -37q-62 -134 -176.5 -204.5t-262.5 -70.5q-216 0 -347.5 143t-131.5 374t132 373.5t351 142.5zM508 1096
l106 217h129l-137 -217h-98z" />
    <glyph glyph-name="Ccircumflex" unicode="&#x108;" horiz-adv-x="1474" 
d="M1290 1018q-51 168 -186.5 265t-323.5 97q-257 0 -417 -179.5t-160 -473.5q0 -293 160 -473t415 -180q181 0 318 90q134 89 188 237l90 -39q-64 -173 -225 -280q-163 -105 -373 -105q-143 -2 -269 53.5t-215.5 154.5t-140.5 240.5t-49 303.5q-3 217 84.5 390t243 268
t348.5 92q222 0 382.5 -115t221.5 -309zM885 1567l-97 143l-98 -143h-119l144 219h125h20l144 -219h-119z" />
    <glyph glyph-name="ccircumflex" unicode="&#x109;" horiz-adv-x="1101" 
d="M575 1008q154 0 266.5 -72.5t168.5 -202.5l-88 -37q-41 106 -135 167t-216 61q-171 0 -277 -119.5t-106 -312.5t106 -312t277 -119q119 0 213 60.5t138 165.5l88 -37q-62 -134 -176.5 -204.5t-262.5 -70.5q-216 0 -347.5 143t-131.5 374t132 373.5t351 142.5zM653 1096
l-96 143l-98 -143h-119l143 219h125h21l143 -219h-119z" />
    <glyph glyph-name="Cdotaccent" unicode="&#x10a;" horiz-adv-x="1474" 
d="M1290 1018q-51 168 -186.5 265t-323.5 97q-257 0 -417 -179.5t-160 -473.5q0 -293 160 -473t415 -180q181 0 318 90q134 89 188 237l90 -39q-64 -173 -225 -280q-163 -105 -373 -105q-143 -2 -269 53.5t-215.5 154.5t-140.5 240.5t-49 303.5q-3 217 84.5 390t243 268
t348.5 92q222 0 382.5 -115t221.5 -309zM680 1675q0 45 32 78t76 33q43 0 76 -33.5t33 -77.5q0 -42 -33 -74t-76 -32q-44 0 -76 31.5t-32 74.5z" />
    <glyph glyph-name="cdotaccent" unicode="&#x10b;" horiz-adv-x="1101" 
d="M575 1008q154 0 266.5 -72.5t168.5 -202.5l-88 -37q-41 106 -135 167t-216 61q-171 0 -277 -119.5t-106 -312.5t106 -312t277 -119q119 0 213 60.5t138 165.5l88 -37q-62 -134 -176.5 -204.5t-262.5 -70.5q-216 0 -347.5 143t-131.5 374t132 373.5t351 142.5zM449 1204
q0 45 32 78t76 33q43 0 76 -33.5t33 -77.5q0 -42 -33 -74t-76 -32q-44 0 -76 31.5t-32 74.5z" />
    <glyph glyph-name="Ccaron" unicode="&#x10c;" horiz-adv-x="1474" 
d="M1290 1018q-51 168 -186.5 265t-323.5 97q-257 0 -417 -179.5t-160 -473.5q0 -293 160 -473t415 -180q181 0 318 90q134 89 188 237l90 -39q-64 -173 -225 -280q-163 -105 -373 -105q-143 -2 -269 53.5t-215.5 154.5t-140.5 240.5t-49 303.5q-3 217 84.5 390t243 268
t348.5 92q222 0 382.5 -115t221.5 -309zM1004 1786l-144 -219h-125h-20l-144 219h119l98 -144l97 144h119z" />
    <glyph glyph-name="ccaron" unicode="&#x10d;" horiz-adv-x="1101" 
d="M575 1008q154 0 266.5 -72.5t168.5 -202.5l-88 -37q-41 106 -135 167t-216 61q-171 0 -277 -119.5t-106 -312.5t106 -312t277 -119q119 0 213 60.5t138 165.5l88 -37q-62 -134 -176.5 -204.5t-262.5 -70.5q-216 0 -347.5 143t-131.5 374t132 373.5t351 142.5zM772 1315
l-143 -219h-125h-21l-143 219h119l98 -144l96 144h119z" />
    <glyph glyph-name="Dcaron" unicode="&#x10e;" horiz-adv-x="1437" 
d="M1335 727q3 -211 -89.5 -378t-261 -259t-382.5 -90h-407v1454h407q214 2 382.5 -90t261 -259t89.5 -378zM1231 727q0 284 -173.5 458.5t-455.5 174.5h-309v-1266h309q282 0 455.5 174.5t173.5 458.5zM821 1784l-143 -219h-125h-21l-143 219h119l98 -144l96 144h119z" />
    <glyph glyph-name="dcaron" unicode="&#x10f;" horiz-adv-x="1384" 
d="M1014 211q3 -127 16 -211h-94q-13 105 -16 201q-55 -110 -155 -168t-230 -58q-209 0 -331 145t-122 372t122 371.5t331 144.5q130 0 231 -59t156 -169v699h92v-1268zM1262 1419l-23 -315h-57l-25 315q-1 28 14 44t39 16t38.5 -16t13.5 -44zM905 492q0 194 -97.5 312
t-266.5 118q-168 0 -265.5 -118.5t-97.5 -311.5q0 -195 97 -313t266 -118t266.5 118t97.5 313z" />
    <glyph glyph-name="Dcroat" unicode="&#x110;" horiz-adv-x="1423" 
d="M1335 727q3 -211 -89.5 -378t-261 -259t-382.5 -90h-407v680h-154v94h154v680h407q214 2 382.5 -90t261 -259t89.5 -378zM1231 727q0 284 -173.5 458.5t-455.5 174.5h-309v-586h227v-94h-227v-586h309q282 0 455.5 174.5t173.5 458.5z" />
    <glyph glyph-name="dslash" unicode="&#x111;" horiz-adv-x="1187" 
d="M1024 1174v-963q3 -127 16 -211h-94q-13 105 -16 201q-55 -110 -155 -168t-230 -58q-209 0 -331 145t-122 372t122 371.5t331 144.5q130 0 231 -59t156 -169v394h-373v90h373v215h92v-215h143v-90h-143zM915 492q0 194 -97.5 312t-266.5 118q-168 0 -265.5 -118.5
t-97.5 -311.5q0 -195 97 -313t266 -118t266.5 118t97.5 313z" />
    <glyph glyph-name="Emacron" unicode="&#x112;" horiz-adv-x="1183" 
d="M1051 94v-94h-856v1454h854v-96h-758v-586h690v-88h-690v-590h760zM870 1667v-94h-524v94h524z" />
    <glyph glyph-name="emacron" unicode="&#x113;" horiz-adv-x="1116" 
d="M1024 432h-834q13 -177 112.5 -274t256.5 -97q120 0 208.5 58t133.5 162l82 -37q-63 -129 -175 -199t-255 -70q-207 0 -334 140t-127 370t128 376.5t341 146.5q208 0 335.5 -140t127.5 -374v-62zM188 512h738q-6 195 -104.5 302.5t-262.5 107.5q-162 0 -263 -110.5
t-108 -299.5zM819 1196v-94h-524v94h524z" />
    <glyph glyph-name="Ebreve" unicode="&#x114;" horiz-adv-x="1183" 
d="M1051 94v-94h-856v1454h854v-96h-758v-586h690v-88h-690v-590h760zM844 1786q0 -93 -68.5 -156t-167.5 -63t-167 63t-68 156h104q0 -50 36 -82.5t95 -32.5t95 32.5t36 82.5h105z" />
    <glyph glyph-name="ebreve" unicode="&#x115;" horiz-adv-x="1116" 
d="M1024 432h-834q13 -177 112.5 -274t256.5 -97q120 0 208.5 58t133.5 162l82 -37q-63 -129 -175 -199t-255 -70q-207 0 -334 140t-127 370t128 376.5t341 146.5q208 0 335.5 -140t127.5 -374v-62zM188 512h738q-6 195 -104.5 302.5t-262.5 107.5q-162 0 -263 -110.5
t-108 -299.5zM793 1315q0 -93 -68.5 -156t-167.5 -63t-167 63t-68 156h104q0 -50 36 -82.5t95 -32.5t95 32.5t36 82.5h105z" />
    <glyph glyph-name="Edotaccent" unicode="&#x116;" horiz-adv-x="1183" 
d="M1051 94v-94h-856v1454h854v-96h-758v-586h690v-88h-690v-590h760zM500 1675q0 45 32 78t76 33q43 0 76 -33.5t33 -77.5q0 -42 -33 -74t-76 -32q-44 0 -76 31.5t-32 74.5z" />
    <glyph glyph-name="edotaccent" unicode="&#x117;" horiz-adv-x="1116" 
d="M1024 432h-834q13 -177 112.5 -274t256.5 -97q120 0 208.5 58t133.5 162l82 -37q-63 -129 -175 -199t-255 -70q-207 0 -334 140t-127 370t128 376.5t341 146.5q208 0 335.5 -140t127.5 -374v-62zM188 512h738q-6 195 -104.5 302.5t-262.5 107.5q-162 0 -263 -110.5
t-108 -299.5zM449 1204q0 45 32 78t76 33q43 0 76 -33.5t33 -77.5q0 -42 -33 -74t-76 -32q-44 0 -76 31.5t-32 74.5z" />
    <glyph glyph-name="Eogonek" unicode="&#x118;" horiz-adv-x="1183" 
d="M1051 94v-94h-856v1454h854v-96h-758v-586h690v-88h-690v-590h760zM1049 0q-48 -25 -72.5 -55t-24.5 -58q0 -26 20.5 -44.5t49.5 -18.5q7 0 27 4v-92q-27 -8 -62 -8q-59 0 -94 34t-35 86q0 46 29.5 88t83.5 64h78z" />
    <glyph glyph-name="eogonek" unicode="&#x119;" horiz-adv-x="1116" 
d="M1024 432h-834q13 -177 112.5 -274t256.5 -97q120 0 208.5 58t133.5 162l82 -37q-57 -117 -153.5 -185t-221.5 -82q-76 -49 -76 -100q0 -26 20.5 -43.5t51.5 -17.5q19 0 25 2v-92q-30 -9 -60 -9q-60 0 -94.5 34t-34.5 87q0 40 22 77t62 60q-195 9 -313.5 149t-118.5 361
q0 230 128 376.5t341 146.5q208 0 335.5 -140t127.5 -374v-62zM188 512h738q-6 195 -104.5 302.5t-262.5 107.5q-162 0 -263 -110.5t-108 -299.5z" />
    <glyph glyph-name="Ecaron" unicode="&#x11a;" horiz-adv-x="1183" 
d="M1051 94v-94h-856v1454h854v-96h-758v-586h690v-88h-690v-590h760zM823 1786l-143 -219h-125h-20l-144 219h119l98 -144l97 144h118z" />
    <glyph glyph-name="ecaron" unicode="&#x11b;" horiz-adv-x="1116" 
d="M1024 432h-834q13 -177 112.5 -274t256.5 -97q120 0 208.5 58t133.5 162l82 -37q-63 -129 -175 -199t-255 -70q-207 0 -334 140t-127 370t128 376.5t341 146.5q208 0 335.5 -140t127.5 -374v-62zM188 512h738q-6 195 -104.5 302.5t-262.5 107.5q-162 0 -263 -110.5
t-108 -299.5zM772 1315l-143 -219h-125h-21l-143 219h119l98 -144l96 144h119z" />
    <glyph glyph-name="Gcircumflex" unicode="&#x11c;" horiz-adv-x="1527" 
d="M1405 772v-774h-90v240q-75 -123 -219 -193t-318 -70q-144 -2 -270 52.5t-216 152t-141 238t-49 303.5q0 220 87 392.5t245.5 269t362.5 96.5q209 0 360.5 -99t214.5 -276l-84 -41q-59 160 -186.5 240.5t-304.5 80.5q-269 0 -431.5 -183t-162.5 -480q0 -293 160 -472
t409 -179q70 0 138.5 12t141 43.5t128 79.5t92.5 127t41 180v172h-568v88h660zM840 1569l-97 143l-98 -143h-119l144 219h125h20l143 -219h-118z" />
    <glyph glyph-name="gcircumflex" unicode="&#x11d;" horiz-adv-x="1062" 
d="M1022 -156q0 -284 -479 -284q-183 0 -322 53t-139 207q0 72 39.5 132t105.5 91q-45 19 -70.5 54.5t-25.5 82.5q0 62 34.5 105t98.5 55q-135 104 -135 287q0 163 113.5 272t289.5 109q134 0 232 -64q66 112 231 103v-95q-6 2 -30 2q-89 0 -140 -57q113 -107 113 -270
q0 -161 -113.5 -268t-289.5 -107q-105 0 -195 41q-123 -3 -123 -94q0 -93 111 -93h381q147 0 230 -70t83 -192zM530 334q146 0 232 82t86 209q0 131 -86 216t-227 85t-228.5 -85t-87.5 -216q0 -129 85 -210t226 -81zM928 -156q0 83 -57 129.5t-162 46.5h-336
q-96 -1 -150.5 -53.5t-54.5 -130.5q0 -118 111 -155q110 -37 260 -37q196 0 292.5 44t96.5 156zM614 1096l-96 143l-98 -143h-119l143 219h125h21l143 -219h-119z" />
    <glyph glyph-name="Gbreve" unicode="&#x11e;" horiz-adv-x="1527" 
d="M1405 772v-774h-90v240q-75 -123 -219 -193t-318 -70q-144 -2 -270 52.5t-216 152t-141 238t-49 303.5q0 220 87 392.5t245.5 269t362.5 96.5q209 0 360.5 -99t214.5 -276l-84 -41q-59 160 -186.5 240.5t-304.5 80.5q-269 0 -431.5 -183t-162.5 -480q0 -293 160 -472
t409 -179q70 0 138.5 12t141 43.5t128 79.5t92.5 127t41 180v172h-568v88h660zM979 1788q0 -93 -68.5 -156t-167.5 -63t-167 63t-68 156h104q0 -50 36 -82.5t95 -32.5t95 32.5t36 82.5h105z" />
    <glyph glyph-name="gbreve" unicode="&#x11f;" horiz-adv-x="1062" 
d="M1022 -156q0 -284 -479 -284q-183 0 -322 53t-139 207q0 72 39.5 132t105.5 91q-45 19 -70.5 54.5t-25.5 82.5q0 62 34.5 105t98.5 55q-135 104 -135 287q0 163 113.5 272t289.5 109q134 0 232 -64q66 112 231 103v-95q-6 2 -30 2q-89 0 -140 -57q113 -107 113 -270
q0 -161 -113.5 -268t-289.5 -107q-105 0 -195 41q-123 -3 -123 -94q0 -93 111 -93h381q147 0 230 -70t83 -192zM530 334q146 0 232 82t86 209q0 131 -86 216t-227 85t-228.5 -85t-87.5 -216q0 -129 85 -210t226 -81zM928 -156q0 83 -57 129.5t-162 46.5h-336
q-96 -1 -150.5 -53.5t-54.5 -130.5q0 -118 111 -155q110 -37 260 -37q196 0 292.5 44t96.5 156zM805 1315q0 -93 -68.5 -156t-167.5 -63t-167 63t-68 156h104q0 -50 36 -82.5t95 -32.5t95 32.5t36 82.5h105z" />
    <glyph glyph-name="Gdotaccent" unicode="&#x120;" horiz-adv-x="1527" 
d="M1405 772v-774h-90v240q-75 -123 -219 -193t-318 -70q-144 -2 -270 52.5t-216 152t-141 238t-49 303.5q0 220 87 392.5t245.5 269t362.5 96.5q209 0 360.5 -99t214.5 -276l-84 -41q-59 160 -186.5 240.5t-304.5 80.5q-269 0 -431.5 -183t-162.5 -480q0 -293 160 -472
t409 -179q70 0 138.5 12t141 43.5t128 79.5t92.5 127t41 180v172h-568v88h660zM635 1677q0 45 32 78t76 33q43 0 76 -33.5t33 -77.5q0 -42 -33 -74t-76 -32q-44 0 -76 31.5t-32 74.5z" />
    <glyph glyph-name="gdotaccent" unicode="&#x121;" horiz-adv-x="1062" 
d="M1022 -156q0 -284 -479 -284q-183 0 -322 53t-139 207q0 72 39.5 132t105.5 91q-45 19 -70.5 54.5t-25.5 82.5q0 62 34.5 105t98.5 55q-135 104 -135 287q0 163 113.5 272t289.5 109q134 0 232 -64q66 112 231 103v-95q-6 2 -30 2q-89 0 -140 -57q113 -107 113 -270
q0 -161 -113.5 -268t-289.5 -107q-105 0 -195 41q-123 -3 -123 -94q0 -93 111 -93h381q147 0 230 -70t83 -192zM530 334q146 0 232 82t86 209q0 131 -86 216t-227 85t-228.5 -85t-87.5 -216q0 -129 85 -210t226 -81zM928 -156q0 83 -57 129.5t-162 46.5h-336
q-96 -1 -150.5 -53.5t-54.5 -130.5q0 -118 111 -155q110 -37 260 -37q196 0 292.5 44t96.5 156zM461 1204q0 45 32 78t76 33q43 0 76 -33.5t33 -77.5q0 -42 -33 -74t-76 -32q-44 0 -76 31.5t-32 74.5z" />
    <glyph glyph-name="Gcommaaccent" unicode="&#x122;" horiz-adv-x="1527" 
d="M1405 772v-774h-90v240q-75 -123 -219 -193t-318 -70q-144 -2 -270 52.5t-216 152t-141 238t-49 303.5q0 220 87 392.5t245.5 269t362.5 96.5q209 0 360.5 -99t214.5 -276l-84 -41q-59 160 -186.5 240.5t-304.5 80.5q-269 0 -431.5 -183t-162.5 -480q0 -293 160 -472
t409 -179q70 0 138.5 12t141 43.5t128 79.5t92.5 127t41 180v172h-568v88h660zM942 -205q0 -78 -54 -129.5t-110 -48.5v47q28 2 54.5 28t27.5 60q-15 -6 -31 -6q-32 0 -53.5 22t-21.5 58q0 38 25 63t63 25q44 0 72 -31.5t28 -87.5z" />
    <glyph glyph-name="gcommaaccent" unicode="&#x123;" horiz-adv-x="1062" 
d="M1022 -156q0 -284 -479 -284q-183 0 -322 53t-139 207q0 72 39.5 132t105.5 91q-45 19 -70.5 54.5t-25.5 82.5q0 62 34.5 105t98.5 55q-135 104 -135 287q0 163 113.5 272t289.5 109q134 0 232 -64q66 112 231 103v-95q-6 2 -30 2q-89 0 -140 -57q113 -107 113 -270
q0 -161 -113.5 -268t-289.5 -107q-105 0 -195 41q-123 -3 -123 -94q0 -93 111 -93h381q147 0 230 -70t83 -192zM530 334q146 0 232 82t86 209q0 131 -86 216t-227 85t-228.5 -85t-87.5 -216q0 -129 85 -210t226 -81zM928 -156q0 83 -57 129.5t-162 46.5h-336
q-96 -1 -150.5 -53.5t-54.5 -130.5q0 -118 111 -155q110 -37 260 -37q196 0 292.5 44t96.5 156zM520 1096l107 217h129l-138 -217h-98z" />
    <glyph glyph-name="Hbar" unicode="&#x126;" horiz-adv-x="1431" 
d="M1405 1165h-168v-1165h-98v694h-846v-694h-98v1165h-195v95h195v194h98v-194h846v194h98v-194h168v-95zM1139 1165h-846v-383l846 -2v385z" />
    <glyph glyph-name="hbar" unicode="&#x127;" horiz-adv-x="1175" 
d="M1022 580v-580h-94v567q0 186 -80 270.5t-238 84.5q-147 0 -244.5 -108t-97.5 -267v-545h-94v1190h-133v61h133v226h94v-226h320v-61h-320v-379q48 89 142 142t211 53q173 0 286 -101q115 -100 115 -327z" />
    <glyph glyph-name="Itilde" unicode="&#x128;" horiz-adv-x="487" 
d="M195 0v1454h98v-1454h-98zM111 1796q34 0 63 -10.5t74 -36.5q73 -39 110 -39q68 0 68 86h88q0 -85 -40.5 -132.5t-113.5 -47.5q-38 0 -69.5 12t-77.5 39q-59 35 -90 35q-64 0 -64 -86h-88q-1 85 36 132.5t104 47.5z" />
    <glyph glyph-name="itilde" unicode="&#x129;" horiz-adv-x="335" 
d="M215 983v-983h-94v983h94zM35 1325q34 0 63 -10.5t74 -36.5q73 -39 111 -39q67 0 67 86h88q0 -85 -40 -132.5t-113 -47.5q-39 0 -70.5 12t-77.5 39q-59 35 -90 35q-63 0 -63 -86h-88q-1 86 35.5 133t103.5 47z" />
    <glyph glyph-name="Imacron" unicode="&#x12a;" horiz-adv-x="487" 
d="M195 0v1454h98v-1454h-98zM506 1667v-94h-524v94h524z" />
    <glyph glyph-name="imacron" unicode="&#x12b;" horiz-adv-x="335" 
d="M215 983v-983h-94v983h94zM430 1196v-94h-524v94h524z" />
    <glyph glyph-name="Iogonek" unicode="&#x12e;" horiz-adv-x="487" 
d="M195 0v1454h98v-1454h-98zM293 0q-47 -25 -71.5 -55t-24.5 -58q0 -26 20 -44.5t49 -18.5q7 0 27 4v-92q-27 -8 -62 -8q-59 0 -94 34t-35 86q0 46 29.5 88t83.5 64h78z" />
    <glyph glyph-name="iogonek" unicode="&#x12f;" horiz-adv-x="335" 
d="M215 983v-983h-94v983h94zM215 0q-47 -25 -71.5 -55t-24.5 -58q0 -26 20 -44.5t49 -18.5q7 0 27 4v-92q-27 -8 -61 -8q-59 0 -94 34t-35 86q0 46 29 88t83 64h78zM59 1204q0 44 32.5 77.5t76.5 33.5q43 0 75.5 -33.5t32.5 -77.5q0 -43 -32.5 -74.5t-75.5 -31.5
q-44 0 -76.5 31.5t-32.5 74.5z" />
    <glyph glyph-name="Idot" unicode="&#x130;" horiz-adv-x="487" 
d="M195 0v1454h98v-1454h-98zM135 1675q0 44 32.5 77.5t76.5 33.5q43 0 75.5 -33.5t32.5 -77.5q0 -43 -32.5 -74.5t-75.5 -31.5q-44 0 -76.5 31.5t-32.5 74.5z" />
    <glyph glyph-name="dotlessi" unicode="&#x131;" horiz-adv-x="335" 
d="M215 983v-983h-94v983h94z" />
    <glyph glyph-name="Jcircumflex" unicode="&#x134;" horiz-adv-x="1017" 
d="M844 1454v-1059q0 -191 -112 -305.5t-300 -114.5q-183 0 -282 111.5t-99 308.5v45h96v-45q0 -197 89 -262q86 -63 196 -63q127 0 219 71q94 70 94 254v1059h99zM891 1571l-96 143l-99 -143h-118l143 219h125h20l144 -219h-119z" />
    <glyph glyph-name="jcircumflex" unicode="&#x135;" horiz-adv-x="448" 
d="M-51 -322q65 -18 114 -18q160 0 160 188v1135h94v-1135q0 -131 -62 -206.5t-179 -75.5q-71 0 -148 26zM367 1096l-97 143l-98 -143h-119l144 219h125h20l143 -219h-118z" />
    <glyph glyph-name="Kcommaaccent" unicode="&#x136;" horiz-adv-x="1230" 
d="M668 829l510 -829h-123l-449 756l-311 -371v-385h-100v1454h100v-924l774 924h121zM774 -174q0 -78 -54 -129.5t-110 -48.5v47q28 2 54.5 28t27.5 60q-15 -6 -30 -6q-32 0 -54 22t-22 58q0 38 25 63t63 25q44 0 72 -31.5t28 -87.5z" />
    <glyph glyph-name="kcommaaccent" unicode="&#x137;" horiz-adv-x="958" 
d="M174 0v1479h94v-1047l535 551h121l-406 -420l410 -563h-109l-364 500l-187 -193v-307h-94zM602 -174q0 -78 -54 -129.5t-110 -48.5v47q28 2 54.5 28t27.5 60q-15 -6 -31 -6q-32 0 -53.5 22t-21.5 58q0 38 25 63t63 25q44 0 72 -31.5t28 -87.5z" />
    <glyph glyph-name="Lacute" unicode="&#x139;" horiz-adv-x="964" 
d="M903 90v-90h-694h-14v1454h98v-1364h610zM195 1567l106 217h129l-137 -217h-98z" />
    <glyph glyph-name="lacute" unicode="&#x13a;" horiz-adv-x="442" 
d="M174 1479h94v-1479h-94v1479zM172 1569l107 217h129l-138 -217h-98z" />
    <glyph glyph-name="Lcommaaccent" unicode="&#x13b;" horiz-adv-x="964" 
d="M903 90v-90h-694h-14v1454h98v-1364h610zM655 -174q0 -78 -53.5 -129.5t-109.5 -48.5v47q28 2 54 28t27 60q-15 -6 -30 -6q-32 0 -54 22t-22 58q0 38 25 63t63 25q44 0 72 -31.5t28 -87.5z" />
    <glyph glyph-name="lcommaaccent" unicode="&#x13c;" horiz-adv-x="442" 
d="M174 1479h94v-1479h-94v1479zM319 -174q0 -78 -53.5 -129.5t-109.5 -48.5v47q28 2 54.5 28t27.5 60q-15 -6 -31 -6q-32 0 -54 22t-22 58q0 38 25 63t63 25q44 0 72 -31.5t28 -87.5z" />
    <glyph glyph-name="Lcaron" unicode="&#x13d;" horiz-adv-x="964" 
d="M903 90v-90h-694h-14v1454h98v-1364h610zM700 1346q0 -78 -53.5 -130t-109.5 -49v47q28 2 54 28.5t27 60.5q-17 -7 -30 -7q-32 0 -54 22t-22 58q0 38 25 63t63 25q44 0 72 -31.5t28 -86.5z" />
    <glyph glyph-name="lcaron" unicode="&#x13e;" horiz-adv-x="442" 
d="M174 1479h94v-1479h-94v1479z" />
    <glyph glyph-name="Ldot" unicode="&#x13f;" horiz-adv-x="964" 
d="M903 90v-90h-694h-14v1454h98v-1364h610zM477 731q0 44 32.5 76.5t76.5 32.5t77 -32.5t33 -76.5t-33 -76t-77 -32q-43 0 -76 32t-33 76z" />
    <glyph glyph-name="ldot" unicode="&#x140;" horiz-adv-x="663" 
d="M174 1479h94v-1479h-94v1479zM358 739q0 47 33 79t78 32q47 0 80 -33t33 -78t-33 -77.5t-80 -32.5q-44 0 -77.5 33t-33.5 77z" />
    <glyph glyph-name="Lslash" unicode="&#x141;" horiz-adv-x="950" 
d="M903 90v-90h-694h-14v709l-162 -78v117l162 77v629h98v-582l430 205v-116l-430 -205v-666h610z" />
    <glyph glyph-name="lslash" unicode="&#x142;" horiz-adv-x="444" 
d="M403 836l-122 -60v-776h-95v731l-145 -69v86l145 69v662h95v-617l122 60v-86z" />
    <glyph glyph-name="Nacute" unicode="&#x143;" horiz-adv-x="1439" 
d="M1245 1454v-1454h-98l-852 1286v-1286h-100v1454h100l852 -1286v1286h98zM672 1567l106 217h129l-137 -217h-98z" />
    <glyph glyph-name="nacute" unicode="&#x144;" horiz-adv-x="1144" 
d="M991 600v-600h-94v600q0 163 -81 242.5t-216 79.5q-155 0 -243.5 -99.5t-88.5 -257.5v-563h-94v981h84l6 -154q45 82 138.5 130.5t211.5 48.5q161 0 269 -99q108 -94 108 -309zM530 1096l107 217h129l-137 -217h-99z" />
    <glyph glyph-name="Ncommaaccent" unicode="&#x145;" horiz-adv-x="1439" 
d="M1245 1454v-1454h-98l-852 1286v-1286h-100v1454h100l852 -1286v1286h98zM829 -174q0 -78 -53.5 -129.5t-109.5 -48.5v47q28 2 54.5 28t27.5 60q-15 -6 -31 -6q-32 0 -54 22t-22 58q0 38 25 63t63 25q44 0 72 -31.5t28 -87.5z" />
    <glyph glyph-name="ncommaaccent" unicode="&#x146;" horiz-adv-x="1144" 
d="M991 600v-600h-94v600q0 163 -81 242.5t-216 79.5q-155 0 -243.5 -99.5t-88.5 -257.5v-563h-94v981h84l6 -154q45 82 138.5 130.5t211.5 48.5q161 0 269 -99q108 -94 108 -309zM678 -174q0 -78 -54 -129.5t-110 -48.5v47q28 2 54.5 28t27.5 60q-15 -6 -31 -6
q-32 0 -54 22t-22 58q0 38 25.5 63t63.5 25q44 0 72 -31.5t28 -87.5z" />
    <glyph glyph-name="Ncaron" unicode="&#x147;" horiz-adv-x="1439" 
d="M1245 1454v-1454h-98l-852 1286v-1286h-100v1454h100l852 -1286v1286h98zM936 1786l-143 -219h-125h-21l-143 219h119l98 -144l96 144h119z" />
    <glyph glyph-name="ncaron" unicode="&#x148;" horiz-adv-x="1144" 
d="M991 600v-600h-94v600q0 163 -81 242.5t-216 79.5q-155 0 -243.5 -99.5t-88.5 -257.5v-563h-94v981h84l6 -154q45 82 138.5 130.5t211.5 48.5q161 0 269 -99q108 -94 108 -309zM795 1315l-144 -219h-125h-20l-144 219h119l99 -144l96 144h119z" />
    <glyph glyph-name="Eng" unicode="&#x14a;" horiz-adv-x="1388" 
d="M180 1454h99l831 -1272v1272h98v-1546q0 -104 -60 -169t-159 -65q-35 0 -69 9l8 86q35 -7 55 -7q64 0 99.5 41t35.5 121v76h-8l-831 1272v-1272h-99v1454z" />
    <glyph glyph-name="eng" unicode="&#x14b;" horiz-adv-x="1126" 
d="M983 600v-692q0 -99 -56 -160t-149 -61q-38 0 -84 12v65q30 -6 56 -6q65 0 101 41t36 121v680q0 163 -81 242.5t-216 79.5q-155 0 -243.5 -99.5t-88.5 -257.5v-563h-94v981h84l6 -156q45 82 139.5 131.5t210.5 49.5q160 0 268 -99q111 -95 111 -309z" />
    <glyph glyph-name="Omacron" unicode="&#x14c;" horiz-adv-x="1579" 
d="M788 1479q-147 3 -275.5 -54.5t-219 -158t-141.5 -241t-50 -298.5q-1 -160 50 -300.5t141.5 -240.5t219 -156.5t275.5 -54.5q147 -2 276.5 54.5t220.5 156.5t142.5 240.5t49.5 300.5q3 211 -85.5 385t-248 272.5t-355.5 94.5zM788 72q-168 -3 -303 81.5t-210 235.5
t-72 338q-3 187 72 338t210 235.5t303 81.5q167 3 302.5 -81.5t212 -235.5t73.5 -338q3 -187 -73.5 -338t-212 -235.5t-302.5 -81.5zM1051 1667v-94h-525v94h525z" />
    <glyph glyph-name="omacron" unicode="&#x14d;" horiz-adv-x="1159" 
d="M580 1008q141 0 253.5 -70t173 -187.5t60.5 -258.5q0 -105 -36 -200t-99 -165t-154.5 -111t-197.5 -41q-141 0 -253.5 70t-173.5 188t-61 259t61 258.5t173.5 187.5t253.5 70zM580 61q174 0 281.5 122.5t107.5 308.5t-107.5 308t-281.5 122t-282 -122t-108 -308
t108 -308.5t282 -122.5zM842 1196v-94h-525v94h525z" />
    <glyph glyph-name="Ohungarumlaut" unicode="&#x150;" horiz-adv-x="1579" 
d="M788 1479q-147 3 -275.5 -54.5t-219 -158t-141.5 -241t-50 -298.5q-1 -160 50 -300.5t141.5 -240.5t219 -156.5t275.5 -54.5q147 -2 276.5 54.5t220.5 156.5t142.5 240.5t49.5 300.5q3 211 -85.5 385t-248 272.5t-355.5 94.5zM788 72q-168 -3 -303 81.5t-210 235.5
t-72 338q-3 187 72 338t210 235.5t303 81.5q167 3 302.5 -81.5t212 -235.5t73.5 -338q3 -187 -73.5 -338t-212 -235.5t-302.5 -81.5zM633 1597l106 218h129l-137 -218h-98zM848 1597l117 218h129l-148 -218h-98z" />
    <glyph glyph-name="ohungarumlaut" unicode="&#x151;" horiz-adv-x="1159" 
d="M580 1008q141 0 253.5 -70t173 -187.5t60.5 -258.5q0 -105 -36 -200t-99 -165t-154.5 -111t-197.5 -41q-141 0 -253.5 70t-173.5 188t-61 259t61 258.5t173.5 187.5t253.5 70zM580 61q174 0 281.5 122.5t107.5 308.5t-107.5 308t-281.5 122t-282 -122t-108 -308
t108 -308.5t282 -122.5zM422 1126l106 217h129l-137 -217h-98zM637 1126l117 217h129l-148 -217h-98z" />
    <glyph glyph-name="OE" unicode="&#x152;" horiz-adv-x="2381" 
d="M1501 1358v-584h690v-92h-690v-590h758v-92h-852v338q-76 -169 -240 -268q-163 -99 -366 -99q-148 -2 -281 57t-227.5 160.5t-148.5 243.5t-52 299q-2 158 52 299t147.5 241.5t224 158t275.5 55.5q207 0 376 -105q170 -103 240 -264v338l852 -2v-94h-758zM1407 729
q2 140 -44.5 264t-127.5 212t-194.5 138t-241.5 48q-172 3 -313.5 -84t-221 -239t-76.5 -335q-3 -185 77.5 -339t223 -241.5t314.5 -84.5q173 0 311 84t215.5 235t77.5 342z" />
    <glyph glyph-name="oe" unicode="&#x153;" horiz-adv-x="1988" 
d="M1898 432h-833q13 -177 112.5 -274t256.5 -97q120 0 208.5 58t133.5 162l82 -37q-63 -129 -175.5 -199t-255.5 -70q-151 0 -261 75.5t-160 211.5q-52 -132 -165 -209.5t-263 -77.5q-141 0 -253.5 70t-173.5 188t-61 259t61 258.5t173.5 187.5t253.5 70q148 0 263 -76
t171 -207q51 135 161 209t263 74q208 0 335 -140t127 -374v-62zM967 492q0 186 -107.5 308t-281.5 122t-282 -122t-108 -308t108 -308.5t282 -122.5t281.5 122.5t107.5 308.5zM1802 512q0 190 -101 300t-267 110q-164 0 -266.5 -113t-102.5 -297h737z" />
    <glyph glyph-name="Racute" unicode="&#x154;" horiz-adv-x="1304" 
d="M885 641l309 -641h-111l-299 629h-491v-629h-98v1454h553q206 0 329 -111q125 -110 125 -296q0 -159 -84.5 -267t-232.5 -139zM1098 1042q0 152 -93.5 235t-256.5 83h-455v-635h459q165 0 255.5 82.5t90.5 234.5zM520 1569l107 217h129l-138 -217h-98z" />
    <glyph glyph-name="racute" unicode="&#x155;" horiz-adv-x="688" 
d="M530 995q50 0 103 -12v-88q-52 12 -101 12q-129 0 -201.5 -81.5t-72.5 -217.5v-608h-94v983h88l4 -135q32 69 106 108t168 39zM160 1110l106 217h129l-137 -217h-98z" />
    <glyph glyph-name="Rcommaaccent" unicode="&#x156;" horiz-adv-x="1304" 
d="M885 641l309 -641h-111l-299 629h-491v-629h-98v1454h553q206 0 329 -111q125 -110 125 -296q0 -159 -84.5 -267t-232.5 -139zM1098 1042q0 152 -93.5 235t-256.5 83h-455v-635h459q165 0 255.5 82.5t90.5 234.5zM786 -174q0 -78 -53.5 -129.5t-109.5 -48.5v47
q28 2 54.5 28t27.5 60q-15 -6 -31 -6q-32 0 -54 22t-22 58q0 38 25 63t63 25q44 0 72 -31.5t28 -87.5z" />
    <glyph glyph-name="rcommaaccent" unicode="&#x157;" horiz-adv-x="688" 
d="M530 995q50 0 103 -12v-88q-52 12 -101 12q-129 0 -201.5 -81.5t-72.5 -217.5v-608h-94v983h88l4 -135q32 69 106 108t168 39zM309 -174q0 -78 -54 -129.5t-110 -48.5v47q28 2 54.5 28t27.5 60q-15 -6 -30 -6q-32 0 -54 22t-22 58q0 38 25 63t63 25q44 0 72 -31.5
t28 -87.5z" />
    <glyph glyph-name="Rcaron" unicode="&#x158;" horiz-adv-x="1304" 
d="M885 641l309 -641h-111l-299 629h-491v-629h-98v1454h553q206 0 329 -111q125 -110 125 -296q0 -159 -84.5 -267t-232.5 -139zM1098 1042q0 152 -93.5 235t-256.5 83h-455v-635h459q165 0 255.5 82.5t90.5 234.5zM784 1788l-143 -219h-125h-20l-144 219h119l98 -143
l97 143h118z" />
    <glyph glyph-name="rcaron" unicode="&#x159;" horiz-adv-x="688" 
d="M530 995q50 0 103 -12v-88q-52 12 -101 12q-129 0 -201.5 -81.5t-72.5 -217.5v-608h-94v983h88l4 -135q32 69 106 108t168 39zM424 1329l-143 -219h-125h-21l-143 219h119l98 -143l96 143h119z" />
    <glyph glyph-name="Sacute" unicode="&#x15a;" horiz-adv-x="1157" 
d="M575 1479q188 0 312 -92t151 -242l-94 -29q-25 129 -124 202t-247 73q-162 0 -262 -84t-100 -220q0 -210 254 -276l258 -66q165 -41 250.5 -135t85.5 -235q0 -178 -128 -289t-349 -111q-194 0 -323.5 88.5t-158.5 247.5l99 29q19 -126 118.5 -199t262.5 -73q173 0 278 82
t105 223q0 110 -67 181.5t-191 102.5l-252 64q-165 41 -250.5 135t-85.5 231q0 174 126.5 283t331.5 109zM535 1567l106 217h129l-137 -217h-98z" />
    <glyph glyph-name="sacute" unicode="&#x15b;" horiz-adv-x="876" 
d="M436 61q114 0 185 48t71 147q0 134 -170 178l-162 43q-245 65 -245 262q0 117 87.5 193t231.5 76q136 0 228 -63.5t104 -170.5l-82 -20q-12 77 -80.5 122.5t-167.5 45.5q-104 0 -167.5 -52t-63.5 -133q0 -132 174 -178l162 -43q117 -31 180 -98.5t63 -161.5
q0 -129 -93.5 -205t-254.5 -76q-141 0 -236 66.5t-108 175.5l82 19q14 -80 83.5 -127.5t178.5 -47.5zM389 1157l107 217h129l-138 -217h-98z" />
    <glyph glyph-name="Scircumflex" unicode="&#x15c;" horiz-adv-x="1157" 
d="M575 1479q188 0 312 -92t151 -242l-94 -29q-25 129 -124 202t-247 73q-162 0 -262 -84t-100 -220q0 -210 254 -276l258 -66q165 -41 250.5 -135t85.5 -235q0 -178 -128 -289t-349 -111q-194 0 -323.5 88.5t-158.5 247.5l99 29q19 -126 118.5 -199t262.5 -73q173 0 278 82
t105 223q0 110 -67 181.5t-191 102.5l-252 64q-165 41 -250.5 135t-85.5 231q0 174 126.5 283t331.5 109zM680 1567l-96 143l-99 -143h-118l143 219h125h20l144 -219h-119z" />
    <glyph glyph-name="scircumflex" unicode="&#x15d;" horiz-adv-x="876" 
d="M436 61q114 0 185 48t71 147q0 134 -170 178l-162 43q-245 65 -245 262q0 117 87.5 193t231.5 76q136 0 228 -63.5t104 -170.5l-82 -20q-12 77 -80.5 122.5t-167.5 45.5q-104 0 -167.5 -52t-63.5 -133q0 -132 174 -178l162 -43q117 -31 180 -98.5t63 -161.5
q0 -129 -93.5 -205t-254.5 -76q-141 0 -236 66.5t-108 175.5l82 19q14 -80 83.5 -127.5t178.5 -47.5zM535 1157l-97 143l-98 -143h-119l144 219h124h21l143 -219h-118z" />
    <glyph glyph-name="Scedilla" unicode="&#x15e;" horiz-adv-x="1157" 
d="M627 -23l-35 -43h78q58 0 90.5 -38t32.5 -91q0 -49 -33.5 -85.5t-85.5 -36.5h-180v79h157q24 0 39 16.5t15 37.5q-2 21 -16 34t-38 13h-157v69l36 45q-176 11 -290 97.5t-140 236.5l99 29q19 -126 118.5 -199t262.5 -73q173 0 278 82t105 223q0 110 -67 181.5t-191 102.5
l-252 64q-165 41 -250.5 135t-85.5 231q0 174 126.5 283t331.5 109q188 0 312 -92t151 -242l-94 -29q-25 129 -124 202t-247 73q-162 0 -262 -84t-100 -220q0 -210 254 -276l258 -66q165 -41 250.5 -135t85.5 -235q0 -169 -116 -278.5t-316 -119.5z" />
    <glyph glyph-name="scedilla" unicode="&#x15f;" horiz-adv-x="876" 
d="M465 -25l-33 -38h78q58 0 90.5 -38.5t32.5 -91.5q0 -49 -33.5 -85.5t-85.5 -36.5h-180v79h158q24 0 38.5 16.5t14.5 37.5q-2 21 -15.5 34t-37.5 13h-158v69l37 46q-119 17 -193 79t-86 158l82 19q14 -80 83.5 -127.5t178.5 -47.5q114 0 185 48t71 147q0 134 -170 178
l-162 43q-245 65 -245 262q0 117 87.5 193t231.5 76q136 0 228 -63.5t104 -170.5l-82 -20q-12 77 -80.5 122.5t-167.5 45.5q-104 0 -167.5 -52t-63.5 -133q0 -132 174 -178l162 -43q117 -31 180 -98.5t63 -161.5q0 -123 -85 -198.5t-234 -82.5z" />
    <glyph glyph-name="Scaron" unicode="&#x160;" horiz-adv-x="1157" 
d="M575 1479q188 0 312 -92t151 -242l-94 -29q-25 129 -124 202t-247 73q-162 0 -262 -84t-100 -220q0 -210 254 -276l258 -66q165 -41 250.5 -135t85.5 -235q0 -178 -128 -289t-349 -111q-194 0 -323.5 88.5t-158.5 247.5l99 29q19 -126 118.5 -199t262.5 -73q173 0 278 82
t105 223q0 110 -67 181.5t-191 102.5l-252 64q-165 41 -250.5 135t-85.5 231q0 174 126.5 283t331.5 109zM799 1786l-144 -219h-125h-20l-143 219h118l99 -144l96 144h119z" />
    <glyph glyph-name="scaron" unicode="&#x161;" horiz-adv-x="876" 
d="M436 61q114 0 185 48t71 147q0 134 -170 178l-162 43q-245 65 -245 262q0 117 87.5 193t231.5 76q136 0 228 -63.5t104 -170.5l-82 -20q-12 77 -80.5 122.5t-167.5 45.5q-104 0 -167.5 -52t-63.5 -133q0 -132 174 -178l162 -43q117 -31 180 -98.5t63 -161.5
q0 -129 -93.5 -205t-254.5 -76q-141 0 -236 66.5t-108 175.5l82 19q14 -80 83.5 -127.5t178.5 -47.5zM653 1376l-143 -219h-125h-20l-144 219h119l98 -143l97 143h118z" />
    <glyph glyph-name="uni0162" unicode="&#x162;" horiz-adv-x="1075" 
d="M1044 1364h-456v-1364h-99v1364h-458v90h557h456v-90zM453 -215h157q24 0 39 16t15 37q-2 21 -16 34t-38 13h-157v70l82 98h51v-53l-35 -43h78q58 0 90.5 -38t32.5 -91q0 -49 -33.5 -86t-85.5 -37h-180v80z" />
    <glyph glyph-name="uni0163" unicode="&#x163;" horiz-adv-x="593" 
d="M309 -53h78q58 0 90.5 -38t32.5 -91q0 -49 -33.5 -86t-85.5 -37h-180v80h158q24 0 38.5 16t14.5 37q-2 21 -15.5 34t-37.5 13h-158v70l47 55h-8v905h-199v78h199v311h94v-311h199v-78h-199v-915z" />
    <glyph glyph-name="Tcaron" unicode="&#x164;" horiz-adv-x="1075" 
d="M1044 1364h-456v-1364h-99v1364h-458v90h557h456v-90zM754 1786l-144 -219h-125h-20l-143 219h118l99 -144l96 144h119z" />
    <glyph glyph-name="tcaron" unicode="&#x165;" horiz-adv-x="573" 
d="M406 1419q-1 28 14 44t39 16t38 -16t13 -44l-23 -315h-57zM532 899h-198v-899h-94v899h-199v84h199v311h94v-311h198v-84z" />
    <glyph glyph-name="Tbar" unicode="&#x166;" horiz-adv-x="1075" 
d="M588 1364v-475h315v-90h-315v-799h-99v799h-315v90h315v475h-458v90h557h456v-90h-456z" />
    <glyph glyph-name="tbar" unicode="&#x167;" horiz-adv-x="593" 
d="M344 905v-256h168v-82h-168v-567h-94v567h-187v82h187v256h-199v78h199v311h94v-311h199v-78h-199z" />
    <glyph glyph-name="Utilde" unicode="&#x168;" horiz-adv-x="1406" 
d="M174 1454h100v-973q3 -226 129 -321q127 -92 304 -92q181 0 303 98q125 101 125 315v973h98v-975q0 -127 -42.5 -226.5t-116.5 -159.5t-167 -91t-200 -31q-83 0 -158 17t-144.5 55.5t-120 96t-80.5 144.5t-30 195v975zM571 1796q57 0 138 -47q73 -39 110 -39q68 0 68 86
h88q0 -85 -40.5 -132.5t-113.5 -47.5q-39 0 -70 12t-77 39q-59 35 -90 35q-64 0 -64 -86h-88q-1 86 35.5 133t103.5 47z" />
    <glyph glyph-name="utilde" unicode="&#x169;" horiz-adv-x="1163" 
d="M905 0q-12 71 -16 168q-42 -88 -134 -140.5t-210 -52.5q-159 0 -271 103q-110 101 -110 317v590h96v-590q0 -166 81.5 -250t217.5 -84q156 0 242 103q88 101 88 254v565h94v-805q0 -87 16 -178h-94zM440 1325q57 0 138 -47q73 -39 110 -39q68 0 68 86h88
q0 -85 -40.5 -132.5t-113.5 -47.5q-38 0 -69.5 11.5t-77.5 39.5q-59 35 -90 35q-64 0 -64 -86h-88q-1 86 35.5 133t103.5 47z" />
    <glyph glyph-name="Umacron" unicode="&#x16a;" horiz-adv-x="1406" 
d="M174 1454h100v-973q3 -226 129 -321q127 -92 304 -92q181 0 303 98q125 101 125 315v973h98v-975q0 -127 -42.5 -226.5t-116.5 -159.5t-167 -91t-200 -31q-83 0 -158 17t-144.5 55.5t-120 96t-80.5 144.5t-30 195v975zM967 1667v-94h-525v94h525z" />
    <glyph glyph-name="umacron" unicode="&#x16b;" horiz-adv-x="1163" 
d="M905 0q-12 71 -16 168q-42 -88 -134 -140.5t-210 -52.5q-159 0 -271 103q-110 101 -110 317v590h96v-590q0 -166 81.5 -250t217.5 -84q156 0 242 103q88 101 88 254v565h94v-805q0 -87 16 -178h-94zM836 1196v-94h-525v94h525z" />
    <glyph glyph-name="Uring" unicode="&#x16e;" horiz-adv-x="1406" 
d="M174 1454h100v-973q3 -226 129 -321q127 -92 304 -92q181 0 303 98q125 101 125 315v973h98v-975q0 -127 -42.5 -226.5t-116.5 -159.5t-167 -91t-200 -31q-83 0 -158 17t-144.5 55.5t-120 96t-80.5 144.5t-30 195v975zM502 1772q0 84 59 143q58 61 141 61q85 0 145 -59.5
t60 -144.5t-60 -144t-145 -59t-142.5 58.5t-57.5 144.5zM821 1776q0 48 -33.5 81t-82.5 33t-82 -33t-33 -81q0 -51 33 -85t82 -34q50 0 83 34t33 85z" />
    <glyph glyph-name="uring" unicode="&#x16f;" horiz-adv-x="1163" 
d="M905 0q-12 71 -16 168q-42 -88 -134 -140.5t-210 -52.5q-159 0 -271 103q-110 101 -110 317v590h96v-590q0 -166 81.5 -250t217.5 -84q156 0 242 103q88 101 88 254v565h94v-805q0 -87 16 -178h-94zM371 1300q0 85 59 144q58 61 141 61q85 0 145 -60t60 -145
q0 -84 -60 -143t-145 -59t-142.5 58t-57.5 144zM690 1305q0 47 -34 80.5t-83 33.5t-81.5 -33t-32.5 -81q0 -51 32.5 -85t81.5 -34q50 0 83.5 34t33.5 85z" />
    <glyph glyph-name="Uhungarumlaut" unicode="&#x170;" horiz-adv-x="1406" 
d="M174 1454h100v-973q3 -226 129 -321q127 -92 304 -92q181 0 303 98q125 101 125 315v973h98v-975q0 -127 -42.5 -226.5t-116.5 -159.5t-167 -91t-200 -31q-83 0 -158 17t-144.5 55.5t-120 96t-80.5 144.5t-30 195v975zM547 1567l106 217h129l-137 -217h-98zM762 1567
l117 217h129l-148 -217h-98z" />
    <glyph glyph-name="uhungarumlaut" unicode="&#x171;" horiz-adv-x="1163" 
d="M905 0q-12 71 -16 168q-42 -88 -134 -140.5t-210 -52.5q-159 0 -271 103q-110 101 -110 317v590h96v-590q0 -166 81.5 -250t217.5 -84q156 0 242 103q88 101 88 254v565h94v-805q0 -87 16 -178h-94zM416 1096l106 217h129l-137 -217h-98zM631 1096l117 217h129l-148 -217
h-98z" />
    <glyph glyph-name="Uogonek" unicode="&#x172;" horiz-adv-x="1406" 
d="M1233 1454v-975q0 -97 -25 -178t-69.5 -139t-105.5 -99.5t-132 -63t-151 -26.5q-68 -47 -68 -96q0 -26 20.5 -44.5t49.5 -18.5q6 0 26 4v-92q-30 -9 -61 -9q-59 0 -94 34.5t-35 86.5q0 83 80 135q-205 9 -351 131q-143 122 -143 375v975h100v-973q3 -226 129 -321
q127 -92 304 -92q181 0 303 98q125 101 125 315v973h98z" />
    <glyph glyph-name="uogonek" unicode="&#x173;" horiz-adv-x="1163" 
d="M903 -113q0 -26 20.5 -44.5t49.5 -18.5q6 0 26 4v-92q-27 -8 -61 -8q-59 0 -94 34t-35 86q0 46 29.5 88t83.5 64h-17q-12 71 -16 168q-42 -88 -134 -140.5t-210 -52.5q-159 0 -271 103q-110 101 -110 317v590h96v-590q0 -166 81.5 -250t217.5 -84q156 0 242 103
q88 101 88 254v565h94v-805q0 -87 16 -178q-47 -25 -71.5 -55t-24.5 -58z" />
    <glyph glyph-name="Wcircumflex" unicode="&#x174;" horiz-adv-x="1976" 
d="M1935 1454l-434 -1454h-90l-422 1300l-424 -1300h-94l-430 1454h100l379 -1300l418 1300h100l416 -1307l381 1307h100zM1094 1567l-97 143l-98 -143h-119l144 219h125h20l143 -219h-118z" />
    <glyph glyph-name="wcircumflex" unicode="&#x175;" horiz-adv-x="1490" 
d="M1450 983l-330 -983h-96l-279 840l-280 -840h-96l-328 983h96l281 -844l278 844h97l280 -844l281 844h96zM842 1096l-97 143l-98 -143h-119l144 219h125h20l144 -219h-119z" />
    <glyph glyph-name="Ycircumflex" unicode="&#x176;" horiz-adv-x="1118" 
d="M133 1454l428 -743l428 743h109l-486 -831v-623h-98v623l-494 831h113zM657 1567l-96 143l-98 -143h-119l143 219h125h21l143 -219h-119z" />
    <glyph glyph-name="ycircumflex" unicode="&#x177;" horiz-adv-x="954" 
d="M924 983l-435 -1200q-40 -108 -110.5 -162.5t-159.5 -54.5q-93 0 -168 53l29 86q56 -53 143 -53q121 0 174 147l52 140l-418 1044h98l363 -924l335 924h97zM578 1096l-97 143l-98 -143h-119l144 219h124h21l143 -219h-118z" />
    <glyph glyph-name="Ydieresis" unicode="&#x178;" horiz-adv-x="1118" 
d="M133 1454l428 -743l428 743h109l-486 -831v-623h-98v623l-494 831h113zM293 1673q0 45 32 78t76 33q43 0 76 -33.5t33 -77.5q0 -42 -33 -74t-76 -32q-44 0 -76 31.5t-32 74.5zM612 1673q0 44 32.5 77.5t76.5 33.5q43 0 75.5 -33.5t32.5 -77.5q0 -43 -32.5 -74.5
t-75.5 -31.5q-44 0 -76.5 31.5t-32.5 74.5z" />
    <glyph glyph-name="Zacute" unicode="&#x179;" horiz-adv-x="1159" 
d="M1067 1360l-852 -1266h842v-94h-951l-4 94l852 1266h-848v94h961v-94zM539 1567l106 217h129l-137 -217h-98z" />
    <glyph glyph-name="zacute" unicode="&#x17a;" horiz-adv-x="880" 
d="M82 92l612 807h-612v84h717v-92l-613 -809h613v-82h-717v92zM391 1096l107 217h129l-138 -217h-98z" />
    <glyph glyph-name="Zdotaccent" unicode="&#x17b;" horiz-adv-x="1159" 
d="M1067 1360l-852 -1266h842v-94h-951l-4 94l852 1266h-848v94h961v-94zM479 1675q0 44 32.5 77.5t76.5 33.5q43 0 75.5 -33.5t32.5 -77.5q0 -43 -32.5 -74.5t-75.5 -31.5q-44 0 -76.5 31.5t-32.5 74.5z" />
    <glyph glyph-name="zdotaccent" unicode="&#x17c;" horiz-adv-x="880" 
d="M82 92l612 807h-612v84h717v-92l-613 -809h613v-82h-717v92zM332 1204q0 45 32 78t76 33q43 0 76 -33.5t33 -77.5q0 -42 -33 -74t-76 -32q-44 0 -76 31.5t-32 74.5z" />
    <glyph glyph-name="Zcaron" unicode="&#x17d;" horiz-adv-x="1159" 
d="M1067 1360l-852 -1266h842v-94h-951l-4 94l852 1266h-848v94h961v-94zM803 1786l-144 -219h-124h-21l-143 219h118l99 -144l96 144h119z" />
    <glyph glyph-name="zcaron" unicode="&#x17e;" horiz-adv-x="880" 
d="M82 92l612 807h-612v84h717v-92l-613 -809h613v-82h-717v92zM655 1315l-143 -219h-125h-20l-144 219h119l98 -144l97 144h118z" />
    <glyph glyph-name="florin" unicode="&#x192;" horiz-adv-x="937" 
d="M537 889l-19 -123h2l-119 -791q-12 -84 -66.5 -134t-129.5 -50h-82v94h82q42 0 69 24t33 66l107 713l28 201h-211v94h226l41 287q27 184 211 184h104v-94h-119q-92 0 -102 -90l-41 -287h264v-94h-278z" />
    <glyph glyph-name="Aringacute" unicode="&#x1fa;" horiz-adv-x="1286" 
d="M688 1827h-98l106 217h129zM1006 408h-727l-154 -408h-94l518 1401q-55 25 -87 74.5t-32 111.5q0 85 59 144q58 61 142 61q85 0 145 -60t60 -145q0 -55 -29.5 -103.5t-79.5 -74.5l528 -1409h-100zM518 1591q0 -51 32.5 -84.5t82.5 -33.5t83.5 33.5t33.5 84.5
q0 48 -34 81.5t-83 33.5t-82 -33.5t-33 -81.5zM975 492l-328 890l-336 -890h664z" />
    <glyph glyph-name="aringacute" unicode="&#x1fb;" horiz-adv-x="1062" 
d="M592 1368h-98l106 217h129zM838 0q-16 63 -19 176q-45 -92 -143.5 -146.5t-224.5 -54.5q-164 0 -261.5 83.5t-97.5 220.5q0 140 99.5 225.5t263.5 85.5h364v47q0 285 -289 285q-118 0 -198.5 -48t-118.5 -133l-76 47q74 157 254 203q-51 57 -51 137q0 85 59 144
q58 61 142 61q85 0 144.5 -60t59.5 -145q0 -82 -59 -141q227 -76 227 -336v-473q0 -122 17 -178h-92zM428 1133q0 -51 33 -85t82 -34q50 0 83 34t33 85q0 48 -33.5 81t-82.5 33t-82 -33t-33 -81zM819 469v35h-350q-135 0 -209 -59.5t-74 -165.5q0 -104 73 -162t196 -58
q175 0 269.5 111.5t94.5 298.5z" />
    <glyph glyph-name="AEacute" unicode="&#x1fc;" horiz-adv-x="1757" 
d="M1634 92l-2 -92h-850v449h-501l-166 -449h-95l539 1454h96h127h95l755 -2v-94l-755 2v-586h690l-2 -92h-688v-590h757zM782 532v242v586h-161l-308 -828h469zM1047 1567l106 217h129l-137 -217h-98z" />
    <glyph glyph-name="aeacute" unicode="&#x1fd;" horiz-adv-x="1837" 
d="M1755 455h-848q10 -186 113 -290t266 -104q119 0 210 59t136 161l82 -37q-62 -131 -176.5 -200t-257.5 -69q-147 0 -256.5 71.5t-163.5 201.5q-35 -130 -138.5 -201.5t-250.5 -71.5q-148 0 -254 74q-102 76 -102 213q0 123 80 196.5t206 73.5h334q39 0 53.5 20t14.5 64
q0 145 -80 225.5t-209 80.5q-103 0 -184 -49t-129 -136l-72 45q55 101 159 162.5t224 61.5q131 0 227.5 -65.5t126.5 -180.5q57 117 166.5 182.5t251.5 65.5q212 0 341.5 -136t129.5 -356v-61zM1659 535q0 177 -104.5 282t-272.5 105q-162 0 -262.5 -102.5t-110.5 -284.5
h750zM809 446h-408q-87 0 -138.5 -49t-51.5 -133q0 -100 74.5 -149t193.5 -49q172 0 250 96q77 100 80 246v38zM850 1096l106 217h129l-137 -217h-98z" />
    <glyph glyph-name="Oslashacute" unicode="&#x1fe;" horiz-adv-x="1538" 
d="M1448 727q3 -213 -85.5 -386.5t-247.5 -271t-355 -94.5q-186 0 -340 86l-39 -61h-105l70 113q-130 100 -201 259.5t-71 354.5q-1 158 50 298.5t141.5 241t219 158t275.5 54.5q201 0 366 -103l48 78h104l-80 -131q119 -100 184.5 -255.5t65.5 -340.5zM397 197l676 1095
q-140 90 -313 90q-168 3 -303 -81.5t-210.5 -235.5t-72.5 -338q0 -166 58.5 -304t164.5 -226zM1348 727q0 159 -53 291.5t-150 220.5l-674 -1094q131 -73 289 -73q167 -3 302.5 81.5t212 235.5t73.5 338zM721 1567l106 217h129l-137 -217h-98z" />
    <glyph glyph-name="oslashacute" unicode="&#x1ff;" horiz-adv-x="1159" 
d="M1067 492q0 -105 -36 -200t-99 -165t-154.5 -111t-197.5 -41q-130 0 -234 58l-86 -137h-90l111 180q-91 72 -140 180t-49 236q0 141 61 258.5t173.5 187.5t253.5 70q127 0 239 -62l70 115h92l-98 -158q88 -72 136 -179.5t48 -231.5zM328 152l444 720q-89 50 -192 50
q-174 0 -282 -122t-108 -308q0 -105 36 -194t102 -146zM969 492q0 206 -133 333l-445 -716q85 -48 189 -48q174 0 281.5 122.5t107.5 308.5zM530 1096l107 217h129l-137 -217h-99z" />
    <glyph glyph-name="Scommaaccent" unicode="&#x218;" horiz-adv-x="1157" 
d="M575 1479q188 0 312 -92t151 -242l-94 -29q-25 129 -124 202t-247 73q-162 0 -262 -84t-100 -220q0 -210 254 -276l258 -66q165 -41 250.5 -135t85.5 -235q0 -178 -128 -289t-349 -111q-194 0 -323.5 88.5t-158.5 247.5l99 29q19 -126 118.5 -199t262.5 -73q173 0 278 82
t105 223q0 110 -67 181.5t-191 102.5l-252 64q-165 41 -250.5 135t-85.5 231q0 174 126.5 283t331.5 109zM674 -197q0 -78 -54 -129.5t-110 -48.5v47q28 2 54.5 28t27.5 60q-15 -6 -31 -6q-32 0 -54 22t-22 58q0 38 25 63t63 25q44 0 72.5 -32t28.5 -87z" />
    <glyph glyph-name="scommaaccent" unicode="&#x219;" horiz-adv-x="876" 
d="M436 61q114 0 185 48t71 147q0 134 -170 178l-162 43q-245 65 -245 262q0 117 87.5 193t231.5 76q136 0 228 -63.5t104 -170.5l-82 -20q-12 77 -80.5 122.5t-167.5 45.5q-104 0 -167.5 -52t-63.5 -133q0 -132 174 -178l162 -43q117 -31 180 -98.5t63 -161.5
q0 -129 -93.5 -205t-254.5 -76q-141 0 -236 66.5t-108 175.5l82 19q14 -80 83.5 -127.5t178.5 -47.5zM514 -195q0 -78 -54 -129.5t-110 -48.5v47q28 2 54.5 28t27.5 60q-15 -6 -31 -6q-32 0 -53.5 22t-21.5 58q0 38 25 63t63 25q44 0 72 -31.5t28 -87.5z" />
    <glyph glyph-name="uni021A" unicode="&#x21a;" horiz-adv-x="1075" 
d="M1044 1364h-456v-1364h-99v1364h-458v90h557h456v-90zM633 -174q0 -78 -54 -129.5t-110 -48.5v47q28 2 54.5 28t27.5 60q-15 -6 -31 -6q-32 0 -54 22t-22 58q0 38 25 63t63 25q44 0 72.5 -32t28.5 -87z" />
    <glyph glyph-name="uni021B" unicode="&#x21b;" horiz-adv-x="593" 
d="M543 905h-199v-905h-94v905h-199v78h199v311h94v-311h199v-78zM391 -184q0 -78 -54 -129.5t-110 -48.5v47q28 2 54.5 28t27.5 60q-15 -6 -30 -6q-32 0 -54 21.5t-22 57.5q0 38 25 63t63 25q44 0 72 -31.5t28 -86.5z" />
    <glyph glyph-name="uni0237" unicode="&#x237;" horiz-adv-x="448" 
d="M-51 -322q65 -18 114 -18q160 0 160 188v1135h94v-1135q0 -131 -62 -206.5t-179 -75.5q-71 0 -148 26z" />
    <glyph glyph-name="circumflex" unicode="&#x2c6;" horiz-adv-x="555" 
d="M395 1567l-96 143l-98 -143h-119l143 219h125h21l143 -219h-119z" />
    <glyph glyph-name="caron" unicode="&#x2c7;" horiz-adv-x="555" 
d="M461 1786l-144 -219h-124h-21l-143 219h118l99 -144l96 144h119z" />
    <glyph glyph-name="breve" unicode="&#x2d8;" horiz-adv-x="600" 
d="M303 1567q-99 0 -167 63t-68 156h104q0 -50 36 -82.5t95 -32.5t95 32.5t36 82.5h105q0 -93 -68.5 -156t-167.5 -63z" />
    <glyph glyph-name="dotaccent" unicode="&#x2d9;" horiz-adv-x="299" 
d="M41 1673q0 44 32.5 77.5t76.5 33.5q43 0 75.5 -33.5t32.5 -77.5q0 -43 -32.5 -74.5t-75.5 -31.5q-44 0 -76.5 31.5t-32.5 74.5z" />
    <glyph glyph-name="ring" unicode="&#x2da;" horiz-adv-x="487" 
d="M41 1772q0 84 59 143q58 61 142 61q85 0 144.5 -59.5t59.5 -144.5t-59.5 -144t-144.5 -59t-143 58.5t-58 144.5zM360 1776q0 48 -33.5 81t-82.5 33t-82 -33t-33 -81q0 -51 33 -85t82 -34q50 0 83 34t33 85z" />
    <glyph glyph-name="ogonek" unicode="&#x2db;" horiz-adv-x="354" 
d="M272 0q-47 -25 -71.5 -55t-24.5 -58q0 -26 20.5 -44.5t49.5 -18.5q6 0 26 4v-92q-27 -8 -61 -8q-59 0 -94 34t-35 86q0 46 29.5 88t83.5 64h77z" />
    <glyph glyph-name="tilde" unicode="&#x2dc;" horiz-adv-x="608" 
d="M174 1796q34 0 63 -10.5t74 -36.5q73 -39 111 -39q67 0 67 86h89q0 -85 -40.5 -132.5t-113.5 -47.5q-39 0 -70.5 12t-77.5 39q-59 35 -90 35q-63 0 -63 -86h-88q-1 86 35.5 133t103.5 47z" />
    <glyph glyph-name="hungarumlaut" unicode="&#x2dd;" horiz-adv-x="606" 
d="M41 1567l106 217h129l-137 -217h-98zM256 1567l117 217h129l-148 -217h-98z" />
    <glyph glyph-name="gravecomb" unicode="&#x300;" 
d="M-387 1786h125l106 -219h-98z" />
    <glyph glyph-name="acutecomb" unicode="&#x301;" 
d="M-313 1567l106 217h129l-137 -217h-98z" />
    <glyph glyph-name="uni0302" unicode="&#x302;" 
d="M-201 1567l-96 143l-98 -143h-119l143 219h125h21l143 -219h-119z" />
    <glyph glyph-name="tildecomb" unicode="&#x303;" 
d="M-434 1796q34 0 63 -10.5t74 -36.5q73 -39 111 -39q67 0 67 86h88q0 -85 -40 -132.5t-113 -47.5q-39 0 -70.5 12t-77.5 39q-59 35 -90 35q-63 0 -63 -86h-88q-1 86 35.5 133t103.5 47z" />
    <glyph glyph-name="uni0304" unicode="&#x304;" 
d="M-61 1788v-94h-525v94h525z" />
    <glyph glyph-name="uni0306" unicode="&#x306;" 
d="M-61 1786q0 -93 -68.5 -156t-167.5 -63t-167 63t-68 156h104q0 -50 36 -82.5t95 -32.5t95 32.5t36 82.5h105z" />
    <glyph glyph-name="uni0307" unicode="&#x307;" 
d="M-258 1675q0 45 32 78t76 33q43 0 76 -33.5t33 -77.5q0 -42 -33 -74t-76 -32q-44 0 -76 31.5t-32 74.5z" />
    <glyph glyph-name="uni0308" unicode="&#x308;" 
d="M-580 1675q0 44 32.5 77.5t76.5 33.5q43 0 76 -33.5t33 -77.5q0 -42 -33 -74t-76 -32q-44 0 -76.5 31.5t-32.5 74.5zM-258 1675q0 45 32 78t76 33q43 0 76 -33.5t33 -77.5q0 -42 -33 -74t-76 -32q-44 0 -76 31.5t-32 74.5z" />
    <glyph glyph-name="uni030A" unicode="&#x30a;" 
d="M-446 1772q0 84 59 143q58 61 141 61q85 0 145 -59.5t60 -144.5t-60 -144t-145 -59t-142.5 58.5t-57.5 144.5zM-127 1776q0 47 -34 80.5t-83 33.5t-81.5 -33t-32.5 -81q0 -51 32.5 -85t81.5 -34q50 0 83.5 34t33.5 85z" />
    <glyph glyph-name="uni030B" unicode="&#x30b;" 
d="M-461 1567l107 217h129l-137 -217h-99zM-293 1567l137 217h129l-168 -217h-98z" />
    <glyph glyph-name="uni030C" unicode="&#x30c;" 
d="M-74 1786l-143 -219h-125h-20l-144 219h119l98 -144l96 144h119z" />
    <glyph glyph-name="uni0312" unicode="&#x312;" 
d="M-100 1626q0 -38 -25 -63t-63 -25q-44 0 -72.5 32t-28.5 87q0 78 54 129.5t110 48.5v-47q-28 -2 -54.5 -28t-27.5 -60q15 6 31 6q32 0 54 -22t22 -58z" />
    <glyph glyph-name="uni0326" unicode="&#x326;" 
d="M-72 -154q0 -78 -54 -129.5t-110 -48.5v47q28 2 54.5 28t27.5 60q-15 -6 -30 -6q-32 0 -54 22t-22 58q0 38 25 63t63 25q44 0 72 -31.5t28 -87.5z" />
    <glyph glyph-name="uni0327" unicode="&#x327;" 
d="M-731 -215h158q24 0 38.5 16t14.5 37q-2 21 -15.5 34t-37.5 13h-158v70l82 98h51v-53l-35 -43h78q58 0 90.5 -38t32.5 -91q0 -49 -33.5 -86t-85.5 -37h-180v80z" />
    <glyph glyph-name="uni0338" unicode="&#x338;" 
d="M-1069 -82l719 1165h92l-721 -1165h-90z" />
    <glyph glyph-name="uni03A9" unicode="&#x3a9;" horiz-adv-x="1296" 
d="M926 98h217v-98h-393v98q148 59 229.5 176.5t81.5 257.5q0 168 -116 277t-286 109q-169 0 -286 -109t-117 -277q0 -142 83.5 -260.5t227.5 -173.5v-98h-393v98h217q-109 79 -168 192.5t-59 241.5q0 207 143 341.5t352 134.5q137 0 249.5 -59t178.5 -167.5t66 -246.5
q0 -130 -59 -244t-168 -193z" />
    <glyph glyph-name="pi" unicode="&#x3c0;" horiz-adv-x="1196" 
d="M883 889v-664q0 -71 20.5 -102t63.5 -31l137 -2v-90h-129q-98 0 -142.5 48.5t-44.5 162.5v678h-448v-889h-94v889h-205v94h299h543h221v-94h-221z" />
    <glyph glyph-name="Wgrave" unicode="&#x1e80;" horiz-adv-x="1976" 
d="M1935 1454l-434 -1454h-90l-422 1300l-424 -1300h-94l-430 1454h100l379 -1300l418 1300h100l416 -1307l381 1307h100zM807 1784h133l107 -217h-99z" />
    <glyph glyph-name="wgrave" unicode="&#x1e81;" horiz-adv-x="1490" 
d="M1450 983l-330 -983h-96l-279 840l-280 -840h-96l-328 983h96l281 -844l278 844h97l280 -844l281 844h96zM555 1313h133l107 -217h-99z" />
    <glyph glyph-name="Wacute" unicode="&#x1e82;" horiz-adv-x="1976" 
d="M1935 1454l-434 -1454h-90l-422 1300l-424 -1300h-94l-430 1454h100l379 -1300l418 1300h100l416 -1307l381 1307h100zM948 1567l107 217h129l-137 -217h-99z" />
    <glyph glyph-name="wacute" unicode="&#x1e83;" horiz-adv-x="1490" 
d="M1450 983l-330 -983h-96l-279 840l-280 -840h-96l-328 983h96l281 -844l278 844h97l280 -844l281 844h96zM696 1096l107 217h129l-137 -217h-99z" />
    <glyph glyph-name="Wdieresis" unicode="&#x1e84;" horiz-adv-x="1976" 
d="M1935 1454l-434 -1454h-90l-422 1300l-424 -1300h-94l-430 1454h100l379 -1300l418 1300h100l416 -1307l381 1307h100zM729 1673q0 44 32.5 77.5t76.5 33.5q43 0 75.5 -33.5t32.5 -77.5q0 -43 -32.5 -74.5t-75.5 -31.5q-44 0 -76.5 31.5t-32.5 74.5zM1049 1673
q0 45 32 78t76 33q43 0 76 -33.5t33 -77.5q0 -42 -33 -74t-76 -32q-44 0 -76 31.5t-32 74.5z" />
    <glyph glyph-name="wdieresis" unicode="&#x1e85;" horiz-adv-x="1490" 
d="M1450 983l-330 -983h-96l-279 840l-280 -840h-96l-328 983h96l281 -844l278 844h97l280 -844l281 844h96zM477 1202q0 44 32.5 77.5t76.5 33.5q43 0 75.5 -33.5t32.5 -77.5q0 -43 -32.5 -74.5t-75.5 -31.5q-44 0 -76.5 31.5t-32.5 74.5zM797 1202q0 45 32 78t76 33
q43 0 76 -33.5t33 -77.5q0 -42 -33 -74t-76 -32q-44 0 -76 31.5t-32 74.5z" />
    <glyph glyph-name="Ygrave" unicode="&#x1ef2;" horiz-adv-x="1118" 
d="M133 1454l428 -743l428 743h109l-486 -831v-623h-98v623l-494 831h113zM371 1784h133l106 -217h-98z" />
    <glyph glyph-name="ygrave" unicode="&#x1ef3;" horiz-adv-x="954" 
d="M924 983l-435 -1200q-40 -108 -110.5 -162.5t-159.5 -54.5q-93 0 -168 53l29 86q56 -53 143 -53q121 0 174 147l52 140l-418 1044h98l363 -924l335 924h97zM291 1313h133l106 -217h-98z" />
    <glyph glyph-name="endash" unicode="&#x2013;" horiz-adv-x="1855" 
d="M1722 621v-95h-1589v95h1589z" />
    <glyph glyph-name="emdash" unicode="&#x2014;" horiz-adv-x="2308" 
d="M2154 621v-95h-2000v95h2000z" />
    <glyph glyph-name="quoteleft" unicode="&#x2018;" horiz-adv-x="462" 
d="M340 1102q0 -44 -29 -72.5t-73 -28.5q-51 0 -83 37t-32 101q0 87 62.5 147t125.5 57v-55q-31 -2 -62 -31.5t-32 -64.5q8 2 35 2q38 0 63 -24.5t25 -67.5z" />
    <glyph glyph-name="quoteright" unicode="&#x2019;" horiz-adv-x="462" 
d="M340 1180q0 -87 -62.5 -147.5t-125.5 -57.5v55q32 2 62.5 32.5t31.5 70.5q-15 -9 -35 -9q-38 0 -63 25t-25 68q0 44 29 72t73 28q51 0 83 -36.5t32 -100.5z" />
    <glyph glyph-name="quotesinglbase" unicode="&#x201a;" horiz-adv-x="389" 
d="M268 43q0 -87 -62.5 -147.5t-125.5 -57.5v56q32 2 62.5 32t31.5 70q-13 -8 -35 -8q-38 0 -63 24.5t-25 67.5q0 44 29 72t74 28q51 0 82.5 -36.5t31.5 -100.5z" />
    <glyph glyph-name="quotedblleft" unicode="&#x201c;" horiz-adv-x="729" 
d="M340 1102q0 -44 -29 -72.5t-73 -28.5q-51 0 -83 37t-32 101q0 84 63 145.5t125 58.5v-55q-32 -2 -62.5 -32t-31.5 -70q13 8 35 8q38 0 63 -24.5t25 -67.5zM606 1102q0 -44 -29 -72.5t-73 -28.5q-51 0 -83 37t-32 101q0 84 63.5 145.5t125.5 58.5v-55q-33 -2 -63.5 -32.5
t-31.5 -69.5q13 8 35 8q38 0 63 -24.5t25 -67.5z" />
    <glyph glyph-name="quotedblright" unicode="&#x201d;" horiz-adv-x="729" 
d="M340 1180q0 -87 -62.5 -147.5t-125.5 -57.5v55q32 2 62.5 32.5t31.5 70.5q-15 -9 -35 -9q-38 0 -63 25t-25 68q0 44 29 72t73 28q51 0 83 -36.5t32 -100.5zM606 1180q0 -87 -62.5 -147.5t-125.5 -57.5v55q32 2 62.5 32.5t31.5 70.5q-15 -9 -35 -9q-38 0 -63 25t-25 68
q0 44 29 72t74 28q51 0 82.5 -36.5t31.5 -100.5z" />
    <glyph glyph-name="quotedblbase" unicode="&#x201e;" horiz-adv-x="729" 
d="M340 43q0 -87 -62.5 -147.5t-125.5 -57.5v56q32 2 62.5 32t31.5 70q-13 -8 -35 -8q-38 0 -63 24.5t-25 67.5q0 44 29 72t73 28q51 0 83 -36.5t32 -100.5zM606 43q0 -87 -62.5 -147.5t-125.5 -57.5v56q32 2 62.5 32t31.5 70q-13 -8 -35 -8q-38 0 -63 24.5t-25 67.5
q0 44 29 72t74 28q51 0 82.5 -36.5t31.5 -100.5z" />
    <glyph glyph-name="dagger" unicode="&#x2020;" horiz-adv-x="565" 
d="M524 1155h-194v-614h-94v614h-195v94h195v205h94v-205h194v-94z" />
    <glyph glyph-name="daggerdbl" unicode="&#x2021;" horiz-adv-x="567" 
d="M526 807h-196v-266h-94v266h-193v94h193v193h-195v94h195v266h94v-266h194v-94h-194v-193h196v-94z" />
    <glyph glyph-name="bullet" unicode="&#x2022;" horiz-adv-x="718" 
d="M96 532q0 106 78.5 184.5t185.5 78.5q106 0 184.5 -78.5t78.5 -184.5q0 -103 -79 -181.5t-184 -78.5q-106 0 -185 78t-79 182z" />
    <glyph glyph-name="ellipsis" unicode="&#x2026;" horiz-adv-x="1351" 
d="M154 88q0 47 33.5 80t78.5 33q47 0 80 -33t33 -80q0 -44 -34.5 -77.5t-78.5 -33.5t-78 33.5t-34 77.5zM563 88q0 47 34 80t79 33q47 0 79.5 -33t32.5 -80q0 -44 -34 -77.5t-78 -33.5t-78.5 33.5t-34.5 77.5zM973 88q0 47 33.5 80t78.5 33q47 0 80 -33t33 -80
q0 -44 -34.5 -77.5t-78.5 -33.5t-78 33.5t-34 77.5z" />
    <glyph glyph-name="perthousand" unicode="&#x2030;" horiz-adv-x="2547" 
d="M113 1100q0 171 82 275.5t223 111.5q156 12 253 -96.5t97 -290.5q0 -170 -82.5 -274.5t-222.5 -112.5q-161 -12 -254 94q-96 110 -96 293zM1520 1454l-1110 -1454h-113l1108 1454h115zM440 815q98 2 161 81.5t63 203.5t-62.5 202t-161.5 80q-99 -2 -161 -80t-62 -202
t62.5 -203.5t160.5 -81.5zM1704 358q0 -170 -82.5 -274.5t-222.5 -112.5q-160 -12 -254 95q-96 110 -96 292q0 171 82 275.5t223 111.5q156 12 253 -96.5t97 -290.5zM2150 -29q-160 -12 -254 95q-96 110 -96 292q0 171 82 275.5t223 111.5q156 12 253.5 -96.5t97.5 -290.5
q0 -170 -83 -274.5t-223 -112.5zM1599 358q0 124 -62.5 202.5t-160.5 80.5q-98 -2 -160.5 -80.5t-62.5 -202.5t62.5 -203t160.5 -81q98 2 160.5 81t62.5 203zM2351 358q0 124 -62.5 202.5t-160.5 80.5q-98 -2 -160.5 -80.5t-62.5 -202.5t62.5 -203t160.5 -81q98 2 160.5 81
t62.5 203z" />
    <glyph glyph-name="minute" unicode="&#x2032;" horiz-adv-x="342" 
d="M209 1047h-74l-33 362q-1 37 19 58.5t51 21.5q30 0 49.5 -21.5t18.5 -58.5z" />
    <glyph glyph-name="guilsinglleft" unicode="&#x2039;" horiz-adv-x="643" 
d="M213 492l430 -492h-100l-430 492l430 491h100z" />
    <glyph glyph-name="guilsinglright" unicode="&#x203a;" horiz-adv-x="643" 
d="M530 492l-430 -492h-100l430 492l-430 491h100z" />
    <glyph glyph-name="uni2042" unicode="&#x2042;" horiz-adv-x="1701" 
d="M1012 848l-72 104q-52 68 -90 162q-28 -75 -88 -162l-74 -104l-55 39l72 102q56 82 118 146q-84 12 -180 45l-121 43l25 63l117 -43q93 -28 172 -78q-19 84 -19 187v127h66v-127q0 -107 -17 -187q82 50 168 78l119 43l27 -63l-123 -43q-91 -32 -178 -45q46 -46 118 -146
l68 -102zM606 422q-91 -32 -178 -45q50 -50 119 -146l67 -102l-53 -39l-72 105q-53 69 -90 161q-27 -73 -88 -161l-73 -105l-56 39l72 102q54 78 119 146q-84 12 -180 45l-121 43l24 63l117 -43q97 -29 172 -77q-18 80 -18 186v127h65v-127q0 -111 -16 -186q78 48 168 77
l118 43l27 -63zM1448 231l68 -102l-54 -39l-71 105q-55 72 -91 161q-27 -73 -88 -161l-73 -105l-56 39l72 102q54 78 119 146q-84 12 -180 45l-121 43l24 63l117 -43q97 -29 172 -77q-18 79 -18 186v127h65v-127q0 -111 -16 -186q78 48 168 77l119 43l26 -63l-123 -43
q-91 -32 -178 -45q50 -50 119 -146z" />
    <glyph glyph-name="fraction" unicode="&#x2044;" horiz-adv-x="198" 
d="M-512 0l1108 1454h115l-1110 -1454h-113z" />
    <glyph glyph-name="uni2070" unicode="&#x2070;" horiz-adv-x="1005" 
d="M506 598h-4h-2q-198 3 -307 139q-111 138 -111 359q0 218 111 356q114 138 307 141h4h2q194 -3 305 -141q113 -137 113 -356q0 -221 -111 -359q-109 -136 -307 -139zM803 1096q0 168 -81.5 274t-219.5 107q-139 -3 -221 -111q-80 -109 -80 -270q0 -168 81.5 -275
t219.5 -108q142 3 221 110q80 109 80 273z" />
    <glyph glyph-name="uni2074" unicode="&#x2074;" horiz-adv-x="880" 
d="M799 809h-119v-195h-111v195h-487v113l487 651h111v-651h119v-113zM569 922v469l-348 -469h348z" />
    <glyph glyph-name="uni2075" unicode="&#x2075;" horiz-adv-x="835" 
d="M754 924q0 -135 -101 -231.5t-239 -96.5t-235 96.5t-97 231.5h113q0 -91 62.5 -152t156.5 -61q96 0 159 63q66 66 66 154q0 100 -64.5 163.5t-164.5 63.5q-58 0 -108.5 -24t-80.5 -64l-106 27l121 479h481v-113h-393l-64 -248q71 45 162 45q145 0 238.5 -95.5
t93.5 -237.5z" />
    <glyph glyph-name="uni2076" unicode="&#x2076;" horiz-adv-x="888" 
d="M807 944q0 -151 -101.5 -248.5t-254.5 -97.5q-181 0 -275 135q-94 137 -94 346q0 145 42 260t133 186.5t218 71.5q198 0 307 -157l-96 -62q-76 105 -211 105q-129 0 -205 -105q-73 -104 -73 -258q34 78 108 121t164 43q86 0 162 -40t126 -119.5t50 -180.5zM694 942
q0 99 -68.5 166.5t-168.5 67.5q-98 0 -164 -67t-66 -167t68 -168q68 -65 164 -65q99 0 167 67t68 166z" />
    <glyph glyph-name="uni2077" unicode="&#x2077;" horiz-adv-x="800" 
d="M719 1573v-117q-246 -200 -311 -440q-64 -235 -64 -402h-117q0 144 60 387q62 238 286 455h-491v117h637z" />
    <glyph glyph-name="uni2078" unicode="&#x2078;" horiz-adv-x="839" 
d="M758 872q0 -126 -101 -202q-98 -76 -241 -76q-140 0 -237 79t-97 199q0 85 50 154t134 98q-68 29 -106.5 88.5t-38.5 133.5q0 110 86 178q84 69 213 69q132 0 215.5 -70t83.5 -184q0 -71 -39.5 -128t-106.5 -87q85 -26 135 -95.5t50 -156.5zM420 1176q85 0 140.5 44
t55.5 111q0 71 -55 113.5t-141 42.5t-141.5 -42t-55.5 -110q0 -71 55.5 -115t141.5 -44zM420 1063q-97 0 -161 -49.5t-64 -126.5q0 -80 65 -131t160 -51q97 0 161 52.5t64 131.5q0 78 -64.5 126t-160.5 48z" />
    <glyph glyph-name="uni2079" unicode="&#x2079;" horiz-adv-x="888" 
d="M807 1100q0 -233 -101 -367.5t-288 -134.5q-202 0 -309 158l94 59q42 -55 94 -79.5t125 -24.5q129 0 197.5 93t74.5 271q-36 -77 -109 -120.5t-159 -43.5q-137 0 -240.5 93.5t-103.5 244.5q0 152 101 250t255 98q186 0 277 -141q92 -139 92 -356zM662 1253q0 101 -68 166
q-68 68 -164 68q-99 0 -167 -67.5t-68 -166.5q0 -100 67.5 -166.5t167.5 -66.5q99 0 165.5 65.5t66.5 167.5z" />
    <glyph glyph-name="uni2080" unicode="&#x2080;" horiz-adv-x="1005" 
d="M506 -221h-4h-2q-196 3 -307 141t-111 356q0 219 111 357q114 138 307 141h4h2q194 -3 305 -141q113 -137 113 -357q0 -218 -111 -356t-307 -141zM803 276q0 168 -81.5 274t-219.5 107q-139 -3 -221 -110q-80 -109 -80 -271q0 -168 81.5 -274.5t219.5 -107.5
q142 3 221 110q80 109 80 272z" />
    <glyph glyph-name="uni2081" unicode="&#x2081;" horiz-adv-x="569" 
d="M385 754v-959h-113v842l-190 -78v115l190 80h113z" />
    <glyph glyph-name="uni2082" unicode="&#x2082;" horiz-adv-x="811" 
d="M92 -78l422 354q100 83 100 181q0 92 -57.5 148.5t-153.5 56.5q-92 0 -149.5 -55t-58.5 -148h-113q1 141 91.5 227t232.5 86q143 0 233 -90t90 -221q0 -81 -36 -145.5t-109 -127.5l-336 -280l457 2v-113l-613 -2v127z" />
    <glyph glyph-name="uni2083" unicode="&#x2083;" horiz-adv-x="817" 
d="M735 94q0 -136 -94.5 -225.5t-228.5 -89.5q-139 0 -234.5 91.5t-95.5 221.5h115q0 -86 61 -144.5t154 -58.5q89 0 149 57.5t60 147.5q0 93 -63 151t-161 58q-37 0 -75 -10l-35 94l270 254h-432v113h596v-113l-254 -235q119 -19 193.5 -104.5t74.5 -207.5z" />
    <glyph glyph-name="uni2084" unicode="&#x2084;" horiz-adv-x="880" 
d="M799 -10h-119v-195h-111v195h-487v112l487 652h111v-652h119v-112zM569 102v469l-348 -469h348z" />
    <glyph glyph-name="uni2085" unicode="&#x2085;" horiz-adv-x="835" 
d="M754 104q0 -134 -100.5 -230.5t-239.5 -96.5q-138 0 -235 96t-97 231h113q0 -91 62.5 -152t156.5 -61q95 0 159 64q66 66 66 154q0 100 -64.5 163.5t-164.5 63.5q-58 0 -108.5 -24t-80.5 -64l-106 26l121 480h481v-113h-393l-64 -248q71 45 162 45q145 0 238.5 -96
t93.5 -238z" />
    <glyph glyph-name="uni2086" unicode="&#x2086;" horiz-adv-x="888" 
d="M807 125q0 -151 -101.5 -248.5t-254.5 -97.5q-181 0 -275 137q-94 134 -94 344q0 145 42 260t133 186.5t218 71.5q198 0 307 -157l-96 -62q-76 105 -211 105q-129 0 -205 -105q-73 -104 -73 -258q34 78 108 121t164 43q86 0 162 -40t126 -119.5t50 -180.5zM694 123
q0 99 -68.5 166t-168.5 67q-98 0 -164 -66.5t-66 -166.5q0 -101 68 -166q68 -68 164 -68q99 0 167 67.5t68 166.5z" />
    <glyph glyph-name="uni2087" unicode="&#x2087;" horiz-adv-x="800" 
d="M719 754v-117q-246 -200 -311 -440q-64 -235 -64 -402h-117q0 144 60 387q62 238 286 455h-491v117h637z" />
    <glyph glyph-name="uni2088" unicode="&#x2088;" horiz-adv-x="839" 
d="M758 53q0 -127 -101 -203q-97 -75 -241 -75q-140 0 -237 79t-97 199q0 85 50 154t134 98q-68 29 -106.5 88t-38.5 133q0 111 86 179q84 69 213 69q132 0 215.5 -70t83.5 -184q0 -71 -39.5 -128t-106.5 -87q85 -26 135 -95.5t50 -156.5zM420 356q85 0 140.5 44.5
t55.5 111.5q0 71 -55 113.5t-141 42.5t-141.5 -42t-55.5 -110q0 -71 55.5 -115.5t141.5 -44.5zM420 244q-97 0 -161 -49.5t-64 -126.5q0 -80 65 -131.5t160 -51.5q97 0 161 52.5t64 132.5q0 78 -64.5 126t-160.5 48z" />
    <glyph glyph-name="uni2089" unicode="&#x2089;" horiz-adv-x="888" 
d="M807 281q0 -233 -101 -367.5t-288 -134.5q-202 0 -309 158l94 59q43 -55 95 -80t124 -25q129 0 197.5 93t74.5 272q-36 -77 -109 -120.5t-159 -43.5q-137 0 -240.5 93.5t-103.5 244.5q0 152 101 250t255 98q186 0 277 -141q92 -139 92 -356zM662 434q0 101 -68 166
q-68 68 -164 68q-99 0 -167 -67.5t-68 -166.5q0 -100 67.5 -166.5t167.5 -66.5q99 0 165.5 65.5t66.5 167.5z" />
    <glyph glyph-name="Euro" unicode="&#x20ac;" horiz-adv-x="1560" 
d="M1438 125q-91 -70 -208.5 -110t-232.5 -40q-238 0 -431 146.5t-261 374.5h-182v98h160q-11 82 -11 127q0 79 15 149h-164v99h188q71 224 260.5 366t425.5 142q195 0 385 -105l-45 -86q-170 92 -340 92q-201 0 -354 -112q-157 -115 -227 -297h692l-21 -99h-700
q-16 -82 -16 -149q0 -65 12 -127h643l-20 -98h-596q68 -189 227 -306q158 -116 360 -116q103 0 202 33.5t177 95.5z" />
    <glyph glyph-name="uni2116" unicode="&#x2116;" horiz-adv-x="2666" 
d="M2421 989q0 -135 -66 -248t-177.5 -177t-242.5 -64q-93 -2 -183 37.5t-157 105.5t-107 157.5t-38 188.5q0 98 39.5 187t105.5 152.5t155 100.5t185 37q129 3 242 -59.5t180 -174t64 -243.5zM1171 1454h95v-1454h-95l-831 1272v-1272h-94v1454h94l831 -1272v1272z
M2329 989q0 167 -115 276t-279 109q-162 0 -277.5 -110t-115.5 -275q0 -164 117 -279.5t276 -115.5q164 0 279 112t115 283zM1655 340h561v-94h-561v94z" />
    <glyph glyph-name="uni2117" unicode="&#x2117;" horiz-adv-x="1087" 
d="M1006 1018q2 -123 -61 -230.5t-170.5 -170.5t-229.5 -60q-123 -3 -231 60t-171 170.5t-61 230.5q0 124 63 229.5t169.5 166.5t230.5 61q91 2 177 -35t148.5 -99.5t99.5 -147.5t36 -175zM942 1014q0 166 -116.5 282.5t-282.5 116.5q-168 0 -282 -116t-114 -283
q0 -170 113 -283t283 -113q167 0 283 114t116 282zM713 1094q0 -60 -38.5 -91.5t-103.5 -31.5h-71v-160h-72v403h72h69q144 0 144 -120zM633 1094q0 49 -62 49h-71v-111h69q34 0 50 15.5t14 46.5z" />
    <glyph glyph-name="trademark" unicode="&#x2122;" horiz-adv-x="1251" 
d="M514 1380h-192v-491h-76v491h-172v74h440v-74zM1128 1454v-565h-69v387l-164 -387h-70l-166 383v-383h-69v565h69l201 -481l199 481h69z" />
    <glyph glyph-name="estimated" unicode="&#x212e;" horiz-adv-x="1595" 
d="M799 1454q301 0 486 -182t185 -492q3 -15 3 -55q0 -38 -3 -53h-1142v-369q80 -116 207 -178t288 -62q157 0 289.5 74.5t198.5 198.5l78 -29q-75 -152 -227 -238.5t-343 -86.5q-153 0 -282.5 53.5t-220.5 148.5t-142 230.5t-51 294.5q0 161 50.5 300t139 236.5t214.5 153
t272 55.5zM328 745h940v410q-75 103 -196.5 160t-264.5 57q-151 0 -274.5 -66.5t-204.5 -187.5v-373z" />
    <glyph glyph-name="oneeighth" unicode="&#x215b;" horiz-adv-x="1460" 
d="M102 1393l121 61v-113l-121 -53v105zM332 1454v-754h-107l-2 754h109zM4 0l1108 1454h115l-1110 -1454h-113zM817 199q0 59 28 107.5t77 80.5q-78 60 -78 148q0 89 70 153.5t178 65.5q106 -1 172.5 -63.5t68.5 -149.5q0 -97 -80 -154q50 -29 77.5 -78.5t27.5 -109.5
q0 -98 -71 -162t-204 -64q-130 0 -198 64t-68 162zM1223 545q0 42 -37.5 71t-98.5 29q-65 -1 -101.5 -32.5t-31.5 -75.5q2 -40 38 -67.5t95 -27.5q62 1 100 31t36 72zM1249 203q0 49 -44.5 82.5t-117.5 33.5q-75 0 -118 -35t-41 -87q0 -51 43 -85t116 -34q75 0 118.5 36
t43.5 89z" />
    <glyph glyph-name="threeeighths" unicode="&#x215c;" horiz-adv-x="1671" 
d="M625 934q0 -104 -76 -174q-78 -72 -184 -72t-184.5 74.5t-78.5 175.5q0 23 2 29h111q-4 -32 -4 -33q0 -57 46 -99t108 -42q63 0 107 40.5t44 100.5q0 73 -57 115q-47 30 -94 30q-32 0 -48 -8l-67 84l196 191h-307v108h469v-104l-180 -174q70 -15 119 -64q78 -75 78 -178z
M215 0l1108 1454h115l-1110 -1454h-113zM1028 199q0 59 28 107.5t77 80.5q-78 60 -78 148q0 89 70 153.5t178 65.5q106 -1 172.5 -63.5t68.5 -149.5q0 -97 -80 -154q50 -29 77.5 -78.5t27.5 -109.5q0 -98 -71 -162t-204 -64q-130 0 -198 64t-68 162zM1434 545q0 42 -37.5 71
t-98.5 29q-65 -1 -101.5 -32.5t-31.5 -75.5q2 -40 38 -67.5t95 -27.5q62 1 100 31t36 72zM1460 203q0 49 -44.5 82.5t-117.5 33.5q-75 0 -118 -35t-41 -87q0 -51 43 -85t116 -34q75 0 118.5 36t43.5 89z" />
    <glyph glyph-name="fiveeighths" unicode="&#x215d;" horiz-adv-x="1677" 
d="M209 963q-2 -72 41 -118t115 -46q66 0 113.5 44.5t47.5 106.5q0 66 -47.5 113t-113.5 47q-92 0 -140 -76l-104 27l98 393h385v-106h-299l-39 -148q53 17 99 17q109 0 187.5 -79t78.5 -188q0 -106 -78.5 -182t-187.5 -76q-117 0 -192.5 77.5t-70.5 193.5h107zM221 0
l1108 1454h115l-1110 -1454h-113zM1034 199q0 59 28 107.5t77 80.5q-78 60 -78 148q0 89 70 153.5t178 65.5q106 -1 172.5 -63.5t68.5 -149.5q0 -97 -80 -154q50 -29 77.5 -78.5t27.5 -109.5q0 -98 -71 -162t-204 -64q-130 0 -198 64t-68 162zM1440 545q0 43 -37 71.5
t-98 28.5q-66 -1 -102.5 -32.5t-31.5 -75.5q2 -40 38.5 -67.5t95.5 -27.5q62 1 99.5 31t35.5 72zM1466 203q0 49 -44 82.5t-117 33.5q-75 0 -118.5 -35t-41.5 -87q0 -51 43.5 -85t116.5 -34q75 0 118 36t43 89z" />
    <glyph glyph-name="seveneighths" unicode="&#x215e;" horiz-adv-x="1554" 
d="M631 1454v-113q-148 -113 -217 -256q-69 -145 -78 -225q-10 -92 -10 -153h-115q0 108 45 278q46 173 229 356h-383v113h529zM98 0l1108 1454h115l-1110 -1454h-113zM911 199q0 59 28 107.5t77 80.5q-78 60 -78 148q0 89 70 153.5t178 65.5q106 -1 172.5 -63.5
t68.5 -149.5q0 -98 -79 -154q49 -29 76.5 -78.5t27.5 -109.5q0 -98 -70.5 -162t-203.5 -64q-130 0 -198.5 64t-68.5 162zM1317 545q0 43 -37 71.5t-98 28.5q-65 -1 -101.5 -32.5t-31.5 -75.5q2 -40 38 -67.5t95 -27.5q62 1 99.5 31t35.5 72zM1343 203q0 49 -44 82.5
t-117 33.5q-75 0 -118.5 -35t-41.5 -87q0 -51 43.5 -85t116.5 -34q75 0 118 36t43 89z" />
    <glyph glyph-name="arrowleft" unicode="&#x2190;" horiz-adv-x="1814" 
d="M123 496l598 596l63 -64l-485 -487h1393v-90h-1393l485 -488l-63 -63z" />
    <glyph glyph-name="arrowup" unicode="&#x2191;" horiz-adv-x="1458" 
d="M729 1454l606 -590l-65 -65l-496 479v-1278h-90v1278l-496 -479l-65 65z" />
    <glyph glyph-name="arrowright" unicode="&#x2192;" horiz-adv-x="1814" 
d="M1692 596l-598 -596l-64 63l486 488h-1393v90h1393l-486 487l64 64z" />
    <glyph glyph-name="arrowdown" unicode="&#x2193;" horiz-adv-x="1437" 
d="M719 -203l-596 598l63 64l488 -486v1481h90v-1481l487 486l64 -64z" />
    <glyph glyph-name="arrowboth" unicode="&#x2194;" horiz-adv-x="2093" 
d="M1579 250l201 215l-1004 -2v2l-465 -2l209 -219v-138l-397 404l393 401v-139l-205 -215l459 2v2h547l467 -2l-207 215v137l393 -399l-391 -403v141z" />
    <glyph glyph-name="arrowupdn" unicode="&#x2195;" horiz-adv-x="1048" 
d="M784 78h142l-404 -395l-399 395h135l217 -205l-2 461v270v273l2 464l-217 -202h-135l399 391l404 -391h-142l-215 202v-1007v-461z" />
    <glyph glyph-name="uni2196" unicode="&#x2196;" horiz-adv-x="1699" 
d="M123 1454h844v-90l-688 -2l1298 -1299l-64 -63l-1298 1298l-2 -688h-90v844z" />
    <glyph glyph-name="uni2197" unicode="&#x2197;" horiz-adv-x="1699" 
d="M1577 1454v-844h-92v688l-1299 -1298l-63 63l1298 1299h-688v92h844z" />
    <glyph glyph-name="uni2198" unicode="&#x2198;" horiz-adv-x="1695" 
d="M1573 4h-844v90l688 2l-1294 1295l63 63l1295 -1294l2 688h90v-844z" />
    <glyph glyph-name="uni2199" unicode="&#x2199;" horiz-adv-x="1701" 
d="M123 -2v844h92v-688l1301 1300l63 -63l-1300 -1301l688 -2v-90h-844z" />
    <glyph glyph-name="partialdiff" unicode="&#x2202;" horiz-adv-x="1204" 
d="M1114 553q0 -139 -42.5 -251t-114.5 -181t-161.5 -105t-189.5 -36q-139 0 -256.5 61t-190.5 178.5t-73 269.5q0 147 67.5 266.5t183 186t253.5 66.5q110 0 209.5 -42.5t167.5 -117.5q-56 170 -187.5 326.5t-316.5 279.5h129q153 -98 273 -251.5t184.5 -323.5t64.5 -326z
M1016 500q0 179 -121.5 301.5t-298.5 122.5q-178 0 -302 -125.5t-124 -300.5q0 -116 58.5 -215.5t157.5 -158t214 -58.5q173 0 294.5 127t121.5 307z" />
    <glyph glyph-name="emptyset" unicode="&#x2205;" horiz-adv-x="1589" 
d="M1378 1184q129 -196 129 -457q2 -161 -50.5 -302.5t-145.5 -241.5t-225 -157t-283 -55q-151 0 -284 59.5t-230 168.5l-142 -129l-65 71l147 135q-131 192 -131 451q-3 213 89 388t255 274t361 96q153 0 284.5 -58t229.5 -165l125 112l65 -74zM303 342l944 856
q-82 93 -196 143t-248 50q-128 2 -242 -48.5t-195 -139t-127 -212.5t-44 -264q0 -219 108 -385zM1307 1120l-945 -856q82 -94 196.5 -145t244.5 -51q173 -3 314 82.5t220 237.5t76 339q0 224 -106 393z" />
    <glyph glyph-name="uni2206" unicode="&#x2206;" horiz-adv-x="1347" 
d="M1225 82v-82h-1102v82l504 1372h94zM211 82h926l-463 1264z" />
    <glyph glyph-name="product" unicode="&#x220f;" horiz-adv-x="1087" 
d="M784 983v-696q0 -199 177 -199q35 0 45 2v-90q-50 -4 -56 -4q-124 0 -192 75t-68 216v696h-397v-983h-96v983h-187v94h283h491h222v-94h-222z" />
    <glyph glyph-name="summation" unicode="&#x2211;" horiz-adv-x="872" 
d="M41 106l563 619l-563 623v106h750v-86h-646l584 -643l-584 -631h646v-94h-750v106z" />
    <glyph glyph-name="minus" unicode="&#x2212;" horiz-adv-x="892" 
d="M791 723v-94h-689v94h689z" />
    <glyph glyph-name="radical" unicode="&#x221a;" horiz-adv-x="1388" 
d="M1307 1434v-99h-293l-527 -1335h-110l-377 981h102l330 -842l520 1295h355z" />
    <glyph glyph-name="infinity" unicode="&#x221e;" horiz-adv-x="1724" 
d="M469 911q104 0 211 -72.5t182 -193.5q75 121 182 193.5t211 72.5q148 0 247.5 -97t99.5 -243t-99.5 -243t-247.5 -97q-104 0 -211 72.5t-182 194.5q-75 -122 -182 -194.5t-211 -72.5q-148 0 -247 97t-99 243t99 243t247 97zM479 330q82 0 165.5 60.5t154.5 180.5
q-72 120 -155 181t-165 61q-117 0 -187.5 -67.5t-70.5 -174.5t70.5 -174t187.5 -67zM1245 330q117 0 187.5 67t70.5 174t-70.5 174.5t-187.5 67.5q-82 0 -164.5 -61t-154.5 -181q72 -120 154.5 -180.5t164.5 -60.5z" />
    <glyph glyph-name="integral" unicode="&#x222b;" horiz-adv-x="532" 
d="M471 1483v-94h-68q-37 0 -63.5 -27t-26.5 -64v-610v-532q0 -76 -53.5 -130.5t-130.5 -54.5h-68v95h68q37 0 63.5 26.5t26.5 63.5v610v532q0 77 54 131t130 54h68z" />
    <glyph glyph-name="approxequal" unicode="&#x2248;" horiz-adv-x="880" 
d="M799 768q0 -85 -54 -139t-135 -54q-44 0 -83 16.5t-99 55.5q-86 51 -114 60q-22 6 -44 6q-48 0 -76 -28.5t-28 -78.5h-84q0 81 53.5 135t132.5 54q46 0 84.5 -16t106.5 -58q54 -35 86 -49.5t65 -14.5q46 0 75.5 29.5t29.5 81.5h84zM799 498q0 -85 -54 -139t-135 -54
q-44 0 -83 16.5t-99 55.5q-46 28 -64 37.5t-44 18.5t-50 9q-48 0 -76 -28t-28 -78h-84q0 81 53.5 134.5t132.5 53.5q47 0 85.5 -15.5t105.5 -57.5q54 -35 86 -49.5t65 -14.5q46 0 75.5 29.5t29.5 81.5h84z" />
    <glyph glyph-name="notequal" unicode="&#x2260;" horiz-adv-x="999" 
d="M604 844l-174 -320h488v-94h-539l-168 -307h-94l168 307h-203v94h254l174 320h-428v94h479l170 311h94l-170 -311h263v-94h-314z" />
    <glyph glyph-name="lessequal" unicode="&#x2264;" horiz-adv-x="1105" 
d="M72 711l932 327v-94l-799 -280l799 -281v-94l-932 327v95zM72 94h932v-94h-932v94z" />
    <glyph glyph-name="greaterequal" unicode="&#x2265;" horiz-adv-x="1105" 
d="M1034 711v-95l-932 -327v94l799 281l-799 280v94zM102 94h932v-94h-932v94z" />
    <glyph glyph-name="filledbox" unicode="&#x25a0;" horiz-adv-x="1699" 
d="M1577 1454v-1454h-1454v1454h1454z" />
    <glyph glyph-name="uni25A1" unicode="&#x25a1;" horiz-adv-x="1699" 
d="M1577 1454v-1454h-1454v1454h1454zM217 94h1266v1266h-1266v-1266z" />
    <glyph glyph-name="triagup" unicode="&#x25b2;" horiz-adv-x="1978" 
d="M123 0l866 1454l866 -1454h-1732z" />
    <glyph glyph-name="uni25B3" unicode="&#x25b3;" horiz-adv-x="1982" 
d="M123 0l868 1458l869 -1458h-1737zM991 1249l-684 -1149h1368z" />
    <glyph glyph-name="lozenge" unicode="&#x25ca;" horiz-adv-x="1204" 
d="M1081 727l-428 -727h-104l-426 727l426 727h104zM977 727l-375 639l-375 -639l375 -639z" />
    <glyph glyph-name="circle" unicode="&#x25cb;" horiz-adv-x="1847" 
d="M123 682q-3 158 62 307t174 258t258 174t307 62q158 3 307 -62t258 -174t173.5 -258t61.5 -307q3 -158 -61.5 -307t-173.5 -258t-258 -174t-307 -62q-159 -4 -308.5 60.5t-258.5 173.5t-173.5 258.5t-60.5 308.5zM1614 682q2 109 -33 214.5t-100 191.5t-151 151
t-191.5 100t-214.5 33q-136 3 -265 -52.5t-223 -149.5t-150 -223t-53 -265q-3 -136 53 -265t150 -223t223 -149.5t265 -52.5q109 -2 214.5 33t191.5 100t151 151t100 191.5t33 214.5z" />
    <glyph glyph-name="uni25CF" unicode="&#x25cf;" horiz-adv-x="1847" 
d="M123 682q-3 158 62 307t174 258t258 174t307 62q158 3 307 -62t258 -174t173.5 -258t61.5 -307q3 -158 -61.5 -307t-173.5 -258t-258 -174t-307 -62q-159 -4 -308.5 60.5t-258.5 173.5t-173.5 258.5t-60.5 308.5z" />
    <glyph glyph-name="uni262E" unicode="&#x262e;" horiz-adv-x="1847" 
d="M1724 682q3 -158 -61.5 -307t-173.5 -258t-258 -174t-307 -62q-159 -4 -308.5 60.5t-258.5 173.5t-173.5 258.5t-60.5 308.5q-3 158 62 307t174 258t258 174t307 62q158 3 307 -62t258 -174t173.5 -258t61.5 -307zM233 682q0 -154 64 -291l577 367v612
q-129 -7 -248.5 -65.5t-206.5 -151t-138 -216.5t-48 -255zM977 1370v-612l573 -365q64 137 64 289q4 172 -83 328.5t-235.5 253.5t-318.5 106zM874 -6v641l-526 -332q89 -135 226.5 -217t299.5 -92zM1501 303l-524 332v-641q161 12 298.5 93.5t225.5 215.5z" />
    <glyph glyph-name="smileface" unicode="&#x263a;" horiz-adv-x="1843" 
d="M123 686q-4 155 60.5 301.5t173.5 253.5t258.5 171t308.5 61q156 3 304.5 -61t257.5 -171t173.5 -253.5t60.5 -301.5q3 -128 -37.5 -250.5t-116 -221.5t-175 -174t-220.5 -115t-247 -38q-127 -2 -249.5 38t-222.5 115t-175.5 174t-116 221.5t-37.5 250.5zM1610 676
q2 138 -53 266.5t-148.5 222.5t-221.5 149t-265 52q-142 2 -270.5 -52.5t-220 -148.5t-144.5 -222t-51 -267q-2 -141 51 -268.5t144.5 -219t219.5 -144t271 -50.5q139 -2 267 51t221 144t147.5 218.5t52.5 268.5zM535 858q0 50 33.5 83.5t82.5 33.5q47 0 80 -34.5t33 -82.5
q0 -50 -33 -85.5t-80 -35.5q-49 0 -82.5 35.5t-33.5 85.5zM1071 848q0 49 33.5 82t83.5 33q47 0 81 -34t34 -81t-34 -82t-81 -35q-50 0 -83.5 33.5t-33.5 83.5zM668 592q-3 -109 71 -186.5t185 -77.5q109 0 183 77t71 187h102q6 -152 -98 -259.5t-258 -107.5
q-155 0 -259 107t-98 260h101z" />
    <glyph glyph-name="uni2713" unicode="&#x2713;" horiz-adv-x="1548" 
d="M131 561l363 -393l706 850l82 -64l-782 -940l-441 475z" />
    <glyph glyph-name="uni2776" unicode="&#x2776;" horiz-adv-x="1609" 
d="M102 713q-3 139 53.5 270t152 227t227.5 153t272 54q184 4 347.5 -93t260 -261.5t92.5 -349.5q4 -187 -92 -352t-259.5 -262t-348.5 -93q-138 -3 -269.5 54.5t-228 153.5t-153.5 228t-54 271zM877 1108h-113l-139 -72v-100l145 70v-662h107v764z" />
    <glyph glyph-name="uni2777" unicode="&#x2777;" horiz-adv-x="1609" 
d="M1507 711q3 -138 -53.5 -269.5t-151.5 -228t-226 -153.5t-269 -54q-138 -3 -269.5 54.5t-228 153.5t-153.5 228t-54 271q-2 111 33.5 218.5t102 195t153.5 154.5t195 102.5t219 33.5q139 2 270 -55t226.5 -152.5t152 -227t53.5 -271.5zM729 461l213 180q67 57 95.5 108.5
t29.5 118.5q-1 110 -72.5 180t-177.5 70q-116 0 -189 -75t-67 -193h105q-4 78 34.5 122t112.5 46q70 -2 110 -42t40 -114q-2 -36 -16.5 -63.5t-49.5 -57.5l-332 -292v-97l482 2v107h-318z" />
    <glyph glyph-name="uni2778" unicode="&#x2778;" horiz-adv-x="1609" 
d="M102 713q-3 139 53.5 270t152 227t227.5 153t272 54q184 4 347.5 -93t260 -261.5t92.5 -349.5q4 -187 -92 -352t-259.5 -262t-348.5 -93q-138 -3 -269.5 54.5t-228 153.5t-153.5 228t-54 271zM819 324q113 0 186.5 71t73.5 180q0 95 -58 161.5t-147 80.5l166 182v111
h-446v-109h301l-190 -210l4 -74h112q61 5 105.5 -36t44.5 -106q0 -63 -43 -105t-109 -42q-69 0 -115 47.5t-38 110.5h-109q-6 -108 69.5 -185t192.5 -77z" />
    <glyph glyph-name="uni2779" unicode="&#x2779;" horiz-adv-x="1609" 
d="M102 713q-3 139 53.5 270t152 227t227.5 153t272 54q184 4 347.5 -93t260 -261.5t92.5 -349.5q4 -187 -92 -352t-259.5 -262t-348.5 -93q-138 -3 -269.5 54.5t-228 153.5t-153.5 228t-54 271zM940 344v145h123v107h-123v512h-113l-356 -496v-123h360v-145h109zM831 940
v-344h-260z" />
    <glyph glyph-name="uni277A" unicode="&#x277a;" horiz-adv-x="1609" 
d="M102 713q-3 139 53.5 270t152 227t227.5 153t272 54q184 4 347.5 -93t260 -261.5t92.5 -349.5q4 -187 -92 -352t-259.5 -262t-348.5 -93q-138 -3 -269.5 54.5t-228 153.5t-153.5 228t-54 271zM702 987h310v111h-396l-73 -412l96 -18q53 77 152 77q72 0 116.5 -44.5
t44.5 -116.5t-44 -117t-113 -45q-64 0 -105.5 32t-54.5 93l-109 -29q20 -94 91.5 -150.5t173.5 -56.5q119 0 196.5 77.5t77.5 195.5q0 117 -71.5 194.5t-180.5 77.5q-93 0 -141 -39z" />
    <glyph glyph-name="uni277B" unicode="&#x277b;" horiz-adv-x="1609" 
d="M102 713q-2 111 33.5 218.5t102 195t153.5 154.5t195 102.5t219 33.5q139 2 270 -55t226.5 -152.5t152 -227t53.5 -271.5q3 -138 -53.5 -269.5t-151.5 -228t-226 -153.5t-269 -54q-138 -3 -269.5 54.5t-228 153.5t-153.5 228t-54 271zM799 1010q106 0 166 -78l104 35
q-37 72 -105.5 111.5t-158.5 39.5q-146 0 -228.5 -105t-82.5 -290q0 -194 75.5 -300t212.5 -106q118 0 200.5 79.5t82.5 199.5q0 114 -76 190q-77 80 -186 80q-136 0 -201 -86q0 97 53.5 163.5t143.5 66.5zM618 590q0 72 48 118t120 46q70 0 116 -45.5t46 -118.5
q0 -72 -45 -118t-117 -46q-73 0 -120.5 47t-47.5 117z" />
    <glyph glyph-name="uni277C" unicode="&#x277c;" horiz-adv-x="1609" 
d="M102 713q-3 139 53.5 270t152 227t227.5 153t272 54q184 4 347.5 -93t260 -261.5t92.5 -349.5q4 -187 -92 -352t-259.5 -262t-348.5 -93q-138 -3 -269.5 54.5t-228 153.5t-153.5 228t-54 271zM670 344h114q41 370 275 625v96h-471v-98h350q-229 -290 -268 -623z" />
    <glyph glyph-name="uni277D" unicode="&#x277d;" horiz-adv-x="1609" 
d="M102 713q-3 139 53.5 270t152 227t227.5 153t272 54q184 4 347.5 -93t260 -261.5t92.5 -349.5q4 -187 -92 -352t-259.5 -262t-348.5 -93q-138 -3 -269.5 54.5t-228 153.5t-153.5 228t-54 271zM1079 567q0 69 -31 125t-81 74q30 14 50.5 56t20.5 91q0 93 -63.5 149
t-171.5 56q-110 0 -177 -57t-67 -150q0 -38 20.5 -81.5t51.5 -69.5q-47 -14 -80 -71t-33 -126q0 -110 77.5 -175.5t207.5 -65.5q127 0 201.5 66t74.5 179zM672 905q0 45 37 75t94 30q54 0 89.5 -30t35.5 -75q0 -44 -35 -73t-90 -29q-57 0 -94 29t-37 73zM631 571
q0 64 47.5 104t124.5 40q73 0 120.5 -40.5t47.5 -103.5q0 -62 -47.5 -101.5t-120.5 -39.5q-74 0 -123 40t-49 101z" />
    <glyph glyph-name="uni277E" unicode="&#x277e;" horiz-adv-x="1609" 
d="M102 713q-3 139 53.5 270t152 227t227.5 153t272 54q184 4 347.5 -93t260 -261.5t92.5 -349.5q4 -187 -92 -352t-259.5 -262t-348.5 -93q-138 -3 -269.5 54.5t-228 153.5t-153.5 228t-54 271zM797 424q-131 6 -174 104l-103 -36q36 -80 107.5 -125t167.5 -45
q142 0 219.5 98t77.5 285q0 196 -78.5 304.5t-218.5 108.5q-116 0 -193 -80q-78 -78 -78 -198q0 -112 75 -187t187 -75q135 0 203 94q5 -112 -45.5 -180t-146.5 -68zM961 846q0 -72 -46 -117t-120 -45q-68 0 -115 48t-47 116q0 72 47.5 117t122.5 45q69 0 113.5 -45.5
t44.5 -118.5z" />
    <glyph glyph-name="uni2780" unicode="&#x2780;" horiz-adv-x="1806" 
d="M102 682q-3 158 62 307t174 258t258 174t307 62q158 3 307 -62t258 -174t174 -258t62 -307q3 -158 -62 -307t-174 -258t-258 -174t-307 -62q-159 -4 -308.5 60.5t-258.5 173.5t-173.5 258.5t-60.5 308.5zM1593 682q2 109 -33 214.5t-100 191.5t-151 151t-191.5 100
t-214.5 33q-109 2 -214.5 -33t-191.5 -100t-151 -151t-100 -191.5t-33 -214.5q-2 -109 33 -214.5t100 -191.5t151 -151t191.5 -100t214.5 -33q109 -2 214.5 33t191.5 100t151 151t100 191.5t33 214.5zM725 965l156 79v-108l-156 -80v109zM881 1044h108v-753h-106z" />
    <glyph glyph-name="uni2781" unicode="&#x2781;" horiz-adv-x="1806" 
d="M1704 682q3 -158 -62 -307t-174 -258t-258 -174t-307 -62q-159 -4 -308.5 60.5t-258.5 173.5t-173.5 258.5t-60.5 308.5q-3 158 62 307t174 258t258 174t307 62q158 3 307 -62t258 -174t174 -258t62 -307zM1593 682q2 109 -33 214.5t-100 191.5t-151 151t-191.5 100
t-214.5 33q-109 2 -214.5 -33t-191.5 -100t-151 -151t-100 -191.5t-33 -214.5q-2 -109 33 -214.5t100 -191.5t151 -151t191.5 -100t214.5 -33q109 -2 214.5 33t191.5 100t151 151t100 191.5t33 214.5zM1042 592l-213 -180h318v-107l-481 -2v96l331 293q35 30 49.5 57.5
t16.5 63.5q0 74 -40 114t-110 42q-74 -2 -112.5 -46t-34.5 -122h-104q-6 118 67 193t189 75q106 0 177 -70t72 -180q-1 -67 -29.5 -118.5t-95.5 -108.5z" />
    <glyph glyph-name="uni2782" unicode="&#x2782;" horiz-adv-x="1806" 
d="M1704 682q3 -158 -62 -307t-174.5 -258t-259 -174t-307.5 -62q-158 -3 -307 61.5t-257.5 173t-173 257.5t-61.5 307q-3 158 62 307.5t174 259t258 174.5t307 62q158 3 307 -62t258 -174t174 -258t62 -307zM1593 680q3 136 -53 265t-150.5 223.5t-223.5 150.5t-265 53
q-136 3 -264 -52.5t-222 -149.5t-149.5 -223t-52.5 -265q-2 -109 33 -214.5t100 -191.5t151 -151t191.5 -100t214.5 -33q136 -3 265 52.5t223 149.5t149.5 222t52.5 264zM1157 530q0 -109 -73.5 -180t-186.5 -71q-117 0 -192.5 77t-69.5 185h108q-8 -63 38.5 -110.5
t115.5 -47.5q66 0 109 42t43 105q0 65 -44.5 106t-105.5 36h-113l-4 73l193 211h-303v109h446v-111l-166 -182q92 -14 148.5 -79.5t56.5 -162.5z" />
    <glyph glyph-name="uni2783" unicode="&#x2783;" horiz-adv-x="1806" 
d="M1704 682q3 -158 -62 -307t-174 -258t-258 -174t-307 -62q-159 -4 -308.5 60.5t-258.5 173.5t-173.5 258.5t-60.5 308.5q-3 158 62 307t174 258t258 174t307 62q158 3 307 -62t258 -174t174 -258t62 -307zM1593 682q2 109 -33 214.5t-100 191.5t-151 151t-191.5 100
t-214.5 33q-109 2 -214.5 -33t-191.5 -100t-151 -151t-100 -191.5t-33 -214.5q-2 -109 33 -214.5t100 -191.5t151 -151t191.5 -100t214.5 -33q109 -2 214.5 33t191.5 100t151 151t100 191.5t33 214.5zM1067 547h100v-105h-100v-151h-111v151h-362v105l362 497h111v-497z
M956 547v313l-225 -313h225z" />
    <glyph glyph-name="uni2784" unicode="&#x2784;" horiz-adv-x="1806" 
d="M102 682q-3 158 62 307t174 258t258 174t307 62q158 3 307 -62t258 -174t174 -258t62 -307q3 -158 -62 -307t-174 -258t-258 -174t-307 -62q-159 -4 -308.5 60.5t-258.5 173.5t-173.5 258.5t-60.5 308.5zM1593 682q2 109 -33 214.5t-100 191.5t-151 151t-191.5 100
t-214.5 33q-109 2 -214.5 -33t-191.5 -100t-151 -151t-100 -191.5t-33 -214.5q-2 -109 33 -214.5t100 -191.5t151 -151t191.5 -100t214.5 -33q109 -2 214.5 33t191.5 100t151 151t100 191.5t33 214.5zM750 553q-2 -73 41 -118.5t114 -45.5q66 0 114 45t48 107
q0 66 -48 112.5t-114 46.5q-92 0 -139 -75l-104 26l98 393h385v-106h-299l-39 -147q50 16 98 16q109 0 187.5 -78.5t78.5 -187.5q0 -106 -78.5 -182t-187.5 -76q-117 0 -192 77t-70 193h107z" />
    <glyph glyph-name="uni2785" unicode="&#x2785;" horiz-adv-x="1806" 
d="M102 682q-3 158 62 307t174 258t258 174t307 62q158 3 307 -62t258 -174t174 -258t62 -307q3 -158 -62 -307t-174 -258t-258 -174t-307 -62q-159 -4 -308.5 60.5t-258.5 173.5t-173.5 258.5t-60.5 308.5zM1593 682q2 109 -33 214.5t-100 191.5t-151 151t-191.5 100
t-214.5 33q-109 2 -214.5 -33t-191.5 -100t-151 -151t-100 -191.5t-33 -214.5q-2 -109 33 -214.5t100 -191.5t151 -151t191.5 -100t214.5 -33q109 -2 214.5 33t191.5 100t151 151t100 191.5t33 214.5zM922 1055q171 0 247 -156l-84 -61q-31 56 -72 82t-100 26
q-73 0 -126 -55t-60 -146q29 43 77.5 67t104.5 24q27 0 35 -2q102 -13 164.5 -89.5t62.5 -183.5q0 -3 -4 -49q-20 -112 -94 -170.5t-182 -58.5q-141 0 -211 104q-68 106 -68 256q0 136 54 256q32 71 103.5 113.5t152.5 42.5zM891 399q71 0 122 44t50 116q1 77 -46 123.5
t-116 46.5q-72 0 -120 -46.5t-48 -125.5q0 -71 46 -114.5t112 -43.5z" />
    <glyph glyph-name="uni2786" unicode="&#x2786;" horiz-adv-x="1806" 
d="M1704 682q3 -158 -62 -307t-174 -258t-258 -174t-307 -62q-159 -4 -308.5 60.5t-258.5 173.5t-173.5 258.5t-60.5 308.5q-3 158 62 307t174 258t258 174t307 62q158 3 307 -62t258 -174t174 -258t62 -307zM1593 682q2 109 -33 214.5t-100 191.5t-151 151t-191.5 100
t-214.5 33q-109 2 -214.5 -33t-191.5 -100t-151 -151t-100 -191.5t-33 -214.5q-2 -109 33 -214.5t100 -191.5t151 -151t191.5 -100t214.5 -33q109 -2 214.5 33t191.5 100t151 151t100 191.5t33 214.5zM666 1044h528v-112q-148 -113 -217 -256q-69 -145 -78 -225
q-10 -92 -10 -154h-115q0 108 45 278q46 173 230 357h-383v112z" />
    <glyph glyph-name="uni2787" unicode="&#x2787;" horiz-adv-x="1806" 
d="M102 682q-3 158 62 307t174 258t258 174t307 62q158 3 307 -62t258 -174t174 -258t62 -307q3 -158 -62 -307t-174 -258t-258 -174t-307 -62q-159 -4 -308.5 60.5t-258.5 173.5t-173.5 258.5t-60.5 308.5zM1593 682q2 109 -33 214.5t-100 191.5t-151 151t-191.5 100
t-214.5 33q-109 2 -214.5 -33t-191.5 -100t-151 -151t-100 -191.5t-33 -214.5q-2 -109 33 -214.5t100 -191.5t151 -151t191.5 -100t214.5 -33q109 -2 214.5 33t191.5 100t151 151t100 191.5t33 214.5zM623 522q0 59 28 108.5t76 80.5q-78 60 -78 149t69 152.5t179 64.5
q106 -1 174 -62.5t68 -148.5q0 -96 -80 -155q49 -29 76.5 -79t27.5 -110q0 -98 -70.5 -161.5t-203.5 -63.5q-130 0 -198 63.5t-68 161.5zM1028 872q-2 40 -39 68.5t-96 28.5q-61 -1 -98 -30.5t-37 -72.5q2 -43 38.5 -71.5t96.5 -28.5q64 1 102 32.5t33 73.5zM1055 524
q0 51 -43 85t-119 34q-73 0 -116.5 -34t-43.5 -85t43.5 -87t116.5 -36t117.5 36t44.5 87z" />
    <glyph glyph-name="uni2788" unicode="&#x2788;" horiz-adv-x="1806" 
d="M102 682q-3 158 62 307t174 258t258 174t307 62q158 3 307 -62t258 -174t174 -258t62 -307q3 -158 -62 -307t-174 -258t-258 -174t-307 -62q-159 -4 -308.5 60.5t-258.5 173.5t-173.5 258.5t-60.5 308.5zM1593 682q2 109 -33 214.5t-100 191.5t-151 151t-191.5 100
t-214.5 33q-109 2 -214.5 -33t-191.5 -100t-151 -151t-100 -191.5t-33 -214.5q-2 -109 33 -214.5t100 -191.5t151 -151t191.5 -100t214.5 -33q109 -2 214.5 33t191.5 100t151 151t100 191.5t33 214.5zM858 500q65 -6 128.5 20.5t88.5 75.5q-4 -90 -60 -149.5t-130 -59.5
q-49 0 -92.5 25t-67.5 73l-92 -55q42 -77 100 -112t141 -35q154 0 236 110q84 116 84 277q0 124 -49 237q-31 67 -94.5 107.5t-141.5 40.5q-105 0 -189 -82t-87 -191q-6 -113 55.5 -191.5t169.5 -90.5zM911 944q66 0 109.5 -43t48.5 -106q-1 -81 -52.5 -135t-121.5 -54
q-68 0 -112.5 48t-43.5 120q-1 68 50.5 119t121.5 51z" />
    <glyph glyph-name="DegarismLogo" horiz-adv-x="3129" 
d="M1497 563h469v-547h-168l-20 164h-19q0 -8 -8 -26.5t-30.5 -46t-54 -52t-86 -41t-120.5 -14.5q-195 0 -317 131q-123 132 -123 387q0 129 39.5 232t107 166.5t153 97t181.5 33.5q77 0 150.5 -22.5t136.5 -65.5t108 -113.5t60 -159.5h-232q-21 75 -77.5 118.5t-141.5 43.5
q-125 0 -191.5 -88.5t-66.5 -233.5q0 -146 65.5 -236.5t188.5 -90.5q87 0 149 47t79 123h-232v194zM2042 936q0 45 32.5 78t79.5 33t79 -32t32 -79t-33 -80t-78 -33q-44 0 -78 34.5t-34 78.5zM2324 936q0 45 33 78t80 33t79 -32t32 -79t-33 -80t-78 -33q-44 0 -78.5 34.5
t-34.5 78.5zM2613 1004h60v-175h51v175h61v43h-172v-43zM2957 1047l-28 -181l-25 181h-90v-218h51v187l29 -187h72l30 187v-187h51v218h-90zM950 526q0 -249 -124 -379.5t-347 -130.5h-397v1020h397q223 0 347 -130.5t124 -379.5zM725 526q0 195 -86 260q-82 64 -160 64
h-135q-31 2 -61.5 13.5t-45.5 21t-20 14.5l-16 -16q54 -54 61 -62q45 -38 45 -114v-363q0 -70 -45 -115l-61 -61l16 -14q6 6 23 16.5t51.5 21.5t68.5 11h119q80 0 162 61q84 66 84 262zM2478 707q30 0 70 -7v-182q-8 2 -37 2q-102 0 -157.5 -53.5t-55.5 -163.5v-287h-221
v527q0 95 -15 157h224q4 -26 8 -82q47 89 184 89z" />
    <glyph glyph-name="bracketleftsuperior" horiz-adv-x="425" 
d="M416 481h-314v1280h314v-92h-205v-1096h205v-92z" />
    <glyph glyph-name="bracketrightsuperior" horiz-adv-x="415" 
d="M205 573v1096h-205v92h313v-1280h-313v92h205z" />
    <glyph glyph-name="G.ss01" horiz-adv-x="1544" 
d="M1432 752v-88q0 -211 -82 -367t-228.5 -238t-339.5 -82q-203 0 -359 90t-243.5 258.5t-87.5 391.5q0 168 50.5 310t141 241.5t220.5 155t284 55.5q213 0 377 -104t238 -279l-98 -37q-68 157 -202.5 239t-314.5 82q-267 0 -431 -181.5t-164 -481.5q0 -295 160.5 -469
t428.5 -174q250 0 397 155t154 435h-602v88h701z" />
    <glyph glyph-name="i.loclTRK" horiz-adv-x="335" 
d="M215 983v-983h-94v983h94zM59 1204q0 44 32.5 77.5t76.5 33.5q43 0 75.5 -33.5t32.5 -77.5q0 -43 -32.5 -74.5t-75.5 -31.5q-44 0 -76.5 31.5t-32.5 74.5z" />
    <glyph glyph-name="a.ss01" horiz-adv-x="1163" 
d="M932 0q-9 95 -12 201q-55 -110 -155 -168t-230 -58q-209 0 -331 145t-122 372t122 371.5t331 144.5q131 0 233 -61t156 -173l6 209h84v-772q0 -79 12 -211h-94zM905 492q0 194 -97.5 312t-266.5 118q-168 0 -265.5 -118.5t-97.5 -311.5q0 -195 97 -313t266 -118
t266.5 118t97.5 313z" />
    <glyph glyph-name="g.ss02" horiz-adv-x="1167" 
d="M1024 983v-963q0 -214 -123 -336t-334 -122q-167 0 -284.5 80t-165.5 219l88 39q32 -116 132 -184t236 -68q164 0 261.5 98.5t97.5 273.5v246q-54 -108 -157 -168.5t-232 -60.5q-136 0 -240 66.5t-157.5 176t-53.5 242.5q0 100 31.5 188t90 154.5t147 105t196.5 38.5
q124 0 224 -60.5t153 -171.5l6 207h84zM915 522q0 108 -43 198t-127 146t-194 56q-166 0 -264.5 -114.5t-98.5 -285.5t98.5 -285t264.5 -114q160 0 262 117t102 282z" />
    <glyph glyph-name="t.ss03" horiz-adv-x="624" 
d="M291 905v-690q0 -72 35 -110.5t98 -38.5q43 0 92 18l14 -84q-64 -20 -122 -20q-103 0 -157 63.5t-54 175.5v686h-156v78h156v311h94v-311h241v-78h-241z" />
    <glyph glyph-name="i.ss04" horiz-adv-x="440" 
d="M319 1354l-98 -99l-98 99l98 98zM268 983v-983h-96v983h96z" />
    <glyph glyph-name="four.ss03" horiz-adv-x="1243" 
d="M1192 315h-174v-315h-94v315h-832v97l770 1042h117h39v-1042h174v-97zM924 412v966l-711 -966h711z" />
    <glyph glyph-name="zero.tf" horiz-adv-x="1458" 
d="M735 1479q141 0 260 -56t200.5 -156t127 -240.5t45.5 -305.5q0 -221 -77 -390t-220 -262.5t-332 -93.5q-286 0 -457 207.5t-171 548.5q0 161 45 299.5t126 237.5t198 155t255 56zM737 70q113 0 211.5 46t170.5 129t113.5 207.5t41.5 274.5q0 147 -41.5 270.5t-113 207.5
t-170 130.5t-210.5 46.5q-231 0 -383.5 -180.5t-152.5 -474.5q0 -299 151.5 -478t382.5 -179z" />
    <glyph glyph-name="one.tf" horiz-adv-x="1015" 
d="M913 96v-96h-387h-290v96h290v1260l-233 -127v96l233 129h97v-1358h290z" />
    <glyph glyph-name="two.tf" horiz-adv-x="1202" 
d="M250 96l782 4v-96l-893 -4v131l652 559q100 89 141 165t41 165q0 160 -103.5 263t-273.5 103q-168 0 -269.5 -100.5t-101.5 -267.5h-96q0 208 132 335.5t341 127.5t340 -129t131 -324q0 -121 -54 -219t-167 -195z" />
    <glyph glyph-name="three.tf" horiz-adv-x="1175" 
d="M1044 436q0 -132 -65 -238.5t-173.5 -164.5t-236.5 -58q-130 -3 -244 60t-180 170t-63 229h98q0 -149 113 -255.5t276 -106.5q157 0 267 102t110 260q0 141 -90 242q-88 101 -223 119q-52 8 -148 8h-75v76l493 479h-749v96h864v-123l-465 -438h12q204 -3 341.5 -131
t137.5 -326z" />
    <glyph glyph-name="four.tf" horiz-adv-x="1175" 
d="M1114 315h-174v-315h-94v315h-750v97l688 1042h117l-684 -1042h629v571h94v-571h174v-97z" />
    <glyph glyph-name="five.tf" horiz-adv-x="1202" 
d="M1096 465q0 -136 -64.5 -248.5t-178.5 -177t-253 -64.5q-212 0 -355 140t-143 342h97q0 -162 115 -273.5t286 -111.5q173 0 285 113.5t112 281.5q0 165 -108.5 276t-292.5 111q-201 0 -344 -143l-94 24l180 719h678v-96h-602l-127 -504q131 98 313 98q147 0 261 -66
t174.5 -176.5t60.5 -244.5z" />
    <glyph glyph-name="six.tf" horiz-adv-x="1236" 
d="M1159 485q0 -222 -145 -366t-359 -144q-271 0 -415 197q-142 201 -142 526q0 232 71 407.5t211.5 274.5t334.5 99q122 0 230.5 -40.5t189.5 -113.5l-60 -74q-156 135 -362 135q-260 0 -389 -184q-127 -186 -127 -473l2 -57q53 151 178 233q128 84 272 84q142 0 258 -63.5
t184 -179.5t68 -261zM1063 479q0 182 -120 300t-300 118q-169 0 -282 -119t-113 -299q0 -179 116.5 -295t290.5 -116q175 0 291.5 116t116.5 295z" />
    <glyph glyph-name="seven.tf" horiz-adv-x="1099" 
d="M1010 1454v-102q-285 -246 -420 -547q-133 -301 -160 -494t-27 -311h-100q0 100 27 297q26 189 155 498q125 299 389 557h-786v102h922z" />
    <glyph glyph-name="eight.tf" horiz-adv-x="1226" 
d="M1114 387q0 -183 -142.5 -297.5t-357.5 -114.5q-217 0 -359 116t-142 298q0 133 76 234.5t210 148.5q-111 47 -173 135t-62 195q0 173 128 274t322 101q195 0 320 -101q127 -100 127 -274q0 -111 -61 -198.5t-171 -131.5q133 -41 209 -146.5t76 -238.5zM614 825
q159 0 255 76.5t96 200.5q0 139 -96 213t-255 74q-155 0 -253.5 -72.5t-98.5 -204.5q0 -126 95 -206.5t257 -80.5zM1018 397q0 149 -115 232q-113 82 -291 82q-173 0 -288 -80q-113 -79 -113 -232q0 -152 115 -241q116 -88 290 -88t287 88q115 89 115 239z" />
    <glyph glyph-name="nine.tf" horiz-adv-x="1243" 
d="M1137 756q0 -232 -71 -407.5t-211.5 -274.5t-334.5 -99q-122 0 -230.5 40.5t-189.5 113.5l60 74q156 -135 362 -135q261 0 387 184q129 185 129 473l-2 57q-54 -154 -178 -235q-125 -82 -272 -82q-142 0 -258 63.5t-184 179.5t-68 261q0 222 145 366t359 144
q272 0 413 -199q144 -196 144 -524zM987 975q0 179 -116.5 295t-290.5 116q-175 0 -291.5 -116t-116.5 -295q0 -182 120 -300t300 -118q169 0 282 119t113 299z" />
    <glyph glyph-name="zero.dnom" horiz-adv-x="860" 
d="M453 -29q-160 -12 -254 95q-97 111 -97 292q0 170 82.5 275t223.5 112q156 12 253 -96.5t97 -290.5q0 -170 -82.5 -274.5t-222.5 -112.5zM653 358q0 124 -62.5 202.5t-160.5 80.5q-98 -2 -160.5 -80.5t-62.5 -202.5t62.5 -203t160.5 -81q98 2 160.5 81t62.5 203z" />
    <glyph glyph-name="one.dnom" horiz-adv-x="432" 
d="M102 692l121 62v-113l-121 -53v104zM330 754v-754h-105l-2 754h107z" />
    <glyph glyph-name="two.dnom" horiz-adv-x="712" 
d="M111 109l309 268q75 62 84 127q4 74 -37.5 113.5t-116.5 39.5q-68 -1 -105.5 -39t-37.5 -104q0 -25 2 -31h-107l-2 29q0 108 75 179t185 71q108 0 177.5 -68t70.5 -182q0 -115 -127 -227l-209 -179h316v-106h-477v109z" />
    <glyph glyph-name="three.dnom" horiz-adv-x="737" 
d="M635 233q0 -108 -74 -176.5t-190 -68.5t-192.5 70t-76.5 173q0 27 2 35h113q-4 -16 -4 -37q0 -58 44.5 -97.5t115.5 -39.5q68 0 110.5 39t42.5 102q0 66 -45 107t-108 41q-32 0 -51 -8l-70 82l203 192h-318v107h481v-103l-184 -172q89 -19 145 -86t56 -160z" />
    <glyph glyph-name="four.dnom" horiz-adv-x="778" 
d="M676 152h-101v-152h-110v152h-363v104l363 498h110v-498h101v-104zM465 256v313l-225 -313h225z" />
    <glyph glyph-name="five.dnom" horiz-adv-x="749" 
d="M211 246q-2 -73 42.5 -120.5t117.5 -47.5q69 0 118.5 46t49.5 112q0 67 -49.5 115t-118.5 48q-47 0 -85.5 -20.5t-58.5 -56.5l-106 26l100 406h397v-109h-309l-39 -153q53 16 101 16q115 0 195.5 -80.5t80.5 -191.5q0 -109 -80.5 -188t-195.5 -79q-119 0 -197 78
q-75 78 -72 199h109z" />
    <glyph glyph-name="six.dnom" horiz-adv-x="776" 
d="M674 254q0 -122 -81.5 -199.5t-205.5 -77.5q-138 0 -211.5 100t-73.5 269q0 177 82 293q82 119 236 119q82 0 149 -37.5t105 -104.5l-90 -59q-61 88 -168 88q-81 0 -133 -53t-62 -150q25 42 74 66t111 24q117 0 192.5 -80t75.5 -198zM563 254q0 77 -48.5 123.5
t-121.5 46.5t-119.5 -47t-46.5 -125q0 -77 47 -121.5t117 -44.5q72 0 122 45.5t50 122.5z" />
    <glyph glyph-name="seven.dnom" horiz-adv-x="737" 
d="M635 754v-115q-148 -116 -219 -260q-69 -145 -78 -225q-10 -92 -10 -154h-115q0 108 45 281q46 177 227 358h-383v115h533z" />
    <glyph glyph-name="eight.dnom" horiz-adv-x="745" 
d="M102 199q0 59 28 107.5t77 80.5q-78 60 -78 148q0 89 70 153.5t178 65.5q106 -1 172.5 -63.5t68.5 -149.5q0 -98 -79 -154q49 -29 76.5 -78.5t27.5 -109.5q0 -98 -70.5 -162t-203.5 -64q-130 0 -198.5 64t-68.5 162zM508 545q0 43 -37 71.5t-98 28.5q-65 -1 -101.5 -32.5
t-31.5 -75.5q2 -40 38 -67.5t95 -27.5q62 1 99.5 31t35.5 72zM535 203q0 49 -44.5 82.5t-117.5 33.5q-75 0 -118.5 -35t-41.5 -87q0 -51 43.5 -85t116.5 -34q75 0 118.5 36t43.5 89z" />
    <glyph glyph-name="nine.dnom" horiz-adv-x="776" 
d="M340 190q-110 13 -176.5 94t-61.5 197q0 117 81.5 199t193.5 82q76 0 140.5 -42.5t100.5 -111.5q56 -127 56 -260q0 -161 -80 -270t-229 -109q-84 0 -143 36.5t-107 115.5l92 55q50 -102 164 -102q76 0 131 61.5t55 155.5q-23 -49 -88 -78t-129 -23zM377 649
q-73 0 -122.5 -51.5t-45.5 -124.5q2 -72 49.5 -122t116.5 -50t118.5 51.5t49.5 128.5q0 70 -47 119t-119 49z" />
    <glyph glyph-name="zero.numr" horiz-adv-x="858" 
d="M428 688q-149 0 -237.5 106t-88.5 285q0 177 90 283t242 106q146 0 234 -108q88 -107 88 -281q0 -177 -89.5 -284t-238.5 -107zM649 1079q0 125 -60.5 203.5t-158.5 79.5q-100 -2 -160.5 -79t-60.5 -204q0 -128 60.5 -206.5t160.5 -79.5q98 5 158.5 83.5t60.5 202.5z" />
    <glyph glyph-name="one.numr" horiz-adv-x="434" 
d="M102 1393l121 61v-113l-121 -53v105zM332 1454v-754h-107l-2 754h109z" />
    <glyph glyph-name="two.numr" horiz-adv-x="712" 
d="M111 801l311 268q73 63 82 129q4 72 -36.5 112t-111.5 40q-69 0 -109 -38t-40 -104q0 -26 2 -32h-107l-2 28q0 108 76 178q78 72 186 72t177 -68t69 -182q0 -115 -127 -227l-209 -178h316v-107h-477v109z" />
    <glyph glyph-name="three.numr" horiz-adv-x="727" 
d="M625 934q0 -104 -76 -174q-78 -72 -184 -72t-184.5 74.5t-78.5 175.5q0 23 2 29h111q-4 -32 -4 -33q0 -57 46 -99t108 -42q63 0 107 40.5t44 100.5q0 73 -57 115q-47 30 -94 30q-32 0 -48 -8l-67 84l196 191h-307v108h469v-104l-180 -174q70 -15 119 -64q78 -75 78 -178z
" />
    <glyph glyph-name="four.numr" horiz-adv-x="778" 
d="M676 852h-101v-152h-110v152h-363v104l363 498h110v-498h101v-104zM465 956v314l-225 -314h225z" />
    <glyph glyph-name="five.numr" horiz-adv-x="733" 
d="M209 963q-2 -72 41 -118t115 -46q66 0 113.5 44.5t47.5 106.5q0 66 -47.5 113t-113.5 47q-92 0 -140 -76l-104 27l98 393h385v-106h-299l-39 -148q53 17 99 17q109 0 187.5 -79t78.5 -188q0 -106 -78.5 -182t-187.5 -76q-117 0 -192.5 77.5t-70.5 193.5h107z" />
    <glyph glyph-name="six.numr" horiz-adv-x="776" 
d="M674 971q0 -120 -81.5 -196.5t-205.5 -76.5q-137 0 -211 99t-74 264q0 176 82 289q82 116 232 116q82 0 149.5 -36t108.5 -103l-90 -57q-62 86 -168 86q-81 0 -133 -52t-62 -147q25 39 75 63.5t110 24.5q118 0 193 -78t75 -196zM563 971q0 74 -48.5 121t-121.5 47
t-119.5 -46.5t-46.5 -123.5q0 -76 47 -120t117 -44q72 0 122 44.5t50 121.5z" />
    <glyph glyph-name="seven.numr" horiz-adv-x="733" 
d="M631 1454v-113q-148 -113 -217 -256q-69 -145 -78 -225q-10 -92 -10 -153h-115q0 108 45 278q46 173 229 356h-383v113h529z" />
    <glyph glyph-name="eight.numr" horiz-adv-x="745" 
d="M102 911q0 59 28.5 108t76.5 81q-78 60 -78 149t69 152.5t179 64.5q106 -1 173.5 -62.5t67.5 -148.5q0 -97 -79 -155q49 -29 76.5 -79t27.5 -110q0 -98 -70.5 -161.5t-203.5 -63.5q-130 0 -198.5 63.5t-68.5 161.5zM508 1262q-2 40 -39 68t-96 28q-61 -1 -98 -30.5
t-37 -72.5q2 -43 38.5 -71.5t96.5 -28.5q64 1 102 32.5t33 74.5zM535 913q0 51 -43 85t-119 34q-73 0 -116.5 -34t-43.5 -85t43.5 -86.5t116.5 -35.5t117.5 35.5t44.5 86.5z" />
    <glyph glyph-name="nine.numr" horiz-adv-x="768" 
d="M338 909q-109 12 -175 91t-61 192q0 110 80.5 191t188.5 81q77 0 141.5 -40t97.5 -107q56 -124 56 -258q0 -153 -80 -262q-80 -105 -226 -105q-84 0 -142 36t-103 112l92 55q25 -48 68 -73t92 -25q75 0 129.5 59.5t54.5 149.5q-23 -49 -85.5 -76t-127.5 -21zM377 1354
q-72 0 -122 -50.5t-46 -119.5q2 -72 47.5 -120t114.5 -48q72 0 119.5 53.5t46.5 134.5q-5 63 -49.5 106.5t-110.5 43.5z" />
    <glyph glyph-name="registered.ss01" horiz-adv-x="1087" 
d="M1006 1018q2 -123 -61 -230.5t-170.5 -170.5t-229.5 -60q-123 -3 -231 60t-171 170.5t-61 230.5q0 124 63 229.5t169.5 166.5t230.5 61q91 2 177 -35t148.5 -99.5t99.5 -147.5t36 -175zM942 1014q0 166 -116.5 282.5t-282.5 116.5q-168 0 -282 -116t-114 -283
q0 -170 113 -283t283 -113q167 0 283 114t116 282zM625 985l73 -170h-82l-69 160h-62v-160h-71v404h71h70q143 0 143 -121q0 -83 -73 -113zM485 1036h70q34 0 47.5 15.5t13.5 46.5q0 49 -61 49h-70v-111z" />
    <glyph glyph-name="ampersand.ss02" horiz-adv-x="1411" 
d="M1370 84v-84q-10 0 -29 1q-105 3 -134 14q-32 12 -77 63q-9 11 -31 37l-16 18l-24 33q-160 -189 -461 -189q-136 0 -245.5 48t-175.5 143.5t-66 222.5q0 145 90 258q89 108 293 246l-50 61q-108 143 -108 254q0 110 80 189.5t202 79.5q123 0 204 -78t81 -197
q0 -94 -66 -169t-206 -165l422 -538q65 139 65 323h88q3 -233 -90 -405l45 -57q56 -70 87.5 -89.5t70.5 -19.5h51zM522 1008l49 -62q129 80 181.5 133.5t52.5 126.5q0 84 -52 133.5t-135 49.5q-81 0 -132.5 -49.5t-51.5 -135.5q0 -52 19.5 -92.5t68.5 -103.5zM997 244
l-446 575q-186 -119 -266 -211q-80 -89 -80 -215q0 -79 35.5 -143t93.5 -102.5t126.5 -59t139.5 -20.5q262 0 397 176z" />
    <glyph glyph-name="at.ss04" horiz-adv-x="1849" 
d="M1747 731q0 -140 -46 -257t-133.5 -188t-199.5 -71q-98 0 -160 51t-73 133q-31 -75 -111.5 -123.5t-177.5 -48.5q-119 0 -199 64t-80 182q0 119 80.5 189.5t206.5 70.5h283q6 41 6 74q0 194 -191 194q-94 0 -154.5 -40t-95.5 -125l-75 28q38 102 123.5 159.5t195.5 57.5
q141 0 215 -74t74 -214q0 -44 -2 -56l-27 -266l-2 -29q0 -77 43.5 -117t118.5 -40q91 0 158.5 63t100 162t32.5 217q3 183 -87.5 336.5t-247 240t-341.5 82.5q-155 3 -301.5 -61t-254 -171.5t-171.5 -255.5t-61 -304q-4 -192 89.5 -360t258.5 -267.5t358 -95.5q149 0 287 57
t250 166l63 -55q-124 -118 -282.5 -182t-323.5 -64q-160 -3 -308 61t-254.5 172t-169 256t-59.5 306q-3 137 43 271t131 243t196 192t246 128t273 42q126 2 243.5 -35t210.5 -105.5t162.5 -160t105.5 -203.5t34 -229zM1135 664h-224q-254 0 -254 -187q0 -87 53.5 -130.5
t143.5 -43.5q128 0 200.5 94.5t80.5 266.5z" />
    <glyph glyph-name="NULL" 
 />
    <glyph glyph-name="CR" horiz-adv-x="573" 
 />
    </font>
</defs>
</svg>
