<?xml version="1.0" standalone="no"?>
<!DOCTYPE svg PUBLIC "-//W3C//DTD SVG 1.1//EN" "http://www.w3.org/Graphics/SVG/1.1/DTD/svg11.dtd" >
<svg xmlns="http://www.w3.org/2000/svg" xmlns:xlink="http://www.w3.org/1999/xlink" version="1.1">
<metadata>
Created by FontForge 20190801 at Wed Oct  7 17:37:55 2020
 By root
Copyright (c) 2016 by Deni Anggara. All rights reserved.
</metadata>
<defs>
<font id="Biotif-Medium" horiz-adv-x="1210" >
  <font-face 
    font-family="Biotif Medium"
    font-weight="500"
    font-stretch="normal"
    units-per-em="2048"
    panose-1="2 0 6 0 0 0 0 0 0 0"
    ascent="1542"
    descent="-506"
    x-height="1006"
    cap-height="1489"
    bbox="-1094 -506 3047 2210"
    underline-thickness="163"
    underline-position="-562"
    unicode-range="U+0020-FB02"
  />
<missing-glyph horiz-adv-x="1116" 
d="M915 -459h-708v2233h708v-2233zM375 1624v-74h145v-82h-147v-73h370v73h-147v82h147v74h-368zM373 1335v-231h370v76h-147v155h-223zM520 1180h-74v80h74v-80zM373 1044v-73h147v-84h-147v-74h223v158h147v73h-370zM670 909v-147h-297v-76h370v223h-73zM520 637v-125h76
v51h74v-104h-224v178h-73v-252h370v252h-223zM373 252v-254h370v254h-370zM670 72h-224v106h224v-106zM373 -53v-74h155l-155 -104v-74h370v74h-227l156 104h71v74h-370z" />
    <glyph glyph-name="fi" unicode="fi" horiz-adv-x="1222" 
d="M1073 1006v-1006h-219v825h-459v-825h-219v825h-145v181h145v143q0 182 91 274.5t255 92.5q52 0 115 -13v-192q-36 8 -84 8q-85 0 -121.5 -42.5t-36.5 -127.5v-143h678zM821 1358q0 61 42 103t102 42q61 0 103 -41.5t42 -103.5q0 -60 -42 -102t-103 -42q-60 0 -102 42
t-42 102z" />
    <glyph glyph-name="fl" unicode="fl" horiz-adv-x="1208" 
d="M1061 1513v-1513h-219v825h-447v-825h-219v825h-145v181h145v143q0 182 91 274.5t255 92.5q52 0 115 -13v-192q-36 8 -84 8q-85 0 -121.5 -42.5t-36.5 -127.5v-143h447v507h219z" />
    <glyph glyph-name="f_f" unicode="ff" horiz-adv-x="1396" 
d="M1249 1319q-85 0 -121 -42.5t-36 -127.5v-143h204v-181h-204v-825h-220v825h-473v-825h-219v825h-145v181h145v143q0 182 91 274.5t255 92.5q52 0 115 -13v-192q-36 8 -84 8q-84 0 -121 -42.5t-37 -127.5v-143h473v143q0 182 91.5 274.5t255.5 92.5q51 0 114 -13v-192
q-36 8 -84 8z" />
    <glyph glyph-name="f_f_i" unicode="ffi" horiz-adv-x="1916" 
d="M1085 1006h682v-1006h-219v825h-463v-825h-217l-2 825h-471v-825h-219v825h-145v181h145v143q0 182 91 274.5t255 92.5q52 0 115 -13v-192q-36 8 -84 8q-85 0 -121.5 -42.5t-36.5 -127.5v-143h471v143q0 182 92 274.5t256 92.5q52 0 115 -13v-192q-36 8 -84 8
q-85 0 -122.5 -42.5t-37.5 -127.5v-143zM1516 1358q0 62 41 103.5t102 41.5q60 0 101.5 -42t41.5 -103q0 -60 -41.5 -102t-101.5 -42q-61 0 -102 42t-41 102z" />
    <glyph glyph-name="f_f_l" unicode="ffl" horiz-adv-x="1900" 
d="M1751 1513v-1513h-217v825h-449v-825h-217l-2 825h-471v-825h-219v825h-145v181h145v143q0 182 91 274.5t255 92.5q52 0 115 -13v-192q-36 8 -84 8q-85 0 -121.5 -42.5t-36.5 -127.5v-143h471v143q0 182 92 274.5t256 92.5q52 0 115 -13v-192q-36 8 -84 8
q-85 0 -122.5 -42.5t-37.5 -127.5v-143h449v507h217z" />
    <glyph glyph-name="f_t" unicode="ft" horiz-adv-x="1357" 
d="M1335 825h-235v-825h-215v825h-490v-825h-219v825h-145v181h145v143q0 182 91 274.5t255 92.5q52 0 115 -13v-192q-36 8 -84 8q-85 0 -121.5 -42.5t-36.5 -127.5v-143h490v315h215v-315h235v-181z" />
    <glyph glyph-name="f_y" unicode="fy" horiz-adv-x="1669" 
d="M1649 1006l-453 -1217q-49 -134 -140.5 -199t-209.5 -65q-114 0 -215 55l59 184q57 -47 139 -47q118 0 166 121l27 70l-2 -2l-361 919h-264v-825h-219v825h-145v181h145v143q0 182 91 274.5t255 92.5q52 0 115 -13v-192q-36 8 -84 8q-85 0 -121.5 -42.5t-36.5 -127.5
v-143h432l303 -807l285 807h234z" />
    <glyph glyph-name="t_i" unicode="ti" horiz-adv-x="1173" 
d="M780 1358q0 62 41.5 103.5t102.5 41.5q60 0 101.5 -42t41.5 -103q0 -60 -41.5 -102t-101.5 -42q-61 0 -102.5 42t-41.5 102zM1030 0h-217v825h-371v-825h-215v825h-196v181h196v315h215v-315h588v-1006z" />
    <glyph glyph-name="t_t" unicode="tt" horiz-adv-x="1335" 
d="M1305 825h-195v-825h-215v825h-197h-256v-825h-215v825h-196v181h196v315h215v-315h338h115v315h215v-315h195v-181z" />
    <glyph glyph-name="t_y" unicode="ty" horiz-adv-x="1654" 
d="M1634 1006l-452 -1217q-49 -134 -142 -199t-209 -65q-114 0 -215 55l60 184q57 -47 139 -47q121 0 168 121l25 68l-363 919h-203v-825h-215v825h-196v181h196v315h215v-315h314h57l301 -816l287 816h233z" />
    <glyph glyph-name=".notdef" horiz-adv-x="1116" 
d="M915 -459h-708v2233h708v-2233zM375 1624v-74h145v-82h-147v-73h370v73h-147v82h147v74h-368zM373 1335v-231h370v76h-147v155h-223zM520 1180h-74v80h74v-80zM373 1044v-73h147v-84h-147v-74h223v158h147v73h-370zM670 909v-147h-297v-76h370v223h-73zM520 637v-125h76
v51h74v-104h-224v178h-73v-252h370v252h-223zM373 252v-254h370v254h-370zM670 72h-224v106h224v-106zM373 -53v-74h155l-155 -104v-74h370v74h-227l156 104h71v74h-370z" />
    <glyph glyph-name=".null" horiz-adv-x="0" 
 />
    <glyph glyph-name="nonmarkingreturn" horiz-adv-x="682" 
 />
    <glyph glyph-name="space" unicode=" " horiz-adv-x="557" 
 />
    <glyph glyph-name="exclam" unicode="!" horiz-adv-x="661" 
d="M238 348q-21 132 -27 252q-6 123 -6 291v596h254v-596q0 -312 -35 -543h-186zM186 113q0 63 42 103t106 40q62 0 103.5 -40.5t41.5 -102.5q0 -61 -41.5 -101.5t-103.5 -40.5t-105 40.5t-43 101.5z" />
    <glyph glyph-name="quotedbl" unicode="&#x22;" horiz-adv-x="673" 
d="M244 899h-127l-43 389q-7 59 23.5 94t80.5 35q48 0 80.5 -34.5t26.5 -94.5zM559 899h-127l-43 389q-6 59 25 94t80 35q50 0 81 -34.5t25 -94.5z" />
    <glyph glyph-name="numbersign" unicode="#" horiz-adv-x="1445" 
d="M1104 868l-49 -250h229l-41 -217h-231l-78 -401h-219l80 401h-289l-78 -401h-217l78 401h-201l41 217h203l49 250h-229l41 219h231l78 400h217l-78 -400h289l80 400h215l-78 -400h211l-41 -219h-213zM887 868h-289l-49 -250h289z" />
    <glyph glyph-name="dollar" unicode="$" horiz-adv-x="1335" 
d="M760 -18v-166h-168v164q-192 19 -312 123t-143 274l221 31q10 -90 70.5 -146.5t163.5 -73.5v476l-49 12q-357 94 -357 411q0 164 113.5 283t292.5 141v146h168v-146q166 -20 279.5 -115t148.5 -243l-215 -57q-20 84 -75 137t-138 70v-463l51 -13q185 -52 283 -157
t98 -277q0 -171 -116.5 -281t-315.5 -130zM592 887v411q-81 -20 -129.5 -77t-48.5 -127q0 -81 43.5 -131t134.5 -76zM971 399q-1 88 -53.5 138.5t-155.5 78.5h-2v-428q103 17 157 73.5t54 137.5z" />
    <glyph glyph-name="percent" unicode="%" horiz-adv-x="1875" 
d="M96 1122q0 181 90 290.5t242 109.5q154 2 247 -107.5t93 -292.5t-92 -292t-246 -109q-153 0 -243.5 109t-90.5 292zM1620 1487l-1133 -1487h-223l1133 1487h223zM432 881q82 2 129 65.5t47 175.5q0 103 -42 166t-115 70h-19h-20q-72 -11 -115 -74t-43 -162
q0 -110 48 -174.5t130 -66.5zM1458 -33q-155 -4 -248.5 105.5t-93.5 294.5q0 179 91 289t243 110q152 3 246 -107t94 -292q0 -181 -90 -290.5t-242 -109.5zM1628 367q0 102 -41.5 164.5t-113.5 70.5l-21 2l-20 -2q-72 -8 -114 -70.5t-42 -164.5q0 -109 48 -173t130 -69
q80 5 127 69t47 173z" />
    <glyph glyph-name="ampersand" unicode="&#x26;" horiz-adv-x="1474" 
d="M1174 0l-93 115q-172 -137 -432 -140q-248 0 -393 122t-145 323q0 144 81 250t259 207q-93 114 -125 176q-35 72 -35 145q0 146 100.5 232t257.5 86q154 0 254 -86q98 -85 98 -222q0 -100 -65 -188.5t-205 -179.5l328 -391q31 98 31 217q0 39 -3 57h226q9 -263 -101 -457
l222 -266h-260zM504 1178q0 -41 26 -84t97 -127q164 102 164 219q0 62 -38.5 100.5t-105.5 38.5t-106 -42t-37 -105zM952 270l-391 471q-104 -64 -162.5 -144t-58.5 -171q0 -118 87 -188t241 -70q179 3 284 102z" />
    <glyph glyph-name="quotesingle" unicode="'" horiz-adv-x="460" 
d="M303 903h-143l-45 404l-2 22q0 58 35.5 90.5t87.5 32.5q47 -2 79.5 -34t32.5 -87l-2 -24z" />
    <glyph glyph-name="parenleft" unicode="(" horiz-adv-x="598" 
d="M420 -174q-151 175 -237.5 422.5t-86.5 515.5q0 256 84 506q81 245 240 430h178q-131 -174 -205.5 -418.5t-75.5 -517.5q2 -269 75 -514.5t206 -423.5h-178z" />
    <glyph glyph-name="parenright" unicode=")" horiz-adv-x="593" 
d="M281 764q-1 273 -75.5 517.5t-205.5 418.5h178q159 -185 240 -430q84 -250 84 -506q0 -268 -86.5 -515.5t-237.5 -422.5h-178q133 178 206 423.5t75 514.5z" />
    <glyph glyph-name="asterisk" unicode="*" horiz-adv-x="845" 
d="M602 1010l76 -117l-94 -68l-80 115q-56 75 -84 152q-22 -67 -80 -152l-84 -115l-96 68l82 117q56 76 114 129q-97 12 -168 39l-133 47l43 110l127 -45q75 -25 156 -76q-19 97 -19 172v142h117v-142q0 -90 -16 -172q83 52 155 76l130 45l43 -110l-136 -47
q-71 -27 -168 -39q55 -49 115 -129z" />
    <glyph glyph-name="plus" unicode="+" horiz-adv-x="1353" 
d="M1190 596h-418v-420h-188v420h-420v188h420v418h188v-418h418v-188z" />
    <glyph glyph-name="comma" unicode="," horiz-adv-x="550" 
d="M424 66q0 -115 -76 -195.5t-172 -77.5v76q50 0 87.5 38t35.5 83q-27 -10 -49 -10q-55 0 -89 35t-34 96q0 63 39 102t102 39q69 0 112.5 -48t43.5 -138z" />
    <glyph glyph-name="hyphen" unicode="-" horiz-adv-x="1081" 
d="M954 668v-195h-827v195h827z" />
    <glyph glyph-name="period" unicode="." horiz-adv-x="577" 
d="M135 121q0 63 45.5 108t108.5 45t109 -45t46 -108q0 -62 -46 -107t-109 -45t-108.5 45t-45.5 107z" />
    <glyph glyph-name="slash" unicode="/" horiz-adv-x="798" 
d="M580 1487h219l-584 -1487h-215z" />
    <glyph glyph-name="zero" unicode="0" horiz-adv-x="1552" 
d="M774 1516q198 0 346 -99t225.5 -274.5t77.5 -403.5t-80 -401.5t-227 -269t-340 -95.5q-200 0 -347 98t-223.5 271.5t-76.5 402.5q0 226 80 401t227 272.5t338 97.5zM778 178q195 0 307.5 152.5t112.5 412.5q0 263 -113 412q-115 154 -307 154q-198 0 -313 -154
q-113 -149 -113 -414q0 -260 114 -411.5t312 -151.5z" />
    <glyph glyph-name="one" unicode="1" horiz-adv-x="819" 
d="M119 1325l276 164h223v-1489h-223v1260l-276 -154v219z" />
    <glyph glyph-name="two" unicode="2" horiz-adv-x="1212" 
d="M451 207h645v-205l-953 -2v223l568 504q98 86 140 159t42 152q0 124 -75 198.5t-197 74.5q-125 0 -204 -79.5t-79 -209.5h-223q0 224 141 359t367 135q154 0 269 -66t171.5 -173t56.5 -239q0 -135 -62 -240.5t-196 -226.5z" />
    <glyph glyph-name="three" unicode="3" horiz-adv-x="1204" 
d="M1106 463q0 -218 -150 -354t-378 -136q-223 0 -365.5 137t-142.5 359h225q0 -135 77 -213t210 -78q134 0 216.5 79.5t82.5 209.5q0 119 -73 194t-206 87q-53 6 -119 6h-102v151l395 379h-637v205h932v-203l-364 -348q172 -34 286 -160q113 -125 113 -315z" />
    <glyph glyph-name="four" unicode="4" horiz-adv-x="1316" 
d="M125 502l623 987h258l-625 -987h461v422h217v-422h186v-205h-186v-297h-217v297l-717 2v203z" />
    <glyph glyph-name="five" unicode="5" horiz-adv-x="1298" 
d="M1192 498q0 -229 -153.5 -376t-391.5 -147q-152 0 -275.5 67t-193 185.5t-69.5 264.5h225q0 -140 88.5 -227t230.5 -87q130 0 221 91t91 231q0 142 -88.5 231.5t-225.5 89.5q-178 0 -284 -135l-213 31l190 772h750v-219h-576l-88 -332q110 72 260 72q149 0 264.5 -69
t176.5 -185t61 -258z" />
    <glyph glyph-name="six" unicode="6" horiz-adv-x="1392" 
d="M1276 514q0 -152 -69.5 -275.5t-193.5 -194.5t-278 -71q-151 0 -268.5 58.5t-190.5 162t-110 238t-37 293.5q-1 132 24.5 250.5t79.5 218t132 172t187.5 112.5t240.5 38q133 0 249 -43.5t199 -122.5l-135 -158q-68 55 -154.5 85t-169.5 30q-200 0 -314.5 -138.5
t-117.5 -357.5q55 102 160 158.5t235 56.5q229 0 380 -142.5t151 -369.5zM1053 508q0 147 -94 238.5t-234 91.5q-138 0 -230 -91.5t-92 -238.5q0 -149 93.5 -239.5t230.5 -90.5q139 0 232.5 90.5t93.5 239.5z" />
    <glyph glyph-name="seven" unicode="7" horiz-adv-x="1114" 
d="M1063 1489v-207q-257 -206 -385 -479q-123 -267 -150 -461q-24 -193 -24 -342h-223q0 132 22 328q24 186 139 456q116 268 361 498h-752v207h1012z" />
    <glyph glyph-name="eight" unicode="8" horiz-adv-x="1306" 
d="M1188 403q0 -128 -69 -225.5t-190.5 -150t-275.5 -52.5q-235 0 -384.5 117.5t-149.5 310.5q0 136 75 241.5t203 148.5q-101 43 -157 129t-56 200q0 179 132.5 286.5t336.5 107.5q203 0 335 -105.5t132 -284.5q0 -118 -57 -206.5t-160 -126.5q133 -41 209 -147t76 -243z
M381 1102q0 -98 73.5 -158.5t196.5 -60.5q124 0 197.5 60t73.5 159t-75.5 158t-195.5 59t-195 -59t-75 -158zM963 434q0 115 -87 181.5t-225 66.5q-137 0 -222 -66t-85 -182q0 -119 86 -187.5t223 -68.5q138 0 224 68.5t86 187.5z" />
    <glyph glyph-name="nine" unicode="9" horiz-adv-x="1388" 
d="M1268 764q1 -166 -41 -309t-123 -252t-209.5 -170.5t-290.5 -59.5q-135 0 -251.5 43.5t-196.5 122.5l135 160q137 -115 323 -115q200 0 315 137.5t118 356.5q-55 -102 -162.5 -158.5t-239.5 -56.5q-230 3 -378 143.5t-148 368.5q0 152 70 275.5t194.5 194.5t278.5 71
q151 0 268.5 -58.5t190.5 -162t110 -238t37 -293.5zM993 981q0 149 -93 240.5t-230 91.5q-139 0 -232.5 -91t-93.5 -241q0 -147 93.5 -237.5t238.5 -90.5q135 0 226 92t91 236z" />
    <glyph glyph-name="colon" unicode=":" horiz-adv-x="673" 
d="M182 879q0 63 45.5 108t108.5 45t109.5 -45t46.5 -108q0 -61 -46.5 -106.5t-109.5 -45.5t-108.5 45t-45.5 107zM182 121q0 63 45.5 108t108.5 45t109.5 -45t46.5 -108q0 -61 -46.5 -106.5t-109.5 -45.5t-108.5 45t-45.5 107z" />
    <glyph glyph-name="semicolon" unicode=";" horiz-adv-x="561" 
d="M127 879q0 63 46.5 108t109.5 45q62 0 107.5 -45t45.5 -108q0 -61 -45.5 -106.5t-107.5 -45.5q-63 0 -109.5 45.5t-46.5 106.5zM424 66q0 -115 -76 -195.5t-172 -77.5v76q49 0 86 37t37 82q-21 -8 -43 -8q-58 0 -93.5 35t-35.5 96q0 63 39 102t102 39q69 0 112.5 -48
t43.5 -138z" />
    <glyph glyph-name="less" unicode="&#x3c;" horiz-adv-x="872" 
d="M74 623l708 378v-235l-481 -258l481 -258v-236l-708 379v230z" />
    <glyph glyph-name="equal" unicode="=" horiz-adv-x="1173" 
d="M969 936v-188h-789v188h789zM180 471h789v-188h-789v188z" />
    <glyph glyph-name="greater" unicode="&#x3e;" horiz-adv-x="880" 
d="M90 250l481 258l-481 258v235l711 -378v-230l-711 -379v236z" />
    <glyph glyph-name="question" unicode="?" horiz-adv-x="1110" 
d="M1044 1057q0 -190 -124 -314q-46 -46 -134 -118q-90 -70 -129 -118.5t-43 -107.5v-49h-217v60q0 134 105 235q48 48 119 105q79 65 114.5 100.5t59.5 81.5q28 54 28 112q0 106 -72.5 179t-187.5 73q-117 0 -196.5 -79.5t-79.5 -188.5h-219q0 134 64 246t177.5 177
t251.5 65q135 0 245 -57.5t174 -163t64 -238.5zM668 117q0 -61 -43.5 -102.5t-108.5 -41.5t-108 41.5t-43 102.5t43 102t108 41t108.5 -41.5t43.5 -101.5z" />
    <glyph glyph-name="at" unicode="@" horiz-adv-x="1945" 
d="M1843 750q0 -170 -57 -311.5t-156 -222.5t-217 -81q-95 0 -151.5 54t-55.5 147q-54 -87 -148 -135.5t-210 -48.5q-173 0 -283 116.5t-110 306.5q0 47 6 97q31 218 176 360t334 142q115 0 202.5 -54.5t129.5 -148.5l30 174h131l-127 -733q-6 -27 -6 -56q0 -45 21.5 -71.5
t64.5 -26.5q73 0 138 67t105 184.5t40 254.5q3 183 -82.5 328.5t-235 224.5t-331.5 76q-161 3 -311 -62t-258.5 -175t-172.5 -260.5t-61 -311.5q-2 -140 46 -267.5t134 -221.5t211.5 -148.5t269.5 -52.5q133 0 273 43t258 118l57 -116q-117 -73 -287 -121q-165 -47 -311 -47
q-158 -2 -303.5 55.5t-255 161t-174 256.5t-62.5 331q-4 194 72.5 371t206 302t305.5 198t365 70q167 2 315 -55.5t253 -158.5t164.5 -244.5t57.5 -307.5zM1233 668q6 47 6 88q0 141 -71 219t-191 78q-142 0 -248 -111t-131 -285q-6 -41 -6 -75q0 -144 74.5 -226t199.5 -82
q141 0 241 107t126 287z" />
    <glyph glyph-name="A" unicode="A" horiz-adv-x="1372" 
d="M981 358h-594l-129 -358h-233l538 1489h228h16l541 -1489h-240zM915 551l-229 649l-231 -649h460z" />
    <glyph glyph-name="B" unicode="B" horiz-adv-x="1331" 
d="M1245 391q0 -183 -129 -287t-346 -104h-461h-137v1487h223h369q214 0 338.5 -111t124.5 -291q0 -119 -55 -208t-150 -134q102 -49 162.5 -140t60.5 -212zM395 1290v-461h355q119 0 186.5 63t67.5 163q0 105 -69 170t-190 65h-350zM1022 420q0 108 -69 170.5t-187 62.5
h-371v-456h371q117 0 186.5 60t69.5 163z" />
    <glyph glyph-name="C" unicode="C" horiz-adv-x="1521" 
d="M1210 1006q-43 135 -151 210.5t-256 75.5q-216 0 -347.5 -151t-131.5 -398q0 -248 131.5 -395t345.5 -147q152 0 267.5 73t158.5 195l215 -92q-74 -188 -248 -295t-395 -107q-155 -2 -289 54t-227.5 156.5t-146 244.5t-50.5 311q0 228 90 403.5t252.5 272t372.5 96.5
q236 0 403 -118t223 -314z" />
    <glyph glyph-name="D" unicode="D" horiz-adv-x="1503" 
d="M1417 743q1 -160 -55.5 -300t-156 -238t-239 -153t-298.5 -52h-496v1489h496q210 3 382.5 -93t270.5 -268t96 -385zM1176 743q0 236 -140.5 383.5t-369.5 147.5h-265v-1063h265q231 0 370.5 146.5t139.5 385.5z" />
    <glyph glyph-name="E" unicode="E" 
d="M1087 215v-215h-915v1489h915v-217h-688v-422h619v-201h-619v-434h688z" />
    <glyph glyph-name="F" unicode="F" horiz-adv-x="1148" 
d="M399 1274v-447h572v-204h-572v-623h-227v1489h227h680v-215h-680z" />
    <glyph glyph-name="G" unicode="G" horiz-adv-x="1581" 
d="M1462 842v-842h-198l-11 180q-68 -96 -195 -149.5t-278 -53.5q-203 0 -361.5 97.5t-245.5 271t-87 393.5q0 225 90 401.5t256 276t381 99.5q230 0 398 -109t235 -295l-205 -84q-50 133 -162 202.5t-264 69.5q-227 0 -362.5 -155t-135.5 -410q0 -252 133.5 -398.5
t348.5 -146.5q162 0 295 80q134 82 155 277v94h-477v201h690z" />
    <glyph glyph-name="H" unicode="H" horiz-adv-x="1490" 
d="M172 1489h229v-633l691 -2v635h229v-1489h-229v651l-691 2v-653h-229v1489z" />
    <glyph glyph-name="I" unicode="I" horiz-adv-x="573" 
d="M172 0v1489h229v-1489h-229z" />
    <glyph glyph-name="J" unicode="J" horiz-adv-x="1105" 
d="M948 1489v-1077q0 -192 -125 -315.5t-329 -123.5q-214 0 -331.5 119.5t-117.5 323.5v49h219v-49q0 -113 62.5 -171.5t160.5 -58.5q107 0 170.5 59.5t63.5 176.5v1067h227z" />
    <glyph glyph-name="K" unicode="K" horiz-adv-x="1359" 
d="M768 782l547 -782h-293l-397 602l-224 -278v-328h-229v1493h229v-811l637 811h293z" />
    <glyph glyph-name="L" unicode="L" horiz-adv-x="1060" 
d="M1004 205v-205h-795h-37v1489h231v-1284h601z" />
    <glyph glyph-name="M" unicode="M" horiz-adv-x="1789" 
d="M1616 1487v-1487h-225v977l-392 -977h-217l-391 973v-973h-219v1489h219l500 -1223l500 1223z" />
    <glyph glyph-name="N" unicode="N" horiz-adv-x="1529" 
d="M1360 1489v-1489h-227l-734 1122v-1122h-227v1489h227l734 -1124v1124h227z" />
    <glyph glyph-name="O" unicode="O" horiz-adv-x="1597" 
d="M797 1513q155 2 290 -56t229.5 -160.5t148 -245.5t51.5 -306q2 -164 -51.5 -308t-148 -246t-229.5 -160t-290 -56q-155 -2 -289.5 56t-229 160.5t-147.5 245.5t-51 306q-2 163 51 306.5t147.5 246t229 161t289.5 56.5zM799 199q217 0 348 149.5t131 396.5
q0 248 -131 397.5t-348 149.5t-348.5 -150t-131.5 -397t131.5 -396.5t348.5 -149.5z" />
    <glyph glyph-name="P" unicode="P" horiz-adv-x="1300" 
d="M1241 1008q0 -217 -132 -351.5t-355 -134.5h-353v-522h-229v1489h229h355q225 0 355 -129.5t130 -351.5zM1001 1012q0 122 -74.5 196t-207.5 74h-318v-559h312q138 0 213 79t75 210z" />
    <glyph glyph-name="Q" unicode="Q" horiz-adv-x="1599" 
d="M1307 176l161 -182h-245l-64 69q-155 -88 -358 -88q-155 -2 -290 56t-228.5 160.5t-146 245.5t-50.5 306q-2 163 51 306.5t147.5 246t229 161t289.5 56.5q155 2 290 -56t229.5 -160.5t148 -245.5t51.5 -306q0 -173 -55.5 -319t-159.5 -250zM1004 240l-213 239h249
l113 -129q129 150 129 395q0 248 -131 397.5t-348 149.5t-348 -149.5t-131 -397.5q0 -247 131 -396.5t348 -149.5q108 0 201 41z" />
    <glyph glyph-name="R" unicode="R" horiz-adv-x="1359" 
d="M1272 0h-256l-258 575h-357v-575h-229v1489h571q253 -1 389 -119.5t136 -335.5q0 -154 -73.5 -264t-205.5 -158zM1026 1032q0 119 -72.5 185.5t-210.5 66.5h-342v-506h344q137 0 209 67.5t72 186.5z" />
    <glyph glyph-name="S" unicode="S" horiz-adv-x="1214" 
d="M602 1516q202 0 336.5 -98.5t165.5 -264.5l-217 -59q-20 102 -96.5 157.5t-192.5 55.5q-124 0 -197 -60.5t-73 -159.5q0 -154 192 -202l246 -64q371 -93 371 -409q0 -196 -143 -317.5t-382 -121.5q-219 0 -362 101q-148 105 -174 276l217 58q13 -104 100.5 -163
t224.5 -59q135 0 213 57.5t78 157.5q0 155 -192 207l-246 60q-185 43 -278 149.5t-93 261.5q0 194 138.5 315.5t363.5 121.5z" />
    <glyph glyph-name="T" unicode="T" horiz-adv-x="1161" 
d="M1128 1274h-432v-1274h-229v1274h-432v215h1093v-215z" />
    <glyph glyph-name="U" unicode="U" horiz-adv-x="1490" 
d="M158 1489h227v-952q1 -170 100 -257t260 -87q155 0 258 91.5t103 252.5v952h227v-961q0 -131 -47 -237.5t-127.5 -175t-186.5 -105.5t-227 -37q-118 0 -223 36t-187 103.5t-129.5 175t-47.5 240.5v961z" />
    <glyph glyph-name="V" unicode="V" horiz-adv-x="1417" 
d="M1393 1489l-564 -1489h-235l-569 1489h247l439 -1174l438 1174h244z" />
    <glyph glyph-name="W" unicode="W" horiz-adv-x="2082" 
d="M2054 1489l-450 -1489h-220l-342 1092l-346 -1092h-223l-444 1489h250l309 -1106l332 1106h249l324 -1110l317 1110h244z" />
    <glyph glyph-name="X" unicode="X" horiz-adv-x="1390" 
d="M324 1489l374 -559l373 559h281l-512 -744l516 -745h-289l-371 559l-377 -557h-282l518 741l-520 746h289z" />
    <glyph glyph-name="Y" unicode="Y" horiz-adv-x="1277" 
d="M276 1489l367 -666l367 666h247l-501 -885v-604h-230v604l-508 885h258z" />
    <glyph glyph-name="Z" unicode="Z" horiz-adv-x="1171" 
d="M1085 1270l-747 -1051h737v-219h-987l-2 219l745 1051l-743 -2v221h997v-219z" />
    <glyph glyph-name="bracketleft" unicode="[" horiz-adv-x="583" 
d="M573 -170h-444v1847h444v-176h-258v-1497h258v-174z" />
    <glyph glyph-name="backslash" unicode="\" horiz-adv-x="798" 
d="M582 0l-582 1487h217l582 -1487h-217z" />
    <glyph glyph-name="bracketright" unicode="]" horiz-adv-x="583" 
d="M270 4v1497h-260v176h445v-1847h-445v174h260z" />
    <glyph glyph-name="asciicircum" unicode="^" horiz-adv-x="1019" 
d="M670 983l-140 281l-139 -281h-188l233 471h189l235 -471h-190z" />
    <glyph glyph-name="underscore" unicode="_" horiz-adv-x="1099" 
d="M977 -37v-166h-854v166h854z" />
    <glyph glyph-name="grave" unicode="`" horiz-adv-x="462" 
d="M27 1882h217l153 -309h-170z" />
    <glyph glyph-name="a" unicode="a" horiz-adv-x="1081" 
d="M774 0q-11 48 -16 125q-44 -69 -129 -110.5t-193 -41.5q-165 0 -264.5 87.5t-99.5 236.5q0 147 99 231t267 84h316v39q0 103 -60 154t-166 51q-187 0 -264 -151l-160 92q60 119 172 178t263 59q185 0 307 -96q121 -95 121 -311v-412q0 -165 18 -215h-211zM754 459h-267
q-93 0 -143.5 -42t-50.5 -118q0 -77 51.5 -117.5t144.5 -40.5q117 0 191 76t74 217v25z" />
    <glyph glyph-name="b" unicode="b" horiz-adv-x="1259" 
d="M1190 498q0 -237 -134.5 -381t-350.5 -144q-124 0 -218.5 49t-140.5 130l-12 -152h-195v1516h211v-654q53 83 148 128.5t207 45.5q217 0 351 -146.5t134 -391.5zM971 506q0 152 -83 243t-220 91t-221.5 -91.5t-84.5 -242.5t84.5 -242.5t221.5 -91.5t220 91t83 243z" />
    <glyph glyph-name="c" unicode="c" horiz-adv-x="1124" 
d="M588 1034q169 0 293 -82.5t168 -222.5l-189 -76q-29 86 -102.5 135.5t-167.5 49.5q-135 0 -215 -91t-80 -243q0 -153 80 -242.5t215 -89.5q95 0 168.5 48t103.5 132l187 -71q-51 -142 -176.5 -225t-286.5 -83q-229 0 -369.5 147t-140.5 384q0 239 141 384.5t371 145.5z
" />
    <glyph glyph-name="d" unicode="d" horiz-adv-x="1275" 
d="M932 0q-11 72 -14 147q-50 -83 -143.5 -128.5t-207.5 -45.5q-222 0 -356.5 142t-134.5 389q0 235 138 382.5t359 147.5q106 0 197.5 -41.5t144.5 -118.5v642h215v-1268q6 -197 19 -248h-217zM903 506q0 149 -83.5 240.5t-219.5 91.5q-137 0 -221 -91.5t-84 -240.5
q0 -152 84 -243t221 -91t220 91t83 243z" />
    <glyph glyph-name="e" unicode="e" horiz-adv-x="1142" 
d="M1067 418h-784q12 -124 90.5 -190t199.5 -66q95 0 164.5 43.5t108.5 122.5l182 -74q-57 -133 -179 -207t-278 -74q-220 0 -357.5 146t-137.5 383q0 236 137.5 384t361.5 148q223 0 357.5 -145.5t134.5 -384.5v-86zM285 573h561q-7 135 -79.5 207t-195.5 72
q-122 0 -197.5 -73t-88.5 -206z" />
    <glyph glyph-name="f" unicode="f" horiz-adv-x="698" 
d="M557 1319q-84 0 -121 -42.5t-37 -127.5v-143h238v-181h-238v-825h-219v825h-145v181h145v143q0 182 91 274.5t255 92.5q52 0 115 -13v-192q-36 8 -84 8z" />
    <glyph glyph-name="g" unicode="g" horiz-adv-x="1118" 
d="M1079 -180q0 -174 -153 -244q-151 -74 -389 -74q-496 0 -496 262q0 72 37.5 128.5t103.5 82.5q-98 61 -98 179q0 64 35.5 120t105.5 84q-119 106 -119 277q0 177 125 288t324 111q137 0 236 -51q36 64 99 100.5t146 36.5q27 0 35 -2v-180q-8 2 -35 2q-82 0 -129 -47
q92 -103 92 -256q0 -175 -122.5 -286t-319.5 -111q-105 0 -192 34q-47 -2 -74 -24t-27 -60q0 -33 27.5 -55t81.5 -22h360q164 0 255 -78t91 -215zM317 637q0 -99 65.5 -161t170.5 -62q107 1 171 63t64 156q0 98 -65.5 162.5t-169.5 64.5q-105 0 -170.5 -62.5t-65.5 -160.5z
M868 -182q0 58 -45 87t-123 29h-352h-26q-45 -12 -69 -43t-24 -71q0 -77 78 -105t244 -28q165 0 241 28t76 103z" />
    <glyph glyph-name="h" unicode="h" horiz-adv-x="1200" 
d="M1075 608v-608h-217v561q0 147 -65 212t-177 65q-107 0 -185.5 -74.5t-78.5 -208.5v-555h-217v1516h217v-625q48 66 129.5 104.5t177.5 38.5q198 0 307 -109t109 -317z" />
    <glyph glyph-name="i" unicode="i" horiz-adv-x="503" 
d="M111 1358q0 62 41.5 103.5t103.5 41.5q60 0 101.5 -42t41.5 -103q0 -60 -41.5 -102t-101.5 -42q-61 0 -103 42t-42 102zM365 1006v-1006h-218v1006h218z" />
    <glyph glyph-name="j" unicode="j" horiz-adv-x="544" 
d="M137 1358q0 62 41.5 103.5t102.5 41.5q60 0 101.5 -42t41.5 -103q0 -60 -41.5 -102t-101.5 -42q-61 0 -102.5 42t-41.5 102zM-74 -264q55 -19 101 -19q69 0 108 41t39 121l-2 1127h219v-1121q0 -170 -90 -266t-246 -96q-85 0 -170 26z" />
    <glyph glyph-name="k" unicode="k" horiz-adv-x="1067" 
d="M135 0v1516h217v-949l422 439h273l-431 -451l412 -555h-262l-295 403l-119 -124v-279h-217z" />
    <glyph glyph-name="l" unicode="l" horiz-adv-x="481" 
d="M135 1516h217v-1516h-217v1516z" />
    <glyph glyph-name="m" unicode="m" horiz-adv-x="1781" 
d="M1657 643v-643h-211v610q0 112 -56 174t-155 62q-104 0 -166.5 -68.5t-62.5 -185.5v-592h-213v610q0 112 -56 174t-155 62q-104 0 -167 -68.5t-63 -185.5v-592h-217v1006h201l10 -101q43 63 118 97t169 34q115 0 199.5 -49t128.5 -141q37 89 123.5 139.5t203.5 50.5
q168 0 268.5 -105t100.5 -288z" />
    <glyph glyph-name="n" unicode="n" horiz-adv-x="1187" 
d="M1061 618v-618h-217v575q0 147 -70 205t-162 58q-111 0 -185.5 -72.5t-74.5 -202.5v-563h-217v1006h203l8 -117q43 68 125.5 106.5t185.5 38.5q189 0 296.5 -108t107.5 -308z" />
    <glyph glyph-name="o" unicode="o" horiz-adv-x="1187" 
d="M594 1034q230 0 374 -149.5t144 -380.5q0 -232 -144 -380.5t-374 -148.5t-374 148.5t-144 380.5q0 231 144 380.5t374 149.5zM594 170q133 0 216 94t83 242q0 147 -83 239.5t-216 92.5q-134 0 -216.5 -92.5t-82.5 -239.5q0 -149 82.5 -242.5t216.5 -93.5z" />
    <glyph glyph-name="p" unicode="p" horiz-adv-x="1259" 
d="M700 -27q-115 0 -208.5 45t-143.5 123v-600h-209v1465h193l10 -142q45 79 137.5 124.5t214.5 45.5q223 0 356.5 -144t133.5 -390q0 -241 -135.5 -384t-348.5 -143zM967 506q0 152 -83 242t-220 90q-139 0 -222.5 -91t-83.5 -241q0 -151 84.5 -242.5t221.5 -91.5t220 91
t83 243z" />
    <glyph glyph-name="q" unicode="q" horiz-adv-x="1263" 
d="M1126 1006v-1465h-206v602q-51 -79 -145.5 -124.5t-207.5 -45.5q-219 0 -355 144t-136 387q0 246 135 388t362 142q119 0 211.5 -44.5t141.5 -125.5l10 142h190zM907 506q0 152 -83 242t-220 90q-139 0 -222 -91t-83 -241q0 -152 84 -243t221 -91t220 91t83 243z" />
    <glyph glyph-name="r" unicode="r" horiz-adv-x="778" 
d="M616 1020q55 0 115 -14v-201q-55 14 -110 14q-128 0 -199.5 -80.5t-71.5 -220.5v-518h-221v1006h203l12 -123q30 66 103.5 101.5t168.5 35.5z" />
    <glyph glyph-name="s" unicode="s" horiz-adv-x="935" 
d="M467 150q81 0 129.5 33t48.5 98q0 91 -119 118l-143 39q-281 77 -281 289q0 135 100 221t265 86q151 0 253 -68t122 -188l-195 -47q-7 59 -55.5 93t-118.5 34q-72 0 -116 -35t-44 -92q0 -49 32 -78t101 -47l142 -37q133 -35 203.5 -109.5t70.5 -180.5q0 -141 -105 -223.5
t-288 -82.5q-168 0 -271 75t-122 202l196 35q8 -62 59.5 -98.5t135.5 -36.5z" />
    <glyph glyph-name="t" unicode="t" horiz-adv-x="686" 
d="M647 825h-196v-825h-215v825h-197v181h197v315h215v-315h196v-181z" />
    <glyph glyph-name="u" unicode="u" 
d="M864 0q-12 49 -18 121q-42 -71 -122.5 -109.5t-184.5 -38.5q-169 0 -289 99q-121 103 -121 325v611h219v-574q0 -149 70 -207q71 -59 166 -59q110 0 184 72.5t74 201.5v564h219v-822q0 -99 18 -184h-215z" />
    <glyph glyph-name="v" unicode="v" horiz-adv-x="1087" 
d="M1063 1006l-420 -1006h-215l-403 1006h233l283 -748l297 748h225z" />
    <glyph glyph-name="w" unicode="w" horiz-adv-x="1619" 
d="M1589 1006l-348 -1006h-205l-227 682l-229 -682h-213l-336 1006h233l213 -693l223 693h222l217 -699l219 699h231z" />
    <glyph glyph-name="x" unicode="x" horiz-adv-x="1032" 
d="M508 350l-227 -350h-248l352 496l-360 510h258q101 -142 241 -361l232 361h252l-359 -508l352 -498h-258q-96 132 -235 350z" />
    <glyph glyph-name="y" unicode="y" horiz-adv-x="1095" 
d="M1071 1006l-471 -1239q-96 -250 -324 -250q-105 0 -219 51l62 196q71 -47 143 -47q107 0 154 121l39 103l-430 1065h229l303 -787l287 787h227z" />
    <glyph glyph-name="z" unicode="z" horiz-adv-x="948" 
d="M76 197l528 616h-528v193h796v-197l-534 -616h534v-193h-796v197z" />
    <glyph glyph-name="braceleft" unicode="{" horiz-adv-x="573" 
d="M332 750q102 -88 102 -248v-371q0 -137 129 -137v-164q-75 0 -121 6q-90 7 -142 75.5t-52 172.5v383q0 123 -49 160q-48 39 -99 39v163q148 9 148 207v389q0 105 53 170.5t150 75.5q35 6 112 6v-164q-129 0 -129 -110v-402q0 -159 -102 -251z" />
    <glyph glyph-name="bar" unicode="|" horiz-adv-x="380" 
d="M274 1614v-1798h-170v1798h170z" />
    <glyph glyph-name="braceright" unicode="}" horiz-adv-x="573" 
d="M471 829v-163q-48 0 -96 -39q-49 -37 -49 -160v-383q0 -100 -53.5 -168t-141.5 -80q-46 -6 -121 -6v164q129 0 129 137v371q0 159 103 248q-103 92 -103 251v402q0 110 -129 110v164q78 0 113 -6q97 -10 150 -75.5t53 -170.5v-389q0 -198 145 -207z" />
    <glyph glyph-name="asciitilde" unicode="~" horiz-adv-x="937" 
d="M856 637q0 -103 -62 -167t-157 -64q-51 0 -93.5 18t-107.5 63q-88 64 -141 64q-88 0 -94 -92h-119q0 99 61.5 163t155.5 64q50 0 93 -19t110 -65q55 -36 83.5 -49.5t57.5 -13.5q85 0 94 98h119z" />
    <glyph glyph-name="exclamdown" unicode="&#xa1;" horiz-adv-x="661" 
d="M479 1374q0 -62 -41.5 -102.5t-103.5 -40.5q-64 0 -106 40t-42 103q0 61 43 101.5t105 40.5t103.5 -40.5t41.5 -101.5zM459 596v-596h-254v596q0 169 6 289q6 122 27 254h186q35 -231 35 -543z" />
    <glyph glyph-name="cent" unicode="&#xa2;" horiz-adv-x="1208" 
d="M516 1264v223h189v-213q140 -19 244 -100t147 -205l-193 -68q-32 85 -101 134.5t-171 49.5q-139 0 -221 -98t-82 -244q0 -143 82 -241q82 -99 221 -99q192 0 260 164l192 -73q-44 -110 -145.5 -184t-232.5 -91v-221h-189v231q-171 37 -286 183t-115 331q0 187 114.5 334
t286.5 187z" />
    <glyph glyph-name="sterling" unicode="&#xa3;" horiz-adv-x="1402" 
d="M1280 444q0 -208 -108.5 -326t-315.5 -118h-719v217q100 12 170 100q72 90 72 213q0 50 -23 134h-206v188h131q-33 95 -33 188q0 205 138 340.5t349 135.5q181 0 309.5 -91t176.5 -245l-207 -68q-29 90 -104.5 141.5t-176.5 51.5q-123 0 -196.5 -75t-73.5 -198
q0 -68 39 -180h524v-188h-459q15 -56 15 -132q0 -107 -35.5 -190.5t-106.5 -124.5l422 -2q225 0 219 229h199z" />
    <glyph glyph-name="currency" unicode="&#xa4;" horiz-adv-x="1409" 
d="M1135 457l159 -156l-143 -145l-160 157q-131 -88 -286 -88q-156 0 -287 88l-162 -157l-141 145l159 158q-84 128 -84 280t84 283l-159 160l141 143l162 -158q131 88 287 88q155 0 286 -88l160 158l143 -143l-159 -158q86 -133 86 -285q0 -149 -86 -282zM705 428
q127 0 220 92t93 219q0 128 -92.5 222t-220.5 94t-221 -94t-93 -222t92.5 -219.5t221.5 -91.5z" />
    <glyph glyph-name="yen" unicode="&#xa5;" horiz-adv-x="1488" 
d="M936 758h240v-180h-326v-132h326v-178h-326v-268h-217v268h-326v178h326v132h-326v180h244l-428 729h256l362 -666v2l369 664h256z" />
    <glyph glyph-name="brokenbar" unicode="&#xa6;" horiz-adv-x="831" 
d="M510 1620v-696h-191v696h191zM510 573v-716h-191v716h191z" />
    <glyph glyph-name="section" unicode="&#xa7;" horiz-adv-x="940" 
d="M696 522q129 -74 129 -221q0 -133 -101.5 -222t-254.5 -89q-141 0 -242 69t-127 185l174 41q14 -63 65.5 -98t133.5 -35q79 0 125.5 38.5t46.5 100.5q0 94 -110 115l-129 28q-134 27 -217 103.5t-83 203.5q0 157 136 240q-129 72 -129 223q0 134 99.5 221.5t254.5 87.5
q142 0 244.5 -68.5t128.5 -184.5l-174 -39q-17 64 -68.5 98.5t-132.5 34.5t-127.5 -39t-46.5 -103q0 -91 110 -112l131 -31q134 -27 215.5 -102.5t81.5 -206.5q0 -152 -133 -238zM672 754q0 67 -55 104t-148 37q-99 0 -151 -39.5t-52 -105.5q0 -67 53.5 -103.5t151.5 -36.5
q97 0 149 39.5t52 104.5z" />
    <glyph glyph-name="dieresis" unicode="&#xa8;" horiz-adv-x="765" 
d="M41 1722q0 60 41.5 101t101.5 41q57 0 99.5 -42.5t42.5 -99.5t-42.5 -99t-99.5 -42q-60 0 -101.5 40.5t-41.5 100.5zM440 1722q0 58 42 100t102 42q57 0 99 -42.5t42 -99.5t-42 -99t-99 -42q-60 0 -102 42t-42 99z" />
    <glyph glyph-name="copyright" unicode="&#xa9;" horiz-adv-x="1677" 
d="M82 731q-4 200 100.5 376.5t281.5 280t376 99.5q150 3 291 -58t243.5 -163.5t163 -243.5t57.5 -291q3 -151 -57.5 -292.5t-163.5 -244.5t-243.5 -163.5t-290.5 -57.5q-151 -3 -292.5 57.5t-244.5 163.5t-163.5 244.5t-57.5 292.5zM1434 731q3 158 -78 296.5t-219.5 219.5
t-296.5 78q-158 3 -296.5 -78t-219.5 -219.5t-78 -296.5q-3 -158 78 -297.5t219.5 -221t296.5 -77.5q158 -4 296.5 77.5t219.5 221t78 297.5zM1053 840q-21 65 -75 103t-132 38q-98 0 -161.5 -73t-63.5 -179t64 -179t161 -73q73 0 124 34t72 91l134 -51q-37 -94 -127 -150.5
t-203 -56.5q-151 0 -262 114.5t-111 270.5q0 157 110.5 271t262.5 114q122 0 214 -62.5t124 -168.5z" />
    <glyph glyph-name="guillemotleft" unicode="&#xab;" horiz-adv-x="1351" 
d="M733 504l441 -504h-275h-168l-440 504l440 502h275h168z" />
    <glyph glyph-name="logicalnot" unicode="&#xac;" horiz-adv-x="1200" 
d="M883 164v356h-797v232h1028v-588h-231z" />
    <glyph glyph-name="registered" unicode="&#xae;" horiz-adv-x="913" 
d="M852 1118q0 -166 -114.5 -280.5t-278.5 -114.5q-165 0 -281.5 115t-116.5 280q0 161 117 277t281 116t278.5 -115.5t114.5 -277.5zM772 1118q0 132 -92 224t-221 92q-132 0 -224 -92t-92 -224q0 -133 91 -223t225 -90q130 0 221.5 90.5t91.5 222.5zM532 1087l66 -145h-82
l-59 135h-43v-135h-72v350h72h47q127 0 133 -98v-6v-6q-3 -68 -62 -95zM414 1143h61q37 0 37 39v4v6q-3 31 -51 31h-47v-80z" />
    <glyph glyph-name="overscore" unicode="&#xaf;" horiz-adv-x="708" 
d="M659 1747v-150h-610v150h610z" />
    <glyph glyph-name="degree" unicode="&#xb0;" horiz-adv-x="544" 
d="M41 1253q0 96 68 164q71 68 163 68q95 0 162 -70q70 -67 70 -162q0 -92 -68 -163q-68 -68 -164 -68q-92 0 -163 68q-68 71 -68 163zM373 1253q0 41 -30 71t-71 30t-70.5 -30t-29.5 -71t29.5 -70.5t70.5 -29.5t71 29.5t30 70.5z" />
    <glyph glyph-name="plusminus" unicode="&#xb1;" horiz-adv-x="1026" 
d="M944 766v-180h-340v-219h-180v219h-342v180h342v217h180v-217h340zM82 180h862v-180h-862v180z" />
    <glyph glyph-name="uni00B2" unicode="&#xb2;" horiz-adv-x="847" 
d="M96 782l424 348q84 68 84 150q0 79 -49 126.5t-131 47.5q-77 0 -127.5 -45t-54.5 -125h-160q6 153 98.5 241.5t241.5 88.5q154 0 249 -94.5t95 -235.5q0 -160 -148 -278l-286 -232l411 2v-160l-647 -2v168z" />
    <glyph glyph-name="uni00B3" unicode="&#xb3;" horiz-adv-x="849" 
d="M768 928q0 -141 -100.5 -237.5t-241.5 -96.5q-148 0 -246 96t-98 234h162q2 -75 52 -123.5t130 -48.5q76 0 127 49.5t51 126.5q0 82 -52 133t-136 51q-45 0 -80 -14l-55 127l215 202h-373v162h625v-143l-218 -203q108 -31 173 -115.5t65 -199.5z" />
    <glyph glyph-name="acute" unicode="&#xb4;" horiz-adv-x="507" 
d="M82 1573l154 309h215l-199 -309h-170z" />
    <glyph glyph-name="uni00B5" unicode="&#xb5;" horiz-adv-x="1413" 
d="M1313 197v-197l-207 2q-146 0 -193 121q-96 -146 -290 -152h-9h-8q-178 6 -272 123v-600h-215v1507h215v-469q0 -181 73 -273.5t205 -92.5q133 0 207 92.5t74 273.5v474h217v-711q0 -58 21 -77t73 -19z" />
    <glyph glyph-name="paragraph" unicode="&#xb6;" horiz-adv-x="1052" 
d="M756 1458v-1622h-191v793h-106q-171 0 -274 113t-103 302q0 185 102 299q106 115 275 115h297zM971 1454v-1622h-94v1622h94z" />
    <glyph glyph-name="middot" unicode="&#xb7;" horiz-adv-x="647" 
d="M115 555q0 86 61 147q65 62 148 62q84 0 145 -64q61 -61 61 -145q0 -82 -61 -143q-63 -60 -145 -60t-148 60q-61 61 -61 143z" />
    <glyph glyph-name="cedilla" unicode="&#xb8;" horiz-adv-x="1228" 
d="M494 -262h176q24 0 38.5 13.5t14.5 37.5q-2 20 -16 32.5t-37 12.5h-176v107l90 120l96 -2v-61l-47 -59h72q67 0 107 -44t40 -112t-40 -111t-105 -43h-213v109z" />
    <glyph glyph-name="uni00B9" unicode="&#xb9;" horiz-adv-x="614" 
d="M442 1595v-981h-161v816l-199 -82v161l199 86h161z" />
    <glyph glyph-name="guillemotright" unicode="&#xbb;" horiz-adv-x="1351" 
d="M1061 504l-440 -504h-275h-168l440 504l-440 502h275h168z" />
    <glyph glyph-name="onequarter" unicode="&#xbc;" horiz-adv-x="1466" 
d="M80 1389l147 65v-149l-147 -60v144zM371 1454v-752h-144v752h144zM33 0l1108 1454h198l-1110 -1454h-196zM1386 129l-98 2v-143h-145v143h-357v143l357 480h145v-480h98v-145zM1143 274v242l-176 -242h176z" />
    <glyph glyph-name="onehalf" unicode="&#xbd;" horiz-adv-x="1523" 
d="M80 1389l147 65v-149l-147 -60v144zM371 1454v-752h-144v752h144zM33 0l1108 1454h198l-1110 -1454h-196zM934 143l278 238q50 42 67 67.5t17 61.5q0 51 -31.5 81t-86.5 30q-54 0 -85.5 -31t-31.5 -82q0 -21 2 -27h-143q-11 119 65.5 199t200.5 80q116 0 186 -68.5
t72 -181.5q0 -121 -133 -231l-164 -138h285v-141l-498 -2v145z" />
    <glyph glyph-name="threequarters" unicode="&#xbe;" horiz-adv-x="1617" 
d="M606 948q0 -106 -78 -184q-77 -74 -186 -74q-116 0 -193.5 82t-68.5 197h143q-2 -6 -2 -27q0 -47 35 -80t86 -33t86 34t35 85q0 59 -43 96q-31 25 -78 25q-36 0 -61 -14l-62 112l141 144h-249v143h471v-127l-142 -139q66 -22 105 -72q61 -76 61 -168zM186 0l1108 1454
h199l-1110 -1454h-197zM1540 129l-98 2v-143h-146v143h-356v143l356 480h146v-480h98v-145zM1296 274v242l-176 -242h176z" />
    <glyph glyph-name="questiondown" unicode="&#xbf;" horiz-adv-x="1110" 
d="M442 1372q0 61 43.5 102.5t108.5 41.5t108 -41.5t43 -102.5q0 -62 -42.5 -103.5t-108.5 -41.5q-63 0 -107.5 42.5t-44.5 102.5zM1044 459q0 -133 -64.5 -244.5t-178.5 -176.5t-252 -65q-134 0 -243.5 57.5t-173.5 163t-64 238.5q0 188 125 313q60 60 133 117
q89 72 127.5 119.5t42.5 105.5v52h219v-60q-2 -48 -14.5 -88t-27 -68t-48.5 -64t-58.5 -57t-77.5 -65q-76 -63 -112.5 -99.5t-63.5 -84.5q-26 -48 -26 -111q0 -106 72.5 -179t187.5 -73q117 0 196.5 80t79.5 189h221z" />
    <glyph glyph-name="Agrave" unicode="&#xc0;" horiz-adv-x="1372" 
d="M981 358h-594l-129 -358h-233l538 1489h228h16l541 -1489h-240zM915 551l-229 649l-231 -649h460zM399 1905h217l154 -310h-170z" />
    <glyph glyph-name="Aacute" unicode="&#xc1;" horiz-adv-x="1372" 
d="M981 358h-594l-129 -358h-233l538 1489h228h16l541 -1489h-240zM915 551l-229 649l-231 -649h460zM602 1595l154 310h215l-199 -310h-170z" />
    <glyph glyph-name="Acircumflex" unicode="&#xc2;" horiz-adv-x="1372" 
d="M981 358h-594l-129 -358h-233l538 1489h228h16l541 -1489h-240zM915 551l-229 649l-231 -649h460zM801 1595l-115 189l-115 -189h-178l176 310h191h43l176 -310h-178z" />
    <glyph glyph-name="Atilde" unicode="&#xc3;" horiz-adv-x="1372" 
d="M981 358h-594l-129 -358h-233l538 1489h228h16l541 -1489h-240zM915 551l-229 649l-231 -649h460zM344 1694q0 97 53 154t133 57q41 0 76.5 -12.5t89.5 -43.5q78 -43 115 -43q75 0 66 90h145q4 -46 4 -49q0 -97 -54 -152t-141 -55q-73 0 -174 58q-42 23 -61.5 31t-40.5 8
q-64 0 -61 -95l-146 -2q-4 50 -4 54z" />
    <glyph glyph-name="Adieresis" unicode="&#xc4;" horiz-adv-x="1372" 
d="M981 358h-594l-129 -358h-233l538 1489h228h16l541 -1489h-240zM915 551l-229 649l-231 -649h460zM344 1745q0 60 41.5 100.5t101.5 40.5q57 0 99.5 -42t42.5 -99t-42.5 -99t-99.5 -42q-60 0 -101.5 40.5t-41.5 100.5zM743 1745q0 57 42 99t102 42q57 0 99 -42t42 -99
t-42 -99t-99 -42q-60 0 -102 42t-42 99z" />
    <glyph glyph-name="Aring" unicode="&#xc5;" horiz-adv-x="1372" 
d="M981 358h-594l-129 -358h-233l538 1489h228h16l541 -1489h-240zM915 551l-229 649l-231 -649h460zM440 1825q0 101 74 175.5t174 74.5t174 -74.5t74 -175.5q0 -100 -74 -174t-174 -74q-104 0 -176 72t-72 176zM805 1829q0 47 -34 80t-83 33t-82 -32.5t-33 -80.5
q0 -51 33 -85t82 -34q50 0 83.5 34t33.5 85z" />
    <glyph glyph-name="AE" unicode="&#xc6;" horiz-adv-x="1892" 
d="M1769 0h-696h-217v385h-438l-146 -385h-252l580 1487h234v-2h22v2h217v-2h699l-3 -215h-696v-416h631l-2 -209h-629v-430h701zM856 582v688l-104 2l-260 -690h364z" />
    <glyph glyph-name="Ccedilla" unicode="&#xc7;" horiz-adv-x="1521" 
d="M856 -23l-39 -49h72q68 0 107.5 -43.5t39.5 -111.5t-40 -111t-105 -43h-213v109h176q24 0 38.5 13.5t14.5 37.5q-2 20 -16 32.5t-37 12.5h-176v106l37 50q-285 28 -457 234.5t-172 526.5q0 228 90 403.5t252.5 272t372.5 96.5q236 0 403 -118t223 -314l-217 -75
q-43 135 -151 210.5t-256 75.5q-216 0 -347.5 -151t-131.5 -398q0 -248 131.5 -395t345.5 -147q152 0 267.5 73t158.5 195l215 -92q-67 -172 -225 -279t-361 -121z" />
    <glyph glyph-name="Egrave" unicode="&#xc8;" 
d="M1087 215v-215h-915v1489h915v-217h-688v-422h619v-201h-619v-434h688zM338 1905h217l154 -310h-170z" />
    <glyph glyph-name="Eacute" unicode="&#xc9;" 
d="M1087 215v-215h-915v1489h915v-217h-688v-422h619v-201h-619v-434h688zM539 1595l153 310h215l-198 -310h-170z" />
    <glyph glyph-name="Ecircumflex" unicode="&#xca;" 
d="M1087 215v-215h-915v1489h915v-217h-688v-422h619v-201h-619v-434h688zM739 1595l-114 189l-115 -189h-178l176 310h190h43l177 -310h-179z" />
    <glyph glyph-name="Edieresis" unicode="&#xcb;" 
d="M1087 215v-215h-915v1489h915v-217h-688v-422h619v-201h-619v-434h688zM283 1745q0 60 41.5 100.5t101.5 40.5q57 0 99 -42t42 -99t-42 -99t-99 -42q-60 0 -101.5 40.5t-41.5 100.5zM682 1745q0 57 42 99t101 42q57 0 99.5 -42t42.5 -99t-42.5 -99t-99.5 -42
q-59 0 -101 42t-42 99z" />
    <glyph glyph-name="Igrave" unicode="&#xcc;" horiz-adv-x="573" 
d="M172 0v1489h229v-1489h-229zM0 1905h217l154 -310h-170z" />
    <glyph glyph-name="Iacute" unicode="&#xcd;" horiz-adv-x="573" 
d="M172 0v1489h229v-1489h-229zM201 1595l153 310h215l-198 -310h-170z" />
    <glyph glyph-name="Icircumflex" unicode="&#xce;" horiz-adv-x="573" 
d="M172 0v1489h229v-1489h-229zM401 1595l-114 189l-115 -189h-178l176 310h190h43l177 -310h-179z" />
    <glyph glyph-name="Idieresis" unicode="&#xcf;" horiz-adv-x="573" 
d="M172 0v1489h229v-1489h-229zM-55 1745q0 60 41.5 100.5t101.5 40.5q57 0 99 -42t42 -99t-42 -99t-99 -42q-60 0 -101.5 40.5t-41.5 100.5zM344 1745q0 57 42 99t101 42q57 0 99.5 -42t42.5 -99t-42.5 -99t-99.5 -42q-59 0 -101 42t-42 99z" />
    <glyph glyph-name="Eth" unicode="&#xd0;" horiz-adv-x="1521" 
d="M1417 743q1 -160 -55.5 -300t-156 -238t-239 -153t-298.5 -52h-496v649h-143v191h143v649h496q210 3 382.5 -93t270.5 -268t96 -385zM1176 743q0 236 -140.5 383.5t-369.5 147.5h-265v-434h199v-191h-199v-438h265q231 0 370.5 146.5t139.5 385.5z" />
    <glyph glyph-name="Ntilde" unicode="&#xd1;" horiz-adv-x="1529" 
d="M1360 1489v-1489h-227l-734 1122v-1122h-227v1489h227l734 -1124v1124h227zM430 1694q0 97 53 154t133 57q41 0 76.5 -12.5t89.5 -43.5q78 -43 115 -43q75 0 66 90h145q4 -46 4 -49q0 -98 -53.5 -152.5t-140.5 -54.5q-74 0 -175 58q-42 23 -61.5 31t-40.5 8
q-64 0 -61 -95l-146 -2q-4 50 -4 54z" />
    <glyph glyph-name="Ograve" unicode="&#xd2;" horiz-adv-x="1597" 
d="M797 1513q-155 2 -289.5 -56.5t-229 -161t-147.5 -246t-51 -306.5q-2 -163 51 -306t147.5 -245.5t229 -160.5t289.5 -56q155 -2 290 56t229.5 160t148 246t51.5 308q2 163 -51.5 306t-148 245.5t-229.5 160.5t-290 56zM799 199q-217 0 -348.5 149.5t-131.5 396.5
t131.5 397t348.5 150t348 -149.5t131 -397.5q0 -247 -131 -396.5t-348 -149.5zM512 1905h217l154 -310h-170z" />
    <glyph glyph-name="Oacute" unicode="&#xd3;" horiz-adv-x="1597" 
d="M797 1513q-155 2 -289.5 -56.5t-229 -161t-147.5 -246t-51 -306.5q-2 -163 51 -306t147.5 -245.5t229 -160.5t289.5 -56q155 -2 290 56t229.5 160t148 246t51.5 308q2 163 -51.5 306t-148 245.5t-229.5 160.5t-290 56zM799 199q-217 0 -348.5 149.5t-131.5 396.5
t131.5 397t348.5 150t348 -149.5t131 -397.5q0 -247 -131 -396.5t-348 -149.5zM713 1595l153 310h215l-198 -310h-170z" />
    <glyph glyph-name="Ocircumflex" unicode="&#xd4;" horiz-adv-x="1597" 
d="M797 1513q-155 2 -289.5 -56.5t-229 -161t-147.5 -246t-51 -306.5q-2 -163 51 -306t147.5 -245.5t229 -160.5t289.5 -56q155 -2 290 56t229.5 160t148 246t51.5 308q2 163 -51.5 306t-148 245.5t-229.5 160.5t-290 56zM799 199q-217 0 -348.5 149.5t-131.5 396.5
t131.5 397t348.5 150t348 -149.5t131 -397.5q0 -247 -131 -396.5t-348 -149.5zM913 1595l-114 189l-115 -189h-178l176 310h190h43l177 -310h-179z" />
    <glyph glyph-name="Otilde" unicode="&#xd5;" horiz-adv-x="1597" 
d="M797 1513q-155 2 -289.5 -56.5t-229 -161t-147.5 -246t-51 -306.5q-2 -163 51 -306t147.5 -245.5t229 -160.5t289.5 -56q155 -2 290 56t229.5 160t148 246t51.5 308q2 163 -51.5 306t-148 245.5t-229.5 160.5t-290 56zM799 199q-217 0 -348.5 149.5t-131.5 396.5
t131.5 397t348.5 150t348 -149.5t131 -397.5q0 -247 -131 -396.5t-348 -149.5zM457 1694q0 97 53 154t133 57q41 0 76.5 -12.5t89.5 -43.5q78 -43 115 -43q74 0 65 90h146q4 -46 4 -49q0 -97 -54 -152t-141 -55q-73 0 -174 58q-42 23 -61.5 31t-40.5 8q-65 0 -62 -95
l-145 -2q-4 50 -4 54z" />
    <glyph glyph-name="Odieresis" unicode="&#xd6;" horiz-adv-x="1597" 
d="M797 1513q-155 2 -289.5 -56.5t-229 -161t-147.5 -246t-51 -306.5q-2 -163 51 -306t147.5 -245.5t229 -160.5t289.5 -56q155 -2 290 56t229.5 160t148 246t51.5 308q2 163 -51.5 306t-148 245.5t-229.5 160.5t-290 56zM799 199q-217 0 -348.5 149.5t-131.5 396.5
t131.5 397t348.5 150t348 -149.5t131 -397.5q0 -247 -131 -396.5t-348 -149.5zM457 1745q0 60 41.5 100.5t101.5 40.5q57 0 99 -42t42 -99t-42 -99t-99 -42q-60 0 -101.5 40.5t-41.5 100.5zM856 1745q0 57 42 99t101 42q57 0 99.5 -42t42.5 -99t-42.5 -99t-99.5 -42
q-59 0 -101 42t-42 99z" />
    <glyph glyph-name="multiply" unicode="&#xd7;" horiz-adv-x="1157" 
d="M887 197l-307 307l-308 -314l-141 144l307 311l-311 311l143 142l308 -310l307 314l141 -144l-305 -311l309 -309z" />
    <glyph glyph-name="Oslash" unicode="&#xd8;" horiz-adv-x="1599" 
d="M1497 745q2 -163 -51.5 -306t-148.5 -245.5t-230.5 -160.5t-290.5 -56q-157 0 -295 60l-39 -64h-225l100 164q-123 103 -189.5 260t-66.5 348q-2 163 51 306.5t147.5 246.5t229 161.5t289.5 56.5q192 0 344 -82l52 84h219l-119 -193q107 -107 165 -256t58 -324zM440 336
l564 907q-99 51 -226 51q-216 0 -346.5 -150t-130.5 -399q0 -258 139 -409zM1257 745q0 232 -110 375l-547 -891q80 -30 178 -30q217 0 348 149.5t131 396.5z" />
    <glyph glyph-name="Ugrave" unicode="&#xd9;" horiz-adv-x="1490" 
d="M158 1489h227v-952q1 -170 100 -257t260 -87q155 0 258 91.5t103 252.5v952h227v-961q0 -131 -47 -237.5t-127.5 -175t-186.5 -105.5t-227 -37q-118 0 -223 36t-187 103.5t-129.5 175t-47.5 240.5v961zM459 1905h217l153 -310h-170z" />
    <glyph glyph-name="Uacute" unicode="&#xda;" horiz-adv-x="1490" 
d="M158 1489h227v-952q1 -170 100 -257t260 -87q155 0 258 91.5t103 252.5v952h227v-961q0 -131 -47 -237.5t-127.5 -175t-186.5 -105.5t-227 -37q-118 0 -223 36t-187 103.5t-129.5 175t-47.5 240.5v961zM659 1595l154 310h215l-199 -310h-170z" />
    <glyph glyph-name="Ucircumflex" unicode="&#xdb;" horiz-adv-x="1490" 
d="M158 1489h227v-952q1 -170 100 -257t260 -87q155 0 258 91.5t103 252.5v952h227v-961q0 -131 -47 -237.5t-127.5 -175t-186.5 -105.5t-227 -37q-118 0 -223 36t-187 103.5t-129.5 175t-47.5 240.5v961zM860 1595l-115 189l-114 -189h-178l176 310h190h43l176 -310h-178z
" />
    <glyph glyph-name="Udieresis" unicode="&#xdc;" horiz-adv-x="1490" 
d="M158 1489h227v-952q1 -170 100 -257t260 -87q155 0 258 91.5t103 252.5v952h227v-961q0 -131 -47 -237.5t-127.5 -175t-186.5 -105.5t-227 -37q-118 0 -223 36t-187 103.5t-129.5 175t-47.5 240.5v961zM403 1745q0 60 42 100.5t102 40.5q57 0 99 -42t42 -99t-42 -99
t-99 -42q-60 0 -102 40.5t-42 100.5zM803 1745q0 57 41.5 99t101.5 42q57 0 99 -42t42 -99t-42 -99t-99 -42q-60 0 -101.5 42t-41.5 99z" />
    <glyph glyph-name="Yacute" unicode="&#xdd;" horiz-adv-x="1277" 
d="M276 1489l367 -666l367 666h247l-501 -885v-604h-230v604l-508 885h258zM557 1595l154 310h215l-199 -310h-170z" />
    <glyph glyph-name="Thorn" unicode="&#xde;" horiz-adv-x="1308" 
d="M176 1489h217v-301h301q109 0 200 -37.5t149 -100.5t90 -142.5t32 -166.5q0 -117 -52.5 -216t-161.5 -162.5t-257 -63.5h-301v-299h-217v1489zM684 510q113 0 179.5 67.5t66.5 167.5q0 98 -66.5 167t-179.5 69h-291v-471h291z" />
    <glyph glyph-name="germandbls" unicode="&#xdf;" horiz-adv-x="1189" 
d="M1114 455q0 -203 -143 -329t-365 -126q-78 0 -145 20v209q65 -30 141 -30q137 0 218 75.5t81 194.5q0 134 -89 209t-237 70v176q103 0 162.5 56.5t59.5 141.5q0 91 -59.5 143t-155.5 52q-101 0 -159 -60t-58 -174l-3 -1083h-217v1065q0 213 112 332t308 119
q189 0 309.5 -105t120.5 -283q0 -163 -116 -270q112 -58 173.5 -161t61.5 -242z" />
    <glyph glyph-name="agrave" unicode="&#xe0;" horiz-adv-x="1081" 
d="M774 0q-11 48 -16 125q-44 -69 -129 -110.5t-193 -41.5q-165 0 -264.5 87.5t-99.5 236.5q0 147 99 231t267 84h316v39q0 103 -60 154t-166 51q-187 0 -264 -151l-160 92q60 119 172 178t263 59q185 0 307 -96q121 -95 121 -311v-412q0 -165 18 -215h-211zM754 459h-267
q-93 0 -143.5 -42t-50.5 -118q0 -77 51.5 -117.5t144.5 -40.5q117 0 191 76t74 217v25zM252 1434h217l154 -310h-170z" />
    <glyph glyph-name="aacute" unicode="&#xe1;" horiz-adv-x="1081" 
d="M774 0q-11 48 -16 125q-44 -69 -129 -110.5t-193 -41.5q-165 0 -264.5 87.5t-99.5 236.5q0 147 99 231t267 84h316v39q0 103 -60 154t-166 51q-187 0 -264 -151l-160 92q60 119 172 178t263 59q185 0 307 -96q121 -95 121 -311v-412q0 -165 18 -215h-211zM754 459h-267
q-93 0 -143.5 -42t-50.5 -118q0 -77 51.5 -117.5t144.5 -40.5q117 0 191 76t74 217v25zM455 1124l153 310h215l-198 -310h-170z" />
    <glyph glyph-name="acircumflex" unicode="&#xe2;" horiz-adv-x="1081" 
d="M774 0q-11 48 -16 125q-44 -69 -129 -110.5t-193 -41.5q-165 0 -264.5 87.5t-99.5 236.5q0 147 99 231t267 84h316v39q0 103 -60 154t-166 51q-187 0 -264 -151l-160 92q60 119 172 178t263 59q185 0 307 -96q121 -95 121 -311v-412q0 -165 18 -215h-211zM754 459h-267
q-93 0 -143.5 -42t-50.5 -118q0 -77 51.5 -117.5t144.5 -40.5q117 0 191 76t74 217v25zM653 1124l-114 189l-115 -189h-178l176 310h190h43l176 -310h-178z" />
    <glyph glyph-name="atilde" unicode="&#xe3;" horiz-adv-x="1081" 
d="M774 0q-11 48 -16 125q-44 -69 -129 -110.5t-193 -41.5q-165 0 -264.5 87.5t-99.5 236.5q0 147 99 231t267 84h316v39q0 103 -60 154t-166 51q-187 0 -264 -151l-160 92q60 119 172 178t263 59q185 0 307 -96q121 -95 121 -311v-412q0 -165 18 -215h-211zM754 459h-267
q-93 0 -143.5 -42t-50.5 -118q0 -77 51.5 -117.5t144.5 -40.5q117 0 191 76t74 217v25zM199 1223q0 97 53 154t133 57q41 0 76.5 -12.5t89.5 -43.5q78 -43 115 -43q74 0 65 90h146q4 -46 4 -49q0 -97 -54 -152t-141 -55q-73 0 -174 58q-42 23 -61.5 31t-40.5 8
q-65 0 -62 -95l-145 -2q-4 50 -4 54z" />
    <glyph glyph-name="adieresis" unicode="&#xe4;" horiz-adv-x="1081" 
d="M774 0q-11 48 -16 125q-44 -69 -129 -110.5t-193 -41.5q-165 0 -264.5 87.5t-99.5 236.5q0 147 99 231t267 84h316v39q0 103 -60 154t-166 51q-187 0 -264 -151l-160 92q60 119 172 178t263 59q185 0 307 -96q121 -95 121 -311v-412q0 -165 18 -215h-211zM754 459h-267
q-93 0 -143.5 -42t-50.5 -118q0 -77 51.5 -117.5t144.5 -40.5q117 0 191 76t74 217v25zM197 1274q0 60 41.5 100.5t101.5 40.5q57 0 99 -42t42 -99t-42 -99t-99 -42q-60 0 -101.5 40.5t-41.5 100.5zM596 1274q0 58 42 99.5t101 41.5q57 0 99.5 -42t42.5 -99t-42.5 -99
t-99.5 -42q-59 0 -101 41.5t-42 99.5z" />
    <glyph glyph-name="aring" unicode="&#xe5;" horiz-adv-x="1081" 
d="M774 0q-11 48 -16 125q-44 -69 -129 -110.5t-193 -41.5q-165 0 -264.5 87.5t-99.5 236.5q0 147 99 231t267 84h316v39q0 103 -60 154t-166 51q-187 0 -264 -151l-160 92q60 119 172 178t263 59q185 0 307 -96q121 -95 121 -311v-412q0 -165 18 -215h-211zM754 459h-267
q-93 0 -143.5 -42t-50.5 -118q0 -77 51.5 -117.5t144.5 -40.5q117 0 191 76t74 217v25zM293 1354q0 101 74 175.5t174 74.5t173.5 -74.5t73.5 -175.5q0 -100 -73.5 -174t-173.5 -74q-104 0 -176 72t-72 176zM657 1358q0 47 -33.5 79.5t-82.5 32.5t-82 -32.5t-33 -79.5
q0 -51 33 -85t82 -34q50 0 83 34t33 85z" />
    <glyph glyph-name="ae" unicode="&#xe6;" horiz-adv-x="1835" 
d="M1753 422h-776q13 -123 92.5 -191.5t200.5 -68.5q91 0 163.5 44t114.5 120l168 -88q-61 -126 -181.5 -194.5t-270.5 -68.5q-130 0 -232 53.5t-158 147.5q-49 -96 -149.5 -148.5t-230.5 -52.5q-177 0 -286.5 84.5t-109.5 233.5q0 136 86 216.5t226 80.5h266q78 0 78 72
q0 93 -61.5 142.5t-153.5 49.5q-87 0 -157 -42t-112 -118l-157 92q62 115 177 181.5t245 66.5q122 0 214 -48t136 -134q62 88 161 136t220 48q219 0 353 -140.5t134 -367.5v-106zM1534 582q-1 122 -79 197t-198 75q-117 0 -192.5 -73.5t-87.5 -198.5h557zM756 434h-281
q-72 0 -114 -39t-42 -102q0 -71 53.5 -109.5t141.5 -38.5q118 0 180 67t62 181v41z" />
    <glyph glyph-name="ccedilla" unicode="&#xe7;" horiz-adv-x="1124" 
d="M862 352l187 -71q-47 -130 -157 -211t-253 -93l-37 -47h72q68 0 107.5 -43.5t39.5 -111.5t-40 -111t-105 -43h-213v109h176q24 0 38.5 13.5t14.5 37.5q-2 20 -16 32.5t-37 12.5h-176v106l35 48q-196 29 -309 169t-113 355q0 239 141 384.5t371 145.5q169 0 293 -82.5
t168 -222.5l-189 -76q-29 86 -102.5 135.5t-167.5 49.5q-135 0 -215 -91t-80 -243q0 -153 80 -242.5t215 -89.5q95 0 168.5 48t103.5 132z" />
    <glyph glyph-name="egrave" unicode="&#xe8;" horiz-adv-x="1142" 
d="M1067 418h-784q12 -124 90.5 -190t199.5 -66q95 0 164.5 43.5t108.5 122.5l182 -74q-57 -133 -179 -207t-278 -74q-220 0 -357.5 146t-137.5 383q0 236 137.5 384t361.5 148q223 0 357.5 -145.5t134.5 -384.5v-86zM285 573h561q-7 135 -79.5 207t-195.5 72
q-122 0 -197.5 -73t-88.5 -206zM289 1434h217l153 -310h-170z" />
    <glyph glyph-name="eacute" unicode="&#xe9;" horiz-adv-x="1142" 
d="M1067 418h-784q12 -124 90.5 -190t199.5 -66q95 0 164.5 43.5t108.5 122.5l182 -74q-57 -133 -179 -207t-278 -74q-220 0 -357.5 146t-137.5 383q0 236 137.5 384t361.5 148q223 0 357.5 -145.5t134.5 -384.5v-86zM285 573h561q-7 135 -79.5 207t-195.5 72
q-122 0 -197.5 -73t-88.5 -206zM489 1124l154 310h215l-199 -310h-170z" />
    <glyph glyph-name="ecircumflex" unicode="&#xea;" horiz-adv-x="1142" 
d="M1067 418h-784q12 -124 90.5 -190t199.5 -66q95 0 164.5 43.5t108.5 122.5l182 -74q-57 -133 -179 -207t-278 -74q-220 0 -357.5 146t-137.5 383q0 236 137.5 384t361.5 148q223 0 357.5 -145.5t134.5 -384.5v-86zM285 573h561q-7 135 -79.5 207t-195.5 72
q-122 0 -197.5 -73t-88.5 -206zM690 1124l-115 189l-114 -189h-178l176 310h190h43l176 -310h-178z" />
    <glyph glyph-name="edieresis" unicode="&#xeb;" horiz-adv-x="1142" 
d="M1067 418h-784q12 -124 90.5 -190t199.5 -66q95 0 164.5 43.5t108.5 122.5l182 -74q-57 -133 -179 -207t-278 -74q-220 0 -357.5 146t-137.5 383q0 236 137.5 384t361.5 148q223 0 357.5 -145.5t134.5 -384.5v-86zM285 573h561q-7 135 -79.5 207t-195.5 72
q-122 0 -197.5 -73t-88.5 -206zM223 1247q0 60 42 101t102 41q57 0 99 -42.5t42 -99.5t-42 -99t-99 -42q-60 0 -102 40.5t-42 100.5zM623 1247q0 58 42 100t101 42q57 0 99 -42.5t42 -99.5t-42 -99t-99 -42q-60 0 -101.5 42t-41.5 99z" />
    <glyph glyph-name="igrave" unicode="&#xec;" horiz-adv-x="448" 
d="M334 1006v-1006h-219v1006h219zM-61 1434h217l153 -310h-170z" />
    <glyph glyph-name="iacute" unicode="&#xed;" horiz-adv-x="448" 
d="M334 1006v-1006h-219v1006h219zM139 1124l154 310h215l-199 -310h-170z" />
    <glyph glyph-name="icircumflex" unicode="&#xee;" horiz-adv-x="448" 
d="M334 1006v-1006h-219v1006h219zM340 1124l-115 189l-114 -189h-179l177 310h190h43l176 -310h-178z" />
    <glyph glyph-name="idieresis" unicode="&#xef;" horiz-adv-x="448" 
d="M334 1006v-1006h-219v1006h219zM-117 1274q0 60 42 100.5t102 40.5q57 0 99 -42t42 -99t-42 -99t-99 -42q-60 0 -102 40.5t-42 100.5zM283 1274q0 58 41.5 99.5t101.5 41.5q57 0 99 -42t42 -99t-42 -99t-99 -42q-60 0 -101.5 41.5t-41.5 99.5z" />
    <glyph glyph-name="eth" unicode="&#xf0;" horiz-adv-x="1312" 
d="M1231 606q0 -294 -162 -463.5t-422 -169.5q-127 0 -234 44t-179 121t-112 181t-40 222t44 221t117.5 174.5t173 112.5t208.5 41q193 0 313 -99q-70 177 -197 295l-145 -125l-100 125l125 109q-47 40 -168 112l114 146q128 -66 207 -133l135 114l107 -121l-123 -102
q159 -150 248 -369q90 -221 90 -436zM1001 535q0 148 -95.5 249t-250.5 101q-158 0 -255 -102.5t-97 -254.5q0 -147 94.5 -248.5t253.5 -101.5q161 0 255.5 103t94.5 254z" />
    <glyph glyph-name="ntilde" unicode="&#xf1;" horiz-adv-x="1187" 
d="M1061 618v-618h-217v575q0 147 -70 205t-162 58q-111 0 -185.5 -72.5t-74.5 -202.5v-563h-217v1006h203l8 -117q43 68 125.5 106.5t185.5 38.5q189 0 296.5 -108t107.5 -308zM266 1223q0 97 53 154t134 57q41 0 76 -12.5t89 -43.5q78 -43 115 -43q75 0 66 90h145
q4 -46 4 -49q0 -98 -53.5 -152.5t-140.5 -54.5q-73 0 -174 58q-41 23 -61 31t-42 8q-64 0 -61 -95l-146 -2q-4 50 -4 54z" />
    <glyph glyph-name="ograve" unicode="&#xf2;" horiz-adv-x="1187" 
d="M594 1034q230 0 374 -149.5t144 -380.5q0 -232 -144 -380.5t-374 -148.5t-374 148.5t-144 380.5q0 231 144 380.5t374 149.5zM594 170q133 0 216 94t83 242q0 147 -83 239.5t-216 92.5q-134 0 -216.5 -92.5t-82.5 -239.5q0 -149 82.5 -242.5t216.5 -93.5zM307 1434h217
l154 -310h-170z" />
    <glyph glyph-name="oacute" unicode="&#xf3;" horiz-adv-x="1187" 
d="M594 1034q230 0 374 -149.5t144 -380.5q0 -232 -144 -380.5t-374 -148.5t-374 148.5t-144 380.5q0 231 144 380.5t374 149.5zM594 170q133 0 216 94t83 242q0 147 -83 239.5t-216 92.5q-134 0 -216.5 -92.5t-82.5 -239.5q0 -149 82.5 -242.5t216.5 -93.5zM508 1124
l154 310h215l-199 -310h-170z" />
    <glyph glyph-name="ocircumflex" unicode="&#xf4;" horiz-adv-x="1187" 
d="M594 1034q230 0 374 -149.5t144 -380.5q0 -232 -144 -380.5t-374 -148.5t-374 148.5t-144 380.5q0 231 144 380.5t374 149.5zM594 170q133 0 216 94t83 242q0 147 -83 239.5t-216 92.5q-134 0 -216.5 -92.5t-82.5 -239.5q0 -149 82.5 -242.5t216.5 -93.5zM709 1124
l-115 189l-115 -189h-178l176 310h191h43l176 -310h-178z" />
    <glyph glyph-name="otilde" unicode="&#xf5;" horiz-adv-x="1187" 
d="M594 1034q230 0 374 -149.5t144 -380.5q0 -232 -144 -380.5t-374 -148.5t-374 148.5t-144 380.5q0 231 144 380.5t374 149.5zM594 170q133 0 216 94t83 242q0 147 -83 239.5t-216 92.5q-134 0 -216.5 -92.5t-82.5 -239.5q0 -149 82.5 -242.5t216.5 -93.5zM252 1223
q0 97 53 154t133 57q41 0 76.5 -12.5t89.5 -43.5q78 -43 115 -43q74 0 65 90h146q4 -46 4 -49q0 -97 -54 -152t-141 -55q-73 0 -174 58q-42 23 -61.5 31t-40.5 8q-65 0 -62 -95l-145 -2q-4 50 -4 54z" />
    <glyph glyph-name="odieresis" unicode="&#xf6;" horiz-adv-x="1187" 
d="M594 1034q230 0 374 -149.5t144 -380.5q0 -232 -144 -380.5t-374 -148.5t-374 148.5t-144 380.5q0 231 144 380.5t374 149.5zM594 170q133 0 216 94t83 242q0 147 -83 239.5t-216 92.5q-134 0 -216.5 -92.5t-82.5 -239.5q0 -149 82.5 -242.5t216.5 -93.5zM252 1274
q0 60 41.5 100.5t101.5 40.5q57 0 99.5 -42t42.5 -99t-42.5 -99t-99.5 -42q-60 0 -101.5 40.5t-41.5 100.5zM651 1274q0 57 42 99t102 42q57 0 99 -42t42 -99t-42 -99t-99 -42q-60 0 -102 42t-42 99z" />
    <glyph glyph-name="divide" unicode="&#xf7;" horiz-adv-x="1116" 
d="M414 1014q0 60 42.5 101.5t102.5 41.5q57 0 100 -43t43 -100t-43 -99.5t-100 -42.5q-60 0 -102.5 42.5t-42.5 99.5zM952 721v-174h-788v174h788zM414 238q0 60 42.5 101.5t102.5 41.5q57 0 100 -43t43 -100t-43 -100.5t-100 -43.5q-59 0 -102 43t-43 101z" />
    <glyph glyph-name="oslash" unicode="&#xf8;" horiz-adv-x="1187" 
d="M1112 504q0 -232 -144 -380.5t-374 -148.5q-107 0 -203 35l-69 -112h-197l123 198q-82 72 -127 178t-45 230q0 231 144 380.5t374 149.5q113 0 213 -41l61 101h191l-115 -187q80 -73 124 -177t44 -226zM362 281l336 540q-56 17 -104 17q-134 0 -216.5 -92.5t-82.5 -239.5
q0 -131 67 -225zM893 506q0 127 -64 215l-329 -537q49 -14 94 -14q133 0 216 94t83 242z" />
    <glyph glyph-name="ugrave" unicode="&#xf9;" 
d="M864 0q-12 49 -18 121q-42 -71 -122.5 -109.5t-184.5 -38.5q-169 0 -289 99q-121 103 -121 325v611h219v-574q0 -149 70 -207q71 -59 166 -59q110 0 184 72.5t74 201.5v564h219v-822q0 -99 18 -184h-215zM309 1434h217l154 -310h-170z" />
    <glyph glyph-name="uacute" unicode="&#xfa;" 
d="M864 0q-12 49 -18 121q-42 -71 -122.5 -109.5t-184.5 -38.5q-169 0 -289 99q-121 103 -121 325v611h219v-574q0 -149 70 -207q71 -59 166 -59q110 0 184 72.5t74 201.5v564h219v-822q0 -99 18 -184h-215zM510 1124l154 310h215l-199 -310h-170z" />
    <glyph glyph-name="ucircumflex" unicode="&#xfb;" 
d="M864 0q-12 49 -18 121q-42 -71 -122.5 -109.5t-184.5 -38.5q-169 0 -289 99q-121 103 -121 325v611h219v-574q0 -149 70 -207q71 -59 166 -59q110 0 184 72.5t74 201.5v564h219v-822q0 -99 18 -184h-215zM709 1124l-115 189l-115 -189h-178l176 310h191h43l176 -310h-178
z" />
    <glyph glyph-name="udieresis" unicode="&#xfc;" 
d="M864 0q-12 49 -18 121q-42 -71 -122.5 -109.5t-184.5 -38.5q-169 0 -289 99q-121 103 -121 325v611h219v-574q0 -149 70 -207q71 -59 166 -59q110 0 184 72.5t74 201.5v564h219v-822q0 -99 18 -184h-215zM252 1274q0 60 41.5 100.5t101.5 40.5q57 0 99.5 -42t42.5 -99
t-42.5 -99t-99.5 -42q-60 0 -101.5 40.5t-41.5 100.5zM651 1274q0 57 42 99t102 42q57 0 99 -42t42 -99t-42 -99t-99 -42q-60 0 -102 42t-42 99z" />
    <glyph glyph-name="yacute" unicode="&#xfd;" horiz-adv-x="1095" 
d="M1071 1006l-471 -1239q-96 -250 -324 -250q-105 0 -219 51l62 196q71 -47 143 -47q107 0 154 121l39 103l-430 1065h229l303 -787l287 787h227zM465 1124l153 310h216l-199 -310h-170z" />
    <glyph glyph-name="thorn" unicode="&#xfe;" horiz-adv-x="1286" 
d="M719 -25q-117 0 -211 42.5t-143 119.5v-592h-215v1944h215v-610q50 74 139.5 115.5t206.5 41.5q227 0 360 -143.5t133 -392.5q0 -241 -134.5 -383t-350.5 -142zM985 504q0 150 -83.5 242t-219.5 92q-139 0 -222 -91t-83 -243t82.5 -242t222.5 -90q137 0 220 90t83 242z
" />
    <glyph glyph-name="ydieresis" unicode="&#xff;" horiz-adv-x="1095" 
d="M1071 1006l-471 -1239q-96 -250 -324 -250q-105 0 -219 51l62 196q71 -47 143 -47q107 0 154 121l39 103l-430 1065h229l303 -787l287 787h227zM209 1274q0 60 41.5 100.5t101.5 40.5q57 0 99.5 -42t42.5 -99t-42.5 -99t-99.5 -42q-60 0 -101.5 40.5t-41.5 100.5z
M608 1274q0 57 42 99t102 42q57 0 99 -42t42 -99t-42 -99t-99 -42q-60 0 -102 42t-42 99z" />
    <glyph glyph-name="Amacron" unicode="&#x100;" horiz-adv-x="1372" 
d="M981 358h-594l-129 -358h-233l538 1489h228h16l541 -1489h-240zM915 551l-229 649l-231 -649h460zM991 1772v-150h-610v150h610z" />
    <glyph glyph-name="amacron" unicode="&#x101;" horiz-adv-x="1081" 
d="M774 0q-11 48 -16 125q-44 -69 -129 -110.5t-193 -41.5q-165 0 -264.5 87.5t-99.5 236.5q0 147 99 231t267 84h316v39q0 103 -60 154t-166 51q-187 0 -264 -151l-160 92q60 119 172 178t263 59q185 0 307 -96q121 -95 121 -311v-412q0 -165 18 -215h-211zM754 459h-267
q-93 0 -143.5 -42t-50.5 -118q0 -77 51.5 -117.5t144.5 -40.5q117 0 191 76t74 217v25zM844 1300v-149h-611v149h611z" />
    <glyph glyph-name="Abreve" unicode="&#x102;" horiz-adv-x="1372" 
d="M981 358h-594l-129 -358h-233l538 1489h228h16l541 -1489h-240zM915 551l-229 649l-231 -649h460zM688 1595q-137 0 -231.5 89.5t-94.5 218.5h173q1 -62 43.5 -100t109.5 -38t110 38t44 100h170q0 -128 -94.5 -218t-229.5 -90z" />
    <glyph glyph-name="abreve" unicode="&#x103;" horiz-adv-x="1081" 
d="M774 0q-11 48 -16 125q-44 -69 -129 -110.5t-193 -41.5q-165 0 -264.5 87.5t-99.5 236.5q0 147 99 231t267 84h316v39q0 103 -60 154t-166 51q-187 0 -264 -151l-160 92q60 119 172 178t263 59q185 0 307 -96q121 -95 121 -311v-412q0 -165 18 -215h-211zM754 459h-267
q-93 0 -143.5 -42t-50.5 -118q0 -77 51.5 -117.5t144.5 -40.5q117 0 191 76t74 217v25zM541 1124q-137 0 -231.5 89.5t-94.5 218.5h172q1 -62 44 -100t110 -38t109.5 38t43.5 100h170q0 -128 -94 -218t-229 -90z" />
    <glyph glyph-name="Aogonek" unicode="&#x104;" horiz-adv-x="1372" 
d="M981 358h-594l-129 -358h-233l538 1489h228h16l541 -1489h-240zM915 551l-229 649l-231 -649h460zM1356 0q-65 -25 -99 -64t-34 -79q0 -31 21 -51.5t56 -20.5q29 0 48 8v-151q-53 -17 -99 -17q-84 0 -134 50t-50 126q0 63 40 116.5t112 82.5h139z" />
    <glyph glyph-name="aogonek" unicode="&#x105;" horiz-adv-x="1081" 
d="M852 -143q0 -31 21.5 -51.5t56.5 -20.5q28 0 47 8v-151q-53 -17 -98 -17q-84 0 -134.5 50t-50.5 126q0 63 40 116.5t112 82.5h-72q-11 48 -16 125q-44 -69 -129 -110.5t-193 -41.5q-165 0 -264.5 87.5t-99.5 236.5q0 147 99 231t267 84h316v39q0 103 -60 154t-166 51
q-187 0 -264 -151l-160 92q60 119 172 178t263 59q185 0 307 -96q121 -95 121 -311v-412q0 -165 18 -215q-65 -25 -99 -64t-34 -79zM754 459h-267q-93 0 -143.5 -42t-50.5 -118q0 -77 51.5 -117.5t144.5 -40.5q117 0 191 76t74 217v25z" />
    <glyph glyph-name="Cacute" unicode="&#x106;" horiz-adv-x="1521" 
d="M1210 1006q-43 135 -151 210.5t-256 75.5q-216 0 -347.5 -151t-131.5 -398q0 -248 131.5 -395t345.5 -147q152 0 267.5 73t158.5 195l215 -92q-74 -188 -248 -295t-395 -107q-155 -2 -289 54t-227.5 156.5t-146 244.5t-50.5 311q0 228 90 403.5t252.5 272t372.5 96.5
q236 0 403 -118t223 -314zM721 1595l153 310h216l-199 -310h-170z" />
    <glyph glyph-name="cacute" unicode="&#x107;" horiz-adv-x="1124" 
d="M588 1034q169 0 293 -82.5t168 -222.5l-189 -76q-29 86 -102.5 135.5t-167.5 49.5q-135 0 -215 -91t-80 -243q0 -153 80 -242.5t215 -89.5q95 0 168.5 48t103.5 132l187 -71q-51 -142 -176.5 -225t-286.5 -83q-229 0 -369.5 147t-140.5 384q0 239 141 384.5t371 145.5z
M481 1124l154 310h215l-199 -310h-170z" />
    <glyph glyph-name="Ccircumflex" unicode="&#x108;" horiz-adv-x="1521" 
d="M1210 1006q-43 135 -151 210.5t-256 75.5q-216 0 -347.5 -151t-131.5 -398q0 -248 131.5 -395t345.5 -147q152 0 267.5 73t158.5 195l215 -92q-74 -188 -248 -295t-395 -107q-155 -2 -289 54t-227.5 156.5t-146 244.5t-50.5 311q0 228 90 403.5t252.5 272t372.5 96.5
q236 0 403 -118t223 -314zM922 1595l-115 189l-115 -189h-178l176 310h191h43l176 -310h-178z" />
    <glyph glyph-name="ccircumflex" unicode="&#x109;" horiz-adv-x="1124" 
d="M588 1034q169 0 293 -82.5t168 -222.5l-189 -76q-29 86 -102.5 135.5t-167.5 49.5q-135 0 -215 -91t-80 -243q0 -153 80 -242.5t215 -89.5q95 0 168.5 48t103.5 132l187 -71q-51 -142 -176.5 -225t-286.5 -83q-229 0 -369.5 147t-140.5 384q0 239 141 384.5t371 145.5z
M682 1124l-115 189l-114 -189h-179l177 310h190h43l176 -310h-178z" />
    <glyph glyph-name="Cdotaccent" unicode="&#x10a;" horiz-adv-x="1521" 
d="M1210 1006q-43 135 -151 210.5t-256 75.5q-216 0 -347.5 -151t-131.5 -398q0 -248 131.5 -395t345.5 -147q152 0 267.5 73t158.5 195l215 -92q-74 -188 -248 -295t-395 -107q-155 -2 -289 54t-227.5 156.5t-146 244.5t-50.5 311q0 228 90 403.5t252.5 272t372.5 96.5
q236 0 403 -118t223 -314zM666 1745q0 59 42 101t99 42t99 -43t42 -100t-42 -98t-99 -41q-59 0 -100 41t-41 98z" />
    <glyph glyph-name="cdotaccent" unicode="&#x10b;" horiz-adv-x="1124" 
d="M588 1034q169 0 293 -82.5t168 -222.5l-189 -76q-29 86 -102.5 135.5t-167.5 49.5q-135 0 -215 -91t-80 -243q0 -153 80 -242.5t215 -89.5q95 0 168.5 48t103.5 132l187 -71q-51 -142 -176.5 -225t-286.5 -83q-229 0 -369.5 147t-140.5 384q0 239 141 384.5t371 145.5z
M426 1274q0 60 42 101.5t99 41.5t99.5 -43t42.5 -100t-42.5 -98t-99.5 -41q-59 0 -100 40.5t-41 98.5z" />
    <glyph glyph-name="Ccaron" unicode="&#x10c;" horiz-adv-x="1521" 
d="M1210 1006q-43 135 -151 210.5t-256 75.5q-216 0 -347.5 -151t-131.5 -398q0 -248 131.5 -395t345.5 -147q152 0 267.5 73t158.5 195l215 -92q-74 -188 -248 -295t-395 -107q-155 -2 -289 54t-227.5 156.5t-146 244.5t-50.5 311q0 228 90 403.5t252.5 272t372.5 96.5
q236 0 403 -118t223 -314zM1100 1905l-176 -310h-191h-43l-176 310h178l115 -189l113 189h180z" />
    <glyph glyph-name="ccaron" unicode="&#x10d;" horiz-adv-x="1124" 
d="M588 1034q169 0 293 -82.5t168 -222.5l-189 -76q-29 86 -102.5 135.5t-167.5 49.5q-135 0 -215 -91t-80 -243q0 -153 80 -242.5t215 -89.5q95 0 168.5 48t103.5 132l187 -71q-51 -142 -176.5 -225t-286.5 -83q-229 0 -369.5 147t-140.5 384q0 239 141 384.5t371 145.5z
M860 1434l-176 -310h-190h-43l-177 310h179l114 -189l113 189h180z" />
    <glyph glyph-name="Dcaron" unicode="&#x10e;" horiz-adv-x="1503" 
d="M1417 743q1 -160 -55.5 -300t-156 -238t-239 -153t-298.5 -52h-496v1489h496q210 3 382.5 -93t270.5 -268t96 -385zM1176 743q0 236 -140.5 383.5t-369.5 147.5h-265v-1063h265q231 0 370.5 146.5t139.5 385.5zM895 1905l-176 -310h-191h-43l-176 310h178l115 -189
l113 189h180z" />
    <glyph glyph-name="dcaron" unicode="&#x10f;" horiz-adv-x="1499" 
d="M1425 1425l-36 -366h-107l-35 366q-4 46 23 74.5t67 28.5q42 0 68 -28.5t20 -74.5zM1128 248q6 -197 19 -248h-217q-14 64 -17 145q-51 -81 -144 -126.5t-206 -45.5q-222 0 -356.5 142t-134.5 389q0 235 137 382.5t354 147.5q114 0 206 -39.5t142 -115.5v637h217v-1268z
M901 508q0 149 -84 239.5t-221 90.5t-220 -90.5t-83 -239.5q0 -152 83 -244t220 -92t221 92t84 244z" />
    <glyph glyph-name="Dcroat" unicode="&#x110;" horiz-adv-x="1521" 
d="M1417 743q1 -160 -55.5 -300t-156 -238t-239 -153t-298.5 -52h-496v649h-143v191h143v649h496q210 3 382.5 -93t270.5 -268t96 -385zM1176 743q0 236 -140.5 383.5t-369.5 147.5h-265v-434h199v-191h-199v-438h265q231 0 370.5 146.5t139.5 385.5z" />
    <glyph glyph-name="dslash" unicode="&#x111;" horiz-adv-x="1275" 
d="M1130 1155v-907q6 -197 19 -248h-217q-11 72 -14 147q-50 -83 -143.5 -128.5t-207.5 -45.5q-222 0 -356.5 142t-134.5 389q0 235 138 382.5t359 147.5q106 0 197.5 -41.5t144.5 -118.5v281h-354v178h354v183h215v-183h140v-178h-140zM903 506q0 149 -83.5 240.5
t-219.5 91.5q-137 0 -221 -91.5t-84 -240.5q0 -152 84 -243t221 -91t220 91t83 243z" />
    <glyph glyph-name="Emacron" unicode="&#x112;" 
d="M1087 215v-215h-915v1489h915v-217h-688v-422h619v-201h-619v-434h688zM930 1772v-150h-611v150h611z" />
    <glyph glyph-name="emacron" unicode="&#x113;" horiz-adv-x="1142" 
d="M1067 418h-784q12 -124 90.5 -190t199.5 -66q95 0 164.5 43.5t108.5 122.5l182 -74q-57 -133 -179 -207t-278 -74q-220 0 -357.5 146t-137.5 383q0 236 137.5 384t361.5 148q223 0 357.5 -145.5t134.5 -384.5v-86zM285 573h561q-7 135 -79.5 207t-195.5 72
q-122 0 -197.5 -73t-88.5 -206zM881 1300v-149h-611v149h611z" />
    <glyph glyph-name="Ebreve" unicode="&#x114;" 
d="M1087 215v-215h-915v1489h915v-217h-688v-422h619v-201h-619v-434h688zM948 1907q0 -129 -94 -220.5t-229 -91.5q-137 0 -231.5 91t-94.5 221h172q0 -65 43 -103.5t111 -38.5t110.5 38.5t42.5 103.5h170z" />
    <glyph glyph-name="ebreve" unicode="&#x115;" horiz-adv-x="1142" 
d="M1067 418h-784q12 -124 90.5 -190t199.5 -66q95 0 164.5 43.5t108.5 122.5l182 -74q-57 -133 -179 -207t-278 -74q-220 0 -357.5 146t-137.5 383q0 236 137.5 384t361.5 148q223 0 357.5 -145.5t134.5 -384.5v-86zM285 573h561q-7 135 -79.5 207t-195.5 72
q-122 0 -197.5 -73t-88.5 -206zM899 1436q0 -129 -94.5 -220.5t-229.5 -91.5q-137 0 -231 91t-94 221h172q0 -65 42.5 -103.5t110.5 -38.5t111 38.5t43 103.5h170z" />
    <glyph glyph-name="Edotaccent" unicode="&#x116;" 
d="M1087 215v-215h-915v1489h915v-217h-688v-422h619v-201h-619v-434h688zM483 1745q0 59 42 101t100 42q57 0 99 -43t42 -100t-42 -98t-99 -41q-60 0 -101 41t-41 98z" />
    <glyph glyph-name="edotaccent" unicode="&#x117;" horiz-adv-x="1142" 
d="M1067 418h-784q12 -124 90.5 -190t199.5 -66q95 0 164.5 43.5t108.5 122.5l182 -74q-57 -133 -179 -207t-278 -74q-220 0 -357.5 146t-137.5 383q0 236 137.5 384t361.5 148q223 0 357.5 -145.5t134.5 -384.5v-86zM285 573h561q-7 135 -79.5 207t-195.5 72
q-122 0 -197.5 -73t-88.5 -206zM434 1274q0 60 42 101.5t99 41.5t99.5 -43t42.5 -100t-42.5 -98t-99.5 -41q-59 0 -100 40.5t-41 98.5z" />
    <glyph glyph-name="Eogonek" unicode="&#x118;" 
d="M1087 215v-215h-915v1489h915v-217h-688v-422h619v-201h-619v-434h688zM1085 0q-65 -25 -99 -64t-34 -79q0 -31 21.5 -51.5t56.5 -20.5q28 0 47 8v-151q-53 -17 -98 -17q-84 0 -134 50t-50 126q0 63 39.5 116.5t111.5 82.5h139z" />
    <glyph glyph-name="eogonek" unicode="&#x119;" horiz-adv-x="1142" 
d="M1067 418h-784q12 -124 90.5 -190t199.5 -66q95 0 164.5 43.5t108.5 122.5l182 -74q-49 -112 -145 -182.5t-221 -89.5q-54 -25 -81.5 -60t-27.5 -72q0 -32 21.5 -52.5t56.5 -20.5q28 0 47 8v-152q-50 -16 -98 -16q-84 0 -134.5 50t-50.5 126q0 57 30.5 105.5t88.5 78.5
q-199 19 -318.5 161.5t-119.5 363.5q0 236 137.5 384t361.5 148q223 0 357.5 -145.5t134.5 -384.5v-86zM285 573h561q-7 135 -79.5 207t-195.5 72q-122 0 -197.5 -73t-88.5 -206z" />
    <glyph glyph-name="Ecaron" unicode="&#x11a;" 
d="M1087 215v-215h-915v1489h915v-217h-688v-422h619v-201h-619v-434h688zM918 1905l-177 -310h-190h-43l-176 310h178l115 -189l112 189h181z" />
    <glyph glyph-name="ecaron" unicode="&#x11b;" horiz-adv-x="1142" 
d="M1067 418h-784q12 -124 90.5 -190t199.5 -66q95 0 164.5 43.5t108.5 122.5l182 -74q-57 -133 -179 -207t-278 -74q-220 0 -357.5 146t-137.5 383q0 236 137.5 384t361.5 148q223 0 357.5 -145.5t134.5 -384.5v-86zM285 573h561q-7 135 -79.5 207t-195.5 72
q-122 0 -197.5 -73t-88.5 -206zM868 1434l-176 -310h-190h-43l-176 310h178l114 -189l113 189h180z" />
    <glyph glyph-name="Gcircumflex" unicode="&#x11c;" horiz-adv-x="1581" 
d="M1462 842v-842h-198l-11 180q-68 -96 -195 -149.5t-278 -53.5q-203 0 -361.5 97.5t-245.5 271t-87 393.5q0 225 90 401.5t256 276t381 99.5q230 0 398 -109t235 -295l-205 -84q-50 133 -162 202.5t-264 69.5q-227 0 -362.5 -155t-135.5 -410q0 -252 133.5 -398.5
t348.5 -146.5q162 0 295 80q134 82 155 277v94h-477v201h690zM885 1597l-115 189l-115 -189h-178l176 310h191h43l176 -310h-178z" />
    <glyph glyph-name="gcircumflex" unicode="&#x11d;" horiz-adv-x="1118" 
d="M436 1161h-178l176 281h191h43l176 -281h-180l-113 170zM1079 -180q0 -174 -153 -244q-151 -74 -389 -74q-496 0 -496 262q0 72 37.5 128.5t103.5 82.5q-98 61 -98 179q0 64 35.5 120t105.5 84q-119 106 -119 277q0 177 125 288t324 111q137 0 236 -51q36 64 99 100.5
t146 36.5q27 0 35 -2v-180q-8 2 -35 2q-82 0 -129 -47q92 -103 92 -256q0 -175 -122.5 -286t-319.5 -111q-105 0 -192 34q-47 -2 -74 -24t-27 -60q0 -33 27.5 -55t81.5 -22h360q164 0 255 -78t91 -215zM317 637q0 -99 65.5 -161t170.5 -62q107 1 171 63t64 156
q0 98 -65.5 162.5t-169.5 64.5q-105 0 -170.5 -62.5t-65.5 -160.5zM868 -182q0 58 -45 87t-123 29h-352h-26q-45 -12 -69 -43t-24 -71q0 -77 78 -105t244 -28q165 0 241 28t76 103z" />
    <glyph glyph-name="Gbreve" unicode="&#x11e;" horiz-adv-x="1581" 
d="M1462 842v-842h-198l-11 180q-68 -96 -195 -149.5t-278 -53.5q-203 0 -361.5 97.5t-245.5 271t-87 393.5q0 225 90 401.5t256 276t381 99.5q230 0 398 -109t235 -295l-205 -84q-50 133 -162 202.5t-264 69.5q-227 0 -362.5 -155t-135.5 -410q0 -252 133.5 -398.5
t348.5 -146.5q162 0 295 80q134 82 155 277v94h-477v201h690zM1096 1909q0 -129 -94.5 -220.5t-229.5 -91.5q-137 0 -231.5 91t-94.5 221h172q0 -65 43 -103.5t111 -38.5t111 38.5t43 103.5h170z" />
    <glyph glyph-name="gbreve" unicode="&#x11f;" horiz-adv-x="1118" 
d="M1079 -180q0 -174 -153 -244q-151 -74 -389 -74q-496 0 -496 262q0 72 37.5 128.5t103.5 82.5q-98 61 -98 179q0 64 35.5 120t105.5 84q-119 106 -119 277q0 177 125 288t324 111q137 0 236 -51q36 64 99 100.5t146 36.5q27 0 35 -2v-180q-8 2 -35 2q-82 0 -129 -47
q92 -103 92 -256q0 -175 -122.5 -286t-319.5 -111q-105 0 -192 34q-47 -2 -74 -24t-27 -60q0 -33 27.5 -55t81.5 -22h360q164 0 255 -78t91 -215zM317 637q0 -99 65.5 -161t170.5 -62q107 1 171 63t64 156q0 98 -65.5 162.5t-169.5 64.5q-105 0 -170.5 -62.5t-65.5 -160.5z
M868 -182q0 58 -45 87t-123 29h-352h-26q-45 -12 -69 -43t-24 -71q0 -77 78 -105t244 -28q165 0 241 28t76 103zM893 1436q0 -129 -94.5 -220.5t-229.5 -91.5q-137 0 -231 91t-94 221h172q0 -65 42.5 -103.5t110.5 -38.5t111 38.5t43 103.5h170z" />
    <glyph glyph-name="Gdotaccent" unicode="&#x120;" horiz-adv-x="1581" 
d="M1462 842v-842h-198l-11 180q-68 -96 -195 -149.5t-278 -53.5q-203 0 -361.5 97.5t-245.5 271t-87 393.5q0 225 90 401.5t256 276t381 99.5q230 0 398 -109t235 -295l-205 -84q-50 133 -162 202.5t-264 69.5q-227 0 -362.5 -155t-135.5 -410q0 -252 133.5 -398.5
t348.5 -146.5q162 0 295 80q134 82 155 277v94h-477v201h690zM629 1747q0 59 41.5 101t99.5 42q57 0 99 -43t42 -100t-42 -98t-99 -41q-60 0 -100.5 41t-40.5 98z" />
    <glyph glyph-name="gdotaccent" unicode="&#x121;" horiz-adv-x="1118" 
d="M1079 -180q0 -174 -153 -244q-151 -74 -389 -74q-496 0 -496 262q0 72 37.5 128.5t103.5 82.5q-98 61 -98 179q0 64 35.5 120t105.5 84q-119 106 -119 277q0 177 125 288t324 111q137 0 236 -51q36 64 99 100.5t146 36.5q27 0 35 -2v-180q-8 2 -35 2q-82 0 -129 -47
q92 -103 92 -256q0 -175 -122.5 -286t-319.5 -111q-105 0 -192 34q-47 -2 -74 -24t-27 -60q0 -33 27.5 -55t81.5 -22h360q164 0 255 -78t91 -215zM317 637q0 -99 65.5 -161t170.5 -62q107 1 171 63t64 156q0 98 -65.5 162.5t-169.5 64.5q-105 0 -170.5 -62.5t-65.5 -160.5z
M868 -182q0 58 -45 87t-123 29h-352h-26q-45 -12 -69 -43t-24 -71q0 -77 78 -105t244 -28q165 0 241 28t76 103zM428 1274q0 60 42 101.5t99 41.5t99.5 -43t42.5 -100t-42.5 -98t-99.5 -41q-59 0 -100 40.5t-41 98.5z" />
    <glyph glyph-name="Gcommaaccent" unicode="&#x122;" horiz-adv-x="1581" 
d="M1462 842v-842h-198l-11 180q-68 -96 -195 -149.5t-278 -53.5q-203 0 -361.5 97.5t-245.5 271t-87 393.5q0 225 90 401.5t256 276t381 99.5q230 0 398 -109t235 -295l-205 -84q-50 133 -162 202.5t-264 69.5q-227 0 -362.5 -155t-135.5 -410q0 -252 133.5 -398.5
t348.5 -146.5q162 0 295 80q134 82 155 277v94h-477v201h690zM967 -246q0 -95 -62 -160t-141 -65v61q42 1 72 32t30 69q-21 -8 -41 -8q-44 0 -72 29t-28 79q0 51 33 83t84 32q56 0 90.5 -39.5t34.5 -112.5z" />
    <glyph glyph-name="gcommaaccent" unicode="&#x123;" horiz-adv-x="1118" 
d="M1079 -180q0 -174 -153 -244q-151 -74 -389 -74q-496 0 -496 262q0 72 37.5 128.5t103.5 82.5q-98 61 -98 179q0 64 35.5 120t105.5 84q-119 106 -119 277q0 177 125 288t324 111q137 0 236 -51q36 64 99 100.5t146 36.5q27 0 35 -2v-180q-8 2 -35 2q-82 0 -129 -47
q92 -103 92 -256q0 -175 -122.5 -286t-319.5 -111q-105 0 -192 34q-47 -2 -74 -24t-27 -60q0 -33 27.5 -55t81.5 -22h360q164 0 255 -78t91 -215zM317 637q0 -99 65.5 -161t170.5 -62q107 1 171 63t64 156q0 98 -65.5 162.5t-169.5 64.5q-105 0 -170.5 -62.5t-65.5 -160.5z
M868 -182q0 58 -45 87t-123 29h-352h-26q-45 -12 -69 -43t-24 -71q0 -77 78 -105t244 -28q165 0 241 28t76 103zM483 1124l154 310h215l-199 -310h-170z" />
    <glyph glyph-name="Hbar" unicode="&#x126;" horiz-adv-x="1490" 
d="M1477 1116h-156v-1116h-229v651l-691 2v-653h-229v1116h-168v197h168v176h229v-176h691v176h229v-176h156v-197zM1092 1116h-691v-260l691 -2v262z" />
    <glyph glyph-name="hbar" unicode="&#x127;" horiz-adv-x="1200" 
d="M1075 608v-608h-217v561q0 147 -65 212t-177 65q-107 0 -185.5 -74.5t-78.5 -208.5v-555h-217v1186h-115v129h115v201h217v-201h338v-129h-338v-295q48 66 129.5 104.5t177.5 38.5q198 0 307 -109t109 -317z" />
    <glyph glyph-name="Itilde" unicode="&#x128;" horiz-adv-x="573" 
d="M172 0v1489h229v-1489h-229zM-55 1694q0 97 53 154t133 57q41 0 76.5 -12.5t89.5 -43.5q78 -43 115 -43q74 0 65 90h146q4 -46 4 -49q0 -97 -54 -152t-141 -55q-73 0 -174 58q-42 23 -61.5 31t-40.5 8q-65 0 -62 -95l-145 -2q-4 50 -4 54z" />
    <glyph glyph-name="itilde" unicode="&#x129;" horiz-adv-x="448" 
d="M334 1006v-1006h-219v1006h219zM-117 1223q0 97 53 154t134 57q41 0 76.5 -12.5t89.5 -43.5q78 -43 114 -43q75 0 66 90h145q4 -46 4 -49q0 -98 -53.5 -152.5t-140.5 -54.5q-73 0 -174 58q-41 23 -61 31t-42 8q-64 0 -61 -95l-146 -2q-4 50 -4 54z" />
    <glyph glyph-name="Imacron" unicode="&#x12a;" horiz-adv-x="573" 
d="M172 0v1489h229v-1489h-229zM592 1772v-150h-610v150h610z" />
    <glyph glyph-name="imacron" unicode="&#x12b;" horiz-adv-x="448" 
d="M334 1006v-1006h-219v1006h219zM530 1300v-149h-610v149h610z" />
    <glyph glyph-name="Iogonek" unicode="&#x12e;" horiz-adv-x="573" 
d="M172 0v1489h229v-1489h-229zM401 0q-65 -25 -99 -64t-34 -79q0 -31 21.5 -51.5t56.5 -20.5q28 0 47 8v-151q-53 -17 -98 -17q-84 0 -134 50t-50 126q0 63 39.5 116.5t111.5 82.5h139z" />
    <glyph glyph-name="iogonek" unicode="&#x12f;" horiz-adv-x="448" 
d="M334 1006v-1006h-219v1006h219zM334 0q-65 -25 -99 -64t-34 -79q0 -31 21.5 -51.5t56.5 -20.5q28 0 47 8v-151q-53 -17 -99 -17q-84 0 -134 50t-50 126q0 63 40 116.5t112 82.5h139zM84 1274q0 60 42 101.5t99 41.5t99.5 -43t42.5 -100t-42.5 -98t-99.5 -41
q-59 0 -100 40.5t-41 98.5z" />
    <glyph glyph-name="Idot" unicode="&#x130;" horiz-adv-x="573" 
d="M172 0v1489h229v-1489h-229zM145 1745q0 59 42 101t100 42q57 0 99 -43t42 -100t-42 -98t-99 -41q-60 0 -101 41t-41 98z" />
    <glyph glyph-name="dotlessi" unicode="&#x131;" horiz-adv-x="448" 
d="M334 1006v-1006h-219v1006h219z" />
    <glyph glyph-name="Jcircumflex" unicode="&#x134;" horiz-adv-x="1105" 
d="M948 1489v-1077q0 -192 -125 -315.5t-329 -123.5q-214 0 -331.5 119.5t-117.5 323.5v49h219v-49q0 -113 62.5 -171.5t160.5 -58.5q107 0 170.5 59.5t63.5 176.5v1067h227zM948 1597l-114 189l-115 -189h-178l176 310h190h43l176 -310h-178z" />
    <glyph glyph-name="jcircumflex" unicode="&#x135;" horiz-adv-x="530" 
d="M-63 -264q66 -17 98 -17q69 0 107 41t38 119v1127h223v-1156q0 -155 -86 -244t-239 -89q-86 0 -184 28zM406 1124l-115 189l-115 -189h-178l176 310h191h43l176 -310h-178z" />
    <glyph glyph-name="Kcommaaccent" unicode="&#x136;" horiz-adv-x="1359" 
d="M768 782l547 -782h-293l-397 602l-224 -278v-328h-229v1493h229v-811l637 811h293zM838 -217q0 -95 -62 -160t-141 -65v61q42 1 72 31.5t30 68.5q-21 -8 -41 -8q-44 0 -72 29.5t-28 79.5q0 51 33 82.5t84 31.5q56 0 90.5 -39t34.5 -112z" />
    <glyph glyph-name="kcommaaccent" unicode="&#x137;" horiz-adv-x="1067" 
d="M135 0v1516h217v-949l422 439h273l-431 -451l412 -555h-262l-295 403l-119 -124v-279h-217zM666 -217q0 -95 -62 -160t-141 -65v61q42 1 72 31.5t30 68.5q-21 -8 -41 -8q-44 0 -72 29.5t-28 79.5q0 51 33 82.5t84 31.5q56 0 90.5 -39t34.5 -112z" />
    <glyph glyph-name="Lacute" unicode="&#x139;" horiz-adv-x="1060" 
d="M1004 205v-205h-795h-37v1489h231v-1284h601zM203 1573l153 309h215l-198 -309h-170z" />
    <glyph glyph-name="lacute" unicode="&#x13a;" horiz-adv-x="481" 
d="M135 1516h217v-1516h-217v1516zM158 1591l153 310h215l-198 -310h-170z" />
    <glyph glyph-name="Lcommaaccent" unicode="&#x13b;" horiz-adv-x="1060" 
d="M1004 205v-205h-795h-37v1489h231v-1284h601zM735 -217q0 -96 -61 -160q-62 -65 -142 -65v61q42 1 72.5 32t30.5 68q-21 -8 -41 -8q-44 0 -72 29.5t-28 79.5q0 51 32.5 82.5t83.5 31.5q56 0 90.5 -39t34.5 -112z" />
    <glyph glyph-name="lcommaaccent" unicode="&#x13c;" horiz-adv-x="481" 
d="M135 1516h217v-1516h-217v1516zM369 -236q0 -94 -62 -159q-63 -66 -141 -66v62q42 1 72 31.5t30 68.5q-21 -8 -41 -8q-44 0 -72 29t-28 79q0 51 33 83t84 32q56 0 90.5 -39.5t34.5 -112.5z" />
    <glyph glyph-name="Lcaron" unicode="&#x13d;" horiz-adv-x="1060" 
d="M1004 205v-205h-795h-37v1489h231v-1284h601zM848 1358q0 -95 -62 -160t-141 -65v61q42 1 72.5 31.5t30.5 68.5q-21 -8 -41 -8q-44 0 -72.5 29.5t-28.5 79.5q0 51 33 82.5t84 31.5q56 0 90.5 -39t34.5 -112z" />
    <glyph glyph-name="lcaron" unicode="&#x13e;" horiz-adv-x="481" 
d="M135 1516h217v-1516h-217v1516z" />
    <glyph glyph-name="Ldot" unicode="&#x13f;" horiz-adv-x="1060" 
d="M1004 205v-205h-795h-37v1489h231v-1284h601zM569 774q0 67 48 114.5t114 47.5t114 -48t48 -114q0 -63 -48 -110.5t-114 -47.5t-114 47.5t-48 110.5z" />
    <glyph glyph-name="ldot" unicode="&#x140;" horiz-adv-x="874" 
d="M135 1516h217v-1516h-217v1516zM477 768q0 69 49.5 118.5t118.5 49.5q67 0 116.5 -50t49.5 -118q0 -66 -49.5 -115t-116.5 -49q-69 0 -118.5 49t-49.5 115z" />
    <glyph glyph-name="Lslash" unicode="&#x141;" horiz-adv-x="1056" 
d="M1004 205v-205h-795h-37v666l-139 -68v188l139 68v635h231v-524l320 151v-188l-320 -152v-571h601z" />
    <glyph glyph-name="lslash" unicode="&#x142;" horiz-adv-x="532" 
d="M492 842l-113 -54v-788h-217v686l-121 -59v159l121 60v670h217v-568l113 53v-159z" />
    <glyph glyph-name="Nacute" unicode="&#x143;" horiz-adv-x="1529" 
d="M1360 1489v-1489h-227l-734 1122v-1122h-227v1489h227l734 -1124v1124h227zM686 1595l154 310h215l-199 -310h-170z" />
    <glyph glyph-name="nacute" unicode="&#x144;" horiz-adv-x="1187" 
d="M1061 618v-618h-217v575q0 147 -70 205t-162 58q-111 0 -185.5 -72.5t-74.5 -202.5v-563h-217v1006h203l8 -117q43 68 125.5 106.5t185.5 38.5q189 0 296.5 -108t107.5 -308zM522 1124l154 310h215l-199 -310h-170z" />
    <glyph glyph-name="Ncommaaccent" unicode="&#x145;" horiz-adv-x="1529" 
d="M1360 1489v-1489h-227l-734 1122v-1122h-227v1489h227l734 -1124v1124h227zM901 -217q0 -96 -61 -160q-62 -65 -142 -65v61q42 1 72.5 32t30.5 68q-21 -8 -41 -8q-44 0 -72.5 29.5t-28.5 79.5q0 51 33 82.5t84 31.5q56 0 90.5 -39t34.5 -112z" />
    <glyph glyph-name="ncommaaccent" unicode="&#x146;" horiz-adv-x="1187" 
d="M1061 618v-618h-217v575q0 147 -70 205t-162 58q-111 0 -185.5 -72.5t-74.5 -202.5v-563h-217v1006h203l8 -117q43 68 125.5 106.5t185.5 38.5q189 0 296.5 -108t107.5 -308zM723 -217q0 -96 -61 -160q-62 -65 -142 -65v61q42 1 72.5 32t30.5 68q-21 -8 -41 -8
q-44 0 -72.5 29.5t-28.5 79.5q0 51 33 82.5t84 31.5q56 0 90.5 -39t34.5 -112z" />
    <glyph glyph-name="Ncaron" unicode="&#x147;" horiz-adv-x="1529" 
d="M1360 1489v-1489h-227l-734 1122v-1122h-227v1489h227l734 -1124v1124h227zM1065 1905l-176 -310h-191h-43l-176 310h178l115 -189l113 189h180z" />
    <glyph glyph-name="ncaron" unicode="&#x148;" horiz-adv-x="1187" 
d="M1061 618v-618h-217v575q0 147 -70 205t-162 58q-111 0 -185.5 -72.5t-74.5 -202.5v-563h-217v1006h203l8 -117q43 68 125.5 106.5t185.5 38.5q189 0 296.5 -108t107.5 -308zM901 1434l-176 -310h-190h-43l-177 310h179l114 -189l113 189h180z" />
    <glyph glyph-name="Eng" unicode="&#x14a;" horiz-adv-x="1509" 
d="M168 1489h225l725 -1114v1114h225v-1608q0 -153 -94 -229q-93 -78 -221 -78q-48 0 -94 12l2 181q32 -7 57 -7q67 0 106.5 38.5t39.5 119.5v82h-21l-725 1112v-1112h-225v1489z" />
    <glyph glyph-name="eng" unicode="&#x14b;" horiz-adv-x="1208" 
d="M1075 614v-694q0 -141 -78.5 -217t-197.5 -76q-56 0 -105 19v164q28 -7 49 -7q56 0 87.5 30t31.5 89v653q0 146 -71 205q-70 58 -166 58q-114 0 -188.5 -72.5t-74.5 -202.5v-563h-212v1006h198l8 -119q44 69 127.5 107t186.5 38q164 0 286 -96q119 -94 119 -322z" />
    <glyph glyph-name="Omacron" unicode="&#x14c;" horiz-adv-x="1597" 
d="M797 1513q-155 2 -289.5 -56.5t-229 -161t-147.5 -246t-51 -306.5q-2 -163 51 -306t147.5 -245.5t229 -160.5t289.5 -56q155 -2 290 56t229.5 160t148 246t51.5 308q2 163 -51.5 306t-148 245.5t-229.5 160.5t-290 56zM799 199q-217 0 -348.5 149.5t-131.5 396.5
t131.5 397t348.5 150t348 -149.5t131 -397.5q0 -247 -131 -396.5t-348 -149.5zM1104 1772v-150h-610v150h610z" />
    <glyph glyph-name="omacron" unicode="&#x14d;" horiz-adv-x="1187" 
d="M594 1034q230 0 374 -149.5t144 -380.5q0 -232 -144 -380.5t-374 -148.5t-374 148.5t-144 380.5q0 231 144 380.5t374 149.5zM594 170q133 0 216 94t83 242q0 147 -83 239.5t-216 92.5q-134 0 -216.5 -92.5t-82.5 -239.5q0 -149 82.5 -242.5t216.5 -93.5zM899 1300v-149
h-610v149h610z" />
    <glyph glyph-name="Ohungarumlaut" unicode="&#x150;" horiz-adv-x="1597" 
d="M797 1513q-155 2 -289.5 -56.5t-229 -161t-147.5 -246t-51 -306.5q-2 -163 51 -306t147.5 -245.5t229 -160.5t289.5 -56q155 -2 290 56t229.5 160t148 246t51.5 308q2 163 -51.5 306t-148 245.5t-229.5 160.5t-290 56zM799 199q-217 0 -348.5 149.5t-131.5 396.5
t131.5 397t348.5 150t348 -149.5t131 -397.5q0 -247 -131 -396.5t-348 -149.5zM582 1602l153 309h215l-198 -309h-170zM860 1602l193 309h215l-238 -309h-170z" />
    <glyph glyph-name="ohungarumlaut" unicode="&#x151;" horiz-adv-x="1187" 
d="M594 1034q230 0 374 -149.5t144 -380.5q0 -232 -144 -380.5t-374 -148.5t-374 148.5t-144 380.5q0 231 144 380.5t374 149.5zM594 170q133 0 216 94t83 242q0 147 -83 239.5t-216 92.5q-134 0 -216.5 -92.5t-82.5 -239.5q0 -149 82.5 -242.5t216.5 -93.5zM371 1133
l153 309h215l-198 -309h-170zM649 1133l193 309h215l-238 -309h-170z" />
    <glyph glyph-name="OE" unicode="&#x152;" horiz-adv-x="2326" 
d="M1522 1272v-418l616 -2v-205h-616v-432h688v-215h-914v211q-64 -108 -202 -172q-141 -66 -299 -66q-155 -2 -289.5 56.5t-229 161.5t-147.5 247t-51 307q-2 163 52 307t149.5 247t231 162t290.5 57q149 0 283 -60t212 -160v191l914 -2v-215h-688zM1292 745
q0 248 -136.5 399.5t-350.5 151.5q-216 0 -353 -150.5t-137 -397.5q0 -246 138.5 -398.5t353.5 -152.5q213 0 349 151t136 397z" />
    <glyph glyph-name="oe" unicode="&#x153;" horiz-adv-x="1955" 
d="M1878 414h-766q18 -124 95 -188t190 -64q94 0 164.5 43.5t113.5 120.5l164 -88q-61 -123 -178.5 -193t-269.5 -70q-133 0 -240.5 56.5t-163.5 154.5q-57 -99 -162.5 -155t-238.5 -56q-222 0 -365 150.5t-143 378.5q0 230 143 380t365 150q133 0 238.5 -56t166.5 -155
q57 100 162 156.5t238 56.5q221 0 354 -143.5t133 -386.5v-92zM1657 571q-1 128 -77 205.5t-194 77.5q-117 0 -191.5 -77.5t-82.5 -205.5h545zM893 506q0 147 -82 239.5t-215 92.5t-215 -92.5t-82 -239.5q0 -149 82 -242.5t215 -93.5t215 93.5t82 242.5z" />
    <glyph glyph-name="Racute" unicode="&#x154;" horiz-adv-x="1359" 
d="M1272 0h-256l-258 575h-357v-575h-229v1489h571q253 -1 389 -119.5t136 -335.5q0 -154 -73.5 -264t-205.5 -158zM1026 1032q0 119 -72.5 185.5t-210.5 66.5h-342v-506h344q137 0 209 67.5t72 186.5zM528 1597l154 310h215l-199 -310h-170z" />
    <glyph glyph-name="racute" unicode="&#x155;" horiz-adv-x="778" 
d="M616 1020q55 0 115 -14v-201q-55 14 -110 14q-128 0 -199.5 -80.5t-71.5 -220.5v-518h-221v1006h203l12 -123q30 66 103.5 101.5t168.5 35.5zM147 1130l154 310h215l-199 -310h-170z" />
    <glyph glyph-name="Rcommaaccent" unicode="&#x156;" horiz-adv-x="1359" 
d="M1272 0h-256l-258 575h-357v-575h-229v1489h571q253 -1 389 -119.5t136 -335.5q0 -154 -73.5 -264t-205.5 -158zM1026 1032q0 119 -72.5 185.5t-210.5 66.5h-342v-506h344q137 0 209 67.5t72 186.5zM836 -217q0 -95 -62 -160t-141 -65v61q42 1 72 31.5t30 68.5
q-21 -8 -41 -8q-44 0 -72 29.5t-28 79.5q0 51 33 82.5t84 31.5q56 0 90.5 -39t34.5 -112z" />
    <glyph glyph-name="rcommaaccent" unicode="&#x157;" horiz-adv-x="778" 
d="M616 1020q55 0 115 -14v-201q-55 14 -110 14q-128 0 -199.5 -80.5t-71.5 -220.5v-518h-221v1006h203l12 -123q30 66 103.5 101.5t168.5 35.5zM367 -217q0 -95 -62 -160t-141 -65v61q42 1 72 31.5t30 68.5q-21 -8 -41 -8q-44 0 -72 29.5t-28 79.5q0 51 33 82.5t84 31.5
q56 0 90.5 -39t34.5 -112z" />
    <glyph glyph-name="Rcaron" unicode="&#x158;" horiz-adv-x="1359" 
d="M1272 0h-256l-258 575h-357v-575h-229v1489h571q253 -1 389 -119.5t136 -335.5q0 -154 -73.5 -264t-205.5 -158zM1026 1032q0 119 -72.5 185.5t-210.5 66.5h-342v-506h344q137 0 209 67.5t72 186.5zM905 1907l-176 -310h-190h-43l-177 310h179l114 -189l113 189h180z" />
    <glyph glyph-name="rcaron" unicode="&#x159;" horiz-adv-x="778" 
d="M616 1020q55 0 115 -14v-201q-55 14 -110 14q-128 0 -199.5 -80.5t-71.5 -220.5v-518h-221v1006h203l12 -123q30 66 103.5 101.5t168.5 35.5zM526 1440l-176 -310h-190h-43l-176 310h178l114 -189l113 189h180z" />
    <glyph glyph-name="Sacute" unicode="&#x15a;" horiz-adv-x="1214" 
d="M602 1516q202 0 336.5 -98.5t165.5 -264.5l-217 -59q-20 102 -96.5 157.5t-192.5 55.5q-124 0 -197 -60.5t-73 -159.5q0 -154 192 -202l246 -64q371 -93 371 -409q0 -196 -143 -317.5t-382 -121.5q-219 0 -362 101q-148 105 -174 276l217 58q13 -104 100.5 -163
t224.5 -59q135 0 213 57.5t78 157.5q0 155 -192 207l-246 60q-185 43 -278 149.5t-93 261.5q0 194 138.5 315.5t363.5 121.5zM522 1595l154 310h215l-199 -310h-170z" />
    <glyph glyph-name="sacute" unicode="&#x15b;" horiz-adv-x="935" 
d="M467 150q81 0 129.5 33t48.5 98q0 91 -119 118l-143 39q-281 77 -281 289q0 135 100 221t265 86q151 0 253 -68t122 -188l-195 -47q-7 59 -55.5 93t-118.5 34q-72 0 -116 -35t-44 -92q0 -49 32 -78t101 -47l142 -37q133 -35 203.5 -109.5t70.5 -180.5q0 -141 -105 -223.5
t-288 -82.5q-168 0 -271 75t-122 202l196 35q8 -62 59.5 -98.5t135.5 -36.5zM387 1151l154 309h215l-199 -309h-170z" />
    <glyph glyph-name="Scircumflex" unicode="&#x15c;" horiz-adv-x="1214" 
d="M602 1516q202 0 336.5 -98.5t165.5 -264.5l-217 -59q-20 102 -96.5 157.5t-192.5 55.5q-124 0 -197 -60.5t-73 -159.5q0 -154 192 -202l246 -64q371 -93 371 -409q0 -196 -143 -317.5t-382 -121.5q-219 0 -362 101q-148 105 -174 276l217 58q13 -104 100.5 -163
t224.5 -59q135 0 213 57.5t78 157.5q0 155 -192 207l-246 60q-185 43 -278 149.5t-93 261.5q0 194 138.5 315.5t363.5 121.5zM721 1595l-115 189l-114 -189h-179l176 310h191h43l176 -310h-178z" />
    <glyph glyph-name="scircumflex" unicode="&#x15d;" horiz-adv-x="935" 
d="M467 150q81 0 129.5 33t48.5 98q0 91 -119 118l-143 39q-281 77 -281 289q0 135 100 221t265 86q151 0 253 -68t122 -188l-195 -47q-7 59 -55.5 93t-118.5 34q-72 0 -116 -35t-44 -92q0 -49 32 -78t101 -47l142 -37q133 -35 203.5 -109.5t70.5 -180.5q0 -141 -105 -223.5
t-288 -82.5q-168 0 -271 75t-122 202l196 35q8 -62 59.5 -98.5t135.5 -36.5zM586 1151l-115 188l-115 -188h-178l176 309h191h43l176 -309h-178z" />
    <glyph glyph-name="Scedilla" unicode="&#x15e;" horiz-adv-x="1214" 
d="M668 -25l-47 -47h71q67 0 107.5 -44t40.5 -109q0 -68 -39.5 -111t-106.5 -43h-213v107h176q24 0 39 14t15 37q0 45 -54 45h-176v106l45 50q-185 19 -304.5 117t-145.5 253l217 58q13 -104 100.5 -163t224.5 -59q135 0 213 57.5t78 157.5q0 155 -192 207l-246 60
q-185 43 -278 149.5t-93 261.5q0 194 138.5 315.5t363.5 121.5q202 0 336.5 -98.5t165.5 -264.5l-217 -59q-20 102 -96.5 157.5t-192.5 55.5q-124 0 -197 -60.5t-73 -159.5q0 -154 192 -202l246 -64q371 -93 371 -409q0 -185 -126.5 -304.5t-342.5 -132.5z" />
    <glyph glyph-name="scedilla" unicode="&#x15f;" horiz-adv-x="935" 
d="M532 -23l-53 -53h72q67 0 107 -44t40 -109q0 -69 -39 -111.5t-106 -42.5h-213v107h176q23 0 38 14t15 37q0 45 -53 45h-176v106l49 54q-134 17 -214.5 88t-98.5 182l196 35q8 -62 59.5 -98.5t135.5 -36.5q81 0 129.5 33t48.5 98q0 91 -119 118l-143 39q-281 77 -281 289
q0 135 100 221t265 86q151 0 253 -68t122 -188l-195 -47q-7 59 -55.5 93t-118.5 34q-72 0 -116 -35t-44 -92q0 -49 32 -78t101 -47l142 -37q133 -35 203.5 -109.5t70.5 -180.5q0 -125 -88 -207t-242 -95z" />
    <glyph glyph-name="Scaron" unicode="&#x160;" horiz-adv-x="1214" 
d="M602 1516q202 0 336.5 -98.5t165.5 -264.5l-217 -59q-20 102 -96.5 157.5t-192.5 55.5q-124 0 -197 -60.5t-73 -159.5q0 -154 192 -202l246 -64q371 -93 371 -409q0 -196 -143 -317.5t-382 -121.5q-219 0 -362 101q-148 105 -174 276l217 58q13 -104 100.5 -163
t224.5 -59q135 0 213 57.5t78 157.5q0 155 -192 207l-246 60q-185 43 -278 149.5t-93 261.5q0 194 138.5 315.5t363.5 121.5zM899 1905l-176 -310h-191h-43l-176 310h179l114 -189l113 189h180z" />
    <glyph glyph-name="scaron" unicode="&#x161;" horiz-adv-x="935" 
d="M467 150q81 0 129.5 33t48.5 98q0 91 -119 118l-143 39q-281 77 -281 289q0 135 100 221t265 86q151 0 253 -68t122 -188l-195 -47q-7 59 -55.5 93t-118.5 34q-72 0 -116 -35t-44 -92q0 -49 32 -78t101 -47l142 -37q133 -35 203.5 -109.5t70.5 -180.5q0 -141 -105 -223.5
t-288 -82.5q-168 0 -271 75t-122 202l196 35q8 -62 59.5 -98.5t135.5 -36.5zM766 1460l-176 -309h-191h-43l-176 309h178l115 -188l113 188h180z" />
    <glyph glyph-name="uni0162" unicode="&#x162;" horiz-adv-x="1161" 
d="M1128 1274h-432v-1274h-229v1274h-432v215h1093v-215zM451 -268h176q23 0 38 14t15 37q0 45 -53 45h-176v106l106 117l88 -2v-61l-55 -56h72q67 0 107 -44t40 -109q0 -69 -39 -111.5t-106 -42.5h-213v107z" />
    <glyph glyph-name="uni0163" unicode="&#x163;" horiz-adv-x="686" 
d="M647 825h-196v-825h-215v825h-197v181h197v315h215v-315h196v-181zM213 -262h176q23 0 38 14t15 37q0 45 -53 45h-176v107l106 116l89 -2v-61l-56 -55h72q67 0 107 -44.5t40 -109.5q0 -69 -39 -111.5t-106 -42.5h-213v107z" />
    <glyph glyph-name="Tcaron" unicode="&#x164;" horiz-adv-x="1161" 
d="M1128 1274h-432v-1274h-229v1274h-432v215h1093v-215zM874 1905l-176 -310h-190h-43l-176 310h178l115 -189l112 189h180z" />
    <glyph glyph-name="tcaron" unicode="&#x165;" horiz-adv-x="698" 
d="M692 1436l-37 -324h-106l-35 324q-6 45 21.5 73.5t68.5 28.5q43 0 68.5 -28t19.5 -74zM442 1006h195v-187h-195v-819h-217v819h-194v187h194v315h217v-315z" />
    <glyph glyph-name="Tbar" unicode="&#x166;" horiz-adv-x="1161" 
d="M696 1274v-389h299v-195h-299v-690h-229v690h-299v195h299v389h-432v215h1093v-215h-432z" />
    <glyph glyph-name="tbar" unicode="&#x167;" horiz-adv-x="686" 
d="M451 825v-163h174v-173h-174v-489h-215v489h-193v173h193v163h-197v181h197v315h215v-315h196v-181h-196z" />
    <glyph glyph-name="Utilde" unicode="&#x168;" horiz-adv-x="1490" 
d="M158 1489h227v-952q1 -170 100 -257t260 -87q155 0 258 91.5t103 252.5v952h227v-961q0 -131 -47 -237.5t-127.5 -175t-186.5 -105.5t-227 -37q-118 0 -223 36t-187 103.5t-129.5 175t-47.5 240.5v961zM403 1694q0 97 53 154t134 57q41 0 76.5 -12.5t89.5 -43.5
q78 -43 114 -43q75 0 66 90h145q4 -46 4 -49q0 -98 -53.5 -152.5t-140.5 -54.5q-73 0 -174 58q-41 23 -61 31t-42 8q-64 0 -61 -95l-145 -2q-1 10 -2 22t-2 20t-1 12z" />
    <glyph glyph-name="utilde" unicode="&#x169;" 
d="M864 0q-12 49 -18 121q-42 -71 -122.5 -109.5t-184.5 -38.5q-169 0 -289 99q-121 103 -121 325v611h219v-574q0 -149 70 -207q71 -59 166 -59q110 0 184 72.5t74 201.5v564h219v-822q0 -99 18 -184h-215zM254 1223q0 97 53 154t133 57q41 0 76.5 -12.5t89.5 -43.5
q78 -43 115 -43q74 0 65 90h146q4 -46 4 -49q0 -97 -54 -152t-141 -55q-73 0 -174 58q-42 23 -61.5 31t-40.5 8q-65 0 -62 -95l-145 -2q-4 50 -4 54z" />
    <glyph glyph-name="Umacron" unicode="&#x16a;" horiz-adv-x="1490" 
d="M158 1489h227v-952q1 -170 100 -257t260 -87q155 0 258 91.5t103 252.5v952h227v-961q0 -131 -47 -237.5t-127.5 -175t-186.5 -105.5t-227 -37q-118 0 -223 36t-187 103.5t-129.5 175t-47.5 240.5v961zM1051 1772v-150h-611v150h611z" />
    <glyph glyph-name="umacron" unicode="&#x16b;" 
d="M864 0q-12 49 -18 121q-42 -71 -122.5 -109.5t-184.5 -38.5q-169 0 -289 99q-121 103 -121 325v611h219v-574q0 -149 70 -207q71 -59 166 -59q110 0 184 72.5t74 201.5v564h219v-822q0 -99 18 -184h-215zM901 1300v-149h-610v149h610z" />
    <glyph glyph-name="Uring" unicode="&#x16e;" horiz-adv-x="1490" 
d="M158 1489h227v-952q1 -170 100 -257t260 -87q155 0 258 91.5t103 252.5v952h227v-961q0 -131 -47 -237.5t-127.5 -175t-186.5 -105.5t-227 -37q-118 0 -223 36t-187 103.5t-129.5 175t-47.5 240.5v961zM500 1825q0 101 73.5 175.5t171.5 74.5q101 0 174.5 -74.5
t73.5 -175.5q0 -102 -71 -176q-75 -72 -177 -72t-174 72q-71 71 -71 176zM862 1829q0 47 -34 80t-83 33t-81.5 -32.5t-32.5 -80.5q0 -51 32.5 -85t81.5 -34q50 0 83.5 34t33.5 85z" />
    <glyph glyph-name="uring" unicode="&#x16f;" 
d="M864 0q-12 49 -18 121q-42 -71 -122.5 -109.5t-184.5 -38.5q-169 0 -289 99q-121 103 -121 325v611h219v-574q0 -149 70 -207q71 -59 166 -59q110 0 184 72.5t74 201.5v564h219v-822q0 -99 18 -184h-215zM348 1354q0 101 73.5 175.5t172.5 74.5q101 0 174.5 -74.5
t73.5 -175.5t-72 -176q-75 -72 -176 -72q-102 0 -174 72t-72 176zM711 1358q0 47 -34 79.5t-83 32.5t-82 -32.5t-33 -79.5q0 -51 33 -85t82 -34q50 0 83.5 34t33.5 85z" />
    <glyph glyph-name="Uhungarumlaut" unicode="&#x170;" horiz-adv-x="1490" 
d="M158 1489h227v-952q1 -170 100 -257t260 -87q155 0 258 91.5t103 252.5v952h227v-961q0 -131 -47 -237.5t-127.5 -175t-186.5 -105.5t-227 -37q-118 0 -223 36t-187 103.5t-129.5 175t-47.5 240.5v961zM520 1595l154 310h215l-199 -310h-170zM799 1595l192 310h215
l-237 -310h-170z" />
    <glyph glyph-name="uhungarumlaut" unicode="&#x171;" 
d="M864 0q-12 49 -18 121q-42 -71 -122.5 -109.5t-184.5 -38.5q-169 0 -289 99q-121 103 -121 325v611h219v-574q0 -149 70 -207q71 -59 166 -59q110 0 184 72.5t74 201.5v564h219v-822q0 -99 18 -184h-215zM371 1124l153 310h215l-198 -310h-170zM649 1124l193 310h215
l-238 -310h-170z" />
    <glyph glyph-name="Uogonek" unicode="&#x172;" horiz-adv-x="1490" 
d="M1333 1489v-961q0 -236 -138 -379t-359 -169q-54 -25 -81.5 -60t-27.5 -72q0 -32 21.5 -52.5t56.5 -20.5q28 0 47 8v-152q-53 -16 -98 -16q-84 0 -134.5 50t-50.5 124q0 57 31 106.5t90 79.5q-110 8 -205.5 47.5t-168.5 107.5t-115.5 170.5t-42.5 227.5v961h227v-952
q1 -170 100 -257t260 -87q155 0 258 91.5t103 252.5v952h227z" />
    <glyph glyph-name="uogonek" unicode="&#x173;" 
d="M944 -143q0 -31 21.5 -51.5t56.5 -20.5q28 0 47 8v-151q-53 -17 -98 -17q-84 0 -134.5 50t-50.5 126q0 63 40 116.5t112 82.5h-74q-12 49 -18 121q-42 -71 -122.5 -109.5t-184.5 -38.5q-169 0 -289 99q-121 103 -121 325v611h219v-574q0 -149 70 -207q71 -59 166 -59
q110 0 184 72.5t74 201.5v564h219v-822q0 -99 18 -184h-2q-65 -25 -99 -64t-34 -79z" />
    <glyph glyph-name="Wcircumflex" unicode="&#x174;" horiz-adv-x="2082" 
d="M2054 1489l-450 -1489h-220l-342 1092l-346 -1092h-223l-444 1489h250l309 -1106l332 1106h249l324 -1110l317 1110h244zM1155 1595l-115 189l-114 -189h-178l176 310h190h43l176 -310h-178z" />
    <glyph glyph-name="wcircumflex" unicode="&#x175;" horiz-adv-x="1619" 
d="M1589 1006l-348 -1006h-205l-227 682l-229 -682h-213l-336 1006h233l213 -693l223 693h222l217 -699l219 699h231zM928 1124l-115 189l-115 -189h-178l176 310h191h43l176 -310h-178z" />
    <glyph glyph-name="Ycircumflex" unicode="&#x176;" horiz-adv-x="1277" 
d="M276 1489l367 -666l367 666h247l-501 -885v-604h-230v604l-508 885h258zM758 1595l-115 189l-115 -189h-178l176 310h191h43l176 -310h-178z" />
    <glyph glyph-name="ycircumflex" unicode="&#x177;" horiz-adv-x="1095" 
d="M1071 1006l-471 -1239q-96 -250 -324 -250q-105 0 -219 51l62 196q71 -47 143 -47q107 0 154 121l39 103l-430 1065h229l303 -787l287 787h227zM666 1124l-115 189l-115 -189h-178l176 310h191h43l176 -310h-178z" />
    <glyph glyph-name="Ydieresis" unicode="&#x178;" horiz-adv-x="1277" 
d="M276 1489l367 -666l367 666h247l-501 -885v-604h-230v604l-508 885h258zM301 1745q0 60 41.5 100.5t101.5 40.5q57 0 99.5 -42t42.5 -99t-42.5 -99t-99.5 -42q-60 0 -101.5 40.5t-41.5 100.5zM700 1745q0 57 42 99t102 42q57 0 99 -42t42 -99t-42 -99t-99 -42
q-60 0 -102 42t-42 99z" />
    <glyph glyph-name="Zacute" unicode="&#x179;" horiz-adv-x="1171" 
d="M1085 1270l-747 -1051h737v-219h-987l-2 219l745 1051l-743 -2v221h997v-219zM502 1595l153 310h215l-198 -310h-170z" />
    <glyph glyph-name="zacute" unicode="&#x17a;" horiz-adv-x="948" 
d="M76 197l528 616h-528v193h796v-197l-534 -616h534v-193h-796v197zM389 1124l154 310h215l-199 -310h-170z" />
    <glyph glyph-name="Zdotaccent" unicode="&#x17b;" horiz-adv-x="1171" 
d="M1085 1270l-747 -1051h737v-219h-987l-2 219l745 1051l-743 -2v221h997v-219zM446 1745q0 59 42 101t100 42q57 0 99 -43t42 -100t-42 -98t-99 -41q-60 0 -101 41t-41 98z" />
    <glyph glyph-name="zdotaccent" unicode="&#x17c;" horiz-adv-x="948" 
d="M76 197l528 616h-528v193h796v-197l-534 -616h534v-193h-796v197zM334 1274q0 60 42 101.5t99 41.5t99 -43t42 -100t-42 -98t-99 -41q-59 0 -100 40.5t-41 98.5z" />
    <glyph glyph-name="Zcaron" unicode="&#x17d;" horiz-adv-x="1171" 
d="M1085 1270l-747 -1051h737v-219h-987l-2 219l745 1051l-743 -2v221h997v-219zM881 1905l-176 -310h-191h-43l-176 310h178l115 -189l112 189h181z" />
    <glyph glyph-name="zcaron" unicode="&#x17e;" horiz-adv-x="948" 
d="M76 197l528 616h-528v193h796v-197l-534 -616h534v-193h-796v197zM768 1434l-176 -310h-191h-43l-176 310h178l115 -189l113 189h180z" />
    <glyph glyph-name="florin" unicode="&#x192;" horiz-adv-x="1175" 
d="M748 1006h292v-185h-317l-8 -53h2l-117 -811q-20 -142 -110.5 -218.5t-239.5 -76.5h-125l-2 201h131q54 0 88 28t41 82l109 750h-3l15 98h-260v185h286l25 170q20 149 117 238t243 89h136l2 -200h-152q-57 0 -87.5 -30.5t-41.5 -96.5z" />
    <glyph glyph-name="Aringacute" unicode="&#x1fa;" horiz-adv-x="1372" 
d="M788 1903h-170l154 307h215zM981 358h-594l-129 -358h-233l512 1417q-43 33 -68 84.5t-25 110.5q0 101 73.5 175.5t172.5 74.5q101 0 174.5 -74.5t73.5 -175.5q0 -127 -104 -201l514 -1411h-240zM575 1616q0 -51 33 -85t82 -34q50 0 83.5 34t33.5 85q0 48 -34 81.5
t-83 33.5t-82 -33.5t-33 -81.5zM915 551l-229 649l-231 -649h460z" />
    <glyph glyph-name="aringacute" unicode="&#x1fb;" horiz-adv-x="1081" 
d="M645 1442h-164l150 282h207zM774 0q-11 48 -16 125q-44 -69 -129 -110.5t-193 -41.5q-165 0 -264.5 87.5t-99.5 236.5q0 147 99 231t267 84h316v39q0 103 -60 154t-166 51q-187 0 -264 -151l-160 92q84 158 254 213q-45 60 -45 143q0 101 73.5 175.5t172.5 74.5
q101 0 175.5 -74.5t74.5 -175.5q0 -90 -57 -156q215 -92 215 -370v-412q0 -165 18 -215h-211zM446 1157q0 -51 33 -85t82 -34t82 34t33 85q0 48 -33 81.5t-82 33.5t-82 -33.5t-33 -81.5zM754 459h-267q-93 0 -143.5 -42t-50.5 -118q0 -77 51.5 -117.5t144.5 -40.5
q117 0 191 76t74 217v25z" />
    <glyph glyph-name="AEacute" unicode="&#x1fc;" horiz-adv-x="1892" 
d="M1769 0h-696h-217v385h-438l-146 -385h-252l580 1487h234v-2h22v2h217v-2h699l-3 -215h-696v-416h631l-2 -209h-629v-430h701zM856 582v688l-104 2l-260 -690h364zM1057 1595l153 310h215l-198 -310h-170z" />
    <glyph glyph-name="aeacute" unicode="&#x1fd;" horiz-adv-x="1835" 
d="M1753 422h-776q13 -123 92.5 -191.5t200.5 -68.5q91 0 163.5 44t114.5 120l168 -88q-61 -126 -181.5 -194.5t-270.5 -68.5q-130 0 -232 53.5t-158 147.5q-49 -96 -149.5 -148.5t-230.5 -52.5q-177 0 -286.5 84.5t-109.5 233.5q0 136 86 216.5t226 80.5h266q78 0 78 72
q0 93 -61.5 142.5t-153.5 49.5q-87 0 -157 -42t-112 -118l-157 92q62 115 177 181.5t245 66.5q122 0 214 -48t136 -134q62 88 161 136t220 48q219 0 353 -140.5t134 -367.5v-106zM1534 582q-1 122 -79 197t-198 75q-117 0 -192.5 -73.5t-87.5 -198.5h557zM756 434h-281
q-72 0 -114 -39t-42 -102q0 -71 53.5 -109.5t141.5 -38.5q118 0 180 67t62 181v41zM829 1124l154 310h215l-199 -310h-170z" />
    <glyph glyph-name="Oslashacute" unicode="&#x1fe;" horiz-adv-x="1599" 
d="M1497 745q2 -163 -51.5 -306t-148.5 -245.5t-230.5 -160.5t-290.5 -56q-157 0 -295 60l-39 -64h-225l100 164q-123 103 -189.5 260t-66.5 348q-2 163 51 306.5t147.5 246.5t229 161.5t289.5 56.5q192 0 344 -82l52 84h219l-119 -193q107 -107 165 -256t58 -324zM440 336
l564 907q-99 51 -226 51q-216 0 -346.5 -150t-130.5 -399q0 -258 139 -409zM1257 745q0 232 -110 375l-547 -891q80 -30 178 -30q217 0 348 149.5t131 396.5zM698 1579l154 309h215l-199 -309h-170z" />
    <glyph glyph-name="oslashacute" unicode="&#x1ff;" horiz-adv-x="1187" 
d="M1112 504q0 -232 -144 -380.5t-374 -148.5q-107 0 -203 35l-69 -112h-197l123 198q-82 72 -127 178t-45 230q0 231 144 380.5t374 149.5q113 0 213 -41l61 101h191l-115 -187q80 -73 124 -177t44 -226zM362 281l336 540q-56 17 -104 17q-134 0 -216.5 -92.5t-82.5 -239.5
q0 -131 67 -225zM893 506q0 127 -64 215l-329 -537q49 -14 94 -14q133 0 216 94t83 242zM510 1124l154 310h215l-199 -310h-170z" />
    <glyph glyph-name="Scommaaccent" unicode="&#x218;" horiz-adv-x="1214" 
d="M602 1516q202 0 336.5 -98.5t165.5 -264.5l-217 -59q-20 102 -96.5 157.5t-192.5 55.5q-124 0 -197 -60.5t-73 -159.5q0 -154 192 -202l246 -64q371 -93 371 -409q0 -196 -143 -317.5t-382 -121.5q-219 0 -362 101q-148 105 -174 276l217 58q13 -104 100.5 -163
t224.5 -59q135 0 213 57.5t78 157.5q0 155 -192 207l-246 60q-185 43 -278 149.5t-93 261.5q0 194 138.5 315.5t363.5 121.5zM735 -221q0 -96 -61 -160q-62 -65 -142 -65v61q42 1 72.5 32t30.5 68q-21 -8 -41 -8q-44 0 -72 29.5t-28 79.5q0 51 32.5 82.5t83.5 31.5
q56 0 90.5 -39t34.5 -112z" />
    <glyph glyph-name="scommaaccent" unicode="&#x219;" horiz-adv-x="935" 
d="M467 150q81 0 129.5 33t48.5 98q0 91 -119 118l-143 39q-281 77 -281 289q0 135 100 221t265 86q151 0 253 -68t122 -188l-195 -47q-7 59 -55.5 93t-118.5 34q-72 0 -116 -35t-44 -92q0 -49 32 -78t101 -47l142 -37q133 -35 203.5 -109.5t70.5 -180.5q0 -141 -105 -223.5
t-288 -82.5q-168 0 -271 75t-122 202l196 35q8 -62 59.5 -98.5t135.5 -36.5zM594 -227q0 -95 -62 -160q-63 -66 -141 -66v62q42 1 72.5 32t30.5 68q-21 -8 -41 -8q-44 0 -72.5 29.5t-28.5 79.5q0 51 33 82.5t84 31.5q56 0 90.5 -39t34.5 -112z" />
    <glyph glyph-name="uni021A" unicode="&#x21a;" horiz-adv-x="1161" 
d="M1128 1274h-432v-1274h-229v1274h-432v215h1093v-215zM705 -217q0 -95 -62 -160t-141 -65v61q42 1 72 31.5t30 68.5q-21 -8 -41 -8q-44 0 -72 29.5t-28 79.5q0 51 33 82.5t84 31.5q56 0 90.5 -39t34.5 -112z" />
    <glyph glyph-name="uni021B" unicode="&#x21b;" horiz-adv-x="686" 
d="M647 825h-196v-825h-215v825h-197v181h197v315h215v-315h196v-181zM467 -211q0 -96 -61 -160q-62 -65 -142 -65v61q42 1 72.5 32t30.5 69q-24 -9 -41 -9q-44 0 -72.5 29.5t-28.5 79.5q0 51 33 83t84 32q56 0 90.5 -39.5t34.5 -112.5z" />
    <glyph glyph-name="uni0237" unicode="&#x237;" horiz-adv-x="530" 
d="M-63 -264q66 -17 98 -17q69 0 107 41t38 119v1127h223v-1156q0 -155 -86 -244t-239 -89q-86 0 -184 28z" />
    <glyph glyph-name="circumflex" unicode="&#x2c6;" horiz-adv-x="731" 
d="M489 1573l-114 188l-115 -188h-178l176 309h191h43l176 -309h-179z" />
    <glyph glyph-name="caron" unicode="&#x2c7;" horiz-adv-x="724" 
d="M639 1882l-176 -309h-191h-43l-176 309h178l115 -188l113 188h180z" />
    <glyph glyph-name="breve" unicode="&#x2d8;" horiz-adv-x="753" 
d="M377 1573q-137 0 -231.5 89t-94.5 218h172q1 -62 44 -99.5t110 -37.5t109.5 37.5t43.5 99.5h170q0 -128 -94 -217.5t-229 -89.5z" />
    <glyph glyph-name="dotaccent" unicode="&#x2d9;" horiz-adv-x="366" 
d="M41 1722q0 60 41.5 101t101.5 41q57 0 99.5 -42.5t42.5 -99.5t-42.5 -99t-99.5 -42q-60 0 -101.5 40.5t-41.5 100.5z" />
    <glyph glyph-name="ring" unicode="&#x2da;" horiz-adv-x="565" 
d="M29 1802q0 101 73.5 175.5t173.5 74.5t174 -74.5t74 -175.5q0 -100 -74 -174t-174 -74q-104 0 -175.5 72t-71.5 176zM393 1806q0 47 -34 80t-83 33t-81.5 -32.5t-32.5 -80.5q0 -51 32.5 -84.5t81.5 -33.5q50 0 83.5 33.5t33.5 84.5z" />
    <glyph glyph-name="ogonek" unicode="&#x2db;" horiz-adv-x="839" 
d="M547 0q-65 -25 -99 -64t-34 -79q0 -31 21.5 -51.5t56.5 -20.5q28 0 47 8v-151q-53 -17 -99 -17q-84 0 -134 50t-50 126q0 63 40 116.5t112 82.5h139z" />
    <glyph glyph-name="tilde" unicode="&#x2dc;" horiz-adv-x="782" 
d="M45 1671q0 97 53 154t133 57q41 0 77 -12.5t89 -42.5q78 -43 115 -43q75 0 66 90h145q4 -46 4 -49q0 -97 -54 -152t-141 -55q-75 0 -174 57q-42 23 -61.5 31t-40.5 8q-64 0 -61 -94l-146 -2q-4 50 -4 53z" />
    <glyph glyph-name="hungarumlaut" unicode="&#x2dd;" horiz-adv-x="817" 
d="M63 1573l154 309h215l-199 -309h-170zM342 1573l193 309h215l-238 -309h-170z" />
    <glyph glyph-name="gravecomb" unicode="&#x300;" horiz-adv-x="0" 
d="M-469 1882h213l154 -309h-170z" />
    <glyph glyph-name="acutecomb" unicode="&#x301;" horiz-adv-x="0" 
d="M-403 1573l153 309h215l-198 -309h-170z" />
    <glyph glyph-name="uni0302" unicode="&#x302;" horiz-adv-x="0" 
d="M-260 1573l-115 188l-114 -188h-179l176 309h191h43l176 -309h-178z" />
    <glyph glyph-name="tildecomb" unicode="&#x303;" horiz-adv-x="0" 
d="M-731 1671q0 97 53 154t133 57q41 0 77 -12.5t89 -42.5q78 -43 115 -43q74 0 65 90h146q4 -46 4 -49q0 -97 -54 -152t-141 -55q-75 0 -174 57q-42 23 -61.5 31t-40.5 8q-65 0 -62 -94l-145 -2q-4 50 -4 53z" />
    <glyph glyph-name="uni0304" unicode="&#x304;" horiz-adv-x="0" 
d="M-49 1831v-150h-610v150h610z" />
    <glyph glyph-name="uni0306" unicode="&#x306;" horiz-adv-x="0" 
d="M-51 1884q0 -129 -94.5 -220t-229.5 -91q-137 0 -231 90.5t-94 220.5h172q0 -65 42.5 -103t110.5 -38q69 0 111.5 38t42.5 103h170z" />
    <glyph glyph-name="uni0307" unicode="&#x307;" horiz-adv-x="0" 
d="M-549 1722q0 60 42 102t99 42t99.5 -43.5t42.5 -100.5t-42.5 -98t-99.5 -41q-60 0 -100.5 40.5t-40.5 98.5z" />
    <glyph glyph-name="uni0308" unicode="&#x308;" horiz-adv-x="0" 
d="M-690 1722q0 60 40.5 102t100.5 42q57 0 99 -43.5t42 -100.5t-42 -98t-99 -41t-99 41t-42 98zM-305 1722q0 60 41 102t98 42t99 -42t42 -102q0 -57 -42 -98t-99 -41q-59 0 -99 40.5t-40 98.5z" />
    <glyph glyph-name="uni030A" unicode="&#x30a;" horiz-adv-x="0" 
d="M-524 1802q0 101 73.5 175.5t171.5 74.5q101 0 174.5 -74.5t73.5 -175.5q0 -102 -71 -176q-75 -72 -177 -72t-174 72q-71 71 -71 176zM-162 1806q0 47 -34 80t-83 33t-81.5 -32.5t-32.5 -80.5q0 -51 32.5 -84.5t81.5 -33.5q50 0 83.5 33.5t33.5 84.5z" />
    <glyph glyph-name="uni030B" unicode="&#x30b;" horiz-adv-x="0" 
d="M-731 1573l153 309h216l-199 -309h-170zM-475 1573l203 309h215l-248 -309h-170z" />
    <glyph glyph-name="uni030C" unicode="&#x30c;" horiz-adv-x="0" 
d="M-72 1882l-176 -309h-190h-43l-176 309h178l114 -188l113 188h180z" />
    <glyph glyph-name="uni0312" unicode="&#x312;" horiz-adv-x="0" 
d="M-88 1700q0 -51 -33 -84t-84 -33q-56 0 -90.5 40.5t-34.5 113.5q0 95 60 160t143 65v-64q-42 0 -72 -30.5t-30 -69.5q13 8 39 8q45 0 73.5 -28.5t28.5 -77.5z" />
    <glyph glyph-name="uni0326" unicode="&#x326;" horiz-adv-x="0" 
d="M-84 -209q0 -96 -61 -160q-62 -65 -142 -65v61q42 1 72.5 32t30.5 69q-24 -9 -41 -9q-44 0 -72.5 29.5t-28.5 79.5q0 51 33 83t84 32q56 0 90.5 -39.5t34.5 -112.5z" />
    <glyph glyph-name="uni0327" unicode="&#x327;" horiz-adv-x="0" 
d="M-596 -258h176q23 0 38 14t15 37q0 45 -53 45h-176v107l107 116l88 -2v-61l-56 -55h72q67 0 107 -44.5t40 -109.5q0 -69 -39 -111.5t-106 -42.5h-213v107z" />
    <glyph glyph-name="uni0338" unicode="&#x338;" horiz-adv-x="0" 
d="M-1094 -86l744 1196h190l-737 -1196h-197z" />
    <glyph glyph-name="uni03A9" unicode="&#x3a9;" horiz-adv-x="1335" 
d="M1210 172v-172h-454v172q119 46 184.5 144t65.5 219q0 139 -93.5 227t-232.5 88q-140 0 -234 -88t-94 -227q0 -124 67 -222.5t183 -140.5v-172h-455v172h187q-172 155 -172 381q0 204 147.5 342.5t372.5 138.5q226 0 371 -138.5t145 -340.5q0 -227 -176 -383h188z" />
    <glyph glyph-name="pi" unicode="&#x3c0;" horiz-adv-x="1306" 
d="M1016 821l2 -526q0 -55 21.5 -75.5t70.5 -20.5l111 -2v-197l-209 2q-107 0 -160 66.5t-53 191.5v561h-361v-821h-215v821h-190v185h405h578h205v-185h-205z" />
    <glyph glyph-name="Wgrave" unicode="&#x1e80;" horiz-adv-x="2082" 
d="M2054 1489l-450 -1489h-220l-342 1092l-346 -1092h-223l-444 1489h250l309 -1106l332 1106h249l324 -1110l317 1110h244zM756 1905h217l153 -310h-170z" />
    <glyph glyph-name="wgrave" unicode="&#x1e81;" horiz-adv-x="1619" 
d="M1589 1006l-348 -1006h-205l-227 682l-229 -682h-213l-336 1006h233l213 -693l223 693h222l217 -699l219 699h231zM526 1434h217l154 -310h-170z" />
    <glyph glyph-name="Wacute" unicode="&#x1e82;" horiz-adv-x="2082" 
d="M2054 1489l-450 -1489h-220l-342 1092l-346 -1092h-223l-444 1489h250l309 -1106l332 1106h249l324 -1110l317 1110h244zM956 1595l154 310h215l-199 -310h-170z" />
    <glyph glyph-name="wacute" unicode="&#x1e83;" horiz-adv-x="1619" 
d="M1589 1006l-348 -1006h-205l-227 682l-229 -682h-213l-336 1006h233l213 -693l223 693h222l217 -699l219 699h231zM729 1124l154 310h215l-199 -310h-170z" />
    <glyph glyph-name="Wdieresis" unicode="&#x1e84;" horiz-adv-x="2082" 
d="M2054 1489l-450 -1489h-220l-342 1092l-346 -1092h-223l-444 1489h250l309 -1106l332 1106h249l324 -1110l317 1110h244zM700 1745q0 60 42 100.5t102 40.5q57 0 99 -42t42 -99t-42 -99t-99 -42q-60 0 -102 40.5t-42 100.5zM1100 1745q0 57 42 99t101 42q57 0 99 -42
t42 -99t-42 -99t-99 -42q-59 0 -101 42t-42 99z" />
    <glyph glyph-name="wdieresis" unicode="&#x1e85;" horiz-adv-x="1619" 
d="M1589 1006l-348 -1006h-205l-227 682l-229 -682h-213l-336 1006h233l213 -693l223 693h222l217 -699l219 699h231zM471 1274q0 60 41.5 100.5t101.5 40.5q57 0 99.5 -42t42.5 -99t-42.5 -99t-99.5 -42q-60 0 -101.5 40.5t-41.5 100.5zM870 1274q0 57 42 99t102 42
q57 0 99 -42t42 -99t-42 -99t-99 -42q-60 0 -102 42t-42 99z" />
    <glyph glyph-name="Ygrave" unicode="&#x1ef2;" horiz-adv-x="1277" 
d="M276 1489l367 -666l367 666h247l-501 -885v-604h-230v604l-508 885h258zM356 1905h217l154 -310h-170z" />
    <glyph glyph-name="ygrave" unicode="&#x1ef3;" horiz-adv-x="1095" 
d="M1071 1006l-471 -1239q-96 -250 -324 -250q-105 0 -219 51l62 196q71 -47 143 -47q107 0 154 121l39 103l-430 1065h229l303 -787l287 787h227zM264 1434h217l154 -310h-170z" />
    <glyph glyph-name="endash" unicode="&#x2013;" horiz-adv-x="1898" 
d="M1761 657v-196h-1624v196h1624z" />
    <glyph glyph-name="emdash" unicode="&#x2014;" horiz-adv-x="2340" 
d="M2193 657v-196h-2046v196h2046z" />
    <glyph glyph-name="quoteleft" unicode="&#x2018;" horiz-adv-x="557" 
d="M426 1126q0 -62 -39 -101.5t-102 -39.5q-69 0 -111.5 48.5t-42.5 137.5q0 116 74.5 194.5t173.5 78.5v-76q-49 0 -86 -36t-39 -81q15 6 43 6q58 0 93.5 -35t35.5 -96z" />
    <glyph glyph-name="quoteright" unicode="&#x2019;" horiz-adv-x="557" 
d="M426 1237q0 -117 -74 -195.5t-174 -78.5v75q50 1 87.5 38.5t37.5 82.5q-16 -8 -45 -8q-56 0 -91.5 35.5t-35.5 95.5q0 62 39 101.5t102 39.5q69 0 111.5 -48.5t42.5 -137.5z" />
    <glyph glyph-name="quotesinglbase" unicode="&#x201a;" horiz-adv-x="497" 
d="M395 66q0 -115 -76 -195.5t-172 -77.5v76q50 0 87.5 38t35.5 83q-27 -10 -49 -10q-55 0 -89 35t-34 96q0 63 39.5 102t102.5 39q69 0 112 -48t43 -138z" />
    <glyph glyph-name="quotedblleft" unicode="&#x201c;" horiz-adv-x="903" 
d="M426 1126q0 -62 -39 -101.5t-102 -39.5q-69 0 -111.5 48.5t-42.5 137.5q0 115 74.5 194t173.5 79v-76q-50 0 -87.5 -37t-37.5 -82q16 8 45 8q57 0 92 -35.5t35 -95.5zM772 1126q0 -62 -39 -101.5t-102 -39.5q-69 0 -111.5 48.5t-42.5 137.5q0 113 74.5 193t173.5 80v-76
q-50 -1 -87.5 -37.5t-37.5 -81.5q19 8 43 8q58 0 93.5 -35t35.5 -96z" />
    <glyph glyph-name="quotedblright" unicode="&#x201d;" horiz-adv-x="903" 
d="M426 1237q0 -117 -74 -195.5t-174 -78.5v75q50 1 87.5 38.5t37.5 82.5q-19 -8 -43 -8q-58 0 -93.5 35t-35.5 96q0 62 39 101.5t102 39.5q69 0 111.5 -48.5t42.5 -137.5zM772 1237q0 -117 -74 -195.5t-174 -78.5v75q50 1 87.5 38.5t37.5 82.5q-16 -8 -45 -8
q-56 0 -91.5 35.5t-35.5 95.5q0 62 39 101.5t102 39.5q69 0 111.5 -48.5t42.5 -137.5z" />
    <glyph glyph-name="quotedblbase" unicode="&#x201e;" horiz-adv-x="903" 
d="M426 66q0 -116 -74.5 -194.5t-173.5 -78.5v76q50 0 87.5 38t37.5 83q-27 -10 -47 -10q-55 0 -90 35.5t-35 95.5q0 63 39 102t102 39q69 0 111.5 -48t42.5 -138zM772 66q0 -116 -74.5 -194.5t-173.5 -78.5v76q50 0 87.5 38t37.5 83q-23 -10 -49 -10q-55 0 -89 35t-34 96
q0 63 39 102t102 39q69 0 111.5 -48t42.5 -138z" />
    <glyph glyph-name="dagger" unicode="&#x2020;" horiz-adv-x="655" 
d="M614 1106h-215v-565h-143v565h-215v143h215v205h143v-205h215v-143z" />
    <glyph glyph-name="daggerdbl" unicode="&#x2021;" horiz-adv-x="661" 
d="M621 772h-213v-231h-146v231h-217v146h217v159h-221v146h221v231h146v-231h206v-146h-206v-159h213v-146z" />
    <glyph glyph-name="bullet" unicode="&#x2022;" horiz-adv-x="854" 
d="M115 547q0 127 93 219t220 92q125 0 217 -93t92 -218q0 -124 -92.5 -215.5t-216.5 -91.5q-125 0 -219 91.5t-94 215.5z" />
    <glyph glyph-name="ellipsis" unicode="&#x2026;" horiz-adv-x="1583" 
d="M135 121q0 63 46.5 108t109.5 45q62 0 107.5 -45t45.5 -108q0 -61 -45.5 -106.5t-107.5 -45.5q-63 0 -109.5 45.5t-46.5 106.5zM637 121q0 63 46.5 108t109.5 45q62 0 107.5 -45t45.5 -108q0 -61 -45.5 -106.5t-107.5 -45.5q-63 0 -109.5 45.5t-46.5 106.5zM1139 121
q0 63 45 108t108 45t109.5 -45t46.5 -108q0 -61 -46.5 -106.5t-109.5 -45.5t-108 45t-45 107z" />
    <glyph glyph-name="perthousand" unicode="&#x2030;" horiz-adv-x="2637" 
d="M96 1122q0 181 90 290.5t242 109.5q154 2 247 -107.5t93 -292.5t-92 -292t-246 -109q-153 0 -243.5 109t-90.5 292zM1620 1487l-1133 -1487h-223l1133 1487h223zM432 881q82 2 129 65.5t47 175.5q0 103 -42 166t-115 70h-19h-20q-72 -11 -115 -74t-43 -162
q0 -110 48 -174.5t130 -66.5zM1790 367q0 -181 -90 -290.5t-242 -109.5q-155 -4 -248.5 105.5t-93.5 294.5q0 179 91 289t243 110q152 3 246 -107t94 -292zM2220 -33q-155 -4 -248.5 105.5t-93.5 294.5q0 181 90 290t242 109q154 3 248 -107t94 -292q0 -180 -91.5 -290
t-240.5 -110zM2390 367q0 103 -42 165t-116 70l-18 2l-14 -2q-74 -6 -118 -69t-44 -166q0 -109 47.5 -173t128.5 -69q82 5 129 68.5t47 173.5zM1628 367q0 102 -41.5 164.5t-113.5 70.5l-21 2l-20 -2q-72 -8 -114 -70.5t-42 -164.5q0 -109 48 -173t130 -69q80 5 127 69
t47 173z" />
    <glyph glyph-name="minute" unicode="&#x2032;" horiz-adv-x="376" 
d="M248 1012h-115l-43 377q-4 55 24 86.5t72 31.5q46 0 75.5 -30.5t23.5 -87.5z" />
    <glyph glyph-name="guilsinglleft" unicode="&#x2039;" horiz-adv-x="837" 
d="M391 504l440 -504h-272l-440 504l440 502h272z" />
    <glyph glyph-name="guilsinglright" unicode="&#x203a;" horiz-adv-x="854" 
d="M760 504l-441 -504h-274l440 504l-440 502h274z" />
    <glyph glyph-name="uni2042" unicode="&#x2042;" horiz-adv-x="1859" 
d="M1090 825l-80 115q-52 70 -82 152q-22 -67 -80 -152l-84 -115l-96 68l82 117q56 76 114 129q-97 12 -168 39l-135 47l43 110l129 -45q75 -25 156 -76q-19 97 -19 172v142h117v-142q0 -90 -16 -172q63 46 153 76l131 45l43 -110l-135 -47q-73 -27 -168 -39
q53 -47 113 -129l78 -117zM655 385q-79 -28 -168 -37q60 -60 115 -131l76 -117l-94 -65l-80 112q-56 75 -84 152q-22 -67 -80 -152l-84 -112l-96 65l82 117q63 85 114 131q-89 9 -168 37l-133 47l43 111l127 -43q99 -38 156 -78q-19 97 -19 174v139h117v-139q0 -92 -16 -174
q63 44 155 78l130 43l43 -111zM1616 217l78 -117l-97 -65l-79 112q-46 60 -82 152q-22 -67 -80 -152l-84 -112l-96 65l79 117q51 70 117 131q-83 8 -170 37l-133 47l43 111l129 -43q91 -34 156 -78q-19 97 -19 174v139h117v-139q0 -100 -18 -174q63 44 155 78l131 43
l43 -111l-137 -47q-79 -28 -168 -37q53 -49 115 -131z" />
    <glyph glyph-name="fraction" unicode="&#x2044;" horiz-adv-x="305" 
d="M-500 0l1108 1454h199l-1110 -1454h-197z" />
    <glyph glyph-name="uni2070" unicode="&#x2070;" horiz-adv-x="1034" 
d="M520 598h-4h-2q-203 3 -317 141q-115 142 -115 367t116.5 366.5t315.5 141.5h2h4q200 0 316 -141.5t116 -366.5q0 -226 -114 -367q-114 -138 -318 -141zM776 1106q0 155 -68.5 246.5t-191.5 91.5q-122 0 -191 -93.5t-69 -244.5q0 -153 69 -246.5t191 -93.5
q123 0 191.5 92.5t68.5 247.5z" />
    <glyph glyph-name="uni2074" unicode="&#x2074;" horiz-adv-x="925" 
d="M844 801h-123v-187h-160v187h-479v160l479 632h160v-632h123v-160zM561 961v378l-285 -378h285z" />
    <glyph glyph-name="uni2075" unicode="&#x2075;" horiz-adv-x="866" 
d="M784 940q0 -141 -105 -241.5t-251 -100.5q-144 0 -245 100.5t-101 241.5h160q0 -78 53 -129t133 -51q82 0 138.5 55t56.5 133q0 92 -54.5 146.5t-146.5 54.5q-54 0 -99.5 -24.5t-62.5 -61.5l-147 39l125 491h512v-161h-390l-47 -179q59 35 133 35q150 0 244 -99t94 -249z
" />
    <glyph glyph-name="uni2076" unicode="&#x2076;" horiz-adv-x="927" 
d="M846 958q0 -158 -106.5 -260t-270.5 -102q-197 0 -291 141q-96 143 -96 353q0 227 104 376q106 152 312 152q104 0 189 -42.5t138 -123.5l-135 -84q-70 85 -190 88q-111 0 -178.5 -73.5t-75.5 -194.5q37 59 103 90t143 31q91 0 170.5 -40.5t131.5 -122.5t52 -188z
M686 954q0 92 -59 147.5t-148 55.5t-148 -56t-59 -147q0 -89 59.5 -144.5t147.5 -55.5t147.5 55.5t59.5 144.5z" />
    <glyph glyph-name="uni2077" unicode="&#x2077;" horiz-adv-x="839" 
d="M758 1593v-163q-235 -183 -297 -412q-62 -230 -62 -404h-166q0 160 56 387q56 228 266 429h-473v163h676z" />
    <glyph glyph-name="uni2078" unicode="&#x2078;" horiz-adv-x="868" 
d="M786 877q0 -130 -100 -205q-101 -76 -252 -76q-148 0 -252 78q-97 78 -100 207q0 87 49 157t133 99q-65 26 -102 85t-37 134q0 116 87 187t222 71q136 0 222.5 -72t86.5 -190q0 -72 -38.5 -130.5t-104.5 -84.5q85 -26 135.5 -97t50.5 -163zM434 1200q72 0 120 39t48 96
q0 60 -48 96.5t-122 36.5q-71 0 -119.5 -36.5t-48.5 -96.5q0 -57 49 -96t121 -39zM432 1057q-85 0 -138 -43.5t-52 -112.5q0 -68 55.5 -110.5t136.5 -42.5t136 45.5t57 113.5q0 66 -57 108t-138 42z" />
    <glyph glyph-name="uni2079" unicode="&#x2079;" horiz-adv-x="927" 
d="M434 596q-220 0 -330 166l136 82q39 -45 85 -65.5t113 -20.5q111 0 173 69t73 199q-41 -59 -105.5 -90t-140.5 -31q-69 2 -132 25.5t-113.5 66.5t-80.5 110t-30 148q0 158 106.5 260.5t270.5 102.5q197 0 291 -143q96 -143 96 -359q3 -231 -105 -375q-106 -145 -307 -145
zM655 1260q0 90 -59 146t-147 56t-147.5 -56t-59.5 -146t60.5 -146.5t148.5 -56.5q89 0 146.5 56t57.5 147z" />
    <glyph glyph-name="uni2080" unicode="&#x2080;" horiz-adv-x="1034" 
d="M520 -221h-4h-2q-204 3 -317 143q-115 139 -115 365q0 225 116.5 366.5t315.5 141.5h2h4q200 0 316 -141.5t116 -366.5q0 -227 -114 -365q-113 -140 -318 -143zM776 287q0 155 -68.5 246.5t-191.5 91.5q-122 0 -191 -93.5t-69 -244.5q0 -153 69 -246.5t191 -93.5
q123 0 191.5 92.5t68.5 247.5z" />
    <glyph glyph-name="uni2081" unicode="&#x2081;" horiz-adv-x="614" 
d="M442 776v-981h-161v815l-199 -82v162l199 86h161z" />
    <glyph glyph-name="uni2082" unicode="&#x2082;" horiz-adv-x="847" 
d="M96 -37l424 348q84 68 84 150q0 79 -49 126.5t-131 47.5q-77 0 -127.5 -45t-54.5 -125h-160q6 153 98.5 241.5t241.5 88.5q154 0 249 -94.5t95 -235.5q0 -161 -148 -279l-286 -231l411 2v-160l-647 -2v168z" />
    <glyph glyph-name="uni2083" unicode="&#x2083;" horiz-adv-x="849" 
d="M768 113q0 -141 -100.5 -237.5t-241.5 -96.5q-148 0 -246 96t-98 234h162q2 -74 52 -123t130 -49q76 0 127 49.5t51 126.5q0 82 -52 133t-136 51q-45 0 -80 -14l-55 129l215 200l-373 2v160h625v-143l-218 -203q108 -31 173 -115.5t65 -199.5z" />
    <glyph glyph-name="uni2084" unicode="&#x2084;" horiz-adv-x="925" 
d="M844 -18h-123v-187h-160v187h-479v159l479 633h160v-633h123v-159zM561 141v379l-285 -379h285z" />
    <glyph glyph-name="uni2085" unicode="&#x2085;" horiz-adv-x="866" 
d="M784 121q0 -141 -105 -241.5t-251 -100.5q-144 0 -245 100.5t-101 241.5h160q0 -78 53 -129t133 -51q82 0 138.5 55t56.5 133q0 92 -54.5 146.5t-146.5 54.5q-54 0 -99.5 -24.5t-62.5 -61.5l-147 39l125 491h512v-162h-390l-47 -178q59 35 133 35q150 0 244 -99t94 -249z
" />
    <glyph glyph-name="uni2086" unicode="&#x2086;" horiz-adv-x="927" 
d="M846 139q0 -158 -106.5 -260t-270.5 -102q-197 0 -291 141q-96 143 -96 352q0 228 104 377q106 152 312 152q104 0 189 -42.5t138 -123.5l-135 -84q-70 85 -190 88q-111 0 -178.5 -73.5t-75.5 -194.5q37 58 103 89t143 31q91 0 170.5 -40.5t131.5 -122t52 -187.5z
M686 135q0 92 -59 147.5t-148 55.5t-148 -56t-59 -147q0 -89 59.5 -145t147.5 -56t147.5 56t59.5 145z" />
    <glyph glyph-name="uni2087" unicode="&#x2087;" horiz-adv-x="839" 
d="M758 774v-164q-236 -183 -297 -411q-62 -230 -62 -404h-166q0 160 56 387t266 428h-473v164h676z" />
    <glyph glyph-name="uni2088" unicode="&#x2088;" horiz-adv-x="868" 
d="M786 59q0 -124 -98 -202t-252 -80q-155 0 -254 77.5t-100 204.5q0 88 48.5 158t133.5 100q-65 26 -102 85.5t-37 134.5q0 116 87 187t222 71q136 0 222.5 -70t86.5 -186q2 -76 -36 -136t-105 -86q84 -26 134 -98t50 -160zM264 518q0 -61 48 -99t122 -38q72 0 120 39
t48 96q0 61 -46.5 97t-121.5 36t-122.5 -36t-47.5 -95zM436 238q-87 0 -141 -43.5t-53 -114.5q0 -68 54 -110t140 -42q82 0 136 43.5t55 110.5q0 71 -54 113.5t-137 42.5z" />
    <glyph glyph-name="uni2089" unicode="&#x2089;" horiz-adv-x="927" 
d="M434 -223q-220 0 -330 166l136 82q39 -45 85 -65.5t113 -20.5q111 0 173 69t73 199q-41 -59 -105.5 -90t-140.5 -31q-69 2 -132 25.5t-113.5 66.5t-80.5 110t-30 148q0 158 106.5 260.5t270.5 102.5q197 0 291 -144q96 -143 96 -358q3 -231 -105 -375
q-106 -145 -307 -145zM655 440q0 91 -59 147t-147 56t-147.5 -56.5t-59.5 -146.5t60.5 -146t148.5 -56q89 0 146.5 55.5t57.5 146.5z" />
    <glyph glyph-name="Euro" unicode="&#x20ac;" horiz-adv-x="1572" 
d="M1450 129q-92 -72 -213 -113t-242 -41q-234 0 -420 131q-188 132 -270 343h-182v204h131q-4 78 -4 84q0 12 4 94h-131v205h182q86 212 273 344q186 131 417 131q201 0 396 -104l-101 -180q-154 80 -295 80q-145 0 -266 -72.5t-194 -198.5h581l-53 -205h-598
q-8 -36 -8 -94q0 -41 6 -84h557l-49 -204h-436q73 -125 194.5 -197t265.5 -72q87 0 172.5 29t153.5 80z" />
    <glyph glyph-name="uni2116" unicode="&#x2116;" horiz-adv-x="2762" 
d="M2517 995q0 -134 -69 -246t-182.5 -174.5t-242.5 -62.5q-93 -1 -184 37t-160.5 102t-111 155t-39.5 189q-3 132 67.5 245t185.5 176t242 61q95 2 186 -35t159.5 -100.5t109.5 -155t39 -191.5zM1171 1454h191v-1454h-191l-735 1122v-1122h-190v1454h190l735 -1122v1122z
M2329 993q0 132 -86 215q-86 86 -220 86q-133 0 -221 -86t-88 -215q0 -121 90.5 -211t218.5 -90q130 0 218 89t88 212zM1733 365h579v-158h-579v158z" />
    <glyph glyph-name="uni2117" unicode="&#x2117;" horiz-adv-x="1089" 
d="M1008 1020q0 -126 -62.5 -232.5t-168.5 -168.5t-230 -62q-192 0 -328.5 135.5t-136.5 327.5q0 189 136.5 324t328.5 135q93 0 178 -36.5t147 -98t99 -146.5t37 -178zM920 1018q0 156 -109.5 265.5t-263.5 109.5q-158 0 -266.5 -108.5t-108.5 -266.5q0 -160 107 -266.5
t268 -106.5q154 0 263.5 108.5t109.5 264.5zM717 1100v-10q-1 -61 -43.5 -93.5t-112.5 -27.5h-53v-160h-86v414h86h53q150 3 156 -115v-8zM623 1090h-2q6 49 -60 49h-53v-92h72q22 1 31.5 11.5t11.5 31.5z" />
    <glyph glyph-name="trademark" unicode="&#x2122;" horiz-adv-x="1306" 
d="M80 1489h448v-103h-180v-475h-96v475h-172v103zM1184 1489v-578h-97v346l-147 -346h-98l-146 340v-340h-96v578h96l195 -461l196 461h97z" />
    <glyph glyph-name="estimated" unicode="&#x212e;" horiz-adv-x="1560" 
d="M782 1454q301 0 486.5 -182t185.5 -492q2 -10 2 -55q0 -43 -2 -53h-1143v-369q80 -116 207.5 -178t288.5 -62q157 0 288.5 74.5t198.5 198.5l78 -29q-75 -152 -226.5 -238.5t-342.5 -86.5q-204 0 -362.5 91.5t-246.5 257t-88 378.5q0 161 50.5 300t139 236.5t214.5 153
t272 55.5zM311 745h940v410q-75 103 -196 160t-264 57q-151 0 -275 -67t-205 -187v-373z" />
    <glyph glyph-name="oneeighth" unicode="&#x215b;" horiz-adv-x="1538" 
d="M80 1389l147 65v-149l-147 -60v144zM371 1454v-752h-144v752h144zM33 0l1108 1454h198l-1110 -1454h-196zM920 205q0 56 27.5 105.5t74.5 78.5q-80 59 -80 152q0 89 70 152.5t180 64.5q108 -1 176 -66t68 -155q0 -88 -78 -148q46 -30 74 -79t28 -103q0 -93 -74.5 -161.5
t-199.5 -68.5q-121 0 -193.5 66t-72.5 162zM1300 539q2 34 -28 58t-82 24q-53 -1 -83 -25.5t-28 -58.5q0 -36 29 -59t82 -23t82.5 24t27.5 60zM1321 217q0 40 -36 69t-95 29q-61 0 -97 -30.5t-34 -73.5q0 -43 35 -70.5t96 -27.5q60 0 95.5 30t35.5 74z" />
    <glyph glyph-name="threeeighths" unicode="&#x215c;" horiz-adv-x="1691" 
d="M606 948q0 -106 -78 -184q-77 -74 -186 -74q-116 0 -193.5 82t-68.5 197h143q-2 -6 -2 -27q0 -47 35 -80t86 -33t86 34t35 85q0 59 -43 96q-31 25 -78 25q-36 0 -61 -14l-62 112l141 144h-249v143h471v-127l-142 -139q66 -22 105 -72q61 -76 61 -168zM186 0l1108 1454
h199l-1110 -1454h-197zM1071 205q0 55 28 105t75 79q-80 59 -80 152q0 89 69.5 152.5t179.5 64.5q108 -1 176 -66t68 -155q0 -88 -78 -148q46 -30 74.5 -79t28.5 -103q0 -93 -75 -161.5t-200 -68.5q-121 0 -193.5 66t-72.5 162zM1452 539q2 34 -28.5 58t-82.5 24
q-53 -1 -82.5 -25.5t-27.5 -58.5q0 -36 29 -59t81 -23q53 0 83 24t28 60zM1473 217q0 40 -36.5 69t-95.5 29q-61 0 -97 -30.5t-34 -73.5q0 -43 35 -70.5t96 -27.5q60 0 96 30t36 74z" />
    <glyph glyph-name="fiveeighths" unicode="&#x215d;" horiz-adv-x="1703" 
d="M223 975q-6 -60 29.5 -99.5t95.5 -39.5q54 0 92.5 38t38.5 89q0 60 -38.5 97.5t-98.5 37.5q-35 0 -66.5 -17.5t-42.5 -42.5l-133 35l95 381h399v-143h-287l-24 -92q38 10 73 10q113 0 187.5 -77t74.5 -194q0 -108 -79 -186t-191 -78q-118 0 -196 82t-72 199h143zM199 0
l1108 1454h198l-1110 -1454h-196zM1085 205q0 55 28 105t75 79q-80 59 -80 152q0 89 70 152.5t180 64.5q108 -1 176 -66t68 -155q0 -88 -78 -148q46 -30 74 -79t28 -103q0 -93 -74.5 -161.5t-199.5 -68.5q-121 0 -194 66t-73 162zM1466 539q2 34 -28 58t-82 24
q-53 -1 -83 -25.5t-28 -58.5q0 -36 29 -59t82 -23t82.5 24t27.5 60zM1487 217q0 40 -36 69t-95 29q-61 0 -97 -30.5t-34 -73.5q0 -43 35 -70.5t96 -27.5q60 0 95.5 30t35.5 74z" />
    <glyph glyph-name="seveneighths" unicode="&#x215e;" horiz-adv-x="1597" 
d="M623 1454v-149q-138 -102 -199 -230q-63 -129 -72 -211q-10 -92 -10 -162h-149q0 368 235 603h-348v149h543zM92 0l1108 1454h199l-1110 -1454h-197zM977 205q0 56 27.5 105.5t74.5 78.5q-80 59 -80 152q0 89 70 152.5t180 64.5q108 -1 176 -66t68 -155q0 -88 -78 -148
q46 -30 74.5 -79t28.5 -103q0 -93 -75 -161.5t-200 -68.5q-121 0 -193.5 66t-72.5 162zM1358 539q2 34 -28.5 58t-82.5 24q-53 -1 -82.5 -25.5t-27.5 -58.5q0 -36 29 -59t81 -23q53 0 83 24t28 60zM1378 217q0 40 -36 69t-95 29q-61 0 -97 -30.5t-34 -73.5q0 -43 35 -70.5
t96 -27.5q60 0 95.5 30t35.5 74z" />
    <glyph glyph-name="arrowleft" unicode="&#x2190;" horiz-adv-x="1957" 
d="M123 563l696 697l121 -121l-489 -490h1384v-170h-1384l489 -489l-121 -121z" />
    <glyph glyph-name="arrowup" unicode="&#x2191;" horiz-adv-x="1644" 
d="M823 1636l699 -692l-121 -121l-494 486v-1309h-170v1309l-493 -486l-121 121z" />
    <glyph glyph-name="arrowright" unicode="&#x2192;" horiz-adv-x="1955" 
d="M1833 616l-694 -694l-121 121l489 489h-1384v168l1384 2l-489 490l121 119z" />
    <glyph glyph-name="arrowdown" unicode="&#x2193;" horiz-adv-x="1634" 
d="M817 -231l-694 696l121 121l489 -488v1422h170v-1424l490 490l118 -121z" />
    <glyph glyph-name="arrowboth" unicode="&#x2194;" horiz-adv-x="2265" 
d="M1616 264l203 199h-895h-478l205 -201v-244l-528 531l528 528v-246l-202 -196h471v2h436l463 -2l-203 196v246l526 -526l-526 -533v246z" />
    <glyph glyph-name="arrowupdn" unicode="&#x2195;" horiz-adv-x="1304" 
d="M936 166h246l-533 -528l-526 528h244l198 -203v475h-2v434h2v461l-198 -200h-244l526 526l533 -526h-246l-199 202v-897v-475z" />
    <glyph glyph-name="uni2196" unicode="&#x2196;" horiz-adv-x="1705" 
d="M731 1356v-13l-12 13h12zM1311 696l-396 -90l-16 41l-29 -416l-706 580v303l567 -2v231z" />
    <glyph glyph-name="uni2197" unicode="&#x2197;" horiz-adv-x="1734" 
d="M1612 1489v-983h-172v692l-1196 -1198l-121 119l1198 1198h-692v172h983z" />
    <glyph glyph-name="uni2198" unicode="&#x2198;" horiz-adv-x="1730" 
d="M1608 2h-983v172h692l-1194 1194l119 121l1196 -1194v692l170 -2v-983z" />
    <glyph glyph-name="uni2199" unicode="&#x2199;" horiz-adv-x="1736" 
d="M123 0l2 981h170v-690l1200 1200l119 -119l-1198 -1202l692 -2l-2 -168h-983z" />
    <glyph glyph-name="partialdiff" unicode="&#x2202;" horiz-adv-x="1280" 
d="M1188 602q0 -154 -46 -276.5t-124.5 -197.5t-177 -114t-209.5 -39q-109 0 -207.5 37.5t-173 105t-118.5 171t-44 227.5q0 120 40.5 222t111 171.5t165.5 108.5t203 39q88 0 167.5 -26.5t133.5 -78.5q-55 140 -166.5 280.5t-263.5 256.5h281q204 -177 315 -420
q113 -238 113 -467zM985 528q0 150 -101.5 253.5t-252.5 103.5t-254 -105t-103 -254t104 -253.5t255 -104.5q150 0 251 104t101 256z" />
    <glyph glyph-name="emptyset" unicode="&#x2205;" horiz-adv-x="1671" 
d="M1438 1165q114 -178 114 -417q3 -219 -89 -399.5t-257 -283.5t-368 -100q-141 0 -269.5 53.5t-226.5 151.5l-154 -139l-106 116l162 148q-121 195 -121 430q-2 158 52.5 299.5t150 242.5t228.5 159.5t282 56.5q299 0 503 -195l146 131l104 -116zM399 434l787 713
q-137 137 -350 137q-223 0 -363.5 -156t-140.5 -403q0 -160 67 -291zM1278 1020l-786 -713q141 -141 346 -141q228 0 366.5 155t138.5 404q0 168 -65 295z" />
    <glyph glyph-name="uni2206" unicode="&#x2206;" horiz-adv-x="1421" 
d="M1298 184v-184h-1175v184l485 1270h203zM322 184h776l-387 1012z" />
    <glyph glyph-name="product" unicode="&#x220f;" horiz-adv-x="1296" 
d="M1006 1006v-633q0 -168 151 -168q25 0 55 6v-207q-36 -8 -94 -8q-151 0 -240.5 86.5t-89.5 253.5v670h-323v-1006h-219v1006h-187v219h406h541h206v-219h-206z" />
    <glyph glyph-name="summation" unicode="&#x2211;" horiz-adv-x="1067" 
d="M76 231l489 519l-489 507v232h897v-225h-621l484 -514l-488 -523h625v-227h-897v231z" />
    <glyph glyph-name="minus" unicode="&#x2212;" horiz-adv-x="1024" 
d="M887 758v-189h-750v189h750z" />
    <glyph glyph-name="radical" unicode="&#x221a;" horiz-adv-x="1476" 
d="M1417 1481v-203h-323l-508 -1278h-207l-379 1004h205l280 -738l480 1215h452z" />
    <glyph glyph-name="infinity" unicode="&#x221e;" horiz-adv-x="1816" 
d="M502 985q120 0 224 -62.5t183 -185.5q77 123 181.5 185.5t224.5 62.5q167 0 284 -116.5t117 -282.5t-117 -283t-284 -117q-120 0 -224.5 62.5t-181.5 183.5q-79 -122 -183 -184t-224 -62q-167 0 -284.5 117t-117.5 283t117.5 282.5t284.5 116.5zM506 387q78 0 149.5 49.5
t118.5 149.5q-47 99 -118 147.5t-150 48.5q-88 0 -145.5 -55t-57.5 -141q0 -88 56.5 -143.5t146.5 -55.5zM1311 387q90 0 146 55.5t56 143.5q0 86 -57 141t-145 55q-79 0 -150.5 -48.5t-118.5 -147.5q47 -100 119 -149.5t150 -49.5z" />
    <glyph glyph-name="integral" unicode="&#x222b;" horiz-adv-x="770" 
d="M709 1516v-201h-107q-52 0 -80 -32t-28 -93v-467v-422q0 -147 -88 -238q-90 -90 -226 -90h-119v201h105q52 0 80 32.5t28 94.5v467v422q0 146 88 236t228 90h119z" />
    <glyph glyph-name="approxequal" unicode="&#x2248;" horiz-adv-x="937" 
d="M856 793q0 -102 -62 -167t-157 -65q-52 0 -95 19.5t-106 64.5q-88 64 -141 64q-88 0 -94 -93h-119q0 99 61.5 162.5t155.5 63.5q51 0 93 -18.5t110 -63.5q56 -37 84.5 -50.5t56.5 -13.5q85 0 94 97h119zM856 469q0 -103 -62 -167t-157 -64q-51 0 -93.5 18t-107.5 63
q-88 64 -141 64q-88 0 -94 -92h-119q0 99 61.5 163t155.5 64q50 0 93 -19t110 -65q55 -36 83.5 -49.5t57.5 -13.5q85 0 94 98h119z" />
    <glyph glyph-name="notequal" unicode="&#x2260;" horiz-adv-x="1161" 
d="M743 829l-151 -276h465v-188h-568l-131 -240h-204l129 240h-179v188h283l152 276h-435v189h537l139 258h207l-141 -258h211v-189h-314z" />
    <glyph glyph-name="lessequal" unicode="&#x2264;" horiz-adv-x="1116" 
d="M74 897l952 326v-236l-606 -205l606 -202v-236l-952 326v227zM74 236h952v-236h-952v236z" />
    <glyph glyph-name="greaterequal" unicode="&#x2265;" horiz-adv-x="1173" 
d="M1061 848v-201l-932 -319v204l635 216l-635 213v206zM129 205h932v-205h-932v205z" />
    <glyph glyph-name="filledbox" unicode="&#x25a0;" horiz-adv-x="1699" 
d="M1577 1454v-1454h-1454v1454h1454z" />
    <glyph glyph-name="uni25A1" unicode="&#x25a1;" horiz-adv-x="1699" 
d="M1577 1454v-1454h-1454v1454h1454zM293 170h1114v1114h-1114v-1114z" />
    <glyph glyph-name="triagup" unicode="&#x25b2;" horiz-adv-x="1978" 
d="M123 0l866 1454l866 -1454h-1732z" />
    <glyph glyph-name="uni25B3" unicode="&#x25b3;" horiz-adv-x="1980" 
d="M123 4l868 1456l867 -1456h-1735zM989 1145l-588 -987h1178z" />
    <glyph glyph-name="lozenge" unicode="&#x25ca;" horiz-adv-x="1290" 
d="M1167 727l-415 -727h-213l-416 727l416 727h213zM944 727l-299 537l-299 -537l299 -537z" />
    <glyph glyph-name="circle" unicode="&#x25cb;" horiz-adv-x="1839" 
d="M123 682q-4 156 61 305t173.5 257.5t257.5 173.5t305 61q156 4 305 -61t257.5 -173.5t173 -257.5t60.5 -305q4 -156 -60.5 -305t-173 -257.5t-257.5 -173.5t-305 -61q-158 -4 -306.5 61t-256.5 173.5t-172.5 257t-61.5 305.5zM1552 682q2 123 -49.5 241t-138 204.5
t-204 138t-240.5 49.5q-126 2 -244 -49t-204 -136.5t-137 -203.5t-48 -244q-3 -126 48 -244t137 -204t204 -137t244 -48q126 -3 243.5 48t203.5 137t136.5 204t48.5 244z" />
    <glyph glyph-name="uni25CF" unicode="&#x25cf;" horiz-adv-x="1839" 
d="M123 682q-4 156 61 305t173.5 257.5t257.5 173.5t305 61q156 4 305 -61t257.5 -173.5t173 -257.5t60.5 -305q4 -156 -60.5 -305t-173 -257.5t-257.5 -173.5t-305 -61q-158 -4 -306.5 61t-256.5 173.5t-172.5 257t-61.5 305.5z" />
    <glyph glyph-name="uni262E" unicode="&#x262e;" horiz-adv-x="1839" 
d="M1716 682q4 -156 -60.5 -305t-173 -257.5t-257.5 -173.5t-305 -61q-158 -4 -306.5 61t-256.5 173.5t-172.5 257t-61.5 305.5q-4 156 61 305t173.5 257.5t257.5 173.5t305 61q156 4 305 -61t257.5 -173.5t173 -257.5t60.5 -305zM287 682q0 -133 53 -254l506 342v541
q-152 -15 -282 -104.5t-205 -229.5t-72 -295zM993 1311v-541l506 -342q53 121 53 254q3 154 -72 293.5t-205 230t-282 105.5zM846 53v537l-432 -289q79 -104 191 -169.5t241 -78.5zM1425 301l-432 289v-537q129 13 241 78.5t191 169.5z" />
    <glyph glyph-name="smileface" unicode="&#x263a;" horiz-adv-x="1837" 
d="M123 684q-3 155 61.5 302t173 254.5t258 171.5t308.5 61q156 3 303.5 -61t255 -171.5t171.5 -254.5t60 -302q2 -128 -38 -250t-114.5 -221t-172.5 -173.5t-219 -114.5t-246 -38q-160 -3 -309 60.5t-257.5 171.5t-173 257t-61.5 308zM1565 680q2 129 -49 249.5t-138 207.5
t-206.5 138.5t-247.5 49.5q-133 3 -254.5 -48t-208 -138.5t-137 -207.5t-48.5 -251q-2 -132 47.5 -251.5t136 -205t208 -135t256.5 -47.5q171 -3 320 82.5t236.5 234.5t84.5 322zM547 862q0 50 36 86.5t85 36.5t83.5 -36.5t34.5 -86.5t-34.5 -86.5t-83.5 -36.5t-85 36.5
t-36 86.5zM1059 854q0 50 36 86.5t87 36.5q49 0 83.5 -36.5t34.5 -86.5t-34.5 -85.5t-83.5 -35.5q-51 0 -87 35.5t-36 85.5zM709 606q-9 -94 55 -164q64 -67 160 -67t159 67t58 164h135q6 -148 -98 -257t-254 -109q-152 0 -254.5 107.5t-96.5 258.5h136z" />
    <glyph glyph-name="uni2713" unicode="&#x2713;" horiz-adv-x="1466" 
d="M201 627l307 -328l649 784l146 -122l-789 -947l-442 478z" />
    <glyph glyph-name="uni2776" unicode="&#x2776;" horiz-adv-x="1642" 
d="M102 713q-4 141 54 275t156 232t232.5 156.5t276.5 55.5q141 3 275 -55.5t232 -156.5t156.5 -232t55.5 -275q3 -142 -55 -276.5t-156 -232.5t-232 -156.5t-276 -55.5q-142 -3 -276.5 55.5t-232.5 156.5t-156 232.5t-54 276.5zM909 1122h-133l-151 -78v-133l145 70v-651
h139v792z" />
    <glyph glyph-name="uni2777" unicode="&#x2777;" horiz-adv-x="1642" 
d="M1540 713q3 -142 -55 -276.5t-156 -232.5t-232 -156.5t-276 -55.5q-142 -3 -276.5 55.5t-232.5 156.5t-156 232.5t-54 276.5q-4 141 54 275t156 232t232.5 156.5t276.5 55.5q142 3 276 -55.5t232 -156.5t156 -232t55 -275zM799 500l155 137q69 63 98.5 113.5t30.5 115.5
q-1 114 -73.5 183t-186.5 69q-117 0 -190.5 -77.5t-67.5 -194.5h137q0 62 31 97t90 36q56 0 87.5 -31t31.5 -86q0 -30 -13 -53t-46 -53l-303 -281v-119l485 2v142h-266z" />
    <glyph glyph-name="uni2778" unicode="&#x2778;" horiz-adv-x="1642" 
d="M102 713q-4 141 54 275t156 232t232.5 156.5t276.5 55.5q141 3 275 -55.5t232 -156.5t156.5 -232t55.5 -275q3 -142 -55 -276.5t-156 -232.5t-232 -156.5t-276 -55.5q-142 -3 -276.5 55.5t-232.5 156.5t-156 232.5t-54 276.5zM834 322q114 0 188 71t74 185
q0 93 -51.5 157.5t-137.5 83.5l154 162v115h-461v-144h250l-141 -153l2 -97h110q59 2 97 -30.5t38 -93.5q0 -54 -34 -88.5t-88 -34.5q-60 0 -95.5 38.5t-33.5 100.5h-136q-6 -113 70.5 -192.5t194.5 -79.5z" />
    <glyph glyph-name="uni2779" unicode="&#x2779;" horiz-adv-x="1642" 
d="M102 713q-4 141 54 275t156 232t232.5 156.5t276.5 55.5q141 3 275 -55.5t232 -156.5t156.5 -232t55.5 -275q3 -142 -55 -276.5t-156 -232.5t-232 -156.5t-276 -55.5q-142 -3 -276.5 55.5t-232.5 156.5t-156 232.5t-54 276.5zM973 330v145h123v135h-123v512h-137
l-365 -504v-143h360v-145h142zM831 893v-283h-213z" />
    <glyph glyph-name="uni277A" unicode="&#x277a;" horiz-adv-x="1642" 
d="M102 713q-4 141 54 275t156 232t232.5 156.5t276.5 55.5q141 3 275 -55.5t232 -156.5t156.5 -232t55.5 -275q3 -142 -55 -276.5t-156 -232.5t-232 -156.5t-276 -55.5q-142 -3 -276.5 55.5t-232.5 156.5t-156 232.5t-54 276.5zM729 973h315v139h-426l-77 -440l123 -21
q49 80 141 80q66 0 106.5 -40.5t40.5 -106.5t-40 -107t-103 -41q-125 0 -147 129l-138 -35q17 -106 93 -169.5t188 -63.5q129 0 211 81t82 206q0 123 -77 204.5t-194 81.5q-71 0 -120 -30z" />
    <glyph glyph-name="uni277B" unicode="&#x277b;" horiz-adv-x="1642" 
d="M102 713q-4 141 54 275t156 232t232.5 156.5t276.5 55.5q141 3 275 -55t232 -156t156.5 -232t55.5 -276q3 -142 -55 -276.5t-156 -232.5t-232 -156.5t-276 -55.5q-142 -3 -276.5 55.5t-232.5 156.5t-156 232.5t-54 276.5zM815 995q51 0 93 -22t65 -60l131 45
q-37 82 -111 128.5t-170 46.5q-158 0 -243.5 -108.5t-85.5 -305.5q0 -195 81.5 -305.5t223.5 -110.5q129 0 211 82q86 83 86 215q0 120 -82 199q-80 80 -199 80q-120 0 -178 -70q5 82 54 134t124 52zM651 592q0 63 43 105t109 42q63 0 104 -42t41 -105q0 -68 -40.5 -110
t-106.5 -42t-108 43t-42 109z" />
    <glyph glyph-name="uni277C" unicode="&#x277c;" horiz-adv-x="1642" 
d="M102 713q-4 141 54 275t156 232t232.5 156.5t276.5 55.5q141 3 275 -55.5t232 -156.5t156.5 -232t55.5 -275q3 -142 -55 -276.5t-156 -232.5t-232 -156.5t-276 -55.5q-142 -3 -276.5 55.5t-232.5 156.5t-156 232.5t-54 276.5zM668 330h145q38 377 279 633v116h-504v-127
h336q-217 -288 -256 -622z" />
    <glyph glyph-name="uni277D" unicode="&#x277d;" horiz-adv-x="1642" 
d="M102 713q-4 141 54 275t156 232t232.5 156.5t276.5 55.5q141 3 275 -55.5t232 -156.5t156.5 -232t55.5 -275q3 -142 -55 -276.5t-156 -232.5t-232 -156.5t-276 -55.5q-142 -3 -276.5 55.5t-232.5 156.5t-156 232.5t-54 276.5zM1112 567q0 64 -28.5 120.5t-75.5 80.5
q29 23 46 62.5t17 82.5q0 99 -69.5 159.5t-184.5 60.5q-117 0 -187.5 -61t-70.5 -161q0 -38 17.5 -79.5t46.5 -67.5q-44 -20 -74.5 -77.5t-30.5 -123.5q0 -117 81 -186.5t218 -69.5q135 0 215 70.5t80 189.5zM705 905q0 39 31.5 64.5t80.5 25.5q50 0 80.5 -24.5t30.5 -65.5
q0 -38 -31 -63t-80 -25t-80.5 25t-31.5 63zM664 571q0 57 42 93t111 36q68 0 111 -36t43 -93t-43 -92t-111 -35t-110.5 35t-42.5 92z" />
    <glyph glyph-name="uni277E" unicode="&#x277e;" horiz-adv-x="1642" 
d="M102 713q-4 141 54 275t156 232t232.5 156.5t276.5 55.5q141 3 275 -55.5t232 -156.5t156.5 -232t55.5 -275q3 -142 -55 -276.5t-156 -232.5t-232 -156.5t-276 -55.5q-142 -3 -276.5 55.5t-232.5 156.5t-156 232.5t-54 276.5zM815 442q-121 0 -164 90l-133 -47
q35 -82 112 -130t175 -48q151 0 234 101t83 294q0 205 -80 318t-231 113q-123 0 -207 -84q-80 -83 -80 -209q0 -118 79 -197.5t198 -79.5q116 0 184 74q0 -87 -45.5 -140.5t-124.5 -54.5zM961 846q0 -66 -42 -107t-110 -41q-60 0 -101.5 42.5t-41.5 103.5q0 68 42 109.5
t109 41.5q63 0 103.5 -41.5t40.5 -107.5z" />
    <glyph glyph-name="uni2780" unicode="&#x2780;" horiz-adv-x="1798" 
d="M102 682q-4 156 61 305t173.5 257.5t257.5 173.5t305 61q156 4 305 -61t257.5 -173.5t173.5 -257.5t61 -305q4 -156 -61 -305t-173.5 -257.5t-257.5 -173.5t-305 -61q-158 -4 -306.5 61t-256.5 173.5t-172.5 257t-61.5 305.5zM1532 682q2 123 -49.5 241t-138 204.5
t-204.5 138t-241 49.5q-126 2 -244 -49t-204 -136.5t-137 -203.5t-48 -244q-3 -126 48 -244t137 -204t204 -137t244 -48q126 -3 244 48t203.5 137t136.5 204t49 244zM702 965l156 79v-143l-156 -80v144zM858 1044h146v-751h-144z" />
    <glyph glyph-name="uni2781" unicode="&#x2781;" horiz-adv-x="1798" 
d="M1696 682q4 -156 -61 -305t-173.5 -257.5t-257.5 -173.5t-305 -61q-158 -4 -306.5 61t-256.5 173.5t-172.5 257t-61.5 305.5q-4 156 61 305t173.5 257.5t257.5 173.5t305 61q156 4 305 -61t257.5 -173.5t173.5 -257.5t61 -305zM1532 682q2 123 -49.5 241t-138 204.5
t-204.5 138t-241 49.5q-126 2 -244 -49t-204 -136.5t-137 -203.5t-48 -244q-3 -126 48 -244t137 -204t204 -137t244 -48q126 -3 244 48t203.5 137t136.5 204t49 244zM1049 590l-156 -137l266 2v-144l-485 -2v119l303 281q59 54 59 102q0 57 -31 89t-87 32q-60 -1 -91.5 -36
t-29.5 -97h-140q-6 118 70 195t195 77q111 0 182.5 -70t71.5 -182q0 -63 -28 -111t-99 -118z" />
    <glyph glyph-name="uni2782" unicode="&#x2782;" horiz-adv-x="1798" 
d="M1696 682q3 -157 -61.5 -305.5t-173 -257t-257.5 -173.5t-307 -61q-156 -4 -304.5 61t-256.5 173.5t-172.5 257.5t-61.5 305q-4 156 61 305t173.5 257.5t257.5 173.5t305 61q156 4 305 -61t257.5 -173.5t173.5 -257.5t61 -305zM1532 682q2 123 -49.5 241t-138 204.5
t-204.5 138t-243 49.5q-167 3 -314 -83.5t-233.5 -234t-83.5 -315.5q-3 -126 48 -244t137 -204t204 -137t244 -48q126 -3 244 48t203.5 137t136.5 204t49 244zM1161 528q0 -112 -74.5 -183t-187.5 -71q-118 0 -194 78.5t-70 194.5h135q-2 -63 33.5 -101t95.5 -38
q54 0 88.5 33t34.5 87q0 61 -38 95t-97 32h-111l-2 97l141 151h-249v146h460v-117l-153 -160q86 -21 137 -85t51 -159z" />
    <glyph glyph-name="uni2783" unicode="&#x2783;" horiz-adv-x="1798" 
d="M1696 682q4 -156 -61 -305t-173.5 -257.5t-257.5 -173.5t-305 -61q-158 -4 -306.5 61t-256.5 173.5t-172.5 257t-61.5 305.5q-4 156 61 305t173.5 257.5t257.5 173.5t305 61q156 4 305 -61t257.5 -173.5t173.5 -257.5t61 -305zM1532 682q2 123 -49.5 241t-138 204.5
t-204.5 138t-241 49.5q-126 2 -244 -49t-204 -136.5t-137 -203.5t-48 -244q-3 -126 48 -244t137 -204t204 -137t244 -48q126 -3 244 48t203.5 137t136.5 204t49 244zM1069 588l94 -2v-140h-94v-141h-145v141h-353v142l353 471h145v-471zM924 588v237l-176 -237h176z" />
    <glyph glyph-name="uni2784" unicode="&#x2784;" horiz-adv-x="1798" 
d="M102 682q-4 156 61 305t173.5 257.5t257.5 173.5t305 61q156 4 305 -61t257.5 -173.5t173.5 -257.5t61 -305q4 -156 -61 -305t-173.5 -257.5t-257.5 -173.5t-305 -61q-158 -4 -306.5 61t-256.5 173.5t-172.5 257t-61.5 305.5zM1532 682q2 123 -49.5 241t-138 204.5
t-204.5 138t-241 49.5q-126 2 -244 -49t-204 -136.5t-137 -203.5t-48 -244q-3 -126 48 -244t137 -204t204 -137t244 -48q126 -3 244 48t203.5 137t136.5 204t49 244zM766 565q-5 -60 30 -99.5t95 -39.5q56 0 93.5 36.5t37.5 90.5q0 60 -37.5 97.5t-97.5 37.5
q-35 0 -66.5 -17t-42.5 -42l-133 35l94 380h400v-143h-287l-27 -92q42 10 74 10q115 0 189.5 -76.5t74.5 -193.5q0 -107 -81 -185.5t-191 -78.5q-118 0 -195 82t-71 198h141z" />
    <glyph glyph-name="uni2785" unicode="&#x2785;" horiz-adv-x="1798" 
d="M102 682q-4 156 61 305t173.5 257.5t257.5 173.5t305 61q156 4 305 -61t257.5 -173.5t173.5 -257.5t61 -305q4 -156 -61 -305t-173.5 -257.5t-257.5 -173.5t-305 -61q-158 -4 -306.5 61t-256.5 173.5t-172.5 257t-61.5 305.5zM1532 682q2 123 -49.5 241t-138 204.5
t-204.5 138t-241 49.5q-126 2 -244 -49t-204 -136.5t-137 -203.5t-48 -244q-3 -126 48 -244t137 -204t204 -137t244 -48q126 -3 244 48t203.5 137t136.5 204t49 244zM901 1057q174 -3 256 -146l-106 -71q-50 80 -142 80q-62 0 -110 -42.5t-60 -115.5q26 37 69 57.5t91 20.5
q116 0 186 -76.5t70 -194.5q0 -122 -77 -201t-201 -79q-141 0 -211 104q-72 110 -72 258q0 125 45 230q33 76 105 125.5t157 50.5zM872 426q63 0 104 41t40 108q-4 56 -42.5 93t-90.5 37q-55 0 -94 -40t-39 -102t33.5 -99.5t88.5 -37.5z" />
    <glyph glyph-name="uni2786" unicode="&#x2786;" horiz-adv-x="1798" 
d="M1696 682q4 -156 -61 -305t-173.5 -257.5t-257.5 -173.5t-305 -61q-158 -4 -306.5 61t-256.5 173.5t-172.5 257t-61.5 305.5q-4 156 61 305t173.5 257.5t257.5 173.5t305 61q156 4 305 -61t257.5 -173.5t173.5 -257.5t61 -305zM1532 682q2 123 -49.5 241t-138 204.5
t-204.5 138t-241 49.5q-126 2 -244 -49t-204 -136.5t-137 -203.5t-48 -244q-3 -126 48 -244t137 -204t204 -137t244 -48q126 -3 244 48t203.5 137t136.5 204t49 244zM637 1044h543v-149q-139 -103 -199 -229q-63 -130 -72 -209q-8 -73 -8 -164h-151q0 365 237 602h-350v149z
" />
    <glyph glyph-name="uni2787" unicode="&#x2787;" horiz-adv-x="1798" 
d="M102 682q-4 156 61 305t173.5 257.5t257.5 173.5t305 61q156 4 305 -61t257.5 -173.5t173.5 -257.5t61 -305q4 -156 -61 -305t-173.5 -257.5t-257.5 -173.5t-305 -61q-158 -4 -306.5 61t-256.5 173.5t-172.5 257t-61.5 305.5zM1532 682q2 123 -49.5 241t-138 204.5
t-204.5 138t-241 49.5q-126 2 -244 -49t-204 -136.5t-137 -203.5t-48 -244q-3 -126 48 -244t137 -204t204 -137t244 -48q126 -3 244 48t203.5 137t136.5 204t49 244zM621 522q0 56 27.5 105t74.5 78q-80 59 -80 151q0 86 70 150.5t178 64.5q106 0 175 -63t71 -150
q0 -91 -80 -153q45 -30 72.5 -78.5t27.5 -102.5q0 -96 -73.5 -162.5t-198.5 -66.5q-121 0 -192.5 65.5t-71.5 161.5zM999 858q0 32 -30.5 55t-79.5 23t-79 -24t-32 -58q0 -34 31 -59t80 -25q53 1 84 26.5t26 61.5zM1020 535q-5 43 -39 69.5t-92 26.5t-92.5 -28t-36.5 -71
q0 -43 35 -73.5t94 -30.5q61 0 97 31t34 76z" />
    <glyph glyph-name="uni2788" unicode="&#x2788;" horiz-adv-x="1798" 
d="M102 682q-4 156 61 305t173.5 257.5t257.5 173.5t305 61q156 4 305 -61t257.5 -173.5t173.5 -257.5t61 -305q4 -156 -61 -305t-173.5 -257.5t-257.5 -173.5t-305 -61q-158 -4 -306.5 61t-256.5 173.5t-172.5 257t-61.5 305.5zM1532 682q2 123 -49.5 241t-138 204.5
t-204.5 138t-241 49.5q-126 2 -244 -49t-204 -136.5t-137 -203.5t-48 -244q-3 -126 48 -244t137 -204t204 -137t244 -48q126 -3 244 48t203.5 137t136.5 204t49 244zM874 504q52 0 100.5 21.5t72.5 58.5q-10 -71 -55.5 -115t-104.5 -49q-99 -3 -144 76l-114 -68
q83 -145 250 -145q149 0 225 108q80 109 80 273q0 91 -25 186q-23 91 -90.5 145.5t-159.5 55.5q-116 6 -200 -78t-84 -205q0 -120 73 -190q74 -71 176 -74zM903 918q56 0 91.5 -39t37.5 -97q0 -66 -40.5 -107.5t-98.5 -41.5q-57 0 -94 39t-37 104q0 61 41.5 101.5t99.5 40.5
z" />
    <glyph glyph-name="DegarismLogo" horiz-adv-x="3129" 
d="M1497 563h469v-547h-168l-20 164h-19q0 -8 -8 -26.5t-30.5 -46t-54 -52t-86 -41t-120.5 -14.5q-195 0 -317 131q-123 132 -123 387q0 129 39.5 232t107 166.5t153 97t181.5 33.5q77 0 150.5 -22.5t136.5 -65.5t108 -113.5t60 -159.5h-232q-21 75 -77.5 118.5t-141.5 43.5
q-125 0 -191.5 -88.5t-66.5 -233.5q0 -146 65.5 -236.5t188.5 -90.5q87 0 149 47t79 123h-232v194zM2042 936q0 45 32.5 78t79.5 33t79 -32t32 -79t-33 -80t-78 -33q-44 0 -78 34.5t-34 78.5zM2324 936q0 45 33 78t80 33t79 -32t32 -79t-33 -80t-78 -33q-44 0 -78.5 34.5
t-34.5 78.5zM2613 1004h60v-175h51v175h61v43h-172v-43zM2957 1047l-28 -181l-25 181h-90v-218h51v187l29 -187h72l30 187v-187h51v218h-90zM950 526q0 -249 -124 -379.5t-347 -130.5h-397v1020h397q223 0 347 -130.5t124 -379.5zM725 526q0 195 -86 260q-82 64 -160 64
h-135q-31 2 -61.5 13.5t-45.5 21t-20 14.5l-16 -16q54 -54 61 -62q45 -38 45 -114v-363q0 -70 -45 -115l-61 -61l16 -14q6 6 23 16.5t51.5 21.5t68.5 11h119q80 0 162 61q84 66 84 262zM2478 707q30 0 70 -7v-182q-8 2 -37 2q-102 0 -157.5 -53.5t-55.5 -163.5v-287h-221
v527q0 95 -15 157h224q4 -26 8 -82q47 89 184 89z" />
    <glyph glyph-name="bracketleftsuperior" horiz-adv-x="425" 
d="M416 455h-326v1335h326v-125h-174v-1085h174v-125z" />
    <glyph glyph-name="bracketrightsuperior" horiz-adv-x="415" 
d="M174 580v1085h-174v125h326v-1335h-326v125h174z" />
    <glyph glyph-name="G.ss01" horiz-adv-x="1595" 
d="M1483 799v-162q1 -138 -47.5 -260t-136 -211.5t-217 -141t-281.5 -49.5q-212 0 -375.5 94.5t-253.5 268t-90 401.5q0 348 199.5 561t523.5 213q226 0 396.5 -107t250.5 -294l-223 -86q-56 127 -167.5 194.5t-256.5 67.5q-219 0 -351 -147.5t-132 -401.5q0 -250 131 -394
t350 -144q187 0 306 104.5t132 292.5h-473v201h715z" />
    <glyph glyph-name="i.loclTRK" horiz-adv-x="448" 
d="M334 1006v-1006h-219v1006h219zM84 1274q0 60 42 101.5t99 41.5t99.5 -43t42.5 -100t-42.5 -98t-99.5 -41q-59 0 -100 40.5t-41 98.5z" />
    <glyph glyph-name="a.ss01" horiz-adv-x="1269" 
d="M915 0q-9 56 -12 141q-49 -79 -141 -123.5t-205 -44.5q-220 0 -352.5 147t-132.5 380q0 238 133 386t356 148q116 0 205.5 -42.5t138.5 -121.5l10 136h201v-773q0 -28 4 -122q5 -55 13 -111h-218zM889 506q0 151 -83.5 241.5t-215.5 90.5q-131 0 -214 -91t-83 -241
q0 -151 83 -242.5t214 -91.5q130 0 214.5 93t84.5 241z" />
    <glyph glyph-name="g.ss02" horiz-adv-x="1253" 
d="M1120 1006v-971q0 -244 -138.5 -382t-375.5 -138q-188 0 -319 89t-187 249l195 73q29 -102 113 -157.5t204 -55.5q140 0 217.5 81.5t77.5 225.5v162q-50 -74 -142 -116.5t-208 -42.5q-217 0 -348 140.5t-131 364.5q0 223 133.5 365.5t353.5 142.5q117 0 208 -43.5
t140 -124.5l11 138h196zM897 530q0 137 -84 226.5t-219 89.5q-133 0 -215 -89t-82 -227q0 -139 82 -227q84 -90 215 -90t217 91t86 226z" />
    <glyph glyph-name="t.ss03" horiz-adv-x="741" 
d="M657 0q-103 -23 -165 -23q-144 0 -225 81.5t-81 238.5v524h-155v185h155v315h215v-315h236v-185h-236v-489q0 -162 129 -162q45 0 101 20z" />
    <glyph glyph-name="i.ss04" horiz-adv-x="534" 
d="M426 1346l-160 -160l-157 160l157 157zM377 1006v-1006h-219v1006h219z" />
    <glyph glyph-name="four.ss03" horiz-adv-x="1357" 
d="M1307 289h-189v-289h-213v289h-801v217h801v756l-545 -756h-256l705 983h258h51v-983h189v-217z" />
    <glyph glyph-name="zero.tf" horiz-adv-x="1472" 
d="M739 1516q197 0 344 -98t225 -273.5t78 -405.5q0 -228 -79 -401.5t-225.5 -269t-340.5 -95.5q-197 0 -344 95.5t-225 269.5t-78 405q0 225 80 400.5t227 274t338 98.5zM743 178q192 0 306 149t114 414t-114 416.5t-304 151.5q-197 0 -312.5 -150.5t-115.5 -417.5
q0 -266 114.5 -414.5t311.5 -148.5z" />
    <glyph glyph-name="one.tf" horiz-adv-x="1136" 
d="M1030 195v-195h-518h-311v195h311v1065l-268 -146v219l268 156h221v-1294h297z" />
    <glyph glyph-name="two.tf" horiz-adv-x="1236" 
d="M451 207l643 2v-205l-953 -4v225l590 514q94 82 131 150t37 141q0 126 -79 203.5t-202 77.5q-126 0 -204 -78.5t-78 -210.5h-225q0 224 141 359t369 135q230 0 367.5 -138.5t137.5 -345.5q0 -135 -58.5 -236t-188.5 -216z" />
    <glyph glyph-name="three.tf" horiz-adv-x="1228" 
d="M1112 465q0 -145 -69 -258t-187 -173.5t-262 -60.5q-143 0 -261 61.5t-187.5 175.5t-69.5 259h225q0 -128 83.5 -208.5t213.5 -80.5q126 0 207.5 79.5t81.5 205.5q0 120 -75 199t-202 86q-98 4 -121 4h-102v151l395 379h-635v205h932v-203l-366 -348q174 -34 286 -158
q113 -125 113 -315z" />
    <glyph glyph-name="four.tf" horiz-adv-x="1292" 
d="M1208 289h-184v-289h-217v289h-719v205l623 995h258l-625 -995h463v430h217v-430l184 -2v-203z" />
    <glyph glyph-name="five.tf" horiz-adv-x="1296" 
d="M1200 498q0 -229 -153.5 -376t-391.5 -147q-152 0 -275.5 67t-193 185.5t-69.5 264.5h225q0 -139 88.5 -225.5t228.5 -86.5q132 0 223 90t91 230t-88.5 228.5t-225.5 88.5q-183 0 -286 -131l-211 31l190 772h750v-219h-576l-88 -330q101 70 258 70q225 0 364.5 -147.5
t139.5 -364.5z" />
    <glyph glyph-name="six.tf" horiz-adv-x="1335" 
d="M1245 514q0 -152 -70 -275.5t-194.5 -194.5t-278.5 -71q-151 0 -268.5 58.5t-190.5 162t-110 238t-37 293.5q-1 132 24.5 250.5t79.5 218t132 172t187.5 112.5t240.5 38q133 0 249 -43.5t199 -122.5l-135 -158q-143 115 -323 115q-200 0 -315 -138.5t-118 -357.5
q55 102 160.5 158.5t235.5 56.5q229 0 380.5 -142.5t151.5 -369.5zM1020 508q0 147 -94 238.5t-234 91.5q-137 0 -229 -91.5t-92 -238.5q0 -149 93 -239.5t230 -90.5q139 0 232.5 90.5t93.5 239.5z" />
    <glyph glyph-name="seven.tf" horiz-adv-x="1179" 
d="M1090 1487v-225q-255 -201 -385 -476q-124 -270 -148 -454q-25 -195 -25 -332h-225q0 240 86 592q89 350 418 670h-733v225h1012z" />
    <glyph glyph-name="eight.tf" horiz-adv-x="1290" 
d="M1178 403q0 -128 -69 -225.5t-190.5 -150t-275.5 -52.5q-232 0 -382 119t-150 309q0 135 74 241.5t202 148.5q-102 44 -156.5 129t-54.5 196q0 182 133 288.5t336 106.5q204 0 335.5 -105t131.5 -286q0 -116 -56 -202t-159 -127q132 -41 206.5 -147t74.5 -243zM373 1102
q0 -98 73.5 -158.5t196.5 -60.5q122 0 195 59t73 156q0 103 -74 162t-194 59q-121 0 -195.5 -58t-74.5 -159zM952 434q0 115 -86.5 181.5t-222.5 66.5t-221.5 -66.5t-85.5 -181.5q0 -119 85.5 -187.5t223.5 -68.5q136 0 221.5 68.5t85.5 187.5z" />
    <glyph glyph-name="nine.tf" horiz-adv-x="1351" 
d="M1245 764q0 -167 -41.5 -309.5t-121 -250.5t-207.5 -169.5t-291 -61.5q-135 0 -252 43.5t-197 122.5l135 160q137 -115 324 -115q200 0 314.5 137.5t117.5 356.5q-55 -102 -162 -158.5t-239 -56.5q-228 0 -377.5 142t-149.5 370q0 152 70 275.5t194.5 194.5t278.5 71
q121 0 221 -38.5t170 -106.5t118.5 -162.5t71.5 -206.5t23 -238zM973 981q0 150 -93.5 241t-232.5 91q-137 0 -230 -91.5t-93 -240.5q0 -147 93.5 -237.5t237.5 -90.5q135 0 226.5 92t91.5 236z" />
    <glyph glyph-name="zero.dnom" horiz-adv-x="813" 
d="M399 -27q-145 0 -232 106.5t-87 280.5q0 177 90.5 283.5t239.5 106.5q147 0 235 -106.5t88 -283.5t-90 -282t-244 -105zM586 360q0 111 -48 175.5t-132 64.5q-82 0 -131.5 -65t-49.5 -175t49 -174.5t134 -66.5q82 2 130 66.5t48 174.5z" />
    <glyph glyph-name="one.dnom" horiz-adv-x="450" 
d="M80 686l147 66v-150l-147 -57v141zM371 752v-752h-144v752h144z" />
    <glyph glyph-name="two.dnom" horiz-adv-x="684" 
d="M94 143l279 238q50 42 67 67.5t17 61.5q0 51 -32 81t-87 30q-54 0 -85.5 -31t-31.5 -82q0 -21 2 -27h-143q-11 119 65.5 199t200.5 80q116 0 186 -68.5t72 -181.5q0 -121 -133 -231l-164 -138h285v-141l-498 -2v145z" />
    <glyph glyph-name="three.dnom" horiz-adv-x="698" 
d="M618 248q0 -113 -77.5 -187.5t-194.5 -74.5q-121 0 -198 83t-68 199h145q-2 -6 -2 -28q0 -48 34 -79.5t89 -31.5q56 0 91.5 32.5t35.5 86.5t-36 87.5t-89 33.5q-36 0 -63 -15l-62 111v2l144 143h-256v144h479v-127l-144 -138q77 -27 124.5 -91.5t47.5 -149.5z" />
    <glyph glyph-name="four.dnom" horiz-adv-x="759" 
d="M680 129l-98 2v-143h-146v143h-356v143l356 480h146v-480h98v-145zM436 274v242l-176 -242h176z" />
    <glyph glyph-name="five.dnom" horiz-adv-x="712" 
d="M225 262q-6 -60 30 -100.5t97 -40.5q57 0 96 37.5t39 91.5q0 61 -38.5 99t-100.5 38q-36 0 -68 -17t-44 -42l-138 34l99 392h409v-146h-295l-24 -96q42 10 73 10q119 0 196 -77.5t77 -198.5q0 -112 -82.5 -191.5t-198.5 -79.5q-120 0 -199 83.5t-73 203.5h145z" />
    <glyph glyph-name="six.dnom" horiz-adv-x="743" 
d="M657 262q0 -117 -80 -199.5t-206 -82.5q-139 0 -215 104.5t-76 275.5q0 169 84 285q86 115 244 115q169 -3 256 -129l-113 -78q-48 68 -145 68q-70 0 -116.5 -41t-60.5 -109q60 66 168 66q119 0 189 -82q71 -80 71 -193zM506 252q0 65 -38 104t-99 39q-58 0 -95.5 -40
t-37.5 -105q0 -64 37 -100.5t96 -36.5t98 37.5t39 101.5z" />
    <glyph glyph-name="seven.dnom" horiz-adv-x="704" 
d="M625 754v-152q-139 -103 -199 -229q-63 -129 -72 -211q-10 -92 -10 -162h-151q0 365 237 602h-350v152h545z" />
    <glyph glyph-name="eight.dnom" horiz-adv-x="700" 
d="M80 205q0 56 27.5 105.5t74.5 78.5q-80 59 -80 152q0 89 70 152.5t180 64.5q108 -1 176 -66t68 -155q0 -88 -78 -148q46 -30 74.5 -79t28.5 -103q0 -93 -75 -161.5t-200 -68.5q-121 0 -193.5 66t-72.5 162zM461 539q2 34 -28.5 58t-82.5 24q-53 -1 -82.5 -25.5
t-27.5 -58.5q0 -36 29 -59t81 -23q53 0 83 24t28 60zM481 217q0 40 -36 69t-95 29q-61 0 -97 -30.5t-34 -73.5q0 -43 35 -70.5t96 -27.5q60 0 95.5 30t35.5 74z" />
    <glyph glyph-name="nine.dnom" horiz-adv-x="731" 
d="M336 199q-108 5 -182 78.5t-74 191.5q0 120 80 205.5t194 85.5q97 0 170.5 -56.5t96.5 -150.5q30 -102 30 -201q0 -169 -79.5 -273.5t-223.5 -105.5q-171 0 -260 148l115 69q51 -79 139 -79q64 0 112.5 46.5t55.5 125.5q-22 -40 -71 -62t-103 -22zM356 623q-57 0 -98 -42
t-41 -104q1 -65 40.5 -105t96.5 -40q61 0 101 42.5t39 110.5q-5 61 -42 99.5t-96 38.5z" />
    <glyph glyph-name="zero.numr" horiz-adv-x="815" 
d="M408 696q-149 0 -238.5 107t-89.5 284q0 178 88 285t235 107q152 4 243 -103.5t91 -288.5q0 -177 -90 -284t-239 -107zM588 1087q0 112 -48 177t-130 65h-2q-85 0 -133 -64.5t-48 -177.5q0 -110 49 -176t134 -67q82 2 130 67.5t48 175.5z" />
    <glyph glyph-name="one.numr" horiz-adv-x="450" 
d="M80 1389l147 65v-149l-147 -60v144zM371 1454v-752h-144v752h144z" />
    <glyph glyph-name="two.numr" horiz-adv-x="684" 
d="M94 840l279 237q50 42 67 68.5t17 64.5q0 51 -31.5 80t-87.5 29q-54 0 -85.5 -31t-31.5 -82q0 -20 2 -26h-143q-9 117 67 197.5t199 80.5q116 0 187 -69.5t71 -180.5q0 -65 -33.5 -120t-99.5 -113l-164 -137l285 2v-142l-498 -2v144z" />
    <glyph glyph-name="three.numr" horiz-adv-x="686" 
d="M606 948q0 -106 -78 -184q-77 -74 -186 -74q-116 0 -193.5 82t-68.5 197h143q-2 -6 -2 -27q0 -47 35 -80t86 -33t86 34t35 85q0 59 -43 96q-31 25 -78 25q-36 0 -61 -14l-62 112l141 144h-249v143h471v-127l-142 -139q66 -22 105 -72q61 -76 61 -168z" />
    <glyph glyph-name="four.numr" horiz-adv-x="749" 
d="M670 840l-95 2v-142h-145v142h-350v141l350 471h145v-473h95v-141zM430 981v238l-174 -236z" />
    <glyph glyph-name="five.numr" horiz-adv-x="698" 
d="M223 975q-6 -60 29.5 -99.5t95.5 -39.5q54 0 92.5 38t38.5 89q0 60 -38.5 97.5t-98.5 37.5q-35 0 -66.5 -17.5t-42.5 -42.5l-133 35l95 381h399v-143h-287l-24 -92q38 10 73 10q113 0 187.5 -77t74.5 -194q0 -108 -79 -186t-191 -78q-118 0 -196 82t-72 199h143z" />
    <glyph glyph-name="six.numr" horiz-adv-x="741" 
d="M657 973q0 -121 -79.5 -202t-206.5 -81q-142 0 -216.5 103.5t-74.5 275.5q0 167 84 283q84 112 239 112q85 0 152.5 -34t106.5 -95l-111 -75q-51 67 -145 67q-70 0 -116.5 -40.5t-60.5 -108.5q59 65 168 65q115 0 187.5 -78.5t72.5 -191.5zM506 961q0 65 -38 103t-99 38
q-58 0 -95.5 -38t-37.5 -103t37.5 -102.5t95.5 -37.5q59 0 98 38t39 102z" />
    <glyph glyph-name="seven.numr" horiz-adv-x="702" 
d="M623 1454v-149q-138 -102 -199 -230q-63 -129 -72 -211q-10 -92 -10 -162h-149q0 368 235 603h-348v149h543z" />
    <glyph glyph-name="eight.numr" horiz-adv-x="696" 
d="M80 915q0 56 27.5 105t74.5 78q-80 59 -80 151q0 87 69.5 151t178.5 64q106 0 174.5 -62.5t71.5 -148.5q0 -93 -80 -155q45 -30 72.5 -78t27.5 -102q0 -96 -72.5 -162.5t-195.5 -67.5q-123 0 -195.5 65.5t-72.5 161.5zM459 1251q0 32 -31 56t-80 24q-49 -1 -78.5 -25.5
t-31.5 -58.5q0 -34 30.5 -59t79.5 -25q53 1 84.5 26.5t26.5 61.5zM479 930q-5 40 -39.5 67t-91.5 27q-58 0 -92.5 -28t-36.5 -68q0 -45 35 -75t94 -30q61 0 97 31t34 76z" />
    <glyph glyph-name="nine.numr" horiz-adv-x="720" 
d="M334 913q-101 3 -178 74q-76 70 -76 191q0 122 82.5 205t197.5 77q92 -1 159.5 -55t92.5 -145q29 -110 29 -195q0 -167 -78.5 -270t-222.5 -103q-162 0 -252 146l115 67q48 -79 145 -76q60 5 104.5 49t51.5 115q-22 -37 -70 -58.5t-100 -21.5zM354 1327q-57 0 -97 -38.5
t-40 -98.5q0 -66 38 -107t95 -41q58 0 97.5 42t39.5 108q-5 59 -40 97t-93 38z" />
    <glyph glyph-name="registered.ss01" horiz-adv-x="1089" 
d="M1008 1020q0 -126 -62.5 -232.5t-168.5 -168.5t-230 -62q-192 0 -328.5 135.5t-136.5 327.5q0 189 136.5 324t328.5 135q93 0 178 -36.5t147 -98t99 -146.5t37 -178zM920 1018q0 156 -109.5 265.5t-263.5 109.5q-158 0 -266.5 -108.5t-108.5 -266.5q0 -160 107 -266.5
t268 -106.5q154 0 263.5 108.5t109.5 264.5zM635 985l76 -172h-99l-69 158h-47v-158h-86v412h86h53q72 5 113.5 -25t42.5 -90v-6v-10q-6 -82 -70 -109zM496 1049h71q23 1 32 11.5t9 33.5v2v8q-3 37 -59 37h-53v-92z" />
    <glyph glyph-name="ampersand.ss02" horiz-adv-x="1468" 
d="M1427 193v-193q-156 3 -212 22.5t-128 102.5l-4 4q-172 -152 -440 -152q-240 0 -386 118t-146 319q0 161 88 268q90 110 258 217q-78 99 -111 166t-33 139q0 131 94.5 221.5t243.5 90.5q145 0 234 -86q90 -84 90 -218q0 -90 -59 -172t-179 -170l326 -403q39 96 33 231
h194q3 -237 -84 -409l17 -19q59 -71 110 -75q14 -2 94 -2zM518 1202q0 -36 23 -77t86 -117q82 52 120.5 98t38.5 96q0 61 -36 96t-97 35t-98 -35t-37 -96zM950 291l-381 469q-135 -90 -194.5 -163.5t-59.5 -168.5q0 -84 49 -144.5t120.5 -88t154.5 -27.5q188 3 311 123z" />
    <glyph glyph-name="at.ss04" horiz-adv-x="1933" 
d="M1833 776q2 -151 -52 -280t-151 -204.5t-213 -72.5q-96 0 -160.5 48t-82.5 128q-36 -70 -119 -116t-181 -46q-126 0 -208 74.5t-82 194.5q0 127 89 202.5t238 75.5h269q6 37 6 70q0 170 -182 170q-185 0 -263 -162l-102 39q53 114 147.5 172.5t210.5 58.5
q147 0 228.5 -77t81.5 -217q0 -2 -4 -64l-35 -266q-2 -8 -2 -35q0 -73 40 -115.5t109 -42.5q87 0 156.5 66.5t106 171.5t36.5 225q2 132 -50.5 251.5t-142.5 205.5t-215.5 136t-263.5 48q-128 3 -252.5 -39t-226.5 -119.5t-180.5 -179t-120.5 -225.5t-39 -250
q-3 -144 52.5 -275t152.5 -226t234 -150t290 -53q157 0 305.5 54.5t264.5 156.5l69 -82q-131 -113 -304 -173.5t-353 -60.5q-175 -3 -331.5 60.5t-266 172t-172.5 258t-60 312.5q0 52 2 66q9 172 88.5 332t205 276.5t294.5 185.5t350 66q167 2 315 -56.5t253 -159
t164.5 -239t56.5 -291.5zM1171 678h-210q-131 0 -193.5 -47.5t-62.5 -132.5q0 -76 50.5 -116t135.5 -40q123 0 195 85.5t85 250.5z" />
    <glyph glyph-name="NULL" horiz-adv-x="0" 
 />
    <glyph glyph-name="CR" horiz-adv-x="557" 
 />
    </font>
</defs>
</svg>
