<svg xmlns="http://www.w3.org/2000/svg" viewBox="0 0 97.86 92.03"><path fill="#ff92ff" d="M44.48 78.9a5.23 5.23 0 01-3.44-1.29c-3.6-3.13-7.06-6.07-10.11-8.67l-.02-.01c-8.96-7.62-16.7-14.2-22.09-20.67C2.8 41.02 0 34.16 0 26.66A27.67 27.67 0 017.06 7.71 23.96 23.96 0 0124.86 0a22.42 22.42 0 0113.97 4.81 28.55 28.55 0 015.65 5.88 28.55 28.55 0 015.65-5.88A22.42 22.42 0 0164.11 0a23.96 23.96 0 0117.8 7.72 27.67 27.67 0 017.06 18.93c0 7.5-2.8 14.37-8.82 21.6-5.39 6.48-13.13 13.06-22.09 20.67-3.06 2.6-6.53 5.55-10.13 8.69a5.23 5.23 0 01-3.45 1.29zM24.85 5.2c-5.4 0 3.96 0 0 0z"/><path fill="#fff" d="M46.26 26.05v5.63h-2.27v-5.27a1.97 1.97 0 00-.45-1.39 1.6 1.6 0 00-1.23-.48 1.68 1.68 0 00-1.31.54 2.24 2.24 0 00-.49 1.55v5.05h-2.3V26.4a1.97 1.97 0 00-.44-1.36 1.54 1.54 0 00-1.2-.5 1.68 1.68 0 00-1.33.55 2.24 2.24 0 00-.49 1.56v5.04H32.4v-8.93h2.18l.09.81a2.83 2.83 0 012.5-1.08 3.54 3.54 0 011.76.42 2.72 2.72 0 011.13 1.2 2.56 2.56 0 011.1-1.2 3.5 3.5 0 011.77-.42 3.2 3.2 0 012.43.95 3.65 3.65 0 01.9 2.62zm12.41-3.3l-4.28 11.04a3.12 3.12 0 01-3.02 2.3 6.2 6.2 0 01-2.1-.43l.64-2.12a2.48 2.48 0 001.28.4 1.29 1.29 0 001.28-.99l.29-.75-3.82-9.45h2.48l2.43 6.45 2.38-6.45zm-27.75 23.5a4.7 4.7 0 01-1.22 3.4 4.22 4.22 0 01-3.17 1.27 4.08 4.08 0 01-1.83-.39 3 3 0 01-1.2-1l-.12 1.15h-2.13V37.24h2.3v5.58a3 3 0 011.26-1 4.27 4.27 0 011.73-.34 4.18 4.18 0 013.16 1.28 4.84 4.84 0 011.22 3.5zm-3.04 1.81a2.6 2.6 0 00.68-1.88 2.6 2.6 0 00-.68-1.88 2.35 2.35 0 00-1.78-.71 2.37 2.37 0 00-1.79.7 2.6 2.6 0 00-.68 1.89 2.6 2.6 0 00.68 1.88 2.37 2.37 0 001.79.71 2.35 2.35 0 001.77-.7zm12.49 2.62a4.63 4.63 0 01-.17-.9 2.92 2.92 0 01-2.57 1.14 4.23 4.23 0 01-2.6-.86 3.48 3.48 0 01-1.09-2.87v-5.44h2.36v4.97a2.05 2.05 0 00.56 1.66 1.97 1.97 0 001.27.45 2.19 2.19 0 001.4-.48 1.97 1.97 0 00.62-1.64v-4.96h2.36v7.28a7.3 7.3 0 00.18 1.65zm8.84-1.63a1.65 1.65 0 00.94-.23.76.76 0 00.35-.68q0-.65-.87-.86l-1.2-.32a4.06 4.06 0 01-1.96-1.01 2.27 2.27 0 01-.62-1.62 2.6 2.6 0 01.91-2.06 3.65 3.65 0 012.48-.79 3.98 3.98 0 012.29.63 2.58 2.58 0 011.12 1.74l-2.1.48a.97.97 0 00-.4-.7 1.39 1.39 0 00-.85-.25 1.33 1.33 0 00-.84.24.8.8 0 00-.31.68.69.69 0 00.24.53 1.98 1.98 0 00.77.36l1.17.31a3.89 3.89 0 011.88 1 2.3 2.3 0 01.64 1.64 2.44 2.44 0 01-.97 2.02 4.17 4.17 0 01-2.63.76 4.25 4.25 0 01-2.54-.68 2.66 2.66 0 01-1.1-1.86l2.15-.36a1 1 0 00.43.75 1.73 1.73 0 001.02.28zm20.7-7.3l-3.97 10.68a4.05 4.05 0 01-1.4 1.93 3.5 3.5 0 01-2.04.62 4.27 4.27 0 01-2.01-.46l.61-1.98a1.95 1.95 0 001.22.41 1.49 1.49 0 001.46-1.07l.12-.29-3.1-7.9h-1.72v7h-2.32v-7h-1.7v-1.94h1.7v-2.77h2.32v2.77h3.55l2.44 6.72 2.33-6.72z"/><path fill="#e5cbff" d="M58.44 86.06a2.04 2.04 0 01.53 1.76 3.14 3.14 0 01-1.13 1.8L55.2 91.9l-5.72-6.58 2.62-2.27a2.87 2.87 0 011.93-.81 2.18 2.18 0 011.66.8 2.27 2.27 0 01.56 1.14 2.04 2.04 0 01-.15 1.17 2.33 2.33 0 011.26-.01 2.2 2.2 0 011.08.7zm-7.22-.71L53 87.39l1.57-1.37a1.54 1.54 0 00.58-1 1.25 1.25 0 00-.33-.98 1.3 1.3 0 00-.95-.49 1.56 1.56 0 00-1.1.44zm6.12 1.44a1.28 1.28 0 00-.95-.5 1.57 1.57 0 00-1.08.45l-1.64 1.43 1.76 2.01 1.64-1.42a1.62 1.62 0 00.6-.98 1.2 1.2 0 00-.33-1zm8.78-6.04l.82.95-4.04 3.52-5.73-6.59 4.05-3.51.83.96-3.04 2.64 1.62 1.87 2.74-2.38.78.89-2.74 2.38 1.66 1.92zm6.14-6.45l-2.63 2.29.81 2.08-1.03.9-3.34-8.66 1.08-.94 8.11 4.5-1.06.93zm-1.03-.6l-3.5-1.99 1.46 3.76zm.6-7.8l1-.88 3.66 4.21a1.91 1.91 0 001.43.75 2.22 2.22 0 001.49-.61 2.2 2.2 0 00.79-1.4 1.88 1.88 0 00-.52-1.5l-3.66-4.22 1-.87 3.7 4.25a3.41 3.41 0 01.7 1.24 2.81 2.81 0 01.11 1.26 3.4 3.4 0 01-.42 1.18 4 4 0 01-.86 1.04 4 4 0 01-1.12.7 3.49 3.49 0 01-1.23.26 2.73 2.73 0 01-1.24-.28 3.45 3.45 0 01-1.14-.88zM85.35 55.8l-1.91 1.67 4.9 5.64-1.02.88-4.9-5.64-1.9 1.66-.83-.95 4.83-4.2zm2.35-3.71l4.19 1.53-.94-4.35 1.1-.95 1.18 5.85 2.32 2.67-1.02.88-2.32-2.67-5.65-1.96z"/></svg>