<?xml version="1.0" standalone="no"?>
<!DOCTYPE svg PUBLIC "-//W3C//DTD SVG 20010904//EN"
 "http://www.w3.org/TR/2001/REC-SVG-20010904/DTD/svg10.dtd">
<svg version="1.0" xmlns="http://www.w3.org/2000/svg"
 width="784.000000pt" height="784.000000pt" viewBox="0 0 784.000000 784.000000"
 preserveAspectRatio="xMidYMid meet">
<metadata>
Created by potrace 1.11, written by Peter Selinger 2001-2013
</metadata>
<g transform="translate(0.000000,784.000000) scale(0.100000,-0.100000)"
fill="#000000" stroke="none">
<path d="M1770 7589 c-789 -97 -1397 -609 -1660 -1398 -131 -395 -145 -883
-36 -1301 135 -517 450 -1002 1029 -1583 298 -298 590 -559 1357 -1212 245
-208 541 -462 659 -563 138 -119 233 -193 267 -209 116 -53 249 -52 360 2 28
14 109 75 180 136 71 61 370 317 664 568 858 731 1041 894 1364 1211 474 466
730 796 927 1195 390 792 315 1708 -195 2394 -451 605 -1215 888 -1956 725
-420 -93 -809 -352 -1114 -741 -27 -35 -52 -63 -55 -63 -3 1 -24 26 -46 57
-57 81 -281 310 -376 385 -252 198 -523 323 -820 378 -130 25 -425 35 -549 19z
m1301 -1805 c38 -11 67 -29 97 -60 l44 -43 30 35 c53 60 101 79 198 79 68 0
93 -5 125 -22 53 -28 89 -68 117 -128 22 -48 23 -59 23 -315 l0 -265 -90 0
-90 0 -5 245 c-4 173 -9 252 -18 267 -30 54 -145 72 -196 32 -49 -38 -51 -50
-56 -304 l-5 -240 -92 -3 -93 -3 0 236 c0 256 -3 272 -56 314 -19 15 -41 21
-79 21 -59 0 -94 -21 -123 -73 -14 -27 -17 -67 -20 -264 l-4 -233 -89 0 -89 0
0 360 0 360 84 0 84 0 6 -32 6 -32 28 27 c57 55 161 71 263 41z m1054 -21 c4
-10 45 -119 92 -243 47 -124 88 -231 92 -238 4 -8 46 92 102 242 l94 256 98 0
c75 0 98 -3 94 -12 -3 -7 -80 -206 -171 -443 -203 -523 -191 -497 -233 -539
-67 -67 -145 -87 -256 -66 -94 17 -93 15 -65 106 26 85 24 83 94 64 62 -18
108 5 134 65 11 26 20 55 20 64 0 10 -59 163 -130 340 -72 177 -139 344 -150
371 l-20 50 99 0 c85 0 100 -2 106 -17z m-2235 -1364 l0 -221 41 35 c87 75
235 86 354 28 113 -56 183 -168 192 -309 12 -177 -61 -313 -207 -381 -107 -50
-283 -28 -351 45 -28 30 -39 30 -39 0 0 -52 -6 -56 -96 -56 l-84 0 0 540 0
540 95 0 95 0 0 -221z m2840 -29 l0 -110 143 0 144 0 93 -257 c51 -142 96
-262 100 -266 4 -4 40 88 80 205 40 117 82 237 92 266 l19 52 100 0 c54 0 99
-1 99 -3 0 -7 -312 -845 -330 -883 -46 -105 -148 -174 -258 -174 -67 0 -149
16 -158 31 -6 11 36 159 45 159 3 -1 17 -7 31 -15 59 -34 137 -9 169 54 l20
39 -123 313 -123 314 -72 3 -71 3 0 -281 0 -280 -90 0 -90 0 0 280 0 280 -70
0 -70 0 0 80 0 80 70 0 70 0 0 110 0 110 90 0 90 0 0 -110z m-634 -125 c57
-28 94 -68 112 -122 11 -32 10 -33 -26 -42 -52 -14 -126 -30 -127 -28 -22 54
-74 79 -135 66 -39 -9 -60 -32 -60 -66 0 -38 32 -58 140 -88 111 -30 167 -64
208 -125 21 -30 23 -45 20 -107 -3 -62 -7 -76 -34 -110 -17 -21 -57 -51 -89
-68 -54 -27 -67 -30 -159 -30 -92 0 -106 3 -161 30 -67 34 -113 85 -121 137
l-6 35 81 13 c45 7 83 11 84 9 2 -2 11 -16 20 -31 47 -75 200 -54 200 28 0 40
-20 52 -141 88 -155 46 -213 95 -228 192 -15 104 53 202 168 240 67 22 186 12
254 -21z m-1186 -217 c0 -215 2 -236 20 -266 32 -52 76 -74 138 -69 56 4 91
24 126 71 20 26 21 43 24 262 l3 234 90 0 c63 0 91 -4 94 -12 3 -7 6 -169 7
-361 l3 -347 -92 0 c-82 0 -93 2 -93 18 0 9 -4 23 -9 31 -8 12 -16 9 -44 -15
-100 -89 -327 -57 -404 57 -50 74 -53 93 -53 370 l0 259 95 0 95 0 0 -232z"/>
<path d="M2017 4096 c-80 -29 -121 -96 -121 -197 0 -125 72 -199 194 -199 108
0 181 64 196 171 22 161 -119 278 -269 225z"/>
<path d="M7330 3682 l-34 -29 37 -173 c20 -95 35 -175 33 -178 -3 -2 -80 23
-172 57 l-167 61 -38 -34 -37 -34 221 -77 222 -77 43 -51 c24 -29 64 -75 90
-104 l47 -52 34 29 34 29 -91 103 -90 104 -41 205 c-23 112 -45 214 -49 227
l-7 22 -35 -28z"/>
<path d="M6585 3034 c-99 -86 -180 -160 -180 -163 0 -4 10 -19 23 -35 25 -33
15 -37 111 47 30 27 59 47 66 45 6 -2 89 -93 185 -203 95 -110 181 -209 191
-220 19 -19 19 -19 51 13 l32 32 -25 27 c-92 100 -359 414 -359 421 0 5 31 35
70 68 38 32 70 62 70 65 0 9 -40 59 -48 59 -4 0 -88 -70 -187 -156z"/>
<path d="M6134 2641 l-30 -27 134 -155 c186 -213 192 -222 192 -281 0 -57 -15
-91 -62 -135 -59 -57 -133 -69 -197 -32 -20 12 -103 99 -186 194 l-149 173
-28 -19 c-15 -11 -30 -24 -33 -29 -9 -14 300 -367 347 -396 111 -70 272 -23
356 104 31 46 37 65 40 122 3 52 0 77 -16 111 -16 36 -311 389 -331 396 -3 1
-20 -10 -37 -26z"/>
<path d="M5339 1950 l-37 -30 35 -88 c19 -48 78 -201 131 -339 l97 -253 33 33
33 33 -32 83 c-17 45 -30 83 -28 85 2 1 52 44 111 95 l107 92 73 -42 c40 -23
76 -43 79 -45 3 -2 20 12 38 30 l32 33 -63 35 c-35 20 -174 97 -309 172 -136
75 -251 136 -255 136 -5 -1 -25 -14 -45 -30z m236 -167 c74 -43 135 -80 135
-84 0 -10 -157 -149 -169 -149 -6 0 -11 5 -11 10 0 6 -25 72 -55 148 -30 76
-55 141 -55 145 0 16 26 4 155 -70z"/>
<path d="M4748 1438 l-156 -135 186 -215 c103 -118 204 -233 224 -257 l37 -44
137 119 c75 66 145 126 156 135 20 16 20 16 -8 48 l-29 32 -115 -101 c-63 -55
-120 -100 -126 -100 -10 0 -86 82 -132 141 -11 14 2 29 97 112 l109 95 -28 27
-28 27 -107 -93 -107 -94 -55 60 c-58 65 -88 104 -82 108 2 2 56 49 121 104
l116 101 -27 32 -27 33 -156 -135z"/>
<path d="M4244 986 c-49 -22 -265 -215 -257 -230 5 -7 104 -123 222 -259 l214
-245 116 100 c124 108 167 160 177 215 19 99 -65 193 -172 193 l-51 0 1 63 c1
54 -3 70 -27 105 -16 22 -44 48 -62 56 -40 19 -119 20 -161 2z m111 -80 c36
-16 75 -67 75 -101 0 -37 -34 -85 -104 -145 -38 -33 -74 -60 -81 -60 -14 0
-140 148 -140 165 0 17 120 123 160 141 39 17 48 17 90 0z m198 -217 c68 -35
93 -98 62 -155 -10 -18 -53 -63 -97 -100 -67 -56 -81 -65 -92 -53 -92 102
-138 161 -130 167 5 5 41 36 80 70 93 81 130 95 177 71z"/>
</g>
</svg>
